<?xml version="1.0" encoding="utf-8"?>
<!-- Generator: Adobe Illustrator 16.0.0, SVG Export Plug-In . SVG Version: 6.00 Build 0)  -->
<!DOCTYPE svg PUBLIC "-//W3C//DTD SVG 1.1//EN" "http://www.w3.org/Graphics/SVG/1.1/DTD/svg11.dtd">
<svg version="1.1" id="Design" xmlns="http://www.w3.org/2000/svg" xmlns:xlink="http://www.w3.org/1999/xlink" x="0px" y="0px"
	 width="628px" height="354px" viewBox="0 0 628 354" enable-background="new 0 0 628 354" xml:space="preserve">
<path fill="#FFFFFF" d="M241.254,278.188c0.714-0.477,1.421-0.711,2.135-0.711c0.87,0,1.619,0.314,2.251,0.947
	c0.632,0.637,0.951,1.383,0.951,2.252c0,0.87-0.318,1.604-0.951,2.193c-0.633,0.59-1.382,0.889-2.251,0.889
	c-0.714,0-1.421-0.236-2.135-0.711h-47.536v-46.824c0-1.902,0.097-3.797,0.295-5.691c0.195-1.897,0.594-3.758,1.184-5.573
	c0.594-1.817,1.463-3.634,2.608-5.454c1.146-1.816,2.67-3.634,4.565-5.454l28.453-25.251c3.001-2.765,5.292-6.005,6.875-9.72
	c1.583-3.716,2.372-7.667,2.372-11.855v-29.638c0-2.844-0.337-5.593-1.009-8.24s-1.797-4.996-3.377-7.054
	c-1.583-2.057-3.676-3.692-6.285-4.918c-2.608-1.227-5.85-1.84-9.724-1.84c-3.633,0-6.716,0.535-9.246,1.6
	c-2.528,1.071-4.604,2.512-6.22,4.327c-1.625,1.821-2.829,3.934-3.618,6.345c-0.792,2.41-1.229,4.959-1.304,7.646
	c0.24,0.235,0.412,0.555,0.536,0.946c0.117,0.396,0.175,0.792,0.175,1.188c0,0.87-0.314,1.619-0.947,2.252
	c-0.636,0.636-1.385,0.947-2.251,0.947c-0.873,0-1.603-0.312-2.193-0.947c-0.594-0.633-0.889-1.382-0.889-2.252
	c0-0.396,0.059-0.791,0.175-1.188c0.12-0.392,0.295-0.711,0.536-0.946c0.155-3.32,0.729-6.463,1.719-9.425
	c0.986-2.963,2.466-5.591,4.445-7.885c1.976-2.293,4.523-4.11,7.647-5.453c3.121-1.344,6.937-2.015,11.437-2.015
	c4.821,0,8.834,0.749,12.037,2.251c3.198,1.502,5.788,3.521,7.764,6.048c1.976,2.531,3.38,5.415,4.208,8.652
	c0.831,3.245,1.246,6.561,1.246,9.96v29.638c0,4.029-0.691,8.16-2.073,12.386c-1.385,4.231-4.169,8.285-8.361,12.154l-28.69,25.25
	c-2.767,2.45-4.623,5.258-5.571,8.418c-0.947,3.159-1.499,6.756-1.658,10.791v41.965H241.254z"/>
<path fill="#FFFFFF" d="M314.283,258.508c0,3.479-0.432,6.836-1.305,10.077c-0.869,3.241-2.291,6.104-4.266,8.595
	c-1.976,2.491-4.584,4.486-7.826,5.989c-3.241,1.499-7.192,2.251-11.854,2.251c-4.821,0-8.85-0.752-12.091-2.251
	c-3.241-1.503-5.831-3.498-7.764-5.989c-1.938-2.488-3.319-5.354-4.15-8.595c-0.83-3.241-1.246-6.601-1.246-10.077V138.297
	c0-3.396,0.416-6.758,1.246-10.076c0.831-3.32,2.212-6.286,4.15-8.894c1.933-2.609,4.522-4.698,7.764-6.28
	c3.241-1.581,7.271-2.372,12.091-2.372c4.663,0,8.614,0.791,11.854,2.372c3.242,1.582,5.85,3.671,7.826,6.28
	c1.976,2.607,3.397,5.573,4.266,8.894c0.873,3.318,1.305,6.68,1.305,10.076V258.508z M268.641,258.508
	c0,2.846,0.338,5.594,1.009,8.241s1.794,5.019,3.378,7.11c1.58,2.094,3.675,3.754,6.284,4.979c2.608,1.228,5.847,1.837,9.72,1.837
	c3.871,0,7.115-0.609,9.724-1.837c2.605-1.226,4.701-2.887,6.281-4.979c1.58-2.092,2.709-4.463,3.381-7.11
	c0.671-2.647,1.009-5.396,1.009-8.241V138.297c0-2.767-0.338-5.512-1.009-8.237c-0.672-2.729-1.801-5.159-3.381-7.293
	c-1.58-2.136-3.676-3.871-6.281-5.217c-2.608-1.344-5.853-2.016-9.724-2.016c-3.873,0-7.111,0.672-9.72,2.016
	c-2.609,1.346-4.705,3.081-6.284,5.217c-1.584,2.134-2.707,4.564-3.378,7.293c-0.671,2.726-1.009,5.471-1.009,8.237V258.508z"/>
<g>
	<g>
		<linearGradient id="SVGID_1_" gradientUnits="userSpaceOnUse" x1="327.8154" y1="259.8525" x2="403.9126" y2="128.0484">
			<stop  offset="0" style="stop-color:#FFFFFF"/>
			<stop  offset="0.0749" style="stop-color:#FCFCFE"/>
			<stop  offset="0.1197" style="stop-color:#F4F4F9"/>
			<stop  offset="0.1566" style="stop-color:#E6E6F1"/>
			<stop  offset="0.1893" style="stop-color:#D2D2E7"/>
			<stop  offset="0.2191" style="stop-color:#B8B7D8"/>
			<stop  offset="0.2469" style="stop-color:#9797C7"/>
			<stop  offset="0.2731" style="stop-color:#7171B2"/>
			<stop  offset="0.2973" style="stop-color:#46459B"/>
			<stop  offset="0.3144" style="stop-color:#232288"/>
			<stop  offset="0.5045" style="stop-color:#E3007E"/>
			<stop  offset="0.6" style="stop-color:#E51F1F"/>
			<stop  offset="0.7303" style="stop-color:#FEED00"/>
			<stop  offset="0.7323" style="stop-color:#FEEE09"/>
			<stop  offset="0.7432" style="stop-color:#FEF137"/>
			<stop  offset="0.7555" style="stop-color:#FEF462"/>
			<stop  offset="0.7686" style="stop-color:#FFF788"/>
			<stop  offset="0.7829" style="stop-color:#FFF9A8"/>
			<stop  offset="0.7988" style="stop-color:#FFFBC4"/>
			<stop  offset="0.8166" style="stop-color:#FFFCDA"/>
			<stop  offset="0.8375" style="stop-color:#FFFEEB"/>
			<stop  offset="0.8633" style="stop-color:#FFFEF6"/>
			<stop  offset="0.8995" style="stop-color:#FFFFFD"/>
			<stop  offset="1" style="stop-color:#FFFFFF"/>
		</linearGradient>
		<path fill="url(#SVGID_1_)" d="M375.459,280.318c0.471,0.637,0.707,1.306,0.707,2.02c0,0.869-0.314,1.6-0.947,2.193
			c-0.632,0.591-1.386,0.889-2.252,0.889c-0.869,0-1.599-0.298-2.191-0.889c-0.594-0.594-0.891-1.324-0.891-2.193
			c0-0.714,0.233-1.383,0.71-2.02V119.447l-39.356,39.001c0,0.873-0.295,1.621-0.889,2.254c-0.595,0.633-1.328,0.951-2.193,0.951
			c-0.873,0-1.623-0.318-2.256-0.951c-0.631-0.633-0.949-1.381-0.949-2.254c0-0.707,0.281-1.362,0.833-1.953
			c0.552-0.594,1.263-0.968,2.135-1.129l41.966-41.847c0-0.71,0.295-1.362,0.891-1.956c0.593-0.595,1.322-0.889,2.191-0.889
			c0.866,0,1.62,0.314,2.252,0.947c0.633,0.633,0.947,1.385,0.947,2.255c0,0.71-0.236,1.421-0.707,2.131V280.318z"/>
		<linearGradient id="SVGID_2_" gradientUnits="userSpaceOnUse" x1="383.3584" y1="267.2461" x2="463.1183" y2="129.0979">
			<stop  offset="0" style="stop-color:#FFFFFF"/>
			<stop  offset="0.0749" style="stop-color:#FCFCFE"/>
			<stop  offset="0.1197" style="stop-color:#F4F4F9"/>
			<stop  offset="0.1566" style="stop-color:#E6E6F1"/>
			<stop  offset="0.1893" style="stop-color:#D2D2E7"/>
			<stop  offset="0.2191" style="stop-color:#B8B7D8"/>
			<stop  offset="0.2469" style="stop-color:#9797C7"/>
			<stop  offset="0.2731" style="stop-color:#7171B2"/>
			<stop  offset="0.2973" style="stop-color:#46459B"/>
			<stop  offset="0.3144" style="stop-color:#232288"/>
			<stop  offset="0.5045" style="stop-color:#E3007E"/>
			<stop  offset="0.6" style="stop-color:#E51F1F"/>
			<stop  offset="0.7303" style="stop-color:#FEED00"/>
			<stop  offset="0.7323" style="stop-color:#FEEE09"/>
			<stop  offset="0.7432" style="stop-color:#FEF137"/>
			<stop  offset="0.7555" style="stop-color:#FEF462"/>
			<stop  offset="0.7686" style="stop-color:#FFF788"/>
			<stop  offset="0.7829" style="stop-color:#FFF9A8"/>
			<stop  offset="0.7988" style="stop-color:#FFFBC4"/>
			<stop  offset="0.8166" style="stop-color:#FFFCDA"/>
			<stop  offset="0.8375" style="stop-color:#FFFEEB"/>
			<stop  offset="0.8633" style="stop-color:#FFFEF6"/>
			<stop  offset="0.8995" style="stop-color:#FFFFFD"/>
			<stop  offset="1" style="stop-color:#FFFFFF"/>
		</linearGradient>
		<path fill="url(#SVGID_2_)" d="M448.483,258.508c0,3.479-0.436,6.836-1.309,10.077c-0.869,3.241-2.291,6.104-4.263,8.595
			c-1.979,2.491-4.587,4.486-7.825,5.989c-3.242,1.499-7.193,2.251-11.857,2.251c-4.821,0-8.852-0.752-12.089-2.251
			c-3.24-1.503-5.83-3.498-7.768-5.989c-1.938-2.488-3.318-5.354-4.148-8.595c-0.828-3.241-1.242-6.601-1.242-10.077v-64.849v-2.604
			v-52.758c0-3.396,0.414-6.758,1.242-10.076c0.83-3.32,2.211-6.286,4.148-8.894c1.938-2.609,4.525-4.698,7.768-6.28
			c3.238-1.581,7.268-2.372,12.089-2.372c4.506,0,8.317,0.71,11.442,2.135c3.122,1.42,5.671,3.318,7.647,5.687
			c1.972,2.376,3.455,5.08,4.444,8.124s1.562,6.224,1.721,9.542c0.232,0.236,0.415,0.555,0.531,0.95
			c0.121,0.396,0.18,0.789,0.18,1.185c0,0.873-0.296,1.619-0.89,2.252c-0.594,0.633-1.324,0.95-2.192,0.95
			c-0.87,0-1.623-0.317-2.252-0.95c-0.637-0.633-0.947-1.379-0.947-2.252c0-0.788,0.233-1.425,0.711-1.898
			c-0.163-2.608-0.617-5.154-1.366-7.643c-0.75-2.492-1.937-4.725-3.553-6.7c-1.622-1.976-3.699-3.56-6.227-4.744
			c-2.53-1.184-5.612-1.777-9.25-1.777c-3.87,0-7.111,0.672-9.72,2.016c-2.607,1.346-4.701,3.081-6.281,5.217
			c-1.582,2.134-2.709,4.564-3.379,7.293c-0.672,2.726-1.007,5.471-1.007,8.237v34.498c1.976-3.395,4.64-6.106,8-8.117
			c3.361-2.019,7.488-3.024,12.387-3.024c4.666,0,8.617,0.788,11.858,2.368c3.238,1.583,5.846,3.676,7.825,6.285
			c1.972,2.608,3.394,5.569,4.263,8.893c0.873,3.315,1.308,6.676,1.308,10.077V258.508L448.483,258.508z M402.841,258.271
			c0,2.846,0.334,5.611,1.007,8.299c0.67,2.686,1.797,5.08,3.379,7.17c1.58,2.096,3.674,3.775,6.281,5.042
			c2.608,1.266,5.85,1.895,9.72,1.895c3.875,0,7.115-0.629,9.725-1.895c2.607-1.267,4.701-2.946,6.284-5.042
			c1.58-2.09,2.706-4.484,3.377-7.17c0.671-2.688,1.009-5.453,1.009-8.299v-68.644c0-2.844-0.338-5.631-1.009-8.356
			c-0.671-2.729-1.797-5.194-3.377-7.41c-1.583-2.21-3.677-3.988-6.284-5.335c-2.609-1.342-5.85-2.014-9.725-2.014
			c-3.87,0-7.111,0.672-9.72,2.014c-2.607,1.347-4.701,3.125-6.281,5.335c-1.582,2.215-2.709,4.682-3.379,7.41
			c-0.672,2.727-1.007,5.514-1.007,8.356V258.271z"/>
	</g>
</g>
<g>
	<path fill="#FFFFFF" d="M46.333,340.165H43.23v-8.519h-8.717v8.519h-3.089v-18.9h3.089v7.73h8.717v-7.73h3.102L46.333,340.165
		L46.333,340.165z"/>
	<path fill="#FFFFFF" d="M89.521,340.165l-1.888-5.249h-7.225l-1.85,5.249h-3.26l7.072-18.979h3.362l7.072,18.979H89.521z
		 M86.822,332.256l-1.775-5.147c-0.126-0.349-0.309-0.888-0.535-1.63c-0.227-0.742-0.386-1.288-0.471-1.632
		c-0.23,1.062-0.574,2.224-1.022,3.48l-1.707,4.929H86.822z"/>
	<path fill="#FFFFFF" d="M134.304,326.98c0,1.973-0.646,3.484-1.943,4.534c-1.292,1.054-3.131,1.577-5.519,1.577h-1.963v7.072
		h-3.095v-18.9h5.444c2.365,0,4.133,0.479,5.308,1.446C133.716,323.678,134.304,325.1,134.304,326.98z M124.879,330.493h1.638
		c1.586,0,2.749-0.274,3.494-0.827c0.74-0.551,1.11-1.414,1.11-2.585c0-1.087-0.331-1.897-0.993-2.431
		c-0.667-0.535-1.7-0.805-3.104-0.805h-2.145V330.493z"/>
	<path fill="#FFFFFF" d="M177.081,326.98c0,1.973-0.648,3.484-1.943,4.534c-1.291,1.054-3.134,1.577-5.519,1.577h-1.966v7.072
		h-3.092v-18.9h5.441c2.365,0,4.137,0.479,5.312,1.446C176.49,323.678,177.081,325.1,177.081,326.98z M167.653,330.493h1.641
		c1.587,0,2.752-0.274,3.492-0.827c0.739-0.551,1.109-1.414,1.109-2.585c0-1.087-0.331-1.897-0.993-2.431
		c-0.665-0.535-1.7-0.805-3.102-0.805h-2.147V330.493z"/>
	<path fill="#FFFFFF" d="M212.675,329.888l4.478-8.623h3.361l-6.297,11.568v7.332h-3.105v-7.228l-6.268-11.674h3.361
		L212.675,329.888z"/>
	<path fill="#FFFFFF" d="M298.603,340.165h-3.786l-9.299-15.063h-0.104l0.062,0.842c0.123,1.603,0.185,3.067,0.185,4.398v9.823
		h-2.807v-18.9h3.75l9.269,14.984h0.082c-0.019-0.197-0.055-0.921-0.104-2.167c-0.052-1.245-0.082-2.216-0.082-2.916v-9.901h2.833
		L298.603,340.165L298.603,340.165z"/>
	<path fill="#FFFFFF" d="M340.773,340.165H330.08v-18.9h10.693v2.608h-7.605v5.146h7.125v2.588h-7.125v5.934h7.605V340.165
		L340.773,340.165z"/>
	<path fill="#FFFFFF" d="M388.787,340.165h-3.361l-3.212-11.273c-0.136-0.49-0.308-1.2-0.516-2.126
		c-0.205-0.927-0.331-1.571-0.374-1.933c-0.088,0.552-0.227,1.266-0.422,2.147c-0.194,0.876-0.354,1.53-0.482,1.963l-3.131,11.222
		h-3.361l-2.447-9.463l-2.479-9.438h3.15l2.705,11.015c0.423,1.769,0.725,3.329,0.908,4.682c0.092-0.732,0.234-1.551,0.422-2.458
		c0.191-0.902,0.364-1.637,0.52-2.197l3.076-11.04h3.066l3.156,11.096c0.301,1.021,0.62,2.557,0.953,4.601
		c0.13-1.232,0.441-2.804,0.936-4.704l2.688-10.991h3.128L388.787,340.165z"/>
	<path fill="#FFFFFF" d="M461.574,329.888l4.474-8.623h3.361l-6.297,11.568v7.332h-3.105v-7.228l-6.271-11.674h3.36L461.574,329.888
		z"/>
	<path fill="#FFFFFF" d="M509.082,340.165h-10.697v-18.9h10.697v2.608h-7.604v5.146h7.127v2.588h-7.127v5.934h7.604V340.165z"/>
	<path fill="#FFFFFF" d="M551.382,340.165l-1.892-5.249h-7.229l-1.849,5.249h-3.254l7.068-18.979h3.362l7.076,18.979H551.382z
		 M548.676,332.256l-1.771-5.147c-0.129-0.349-0.31-0.888-0.535-1.63c-0.227-0.742-0.386-1.288-0.471-1.632
		c-0.233,1.062-0.578,2.224-1.025,3.48l-1.704,4.929H548.676z"/>
	<path fill="#FFFFFF" d="M586.731,332.616v7.549h-3.088v-18.9h5.341c2.437,0,4.243,0.453,5.418,1.367
		c1.168,0.917,1.755,2.292,1.755,4.138c0,2.354-1.223,4.033-3.672,5.033l5.343,8.362h-3.521l-4.521-7.549H586.731z M586.731,330.056
		h2.146c1.444,0,2.485-0.266,3.131-0.805c0.646-0.531,0.97-1.323,0.97-2.377c0-1.067-0.351-1.837-1.048-2.3
		c-0.698-0.469-1.749-0.701-3.153-0.701h-2.045V330.056z"/>
</g>
<g>
	<path fill="#FFFFFF" d="M53.572,134.648c0.521-0.441,1.346-0.457,1.722-0.007c0.015,0.018,0.029,0.035,0.044,0.053
		c0.421,0.504,0.242,1.285-0.275,1.723c-8.274,6.994-16.333,14.376-24.152,22.145c-0.519,0.515-1.292,0.604-1.756,0.141
		c-0.016-0.017-0.032-0.032-0.048-0.048c-0.415-0.415-0.348-1.215,0.174-1.733C37.145,149.107,45.25,141.684,53.572,134.648z
		 M36.573,115.883c0.586-0.496,1.386-0.539,1.808-0.037c0.015,0.018,0.03,0.035,0.045,0.053c0.399,0.476,0.224,1.256-0.358,1.75
		c-8.33,7.07-16.453,14.511-24.347,22.322c-0.552,0.546-1.352,0.661-1.79,0.221c-0.017-0.017-0.033-0.033-0.049-0.049
		c-0.462-0.465-0.342-1.266,0.213-1.816C20.031,130.474,28.198,122.992,36.573,115.883z M43.181,125.037
		c0.57-0.485,1.38-0.493,1.781-0.018c0.015,0.018,0.029,0.035,0.044,0.053c0.401,0.475,0.263,1.27-0.304,1.754
		c-7.658,6.527-15.136,13.378-22.416,20.551c-0.539,0.53-1.35,0.607-1.789,0.165c-0.016-0.016-0.032-0.032-0.048-0.048
		c-0.438-0.441-0.353-1.256,0.189-1.79C27.96,138.491,35.48,131.602,43.181,125.037z"/>
	<path fill="#FFFFFF" d="M77.741,99.089c0.605-0.416,1.382-0.362,1.751,0.181c0.007,0.009,0.013,0.019,0.02,0.027
		c0.35,0.516,0.14,1.285-0.462,1.699c-4.244,2.921-8.447,5.93-12.604,9.025c2.855,3.844,5.709,7.688,8.564,11.53
		c0.39,0.526,0.206,1.267-0.36,1.69c-0.01,0.009-0.021,0.017-0.032,0.024c-0.565,0.424-1.327,0.394-1.722-0.13
		c-2.879-3.825-5.759-7.649-8.639-11.475c-4.142,3.127-8.239,6.342-12.288,9.644c-0.574,0.469-1.379,0.46-1.773-0.021
		c-0.007-0.009-0.015-0.018-0.022-0.026c-0.416-0.508-0.242-1.275,0.335-1.746c4.072-3.32,8.191-6.553,12.356-9.697
		c-2.464-3.272-4.929-6.546-7.394-9.819c-0.395-0.523-0.178-1.293,0.432-1.751c0.011-0.009,0.022-0.017,0.034-0.025
		c0.611-0.459,1.408-0.449,1.799,0.078c2.443,3.289,4.886,6.578,7.329,9.867C69.247,105.051,73.473,102.026,77.741,99.089z"/>
	<path fill="#FFFFFF" d="M111.744,77.748c0.634-0.352,1.413-0.189,1.712,0.356c0.011,0.021,0.021,0.04,0.033,0.061
		c0.299,0.545,0.023,1.288-0.608,1.638C103.47,85.02,94.218,90.629,85.149,96.63c-0.607,0.402-1.399,0.308-1.744-0.21
		c-0.013-0.019-0.025-0.038-0.038-0.057c-0.345-0.518-0.124-1.289,0.488-1.692C92.975,88.635,102.279,82.994,111.744,77.748z"/>
	<path fill="#FFFFFF" d="M145.817,55.387c0.667-0.29,1.428-0.052,1.673,0.52c0.009,0.021,0.019,0.042,0.028,0.063
		c0.245,0.57-0.103,1.284-0.766,1.571c-2.429,1.054-4.85,2.132-7.263,3.233c1.47,2.252,3.03,4.234,4.637,5.973
		c0.686,0.75,1.392,1.455,2.117,2.113c0.487-2.072,0.785-4.13,0.857-6.234c0.032-0.617,0.613-1.174,1.279-1.237
		c0.029,0,0.058,0,0.087,0.001c0.346,0,0.67,0.048,0.889,0.255c0.282,0.254,0.391,0.507,0.37,0.855
		c-0.09,2.785-0.568,5.516-1.333,8.2c1.994,1.606,4.087,2.911,6.256,3.967c0.579,0.276,0.747,0.956,0.477,1.487
		c-0.197,0.311-0.436,0.527-0.8,0.648c-0.328,0.105-0.685,0.147-0.984-0.06c-2.01-0.966-3.914-2.12-5.797-3.47
		c-0.515,1.406-1.105,2.813-1.771,4.222c-0.124,0.284-0.345,0.539-0.743,0.686c-0.328,0.114-0.631,0.102-0.943-0.019
		c-0.016-0.006-0.033-0.011-0.049-0.016c-0.574-0.228-0.832-0.868-0.586-1.44c0.802-1.668,1.504-3.396,2.027-5.075
		c-1.125-0.967-2.199-1.997-3.284-3.132c-1.839-1.931-3.55-4.104-5.188-6.581c-6.809,3.163-13.55,6.518-20.216,10.063
		c-0.643,0.342-1.422,0.174-1.716-0.375c-0.011-0.021-0.021-0.04-0.033-0.061c-0.293-0.548-0.001-1.294,0.646-1.638
		c2.466-1.313,4.942-2.598,7.428-3.857c-0.52-1.026-1.04-2.053-1.56-3.08c-2.117,1.072-4.227,2.164-6.329,3.274
		c-0.652,0.345-1.438,0.177-1.714-0.342c-0.011-0.021-0.022-0.041-0.033-0.062c-0.308-0.578,0.011-1.296,0.667-1.643
		c2.114-1.116,4.235-2.214,6.364-3.292c-0.135-0.267-0.271-0.534-0.406-0.801c-0.282-0.555,0.038-1.298,0.702-1.632
		c0.013-0.006,0.025-0.012,0.037-0.019c0.666-0.335,1.45-0.146,1.728,0.41c0.133,0.268,0.267,0.536,0.4,0.804
		c2.146-1.07,4.299-2.121,6.459-3.153c0.629-0.301,1.43-0.145,1.71,0.448c0.01,0.021,0.02,0.041,0.029,0.063
		c0.251,0.53-0.117,1.278-0.743,1.576c-2.148,1.026-4.29,2.072-6.424,3.137c0.513,1.029,1.027,2.061,1.54,3.09
		c3.375-1.683,6.769-3.318,10.179-4.905c-1.042-1.761-2.06-3.649-3.008-5.684c-0.263-0.563,0.077-1.293,0.75-1.604
		c0.025-0.012,0.05-0.023,0.075-0.034c0.635-0.295,1.413-0.081,1.694,0.436c0.95,2.071,1.955,3.967,2.986,5.734
		C140.743,57.618,143.275,56.489,145.817,55.387z M135.082,66.027c0.687-0.326,1.413-0.096,1.678,0.466
		c0.005,0.011,0.01,0.021,0.015,0.031c0.279,0.595-0.018,1.27-0.7,1.592c-4.034,1.915-8.043,3.899-12.027,5.952
		c0.158,1.382,0.321,2.762,0.488,4.141c1.45-0.753,2.903-1.498,4.36-2.232c-0.295-0.586-0.591-1.172-0.886-1.758
		c-0.281-0.555,0.019-1.286,0.659-1.607c0.024-0.012,0.047-0.023,0.071-0.035c0.676-0.339,1.405-0.121,1.681,0.436
		c0.292,0.588,0.583,1.176,0.875,1.764c1.92-0.953,3.846-1.891,5.777-2.813c0.675-0.322,1.396-0.091,1.661,0.472
		c0.005,0.011,0.01,0.021,0.015,0.031c0.266,0.563-0.008,1.265-0.68,1.585c-1.92,0.916-3.835,1.849-5.745,2.796
		c0.327,0.66,0.655,1.319,0.982,1.979c1.919-1.312,3.85-2.608,5.792-3.888c0.555-0.379,1.367-0.304,1.723,0.178
		c0.015,0.031,0.03,0.063,0.044,0.094c0.37,0.512,0.163,1.258-0.403,1.604c-2.045,1.364-4.078,2.747-6.097,4.147
		c0.537,1.082,1.075,2.165,1.612,3.247c0.276,0.557,0.025,1.261-0.626,1.586c-0.022,0.011-0.046,0.022-0.068,0.034
		c-0.617,0.309-1.364,0.105-1.645-0.449c-0.487-0.967-0.975-1.932-1.462-2.898c-2.229,1.551-4.443,3.124-6.639,4.719
		c-0.533,0.399-1.31,0.344-1.705-0.148c-0.011-0.021-0.021-0.041-0.033-0.062c-0.396-0.493-0.261-1.231,0.311-1.653
		c2.313-1.685,4.644-3.346,6.993-4.982c-0.389-0.771-0.777-1.541-1.166-2.313c-2.009,1.015-4.012,2.046-6.008,3.096
		c-0.383,0.201-0.812,0.231-1.149,0.098c-0.389-0.146-0.585-0.433-0.659-0.822c-0.214-1.672-0.421-3.345-0.623-5.02
		c-0.637,0.334-1.272,0.669-1.908,1.006c-0.6,0.318-1.391,0.194-1.701-0.386c-0.005-0.01-0.011-0.02-0.016-0.03
		c-0.293-0.547,0.03-1.308,0.633-1.627c0.899-0.478,1.799-0.951,2.701-1.421c-0.047-0.495-0.093-0.99-0.138-1.485
		c-0.057-0.633,0.445-1.244,1.186-1.391c0.012-0.006,0.023-0.013,0.036-0.019c0.688-0.16,1.324,0.291,1.397,0.874
		c0.028,0.231,0.057,0.463,0.085,0.693C127.52,69.688,131.29,67.827,135.082,66.027z M144.111,53.191
		c0.262,0.602-0.102,1.287-0.769,1.581c-0.024,0.011-0.049,0.021-0.074,0.032c-0.667,0.293-1.419,0.1-1.686-0.501
		c-0.416-0.937-0.831-1.873-1.247-2.81c-0.267-0.6,0.1-1.291,0.776-1.589c0.025-0.011,0.05-0.021,0.075-0.032
		c0.677-0.298,1.434-0.1,1.696,0.502C143.292,51.313,143.702,52.253,144.111,53.191z"/>
	<path fill="#FFFFFF" d="M162.007,72.429c-0.072,0.626-0.698,1.108-1.368,1.087c-0.028-0.001-0.056-0.002-0.083-0.002
		c-0.669-0.021-1.197-0.587-1.056-1.244c0.473-3.377,0.984-6.758,1.535-10.141c0.097-0.598,0.735-1.112,1.432-1.056
		c0.024-0.009,0.048-0.019,0.073-0.028c0.697,0.059,1.204,0.602,1.081,1.243C163.043,65.672,162.506,69.052,162.007,72.429z
		 M155.063,49.01c0.246,0.608-0.135,1.283-0.808,1.557c-0.025,0.011-0.05,0.021-0.075,0.03c-0.71,0.288-1.417,0.059-1.667-0.549
		c-0.534-1.299-1.069-2.597-1.603-3.896c-0.236-0.575,0.098-1.272,0.82-1.566c0.025-0.01,0.05-0.02,0.076-0.03
		c0.684-0.278,1.448-0.027,1.68,0.548C154.011,46.405,154.537,47.708,155.063,49.01z M158.63,57.847
		c0.246,0.608-0.122,1.278-0.78,1.546c-0.024,0.011-0.049,0.02-0.073,0.03c-0.694,0.281-1.39,0.046-1.64-0.562
		c-0.525-1.277-1.051-2.555-1.576-3.832c-0.237-0.574,0.085-1.267,0.792-1.554c0.024-0.011,0.049-0.021,0.074-0.03
		c0.669-0.271,1.42-0.017,1.652,0.56C157.596,55.285,158.113,56.566,158.63,57.847z M169.481,58.514
		c1.096,2.908,1.807,5.922,1.195,9.036c-0.103,0.482-0.214,1.042-0.361,1.617c-0.127,0.308-0.301,0.597-0.608,0.753
		c-0.307,0.155-0.688,0.228-1.011,0.132c-0.028-0.001-0.056-0.003-0.083-0.004c-0.6-0.174-0.947-0.743-0.779-1.364
		c0.359-1.29,0.522-2.462,0.47-3.775c-0.082-1.816-0.627-3.679-1.308-5.452c-0.372-0.968-0.743-1.935-1.114-2.902
		c-0.223-0.58,0.108-1.261,0.809-1.527c0.025-0.009,0.049-0.019,0.074-0.028c0.665-0.252,1.401,0.025,1.62,0.606
		C168.751,56.574,169.117,57.544,169.481,58.514z M180.984,36.146c0.733-0.239,1.433,0.079,1.625,0.671
		c0.003,0.011,0.007,0.021,0.01,0.032c0.192,0.591-0.187,1.258-0.915,1.496c-5.587,1.824-11.145,3.769-16.668,5.83
		c0.02,0.054,0.04,0.107,0.06,0.161c0.289,2.35,0.585,4.697,0.891,7.043c4.557-1.722,9.137-3.36,13.738-4.917
		c0.565-0.191,1.037-0.531,1.331-1.031c0.294-0.498,0.331-1.021,0.156-1.543c-0.182-0.547-0.364-1.093-0.546-1.639
		c-0.197-0.59,0.21-1.271,0.897-1.496c0.025-0.009,0.051-0.018,0.076-0.025c0.725-0.239,1.42,0.081,1.612,0.671
		c0.178,0.548,0.357,1.095,0.536,1.642c0.192,0.592,0.288,1.14,0.195,1.752c-0.29,1.803-1.596,3.247-3.503,3.893
		c-5.15,1.742-10.272,3.588-15.364,5.537c-0.37,0.142-0.727,0.094-1.037-0.046c-0.395-0.144-0.544-0.419-0.632-0.755
		c-0.341-2.755-0.67-5.514-0.987-8.275c-0.656,0.25-1.312,0.501-1.967,0.754c-0.717,0.277-1.434,0.001-1.661-0.578
		c-0.004-0.01-0.008-0.021-0.013-0.031c-0.227-0.579,0.116-1.27,0.838-1.549c3.09-1.193,6.191-2.351,9.302-3.47
		c-0.176-0.487-0.352-0.975-0.527-1.461c-0.211-0.586,0.19-1.28,0.884-1.527c0.026-0.01,0.051-0.019,0.077-0.027
		c0.655-0.233,1.445,0.036,1.652,0.624c0.172,0.487,0.345,0.976,0.518,1.464C174.695,38.241,177.835,37.175,180.984,36.146z
		 M180.718,64.676c0.218,0.619-0.158,1.263-0.802,1.493c-0.023,0.008-0.047,0.017-0.071,0.024c-0.644,0.229-1.344-0.033-1.566-0.649
		c-1.404-3.898-2.808-7.797-4.212-11.696c-0.222-0.616,0.169-1.271,0.838-1.509c0.025-0.009,0.049-0.018,0.074-0.026
		c0.668-0.238,1.386,0.022,1.604,0.641C177.961,56.861,179.34,60.768,180.718,64.676z M190.601,62.829
		c-1.009,0.327-2.099,0.286-3.039-0.13c-0.939-0.415-1.67-1.152-1.99-2.102c-1.112-3.306-2.224-6.611-3.336-9.916
		c-0.198-0.589,0.196-1.268,0.869-1.491c0.025-0.008,0.05-0.017,0.075-0.024c0.672-0.224,1.395,0.084,1.589,0.675
		c1.091,3.313,2.182,6.624,3.272,9.937c0.13,0.394,0.373,0.641,0.702,0.788c0.376,0.167,0.745,0.192,1.144,0.063
		c0.121-0.039,0.242-0.078,0.363-0.117c0.617-0.199,1.355,0.108,1.545,0.7c0.003,0.012,0.007,0.022,0.01,0.033
		c0.19,0.593-0.229,1.27-0.842,1.468C190.841,62.751,190.721,62.789,190.601,62.829z"/>
	<path fill="#FFFFFF" d="M216.507,28.447c-0.315-0.457-0.731-0.819-1.25-1.087c-0.559-0.258-1.079-0.347-1.628-0.214
		c-5.978,1.441-11.931,3.014-17.854,4.715c-0.583,0.169-1.031,0.514-1.351,1.002c-0.32,0.489-0.503,1.011-0.551,1.563
		c-0.332,2.677-0.644,5.353-0.938,8.026c-0.058,0.631-0.723,1.156-1.389,1.144c-0.041,0.001-0.083,0.001-0.124,0.001
		c-0.666-0.012-1.211-0.565-1.147-1.163c0.28-2.677,0.579-5.354,0.896-8.034c0.069-1.029,0.461-1.976,1.122-2.892
		c0.631-0.869,1.629-1.521,2.84-1.87c5.956-1.712,11.941-3.292,17.951-4.741c1.184-0.286,2.292-0.192,3.348,0.234
		c1.025,0.472,1.794,1.109,2.402,1.961c1.587,2.176,3.157,4.359,4.709,6.551c0.39,0.479,0.191,1.23-0.417,1.577
		c-0.023,0.018-0.046,0.034-0.07,0.052c-0.608,0.347-1.406,0.209-1.768-0.311C219.712,32.783,218.118,30.611,216.507,28.447z
		 M197.453,60.891c-0.651,0.198-1.336-0.096-1.531-0.723c-0.007-0.022-0.014-0.044-0.02-0.065c-0.184-0.595,0.219-1.225,0.874-1.425
		c1.917-0.584,3.837-1.153,5.76-1.708c-1.347-1.647-2.706-3.289-4.075-4.925c-0.389-0.497-0.29-1.248,0.246-1.62
		c0.611-0.396,1.395-0.334,1.781,0.164c1.493,1.772,2.974,3.553,4.44,5.341c0.064,0.088,0.129,0.179,0.167,0.311
		c1.67-0.47,3.343-0.929,5.019-1.377c-0.904-3.367-1.808-6.735-2.712-10.104c-3.977,1.063-7.94,2.188-11.89,3.371
		c-0.673,0.202-1.373-0.091-1.563-0.718c-0.007-0.022-0.013-0.044-0.021-0.066c-0.181-0.595,0.231-1.26,0.908-1.464
		c3.972-1.19,7.958-2.32,11.958-3.39c-0.442-1.646-0.883-3.29-1.325-4.936c-2.988,0.799-5.969,1.632-8.943,2.498
		c-0.724,0.21-1.414-0.162-1.581-0.725c-0.01-0.033-0.02-0.066-0.029-0.1c-0.177-0.596,0.213-1.251,0.941-1.463
		c6.824-1.987,13.688-3.8,20.586-5.438c0.698-0.167,1.397,0.202,1.54,0.808c0.008,0.033,0.016,0.066,0.023,0.101
		c0.134,0.571-0.317,1.244-1.011,1.409c-2.993,0.71-5.979,1.454-8.958,2.23c0.431,1.648,0.862,3.296,1.293,4.943
		c3.979-1.037,7.971-2.015,11.973-2.932c0.687-0.157,1.373,0.217,1.511,0.824c0.005,0.022,0.01,0.045,0.015,0.067
		c0.145,0.641-0.317,1.239-0.999,1.396c-3.98,0.912-7.949,1.884-11.905,2.916c0.883,3.373,1.766,6.747,2.649,10.12
		c1.665-0.434,3.332-0.857,5.001-1.27c-0.033-0.134-0.021-0.243-0.009-0.353c0.372-2.285,0.759-4.57,1.161-6.856
		c0.095-0.591,0.745-1.03,1.432-0.979c0.025-0.007,0.05-0.013,0.076-0.019c0.694,0.086,1.144,0.654,1.053,1.278
		c-0.377,2.098-0.743,4.194-1.095,6.291c1.917-0.461,3.837-0.906,5.76-1.338c0.667-0.149,1.326,0.199,1.46,0.807
		c0.005,0.022,0.01,0.045,0.015,0.067c0.142,0.64-0.305,1.234-0.966,1.383C216.717,55.414,207.041,57.969,197.453,60.891z"/>
	<path fill="#FFFFFF" d="M231.814,25.99c0.141,0.71,0.895,1.23,1.796,1.057c3.304-0.639,6.614-1.238,9.929-1.798
		c-0.335-1.974-0.67-3.948-1.005-5.923c-0.11-0.646,0.409-1.225,1.129-1.344c0.013-0.003,0.027-0.005,0.04-0.007
		c0.72-0.119,1.398,0.261,1.503,0.908c0.323,1.977,0.646,3.953,0.968,5.929c3.305-0.536,6.615-1.034,9.93-1.492
		c1.025-0.142,1.451-0.86,1.354-1.578c-0.168-1.243-0.336-2.486-0.505-3.729c-0.083-0.616,0.448-1.21,1.169-1.305
		c0.013-0.002,0.027-0.004,0.04-0.006c0.762-0.1,1.389,0.342,1.468,0.959c0.161,1.244,0.321,2.488,0.481,3.731
		c0.27,2.123-1.496,3.914-3.689,4.219c-6.214,0.859-12.412,1.856-18.59,2.992c-0.016,0.132-0.032,0.264-0.048,0.396
		c-0.503,1.274-1,2.55-1.49,3.825c7.829-1.483,15.692-2.742,23.579-3.776c0.739-0.098,1.354,0.381,1.434,0.997
		c0.022,0.172-0.033,0.354-0.088,0.534c-4.506,11.03-13.72,16.751-26.603,20.8c-0.664,0.135-1.368-0.108-1.516-0.818
		c-0.012-0.057-0.023-0.112-0.035-0.169c-0.112-0.541,0.242-1.072,0.859-1.269c6.55-2.006,12.921-4.798,17.83-9.186
		c-5.6,0.866-11.184,1.849-16.75,2.948c-0.678,0.134-1.339-0.226-1.469-0.869c-0.002-0.011-0.004-0.022-0.007-0.034
		c-0.13-0.642,0.343-1.23,1.026-1.365c6.609-1.306,13.243-2.447,19.897-3.426c1.396-1.636,2.583-3.477,3.563-5.526
		c-7.89,1.077-15.754,2.38-23.583,3.909c-0.729,0.143-1.335-0.3-1.451-0.875c-0.034-0.169-0.036-0.38,0.046-0.573
		c0.592-1.653,1.193-3.307,1.805-4.959c-0.26,0.05-0.52,0.1-0.779,0.149c-2.217,0.428-4.501-0.831-4.907-2.791
		c-0.251-1.229-0.503-2.458-0.754-3.688c-0.125-0.608,0.406-1.246,1.082-1.381c0.026-0.005,0.053-0.011,0.079-0.016
		c0.715-0.144,1.412,0.247,1.532,0.857C231.327,23.529,231.57,24.76,231.814,25.99z"/>
	<path fill="#FFFFFF" d="M270.546,19.005c-0.021-0.588,0.085-1.119,0.269-1.693c0.458-1.054,1.301-1.937,2.422-2.529
		c0.583-0.264,1.214-0.462,1.899-0.524c6.483-0.592,12.977-1.038,19.477-1.338c0.686-0.032,1.339,0.078,1.952,0.261
		c1.231,0.433,2.187,1.192,2.746,2.208c0.299,0.508,0.438,1.057,0.459,1.642c0.257,7.407,0.515,14.813,0.773,22.22
		c0.021,0.621-0.074,1.141-0.319,1.703c-0.454,1.052-1.289,1.877-2.394,2.407c-0.554,0.23-1.149,0.359-1.787,0.389
		c-0.587,0.027-1.174,0.056-1.761,0.085c-0.674,0.034-1.265-0.452-1.298-1.072c0-0.012-0.001-0.022-0.002-0.034
		c-0.034-0.621,0.504-1.169,1.183-1.203c0.59-0.029,1.181-0.058,1.771-0.085c0.566-0.027,1.086-0.222,1.483-0.653
		c0.399-0.397,0.606-0.89,0.583-1.44c-0.068-1.668-0.137-3.335-0.205-5.002c-8.043,0.328-16.079,0.892-24.095,1.691
		c-0.013,0.001-0.025,0.002-0.039,0.004c0.069,2.733,0.141,5.468,0.218,8.201c-0.016,0.591-0.564,1.133-1.203,1.164
		c-0.025,0.003-0.05,0.005-0.075,0.008c-0.676,0.037-1.254-0.422-1.289-1.078C271.021,35.894,270.765,27.45,270.546,19.005z
		 M273.449,26.416c-0.013,0.001-0.026,0.003-0.039,0.004c0.054,2.423,0.112,4.846,0.173,7.268
		c8.024-0.798,16.067-1.361,24.118-1.689c-0.1-2.414-0.199-4.828-0.298-7.243C289.408,25.082,281.419,25.635,273.449,26.416z
		 M297.309,22.443c-0.073-1.771-0.146-3.541-0.218-5.312c-0.021-0.518-0.281-0.991-0.738-1.352
		c-0.458-0.395-1.029-0.543-1.631-0.516c-6.464,0.299-12.922,0.742-19.37,1.331c-0.601,0.056-1.105,0.275-1.506,0.729
		c-0.401,0.454-0.593,0.958-0.579,1.513c0.036,1.753,0.074,3.507,0.114,5.261C281.342,23.321,289.321,22.77,297.309,22.443z"/>
	<path fill="#FFFFFF" d="M329,42.852c-0.321,0.576-1.042,0.794-1.707,0.461c-0.012,0-0.025-0.001-0.038-0.001
		c-0.591-0.294-0.836-0.957-0.519-1.501c0.601-1.156,1.169-2.347,1.632-3.644c0.54-1.329,0.974-2.763,1.261-4.308
		c0.139-0.617,0.809-1.008,1.498-0.911c0.014,0.001,0.025,0.001,0.039,0.002c0.344,0.083,0.646,0.233,0.865,0.52
		c0.182,0.249,0.246,0.563,0.156,0.87C331.518,37.387,330.452,40.141,329,42.852z M329.725,19.318
		c0.1-0.548,0.316-1.059,0.614-1.566c0.556-0.981,1.47-1.775,2.652-2.175c0.571-0.218,1.179-0.294,1.86-0.262
		c4.898,0.229,9.793,0.542,14.682,0.938c-0.042-0.142-0.084-0.284-0.127-0.427c-0.23-0.642,0.224-1.265,0.925-1.413
		c0.028-0.01,0.056-0.019,0.083-0.027c0.702-0.149,1.443,0.19,1.633,0.797c0.122,0.46,0.287,0.89,0.45,1.321
		c1.669,0.146,3.337,0.304,5.004,0.47c0.44,0.044,0.813-0.058,1.123-0.304c0.305-0.212,0.455-0.474,0.519-0.71
		c0.131-0.472,0.608-0.771,1.172-0.711c0.094,0.011,0.188,0.021,0.28,0.03c0.402,0.042,0.753,0.186,0.959,0.521
		c0.251,0.305,0.257,0.618,0.179,0.957c-0.457,1.199-1.475,2.026-2.842,2.404c-0.5,0.157-1.022,0.174-1.621,0.113
		c-1.3-0.129-2.601-0.253-3.901-0.371c0.771,2.115,1.651,4.209,2.56,6.24c1.018-1.079,1.934-2.236,2.781-3.467
		c0.374-0.518,1.152-0.678,1.761-0.369c0.013,0.013,0.024,0.025,0.036,0.039c0.688,0.317,0.887,1.034,0.507,1.583
		c-1.144,1.68-2.465,3.276-3.952,4.721c1.041,2.152,2.114,4.21,3.25,6.246c0.323,0.592,0.053,1.256-0.559,1.536
		c-0.014-0.002-0.025-0.003-0.039-0.005c-0.611,0.28-1.4,0.059-1.688-0.528c-1.01-1.807-1.998-3.606-2.914-5.465
		c-1.455,1.246-3.047,2.416-4.771,3.515c-0.252,0.222-0.568,0.298-0.95,0.231c-0.343-0.063-0.602-0.225-0.813-0.483
		c-0.013-0.013-0.023-0.025-0.035-0.038c-0.423-0.52-0.288-1.236,0.25-1.607c1.854-1.233,3.619-2.566,5.175-4.015
		c-1.281-2.722-2.464-5.528-3.547-8.391c-5.221-0.437-10.447-0.777-15.678-1.022c-0.6-0.028-1.129,0.19-1.545,0.552
		c-0.457,0.396-0.715,0.869-0.779,1.453c-0.55,3.938-1.089,7.879-1.617,11.82c-0.104,0.617-0.736,1.077-1.428,0.982
		c-0.014,0-0.025-0.001-0.038-0.001c-0.731-0.061-1.214-0.629-1.156-1.248C328.684,27.228,329.198,23.272,329.725,19.318z
		 M344.684,23.778c0.983,0.07,1.791,0.408,2.412,1.044c0.659,0.675,0.956,1.391,0.887,2.251c-0.066,0.837-0.133,1.675-0.2,2.513
		c-0.136,1.651-1.828,2.935-3.714,2.801c-2.288-0.162-4.577-0.306-6.866-0.431c-0.927-0.05-1.756-0.438-2.386-1.056
		c-0.592-0.582-0.868-1.355-0.829-2.183c0.038-0.839,0.077-1.678,0.116-2.518c0.041-0.86,0.386-1.536,1.045-2.128
		c0.697-0.554,1.539-0.788,2.524-0.734C340.011,23.466,342.348,23.612,344.684,23.778z M346.895,20.203
		c0.715,0.053,1.27,0.617,1.221,1.235c-0.001,0.012-0.002,0.023-0.003,0.035c-0.052,0.654-0.683,1.089-1.395,1.035
		c-3.618-0.274-7.241-0.502-10.864-0.683c-0.711-0.035-1.282-0.547-1.252-1.2c0.002-0.012,0.002-0.023,0.002-0.035
		c0.029-0.62,0.65-1.109,1.365-1.074C339.613,19.699,343.255,19.928,346.895,20.203z M339.896,44.46
		c-0.637-0.041-1.265-0.217-1.778-0.419c-1.064-0.443-1.892-1.145-2.37-2.102c-0.24-0.463-0.327-0.985-0.3-1.502
		c0.101-1.954,0.2-3.908,0.302-5.861c0.03-0.587,0.598-1.109,1.327-1.07c0.013,0,0.026,0.001,0.039,0.002
		c0.731,0.039,1.237,0.621,1.202,1.207c-0.112,1.953-0.226,3.906-0.338,5.859c-0.024,0.414,0.185,0.736,0.582,1.037
		c0.437,0.303,0.918,0.47,1.481,0.506c3.563,0.224,7.125,0.494,10.683,0.813c0.713,0.064,1.191,0.629,1.133,1.248
		c-0.002,0.022-0.004,0.045-0.006,0.067c-0.055,0.585-0.629,1.087-1.338,1.022C346.979,44.951,343.439,44.683,339.896,44.46z
		 M337.549,25.613c-0.234-0.012-0.396,0.049-0.563,0.212c-0.163,0.129-0.29,0.297-0.301,0.503c-0.045,0.839-0.088,1.678-0.134,2.517
		c-0.011,0.207,0.097,0.386,0.247,0.497c0.146,0.18,0.299,0.257,0.53,0.271c2.303,0.125,4.604,0.27,6.905,0.433
		c0.465,0.033,0.837-0.253,0.867-0.664c0.062-0.838,0.123-1.676,0.185-2.514c0.03-0.412-0.296-0.783-0.767-0.816
		C342.197,25.886,339.874,25.74,337.549,25.613z M346.689,38.953c-0.051,0.619-0.658,1.09-1.34,1.039
		c-0.024-0.002-0.05-0.004-0.074-0.006c-0.682-0.052-1.213-0.609-1.168-1.229c0.089-1.217,0.178-2.434,0.266-3.649
		c0.045-0.62,0.659-1.095,1.352-1.042c0.024,0.002,0.051,0.004,0.076,0.006c0.692,0.053,1.227,0.613,1.178,1.232
		C346.881,36.521,346.785,37.736,346.689,38.953z M359.148,44.362c0.158,0.608-0.248,1.188-0.903,1.324
		c-0.026,0.009-0.054,0.018-0.079,0.027c-0.653,0.102-1.291-0.278-1.492-0.89c-0.724-2.944-1.469-5.888-2.236-8.829
		c-0.178-0.572,0.27-1.188,0.904-1.335c0.026-0.008,0.053-0.018,0.08-0.026c0.673-0.141,1.406,0.28,1.536,0.884
		C357.709,38.464,358.439,41.412,359.148,44.362z"/>
	<path fill="#FFFFFF" d="M369.27,24.438c0.59,0.076,1.127,0.251,1.614,0.491c0.444,0.269,0.843,0.566,1.193,0.928
		c0.729,0.796,1.028,1.78,0.896,2.737c-0.701,4.991-1.402,9.982-2.103,14.974c-0.054,0.376,0.017,0.7,0.282,0.981
		c0.229,0.276,0.547,0.461,0.921,0.515c0.312,0.044,0.624,0.09,0.936,0.135c0.673,0.099,1.158,0.694,1.066,1.308
		c-0.003,0.023-0.007,0.046-0.011,0.069c-0.086,0.58-0.722,1.009-1.391,0.911c-0.31-0.045-0.619-0.09-0.93-0.134
		c-0.559-0.081-1.027-0.25-1.482-0.523c-0.879-0.505-1.541-1.222-1.801-2.128c-0.165-0.474-0.175-0.963-0.105-1.477
		c0.668-4.996,1.338-9.992,2.008-14.987c0.045-0.342-0.069-0.671-0.312-0.946c-0.276-0.316-0.648-0.503-1.079-0.56
		c-0.457-0.059-0.914-0.117-1.371-0.175c-0.742-0.094-1.228-0.676-1.151-1.292c0.001-0.012,0.003-0.022,0.004-0.034
		c0.076-0.616,0.69-1.063,1.438-0.969C368.352,24.319,368.811,24.378,369.27,24.438z M373.307,21.321
		c-0.08,0.58-0.746,1.012-1.457,0.916c-0.013-0.002-0.025-0.004-0.039-0.006c-0.713-0.096-1.237-0.688-1.162-1.269
		c0.172-1.301,0.345-2.602,0.518-3.902c0.081-0.616,0.751-1.051,1.475-0.953c0.012,0.002,0.026,0.004,0.039,0.006
		c0.723,0.097,1.254,0.693,1.168,1.31C373.667,18.722,373.486,20.021,373.307,21.321z M378.534,23.157
		c0.145-0.957,0.72-1.813,1.62-2.372c0.804-0.471,1.824-0.73,2.869-0.633c0.071-0.443,0.144-0.886,0.215-1.328
		c0.099-0.615,0.742-1.037,1.502-0.912c0.013,0.003,0.025,0.005,0.04,0.007c0.76,0.124,1.233,0.729,1.131,1.342
		c-0.074,0.442-0.147,0.885-0.224,1.327c0.119,0.021,0.238,0.04,0.357,0.061c1.75,0.293,3.025,1.428,3.454,2.907
		c0.125,0.442,0.164,0.906,0.073,1.416c-0.764,4.271-1.527,8.542-2.291,12.813c0.637,0.184,1.001,0.776,0.908,1.286
		c-0.004,0.022-0.008,0.045-0.012,0.066c-0.111,0.613-0.646,0.971-1.304,0.925c-0.315,1.767-0.632,3.534-0.948,5.302
		c-0.103,0.578-0.313,1.1-0.627,1.571c-0.71,0.962-1.658,1.565-2.847,1.817c-0.636,0.138-1.245,0.139-1.876,0.035
		c-0.1-0.017-0.198-0.032-0.297-0.049c-0.631-0.104-1.104-0.705-1.004-1.319c0.002-0.011,0.003-0.022,0.005-0.034
		c0.104-0.647,0.743-1.034,1.378-0.929c0.1,0.017,0.199,0.032,0.298,0.049c0.597,0.1,1.153-0.017,1.628-0.321
		c0.475-0.306,0.744-0.747,0.832-1.259c0.305-1.77,0.609-3.538,0.915-5.308c-0.86-0.147-1.722-0.292-2.583-0.434
		c-0.011,0.066-0.061,0.13-0.066,0.164c-0.623,1.646-1.41,3.126-2.307,4.381c-0.848,1.191-1.749,2.272-2.702,3.243
		c-0.192,0.249-0.51,0.339-0.893,0.351c-0.347,0.018-0.634-0.096-0.868-0.307c-0.021-0.026-0.043-0.053-0.064-0.08
		c-0.469-0.418-0.521-1.09-0.07-1.546c0.859-0.884,1.623-1.849,2.406-2.916c0.746-1.073,1.366-2.302,1.941-3.714
		c-0.938-0.148-1.877-0.294-2.816-0.436c-0.685-0.104-1.185-0.667-1.089-1.315c0.003-0.022,0.007-0.045,0.011-0.067
		c0.08-0.548,0.692-0.979,1.35-0.916C377.232,31.735,377.883,27.446,378.534,23.157z M386.934,24.511
		c0.064-0.373-0.039-0.707-0.27-1.027c-0.189-0.312-0.568-0.48-1.003-0.554c-0.909-0.152-1.818-0.302-2.729-0.449
		c-0.435-0.07-0.847-0.03-1.166,0.198c-0.36,0.222-0.527,0.512-0.586,0.886c-0.106,0.671-0.213,1.342-0.318,2.013
		c1.91,0.3,3.82,0.614,5.728,0.941C386.704,25.85,386.818,25.18,386.934,24.511z M379.992,31.066
		c1.886,0.297,3.771,0.607,5.652,0.93c0.185-1.066,0.367-2.133,0.552-3.198c-1.897-0.325-3.796-0.638-5.697-0.937
		C380.33,28.93,380.161,29.998,379.992,31.066z M379.145,36.42c1.862,0.293,3.723,0.599,5.58,0.918
		c0.174-1.01,0.349-2.02,0.522-3.028c-1.872-0.321-3.746-0.629-5.621-0.924C379.465,34.396,379.305,35.408,379.145,36.42z
		 M400.914,24.998c0.749,0.154,1.193,0.775,1.066,1.383c-0.002,0.012-0.004,0.023-0.006,0.034c-0.135,0.642-0.781,1.001-1.526,0.849
		c-1.38,6.707-2.761,13.414-4.142,20.121c-0.119,0.575-0.305,1.1-0.705,1.548c-1.063,1.403-2.847,2.063-4.73,1.701
		c-0.406-0.078-0.813-0.156-1.221-0.233c-0.666-0.126-1.125-0.737-1.01-1.35c0.002-0.012,0.004-0.022,0.006-0.033
		c0.119-0.646,0.767-1.018,1.438-0.89c0.409,0.077,0.818,0.155,1.227,0.234c0.595,0.113,1.117,0.005,1.639-0.279
		c0.482-0.292,0.8-0.721,0.895-1.194c1.34-6.716,2.678-13.432,4.018-20.147c-2-0.396-4.002-0.779-6.006-1.146
		c-0.668-0.123-1.172-0.704-1.055-1.35c0.002-0.012,0.004-0.023,0.006-0.035c0.11-0.61,0.795-1.015,1.467-0.89
		c2.016,0.369,4.028,0.754,6.039,1.153c0.196-0.981,0.393-1.964,0.588-2.945c0.127-0.645,0.779-1.007,1.537-0.855
		c0.756,0.153,1.215,0.74,1.082,1.384C401.318,23.037,401.116,24.018,400.914,24.998z M393.784,39.064
		c0.032,0.64-0.542,1.16-1.251,1.165c-0.014-0.002-0.025-0.005-0.038-0.007c-0.696-0.063-1.271-0.557-1.313-1.163
		c-0.072-2.602-0.156-5.204-0.25-7.807c-0.01-0.599,0.531-1.133,1.25-1.104c0.014,0.002,0.026,0.005,0.039,0.007
		c0.688-0.012,1.31,0.527,1.315,1.126C393.628,33.877,393.711,36.472,393.784,39.064z"/>
	<path fill="#FFFFFF" d="M421.223,28.892c6.374,1.63,12.719,3.408,19.026,5.336c0.697,0.212,1.123,0.888,0.939,1.48
		c-0.004,0.011-0.008,0.021-0.011,0.032c-0.185,0.594-0.915,0.91-1.605,0.699c-6.686-2.042-13.41-3.916-20.17-5.623
		c-1.108,1.109-2.232,2.145-3.418,3.133c0.115,0.029,0.231,0.058,0.348,0.086c5.495,1.357,10.967,2.826,16.415,4.406
		c1.992,0.578,3.357,1.998,3.645,3.779c0.115,0.577,0.067,1.14-0.104,1.701c-1.266,4.162-2.53,8.324-3.795,12.487
		c-0.161,0.527-0.441,1.058-0.846,1.476c-0.785,0.882-1.84,1.357-3.057,1.466c-0.659,0.094-1.223,0.001-1.876-0.189
		c-0.387-0.112-0.774-0.224-1.163-0.335c-0.617-0.178-1.066-0.807-0.888-1.438c0.003-0.011,0.006-0.022,0.009-0.033
		c0.17-0.599,0.897-0.931,1.52-0.752c0.39,0.112,0.779,0.225,1.169,0.337c0.584,0.17,1.153,0.121,1.664-0.125
		c0.51-0.246,0.866-0.643,1.015-1.141c0.141-0.475,0.282-0.949,0.422-1.423c-6.646-1.969-13.334-3.764-20.055-5.386
		c-0.362,1.547-0.724,3.094-1.085,4.641c-0.146,0.604-0.827,1.008-1.486,0.852c-0.012-0.004-0.023-0.006-0.037-0.009
		c-0.695-0.166-1.083-0.824-0.949-1.396c1.157-4.966,2.314-9.931,3.472-14.896c-0.203,0.118-0.405,0.236-0.607,0.354
		c-1.137,0.728-2.274,1.316-3.415,1.943c-0.318,0.176-0.638,0.174-0.98,0.099c-0.34-0.077-0.621-0.246-0.791-0.565
		c-0.022-0.017-0.045-0.034-0.067-0.051c-0.366-0.505-0.173-1.206,0.413-1.5c1.088-0.572,2.195-1.207,3.279-1.881
		c3.002-1.829,5.761-3.975,8.294-6.375c-2.534-0.62-5.071-1.218-7.614-1.791c-0.704-0.158-1.178-0.794-1.042-1.401
		c0.002-0.011,0.005-0.021,0.007-0.033c0.135-0.606,0.838-0.982,1.546-0.821c3.001,0.677,5.997,1.386,8.986,2.128
		c0.567-0.606,1.136-1.211,1.707-1.815c0.418-0.501,1.197-0.589,1.845-0.173c0.281,0.213,0.465,0.475,0.544,0.816
		c0.088,0.308,0.02,0.575-0.208,0.803C421.867,28.166,421.56,28.552,421.223,28.892z M433.036,45.579
		c0.239-0.805,0.479-1.61,0.718-2.416c0.138-0.463,0.048-0.995-0.262-1.482c-0.312-0.486-0.785-0.842-1.395-1.019
		c-5.417-1.572-10.859-3.032-16.324-4.382c-0.576-0.142-1.164-0.072-1.676,0.193c-0.551,0.257-0.855,0.682-0.97,1.151
		c-0.198,0.816-0.396,1.633-0.594,2.45C419.405,41.732,426.241,43.567,433.036,45.579z M431.128,52.001
		c0.413-1.391,0.826-2.781,1.239-4.172c-6.756-2-13.555-3.825-20.387-5.474c-0.34,1.41-0.683,2.819-1.023,4.229
		C417.717,48.216,424.443,50.021,431.128,52.001z"/>
	<path fill="#FFFFFF" d="M451.285,36.088c1.019-0.352,2.177,0.553,1.853,1.5c-1.667,4.892-3.333,9.783-5,14.675
		c-0.201,0.588-0.91,0.857-1.576,0.633c-0.025-0.008-0.05-0.017-0.074-0.024c-0.666-0.224-1.069-0.868-0.873-1.457
		c1.348-4.04,2.695-8.08,4.042-12.119c-0.878,0.338-1.754,0.68-2.627,1.023c-0.333,0.11-0.67,0.109-1.014-0.002
		c-0.37-0.158-0.596-0.374-0.827-0.704c-0.281-0.561-0.062-1.253,0.575-1.519C447.595,37.413,449.435,36.744,451.285,36.088z
		 M440.262,62.301c-0.241,0.247-0.511,0.342-0.842,0.378c-0.356-0.008-0.682-0.112-0.953-0.382
		c-0.467-0.404-0.545-1.155-0.096-1.556c2.034-2.211,3.711-4.603,5.208-7.273c0.305-0.554,1.039-0.786,1.671-0.465
		c0.024,0.008,0.05,0.017,0.074,0.024c0.348,0.189,0.563,0.406,0.659,0.73c0.144,0.305,0.13,0.591-0.055,0.893
		C444.362,57.476,442.505,59.984,440.262,62.301z M450.521,66.921c-0.607-0.217-1.181-0.532-1.659-0.885
		c-0.899-0.759-1.533-1.71-1.695-2.753c-0.094-0.544-0.08-1.051,0.09-1.54c0.679-1.958,1.357-3.915,2.037-5.872
		c0.192-0.554,0.925-0.887,1.588-0.654c0.025,0.008,0.049,0.017,0.074,0.025c0.7,0.244,1.03,0.948,0.833,1.501
		c-0.691,1.953-1.383,3.906-2.074,5.859c-0.138,0.391-0.036,0.791,0.268,1.192c0.34,0.414,0.713,0.731,1.323,0.95
		c3.427,1.231,6.839,2.511,10.236,3.838c0.606,0.237,0.986,0.942,0.758,1.521c-0.004,0.012-0.009,0.021-0.013,0.033
		c-0.229,0.577-0.985,0.835-1.587,0.601C457.319,69.418,453.926,68.146,450.521,66.921z M457.272,50.747
		c-0.985,0.743-2.043,1.466-3.097,2.08c-0.278,0.194-0.632,0.252-0.977,0.166c-0.382-0.099-0.656-0.268-0.896-0.534
		c0.004-0.011,0.008-0.021,0.012-0.032c-0.394-0.54-0.267-1.264,0.254-1.558c1.016-0.632,1.987-1.241,2.885-1.985
		c0.961-0.685,1.848-1.503,2.762-2.385c0.463-0.458,1.199-0.485,1.78-0.09c0.33,0.267,0.483,0.544,0.565,0.906
		c0.018,0.299-0.091,0.591-0.261,0.823C459.31,49.099,458.321,49.949,457.272,50.747z M461.16,40.623
		c5.632,2.041,11.229,4.203,16.79,6.487c0.415,0.171,0.688,0.471,0.847,0.834c0.107,0.381,0.049,0.731-0.209,1.036
		c-0.897,0.924-1.791,1.85-2.681,2.778c-0.41,0.466-1.248,0.495-1.816,0.079c-0.296-0.232-0.479-0.529-0.525-0.846
		c-0.045-0.316,0.021-0.588,0.262-0.863c0.486-0.523,0.975-1.045,1.464-1.567c-2.092-0.849-4.189-1.68-6.292-2.493
		c-1.236,3.187-2.472,6.373-3.708,9.561c-0.55,1.417-1.99,2.189-3.64,2.229c-0.537-0.02-1.088-0.116-1.638-0.322
		c-0.171-0.063-0.342-0.128-0.513-0.192c-0.696-0.261-1.03-0.936-0.814-1.519c0.009-0.021,0.017-0.044,0.024-0.065
		c0.204-0.551,0.913-0.877,1.614-0.615c0.172,0.064,0.344,0.129,0.516,0.194c0.406,0.151,0.86,0.176,1.203,0.047
		c0.332-0.096,0.639-0.35,0.773-0.704c1.216-3.194,2.432-6.39,3.646-9.584c-2.674-1.016-5.357-2.004-8.047-2.964
		c-0.419-0.149-0.704-0.434-0.829-0.808c-0.163-0.389-0.124-0.74,0.155-1.045c0.637-0.702,1.274-1.404,1.916-2.104
		c0.478-0.49,1.314-0.52,1.925-0.043c0.009,0.016,0.018,0.031,0.026,0.047c0.582,0.431,0.715,1.141,0.272,1.641
		C461.644,40.088,461.401,40.355,461.16,40.623z M458.708,63.426c-0.22,0.582-0.908,0.874-1.592,0.619
		c-0.012-0.005-0.024-0.009-0.036-0.014c-0.648-0.242-1.01-0.927-0.793-1.512c0.457-1.23,0.913-2.46,1.37-3.69
		c0.216-0.582,0.945-0.864,1.604-0.618c0.013,0.005,0.024,0.01,0.036,0.014c0.696,0.26,1.024,0.938,0.805,1.52
		C459.637,60.971,459.172,62.198,458.708,63.426z M474.284,59.457c0.08,0.631-0.368,1.192-1.069,1.238
		c-0.017,0.006-0.033,0.012-0.05,0.018c-0.702,0.045-1.352-0.443-1.508-1.105c-0.438-2.34-0.893-4.683-1.367-7.025
		c-0.118-0.679,0.347-1.199,1.059-1.251c0.018-0.006,0.034-0.012,0.052-0.018c0.698-0.021,1.381,0.441,1.509,1.089
		C473.386,54.755,473.845,57.106,474.284,59.457z M469.365,72.407c-0.076,0.679-0.667,1.106-1.333,1.018
		c-0.023-0.01-0.047-0.02-0.07-0.028c-0.678-0.057-1.23-0.618-1.171-1.267c0.159-3.18,0.294-6.364,0.407-9.555
		c-0.036-0.646,0.57-1.112,1.289-1.009c0.017-0.006,0.033-0.012,0.049-0.018c0.719,0.104,1.256,0.656,1.251,1.289
		C469.671,66.032,469.53,69.223,469.365,72.407z"/>
	<path fill="#FFFFFF" d="M510.612,74.01c0.64,0.338,0.928,1.079,0.635,1.629c-0.011,0.02-0.021,0.04-0.032,0.06
		c-0.293,0.548-1.065,0.723-1.701,0.387c-9.486-5.027-19.127-9.662-28.896-13.904c-0.654-0.284-0.996-0.994-0.75-1.565
		c0.009-0.021,0.018-0.042,0.026-0.063c0.246-0.571,1-0.811,1.659-0.524C491.377,64.293,501.072,68.954,510.612,74.01z"/>
	<path fill="#FFFFFF" d="M531.328,71.143c0.935,0.545,1.549,1.225,1.823,2.069c0.347,0.886,0.262,1.679-0.179,2.421
		c-1.167,1.971-2.335,3.941-3.502,5.912c-0.439,0.741-1.071,1.17-1.998,1.306c-0.872,0.207-1.741,0.016-2.648-0.512
		c-0.187-0.108-0.372-0.216-0.56-0.324c-0.656,1.136-1.313,2.271-1.972,3.407c0.979,0.567,1.958,1.14,2.933,1.717
		c0.62,0.365,0.872,1.118,0.555,1.652c-0.006,0.01-0.012,0.02-0.019,0.03c-0.335,0.563-1.095,0.675-1.711,0.31
		c-0.971-0.573-1.942-1.143-2.917-1.707c-1.188,2.052-2.375,4.104-3.563,6.156c0.853,0.268,1.705,0.539,2.557,0.814
		c0.695,0.208,1.075,0.876,0.926,1.51c0,0.026-0.001,0.053-0.001,0.079c-0.166,0.586-0.851,0.899-1.542,0.692
		c-3.608-1.21-7.221-2.359-10.833-3.451c-0.641-0.197-1.115-0.853-0.936-1.422c0-0.027,0-0.054,0-0.08
		c0.129-0.638,0.801-0.979,1.479-0.763c0.119,0.025,0.237,0.052,0.356,0.078c0.034-0.061,0.066-0.121,0.1-0.182
		c1.836-3.325,3.672-6.65,5.508-9.976c0.316-0.574,1.075-0.709,1.705-0.357c0.023,0.014,0.047,0.026,0.069,0.039
		c0.63,0.352,0.917,1.066,0.596,1.639c-1.801,3.213-3.602,6.426-5.402,9.639c0.96,0.301,1.919,0.606,2.879,0.916
		c0.04-0.07,0.08-0.14,0.12-0.21c2.258-3.959,4.516-7.919,6.773-11.878c-0.758-0.434-1.518-0.863-2.277-1.292
		c-0.844-0.474-1.43-1.156-1.779-2.021c-0.296-0.797-0.232-1.668,0.15-2.364c1.105-2.006,2.211-4.012,3.316-6.019
		c0.4-0.726,1.075-1.181,1.939-1.374c0.899-0.172,1.849,0.002,2.717,0.49C527.775,69.093,529.554,70.111,531.328,71.143z
		 M524.856,70.104c-0.433-0.242-0.908-0.153-1.11,0.208c-1.118,1.999-2.236,3.998-3.354,5.998c-0.203,0.361-0.037,0.81,0.388,1.049
		c1.741,0.979,3.477,1.973,5.207,2.979c0.21,0.121,0.401,0.115,0.63,0.128c0.209-0.036,0.384-0.176,0.471-0.324
		c1.154-1.979,2.309-3.957,3.464-5.936c0.086-0.148,0.12-0.369,0.046-0.572c-0.126-0.194-0.217-0.366-0.432-0.491
		C528.402,72.116,526.632,71.104,524.856,70.104z M539.697,78.369c3.655,2.252,7.284,4.565,10.884,6.938
		c0.802,0.528,0.915,1.642,0.148,2.044c-3.189,1.654-6.606,2.674-10.217,3.109c1.331,2.479,2.633,4.963,3.905,7.455
		c0.313,0.624,0.097,1.31-0.543,1.546c-0.019,0.003-0.035,0.004-0.052,0.006c-0.622,0.209-1.4-0.144-1.714-0.763
		c-1.364-2.68-2.763-5.352-4.194-8.016c-3.188,0.19-6.462-0.014-9.771-0.562c-0.741-0.084-1.248-0.712-1.222-1.38
		c0.006-0.01,0.013-0.02,0.019-0.029c0.009-0.64,0.637-1.067,1.312-0.944c2.735,0.433,5.603,0.614,8.354,0.501
		c-1.174-2.159-2.371-4.313-3.592-6.461c-0.381-0.633-0.166-1.31,0.486-1.521c0.012-0.02,0.023-0.039,0.035-0.059
		c0.619-0.233,1.43,0.098,1.742,0.69c1.342,2.381,2.656,4.768,3.945,7.161c2.959-0.335,5.704-1.029,8.021-2.157
		c-3.499-2.276-7.024-4.497-10.574-6.661c-0.387-0.236-0.651-0.598-0.737-1.014c-0.052-0.395,0.109-0.741,0.431-0.951
		c0.676-0.479,1.354-0.956,2.033-1.432c0.554-0.351,1.393-0.202,1.836,0.354c0.03,0.031,0.06,0.063,0.089,0.095
		c0.531,0.57,0.488,1.274-0.05,1.672C540.079,78.118,539.888,78.243,539.697,78.369z M524.555,102.904
		c-1.45-0.895-2.194-2.353-2.05-3.879c0.031-0.504,0.18-0.98,0.447-1.423c0.913-1.52,1.826-3.039,2.74-4.558
		c0.249-0.415,0.6-0.769,1.035-1.029c1.308-0.864,2.953-0.879,4.485,0.065c2.837,1.749,5.658,3.534,8.461,5.358
		c1.481,0.963,2.229,2.534,2.029,4.062c-0.048,0.506-0.25,0.953-0.517,1.356c-0.98,1.477-1.962,2.953-2.941,4.43
		c-1.13,1.696-3.569,2.06-5.49,0.811C530.039,106.33,527.305,104.6,524.555,102.904z M534.015,106.157
		c0.754,0.491,1.631,0.366,2.067-0.3c0.971-1.482,1.94-2.966,2.912-4.448c0.417-0.636,0.171-1.5-0.599-2.001
		c-2.787-1.813-5.592-3.589-8.414-5.327c-0.744-0.459-1.593-0.289-1.988,0.36c-0.923,1.513-1.846,3.026-2.77,4.539
		c-0.414,0.679-0.187,1.504,0.542,1.954C528.533,102.639,531.282,104.38,534.015,106.157z"/>
	<path fill="#FFFFFF" d="M552.949,102.312c-1.698,2.437-3.438,4.716-5.341,6.757c-1.405,1.462-2.715,2.654-4.266,3.933
		c-0.495,0.37-1.29,0.284-1.772-0.258c-0.016-0.024-0.03-0.049-0.044-0.073c-0.484-0.54-0.479-1.246,0.034-1.65
		c1.483-1.202,2.767-2.373,4.089-3.811c1.78-1.962,3.406-4.111,5.029-6.473c1.141-1.66,2.282-3.32,3.422-4.979
		c0.372-0.542,1.156-0.589,1.769-0.164c0.021,0.016,0.045,0.031,0.067,0.047c0.612,0.425,0.845,1.177,0.469,1.716
		C555.252,99.008,554.101,100.659,552.949,102.312z M566.885,98.697c0.609,0.446,0.809,1.235,0.439,1.736
		c-0.007,0.01-0.015,0.019-0.021,0.027c-0.368,0.501-1.178,0.548-1.782,0.104c-1.233-0.902-2.47-1.797-3.709-2.685
		c-4.548,6.37-9.095,12.74-13.642,19.109c-0.36,0.506-1.088,0.58-1.694,0.148c-0.011-0.008-0.021-0.015-0.031-0.021
		c-0.574-0.408-0.776-1.142-0.419-1.65c4.505-6.399,9.01-12.799,13.515-19.198c-1.232-0.87-2.47-1.733-3.71-2.589
		c-0.614-0.425-0.834-1.203-0.484-1.716c0.007-0.01,0.014-0.02,0.021-0.029c0.351-0.514,1.158-0.587,1.777-0.161
		c1.246,0.86,2.49,1.728,3.729,2.603c0.616-0.875,1.231-1.75,1.848-2.625c0.378-0.537,1.173-0.567,1.792-0.127
		c0.013,0.008,0.023,0.017,0.035,0.024c0.654,0.466,0.854,1.203,0.473,1.737c-0.621,0.871-1.243,1.742-1.864,2.613
		C564.402,96.89,565.646,97.79,566.885,98.697z M552.278,119.369c-0.367,0.502-1.116,0.593-1.719,0.154
		c-0.021-0.016-0.043-0.031-0.063-0.046c-0.54-0.393-0.714-1.158-0.351-1.662c3.974-5.507,7.946-11.013,11.921-16.52
		c0.362-0.503,1.17-0.558,1.741-0.144c0.021,0.017,0.043,0.033,0.066,0.049c0.638,0.465,0.8,1.227,0.434,1.729
		C560.298,108.409,556.288,113.89,552.278,119.369z M557.479,125.116c-0.531-0.407-0.972-0.87-1.297-1.42
		c-1.061-1.665-1.065-3.517,0.004-4.96c4.252-5.729,8.504-11.459,12.758-17.188c1.048-1.413,2.879-1.906,4.881-1.259
		c0.65,0.189,1.254,0.517,1.826,0.953c2.613,1.996,5.211,4.025,7.789,6.088c0.564,0.451,1.031,0.96,1.409,1.575
		c1.089,1.769,1.1,3.7-0.017,5.062c-4.52,5.521-9.037,11.043-13.557,16.565c-1.138,1.389-2.971,1.802-4.82,1.194
		c-0.646-0.21-1.204-0.525-1.729-0.946C562.329,128.86,559.913,126.973,557.479,125.116z M582.61,112.155
		c0.324-0.403,0.432-0.938,0.309-1.526c-0.124-0.587-0.423-1.095-0.919-1.491c-2.565-2.052-5.147-4.07-7.749-6.055
		c-0.502-0.384-1.097-0.575-1.694-0.551c-0.598,0.024-1.056,0.285-1.368,0.698c-1.086,1.443-2.172,2.887-3.259,4.331
		c3.798,2.864,7.557,5.802,11.276,8.812C580.341,114.967,581.476,113.561,582.61,112.155z M562.408,114.899
		c3.714,2.802,7.391,5.675,11.03,8.62c1.431-1.773,2.861-3.547,4.293-5.319c-3.699-2.993-7.438-5.914-11.213-8.763
		C565.147,111.258,563.778,113.079,562.408,114.899z M566.172,128.972c0.466,0.373,0.999,0.535,1.578,0.515
		c0.58-0.02,1.069-0.245,1.417-0.675c0.939-1.164,1.879-2.328,2.819-3.493c-3.619-2.928-7.275-5.785-10.969-8.57
		c-0.898,1.195-1.799,2.391-2.698,3.586c-0.333,0.442-0.465,0.947-0.346,1.514s0.436,1.066,0.908,1.428
		C561.329,125.143,563.759,127.041,566.172,128.972z"/>
	<path fill="#FFFFFF" d="M594.799,118.924c1.162,0.088,1.943,1.412,1.261,2.191c-5.819,6.682-11.641,13.362-17.461,20.044
		c-0.408,0.468-1.169,0.491-1.74-0.004c-0.011-0.009-0.021-0.018-0.03-0.026c-0.541-0.47-0.656-1.251-0.251-1.724
		c5.161-6.004,10.32-12.009,15.481-18.013c-1.269-0.06-2.534-0.113-3.798-0.159c-0.326-0.005-0.648-0.145-0.937-0.387
		c-0.289-0.243-0.456-0.565-0.517-0.886c-0.017-0.045-0.035-0.09-0.052-0.135c-0.065-0.64,0.399-1.198,1.075-1.216
		C590.146,118.692,592.468,118.797,594.799,118.924z M609.122,147.712c0.539,0.535,0.596,1.373,0.18,1.787
		c-0.016,0.017-0.033,0.033-0.049,0.05c-0.464,0.463-1.251,0.36-1.786-0.171c-2.448-2.434-4.921-4.83-7.415-7.189
		c-1.431,1.514-2.861,3.027-4.292,4.54c2.417,2.287,4.813,4.608,7.187,6.966c0.527,0.523,0.625,1.305,0.16,1.768
		c-0.008,0.008-0.016,0.016-0.023,0.024c-0.464,0.463-1.241,0.37-1.765-0.151c-2.36-2.343-4.743-4.651-7.146-6.925
		c-1.162,1.229-2.324,2.459-3.485,3.688c-0.428,0.451-1.222,0.413-1.748-0.081c-0.021-0.019-0.039-0.037-0.059-0.056
		c-0.498-0.468-0.614-1.284-0.189-1.739c1.153-1.237,2.307-2.475,3.461-3.712c-2.405-2.245-4.83-4.455-7.275-6.631
		c-0.575-0.512-0.682-1.251-0.248-1.742c0.007-0.008,0.016-0.017,0.021-0.025c0.435-0.492,1.183-0.477,1.762,0.039
		c2.459,2.188,4.897,4.41,7.316,6.668c1.42-1.523,2.841-3.047,4.262-4.57c-2.456-2.292-4.933-4.549-7.428-6.77
		c-0.589-0.523-0.703-1.27-0.27-1.762c0.015-0.018,0.031-0.034,0.046-0.052c0.388-0.44,1.19-0.469,1.781,0.058
		c2.511,2.234,5.001,4.503,7.47,6.809c2.88-3.089,5.76-6.179,8.641-9.268c0.423-0.455,1.281-0.359,1.818,0.144
		c0.021,0.02,0.042,0.039,0.063,0.059c0.567,0.534,0.684,1.357,0.257,1.809c-2.901,3.069-5.803,6.139-8.703,9.208
		C604.173,142.855,606.659,145.265,609.122,147.712z M598.425,132.291c-0.271,0.549-1,0.725-1.667,0.397
		c-0.021-0.019-0.042-0.037-0.062-0.056c-0.676-0.38-1.006-1.142-0.771-1.719c0.937-2.3,1.86-4.607,2.773-6.922
		c0.229-0.582,0.961-0.763,1.674-0.403c0.029,0.01,0.058,0.021,0.087,0.031c0.635,0.382,0.979,1.154,0.777,1.763
		C600.312,127.693,599.375,129.995,598.425,132.291z M611.981,142.285c-1.384,0.431-2.752,0.733-4.086,0.83
		c-0.313,0.079-0.677-0.031-1.027-0.277c-0.327-0.269-0.521-0.555-0.59-0.908c-0.162-0.685,0.169-1.274,0.834-1.354
		c1.172-0.117,2.405-0.411,3.658-0.78c1.334-0.389,2.54-0.947,3.694-1.507c0.503-0.329,1.294-0.085,1.745,0.506
		c0.259,0.354,0.408,0.695,0.343,1.067c-0.017,0.325-0.229,0.601-0.509,0.759C614.818,141.304,613.473,141.866,611.981,142.285z"/>
</g>
</svg>
