<?xml version="1.0" encoding="utf-8"?>
<!-- Generator: Adobe Illustrator 16.0.0, SVG Export Plug-In . SVG Version: 6.00 Build 0)  -->
<!DOCTYPE svg PUBLIC "-//W3C//DTD SVG 1.1//EN" "http://www.w3.org/Graphics/SVG/1.1/DTD/svg11.dtd">
<svg version="1.1" id="图层_1" xmlns="http://www.w3.org/2000/svg" xmlns:xlink="http://www.w3.org/1999/xlink" x="0px" y="0px"
	 width="628px" height="350.5px" viewBox="0 0 628 350.5" enable-background="new 0 0 628 350.5" xml:space="preserve">
<g id="图层_2_1_">
</g>
<g id="图层_2">
</g>
<path fill="#FFFFFF" d="M234.538,189.662c0.788-0.526,1.567-0.784,2.356-0.784c0.959,0,1.786,0.347,2.484,1.045
	c0.697,0.703,1.049,1.526,1.049,2.484c0,0.961-0.351,1.772-1.049,2.421c-0.699,0.65-1.525,0.98-2.484,0.98
	c-0.789,0-1.568-0.262-2.356-0.785h-52.455v-51.668c0-2.099,0.108-4.19,0.327-6.278c0.215-2.092,0.655-4.148,1.306-6.149
	c0.655-2.004,1.615-4.01,2.878-6.019c1.265-2.002,2.946-4.009,5.038-6.018l31.396-27.864c3.312-3.05,5.84-6.625,7.586-10.725
	c1.747-4.102,2.617-8.461,2.617-13.082V34.518c0-3.137-0.372-6.17-1.114-9.092c-0.741-2.921-1.982-5.513-3.726-7.784
	c-1.747-2.27-4.056-4.074-6.936-5.427c-2.877-1.354-6.455-2.03-10.73-2.03c-4.008,0-7.41,0.59-10.201,1.765
	c-2.79,1.182-5.081,2.773-6.865,4.775c-1.793,2.01-3.122,4.34-3.992,7.001c-0.874,2.659-1.355,5.472-1.438,8.438
	c0.265,0.259,0.455,0.612,0.592,1.043c0.128,0.437,0.192,0.874,0.192,1.311c0,0.96-0.346,1.787-1.044,2.485
	c-0.702,0.702-1.528,1.045-2.484,1.045c-0.963,0-1.769-0.345-2.419-1.045c-0.655-0.699-0.982-1.525-0.982-2.485
	c0-0.437,0.066-0.872,0.194-1.311c0.132-0.432,0.326-0.784,0.591-1.043c0.171-3.664,0.804-7.132,1.896-10.401
	c1.088-3.269,2.721-6.169,4.905-8.701c2.181-2.53,4.992-4.535,8.438-6.017c3.444-1.483,7.654-2.224,12.62-2.224
	c5.32,0,9.748,0.827,13.283,2.484c3.528,1.658,6.387,3.886,8.567,6.674c2.181,2.793,3.729,5.976,4.644,9.547
	c0.917,3.581,1.375,7.24,1.375,10.99v32.705c0,4.445-0.763,9.003-2.288,13.666c-1.527,4.67-4.6,9.142-9.226,13.412l-31.658,27.862
	c-3.054,2.704-5.102,5.802-6.147,9.288c-1.045,3.487-1.654,7.455-1.83,11.907v46.306H234.538z"/>
<path fill="#FFFFFF" d="M315.121,167.947c0,3.837-0.479,7.542-1.44,11.119c-0.958,3.576-2.527,6.735-4.708,9.482
	c-2.179,2.75-5.058,4.951-8.636,6.61c-3.576,1.653-7.936,2.481-13.079,2.481c-5.32,0-9.766-0.83-13.343-2.481
	c-3.576-1.66-6.434-3.86-8.567-6.61c-2.139-2.746-3.662-5.906-4.579-9.482c-0.917-3.577-1.375-7.284-1.375-11.119V35.3
	c0-3.747,0.458-7.457,1.375-11.118c0.917-3.664,2.44-6.937,4.579-9.814c2.133-2.879,4.99-5.185,8.567-6.93s8.023-2.618,13.343-2.618
	c5.145,0,9.504,0.873,13.079,2.618c3.578,1.745,6.458,4.05,8.636,6.93c2.182,2.876,3.749,6.149,4.708,9.814
	c0.962,3.661,1.44,7.371,1.44,11.118V167.947z M264.758,167.947c0,3.14,0.373,6.171,1.113,9.094c0.74,2.921,1.979,5.537,3.727,7.845
	c1.744,2.312,4.056,4.144,6.935,5.494c2.877,1.354,6.452,2.028,10.726,2.028c4.271,0,7.851-0.672,10.729-2.028
	c2.875-1.353,5.187-3.185,6.931-5.494c1.743-2.308,2.989-4.924,3.73-7.845c0.739-2.923,1.112-5.955,1.112-9.094V35.3
	c0-3.053-0.373-6.082-1.112-9.089c-0.741-3.012-1.987-5.693-3.73-8.047c-1.744-2.357-4.056-4.271-6.931-5.757
	c-2.877-1.483-6.458-2.224-10.729-2.224c-4.274,0-7.848,0.741-10.726,2.224c-2.879,1.486-5.192,3.4-6.935,5.757
	c-1.748,2.354-2.987,5.036-3.727,8.047c-0.74,3.008-1.113,6.037-1.113,9.089V167.947z"/>
<g>
	<g>
		
			<linearGradient id="SVGID_1_" gradientUnits="userSpaceOnUse" x1="353.0352" y1="-245.813" x2="437.0054" y2="-100.3723" gradientTransform="matrix(1 0 0 -1 -22.9805 -76.3809)">
			<stop  offset="0" style="stop-color:#FFFFFF"/>
			<stop  offset="0.0749" style="stop-color:#FCFCFE"/>
			<stop  offset="0.1197" style="stop-color:#F4F4F9"/>
			<stop  offset="0.1566" style="stop-color:#E6E6F1"/>
			<stop  offset="0.1893" style="stop-color:#D2D2E7"/>
			<stop  offset="0.2191" style="stop-color:#B8B7D8"/>
			<stop  offset="0.2469" style="stop-color:#9797C7"/>
			<stop  offset="0.2731" style="stop-color:#7171B2"/>
			<stop  offset="0.2973" style="stop-color:#46459B"/>
			<stop  offset="0.3144" style="stop-color:#232288"/>
			<stop  offset="0.5045" style="stop-color:#E3007E"/>
			<stop  offset="0.6" style="stop-color:#E51F1F"/>
			<stop  offset="0.7303" style="stop-color:#FEED00"/>
			<stop  offset="0.7323" style="stop-color:#FEEE09"/>
			<stop  offset="0.7432" style="stop-color:#FEF137"/>
			<stop  offset="0.7555" style="stop-color:#FEF462"/>
			<stop  offset="0.7686" style="stop-color:#FFF788"/>
			<stop  offset="0.7829" style="stop-color:#FFF9A8"/>
			<stop  offset="0.7988" style="stop-color:#FFFBC4"/>
			<stop  offset="0.8166" style="stop-color:#FFFCDA"/>
			<stop  offset="0.8375" style="stop-color:#FFFEEB"/>
			<stop  offset="0.8633" style="stop-color:#FFFEF6"/>
			<stop  offset="0.8995" style="stop-color:#FFFFFD"/>
			<stop  offset="1" style="stop-color:#FFFFFF"/>
		</linearGradient>
		<path fill="url(#SVGID_1_)" d="M382.627,192.014c0.52,0.703,0.779,1.442,0.779,2.229c0,0.959-0.347,1.765-1.046,2.42
			c-0.697,0.653-1.529,0.979-2.483,0.979c-0.959,0-1.766-0.326-2.417-0.979c-0.656-0.655-0.985-1.461-0.985-2.42
			c0-0.787,0.258-1.526,0.784-2.229V14.501l-43.425,43.036c0,0.963-0.327,1.789-0.983,2.487c-0.656,0.698-1.464,1.048-2.418,1.048
			c-0.963,0-1.791-0.351-2.487-1.048c-0.698-0.699-1.048-1.524-1.048-2.487c0-0.781,0.312-1.503,0.918-2.155
			c0.609-0.655,1.394-1.069,2.354-1.246l46.307-46.177c0-0.783,0.327-1.503,0.985-2.159c0.653-0.656,1.458-0.981,2.417-0.981
			c0.954,0,1.786,0.347,2.483,1.045c0.702,0.698,1.048,1.528,1.048,2.489c0,0.783-0.263,1.567-0.781,2.351L382.627,192.014
			L382.627,192.014z"/>
		
			<linearGradient id="SVGID_2_" gradientUnits="userSpaceOnUse" x1="414.3203" y1="-253.9688" x2="502.3311" y2="-101.5297" gradientTransform="matrix(1 0 0 -1 -22.9805 -76.3809)">
			<stop  offset="0" style="stop-color:#FFFFFF"/>
			<stop  offset="0.0749" style="stop-color:#FCFCFE"/>
			<stop  offset="0.1197" style="stop-color:#F4F4F9"/>
			<stop  offset="0.1566" style="stop-color:#E6E6F1"/>
			<stop  offset="0.1893" style="stop-color:#D2D2E7"/>
			<stop  offset="0.2191" style="stop-color:#B8B7D8"/>
			<stop  offset="0.2469" style="stop-color:#9797C7"/>
			<stop  offset="0.2731" style="stop-color:#7171B2"/>
			<stop  offset="0.2973" style="stop-color:#46459B"/>
			<stop  offset="0.3144" style="stop-color:#232288"/>
			<stop  offset="0.5045" style="stop-color:#E3007E"/>
			<stop  offset="0.6" style="stop-color:#E51F1F"/>
			<stop  offset="0.7303" style="stop-color:#FEED00"/>
			<stop  offset="0.7323" style="stop-color:#FEEE09"/>
			<stop  offset="0.7432" style="stop-color:#FEF137"/>
			<stop  offset="0.7555" style="stop-color:#FEF462"/>
			<stop  offset="0.7686" style="stop-color:#FFF788"/>
			<stop  offset="0.7829" style="stop-color:#FFF9A8"/>
			<stop  offset="0.7988" style="stop-color:#FFFBC4"/>
			<stop  offset="0.8166" style="stop-color:#FFFCDA"/>
			<stop  offset="0.8375" style="stop-color:#FFFEEB"/>
			<stop  offset="0.8633" style="stop-color:#FFFEF6"/>
			<stop  offset="0.8995" style="stop-color:#FFFFFD"/>
			<stop  offset="1" style="stop-color:#FFFFFF"/>
		</linearGradient>
		<path fill="url(#SVGID_2_)" d="M463.205,167.947c0,3.837-0.483,7.542-1.446,11.119c-0.96,3.576-2.528,6.735-4.704,9.482
			c-2.185,2.75-5.062,4.951-8.635,6.61c-3.578,1.653-7.938,2.481-13.085,2.481c-5.316,0-9.766-0.83-13.338-2.481
			c-3.573-1.66-6.434-3.86-8.57-6.61c-2.141-2.746-3.662-5.906-4.578-9.482c-0.911-3.577-1.368-7.284-1.368-11.119V96.391v-2.874
			V35.3c0-3.747,0.457-7.457,1.368-11.118c0.916-3.664,2.439-6.937,4.578-9.814c2.138-2.879,4.993-5.185,8.57-6.93
			c3.574-1.745,8.021-2.618,13.338-2.618c4.975,0,9.181,0.784,12.629,2.356c3.442,1.567,6.255,3.662,8.437,6.275
			c2.178,2.622,3.813,5.606,4.903,8.965c1.091,3.358,1.726,6.867,1.901,10.529c0.255,0.26,0.457,0.612,0.583,1.048
			c0.135,0.437,0.2,0.871,0.2,1.307c0,0.963-0.326,1.787-0.983,2.485c-0.655,0.699-1.46,1.049-2.416,1.049
			c-0.962,0-1.793-0.35-2.486-1.049c-0.702-0.698-1.044-1.521-1.044-2.485c0-0.869,0.258-1.572,0.784-2.094
			c-0.182-2.877-0.681-5.687-1.509-8.434c-0.826-2.75-2.137-5.213-3.921-7.393c-1.788-2.181-4.082-3.929-6.871-5.235
			c-2.791-1.306-6.191-1.96-10.209-1.96c-4.267,0-7.845,0.741-10.725,2.224c-2.874,1.485-5.187,3.4-6.93,5.757
			c-1.748,2.355-2.988,5.036-3.729,8.047c-0.74,3.008-1.111,6.038-1.111,9.089v38.066c2.186-3.746,5.121-6.737,8.828-8.957
			c3.709-2.228,8.264-3.336,13.667-3.336c5.148,0,9.509,0.869,13.087,2.613c3.573,1.747,6.45,4.056,8.633,6.936
			c2.179,2.878,3.746,6.146,4.706,9.813c0.963,3.657,1.444,7.366,1.444,11.118L463.205,167.947L463.205,167.947z M412.84,167.686
			c0,3.14,0.369,6.189,1.113,9.157c0.739,2.964,1.981,5.606,3.729,7.912c1.743,2.312,4.056,4.166,6.93,5.565
			c2.878,1.396,6.458,2.09,10.725,2.09c4.276,0,7.854-0.694,10.733-2.09c2.875-1.399,5.188-3.254,6.936-5.565
			c1.744-2.306,2.986-4.948,3.728-7.912c0.737-2.965,1.111-6.017,1.111-9.157V91.94c0-3.139-0.374-6.213-1.111-9.22
			c-0.74-3.011-1.982-5.73-3.728-8.178c-1.747-2.438-4.061-4.4-6.936-5.887c-2.878-1.48-6.457-2.222-10.733-2.222
			c-4.267,0-7.845,0.742-10.725,2.222c-2.874,1.487-5.187,3.449-6.93,5.887c-1.746,2.445-2.988,5.167-3.729,8.178
			c-0.742,3.009-1.113,6.084-1.113,9.22V167.686z"/>
	</g>
</g>
<g>
	<path fill="#FFFFFF" d="M19.452,258.053h-3.424v-9.4H6.409v9.4H3v-20.854h3.409v8.53h9.619v-8.53h3.422L19.452,258.053
		L19.452,258.053z"/>
	<path fill="#FFFFFF" d="M67.107,258.053l-2.083-5.794h-7.972l-2.042,5.794h-3.597l7.804-20.943h3.709l7.804,20.943H67.107z
		 M64.129,249.324l-1.959-5.68c-0.139-0.386-0.341-0.979-0.59-1.799c-0.25-0.82-0.426-1.421-0.52-1.801
		c-0.253,1.172-0.633,2.455-1.127,3.841l-1.884,5.438H64.129L64.129,249.324z"/>
	<path fill="#FFFFFF" d="M116.524,243.503c0,2.177-0.713,3.843-2.145,5.002c-1.425,1.165-3.455,1.739-6.089,1.739h-2.167v7.805
		h-3.415v-20.854h6.007c2.609,0,4.56,0.525,5.857,1.594C115.875,239.857,116.524,241.428,116.524,243.503z M106.123,247.381h1.808
		c1.75,0,3.033-0.304,3.856-0.914c0.816-0.607,1.224-1.562,1.224-2.852c0-1.201-0.365-2.096-1.096-2.684
		c-0.735-0.591-1.875-0.889-3.425-0.889h-2.367V247.381z"/>
	<path fill="#FFFFFF" d="M163.726,243.503c0,2.177-0.715,3.843-2.144,5.002c-1.424,1.165-3.458,1.739-6.09,1.739h-2.17v7.805h-3.412
		v-20.854h6.004c2.61,0,4.565,0.525,5.861,1.594C163.074,239.857,163.726,241.428,163.726,243.503z M153.322,247.381h1.811
		c1.751,0,3.037-0.304,3.854-0.914c0.815-0.607,1.224-1.562,1.224-2.852c0-1.201-0.365-2.096-1.096-2.684
		c-0.734-0.591-1.875-0.889-3.423-0.889h-2.369v7.338H153.322z"/>
	<path fill="#FFFFFF" d="M203.002,246.712l4.941-9.515h3.709l-6.949,12.765v8.091h-3.426v-7.976l-6.916-12.882h3.709
		L203.002,246.712z"/>
	<path fill="#FFFFFF" d="M297.819,258.053h-4.177l-10.261-16.623h-0.115l0.068,0.93c0.136,1.771,0.204,3.386,0.204,4.854v10.841
		h-3.097v-20.855h4.138l10.228,16.533h0.09c-0.021-0.217-0.061-1.018-0.114-2.392c-0.058-1.374-0.091-2.444-0.091-3.219v-10.924
		h3.126L297.819,258.053L297.819,258.053z"/>
	<path fill="#FFFFFF" d="M344.354,258.053h-11.801v-20.854h11.801v2.877h-8.394v5.679h7.863v2.855h-7.863v6.548h8.394V258.053
		L344.354,258.053z"/>
	<path fill="#FFFFFF" d="M397.334,258.053h-3.709l-3.545-12.439c-0.15-0.541-0.339-1.324-0.57-2.348
		c-0.226-1.021-0.363-1.731-0.412-2.131c-0.097,0.608-0.25,1.396-0.465,2.368c-0.215,0.966-0.392,1.688-0.532,2.165l-3.454,12.385
		h-3.707l-2.701-10.441l-2.736-10.415h3.479l2.982,12.153c0.469,1.953,0.802,3.672,1.001,5.17c0.104-0.809,0.259-1.713,0.465-2.715
		c0.212-0.992,0.404-1.806,0.576-2.423l3.394-12.183h3.383l3.482,12.244c0.332,1.127,0.688,2.822,1.052,5.076
		c0.145-1.359,0.487-3.093,1.032-5.189l2.969-12.129h3.449L397.334,258.053z"/>
	<path fill="#FFFFFF" d="M477.651,246.712l4.935-9.515h3.709l-6.948,12.765v8.091h-3.428v-7.976l-6.918-12.882h3.705
		L477.651,246.712z"/>
	<path fill="#FFFFFF" d="M530.073,258.053H518.27v-20.854h11.805v2.877h-8.395v5.679h7.867v2.855h-7.867v6.548h8.395
		L530.073,258.053L530.073,258.053z"/>
	<path fill="#FFFFFF" d="M576.748,258.053l-2.086-5.794h-7.979l-2.038,5.794h-3.591l7.797-20.943h3.711l7.809,20.943H576.748z
		 M573.765,249.324l-1.956-5.68c-0.142-0.386-0.344-0.979-0.591-1.799c-0.253-0.82-0.426-1.421-0.519-1.801
		c-0.257,1.172-0.641,2.455-1.132,3.841l-1.88,5.438H573.765L573.765,249.324z"/>
	<path fill="#FFFFFF" d="M615.754,249.723v8.33h-3.409v-20.854h5.897c2.687,0,4.679,0.499,5.977,1.509
		c1.289,1.011,1.938,2.527,1.938,4.564c0,2.6-1.353,4.449-4.053,5.554l5.896,9.229h-3.886l-4.989-8.33h-3.371V249.723z
		 M615.754,246.896h2.369c1.593,0,2.741-0.293,3.455-0.888c0.713-0.587,1.068-1.461,1.068-2.622c0-1.18-0.386-2.029-1.154-2.539
		c-0.771-0.518-1.932-0.773-3.479-0.773h-2.257L615.754,246.896L615.754,246.896z"/>
</g>
<g>
	<path fill="#FFFFFF" d="M41.415,303.604c0.688,0,1.335,0.605,1.335,1.295v0.08c0,0.77-0.647,1.336-1.335,1.336H8.466
		c-0.729,0-1.335-0.566-1.335-1.336v-0.08c0-0.688,0.606-1.295,1.335-1.295H41.415z M40.564,273.934
		c0.729,0,1.335,0.566,1.335,1.338v0.078c0,0.729-0.606,1.297-1.335,1.297H9.315c-0.729,0-1.335-0.567-1.335-1.297v-0.078
		c0-0.771,0.607-1.338,1.335-1.338H40.564z M39.714,287.13c0.729,0,1.335,0.604,1.335,1.334v0.082c0,0.728-0.607,1.336-1.335,1.336
		H10.167c-0.729,0-1.335-0.608-1.335-1.336v-0.082c0-0.729,0.606-1.334,1.335-1.334H39.714z"/>
	<path fill="#FFFFFF" d="M82.21,287.656c0.729,0,1.335,0.566,1.335,1.336v0.038c0,0.729-0.607,1.337-1.335,1.337H66.789v16.838
		c0,0.77-0.606,1.337-1.335,1.337h-0.041c-0.728,0-1.335-0.567-1.335-1.337v-16.838H48.655c-0.728,0-1.334-0.608-1.334-1.337v-0.038
		c0-0.77,0.607-1.336,1.334-1.336h15.422v-14.41c0-0.77,0.607-1.335,1.335-1.335h0.041c0.729,0,1.335,0.565,1.335,1.335v14.41H82.21
		z"/>
	<path fill="#FFFFFF" d="M122.32,287.37c0.729,0,1.337,0.608,1.337,1.338v0.082c0,0.728-0.608,1.333-1.337,1.333H89.697
		c-0.729,0-1.335-0.605-1.335-1.333v-0.082c0-0.729,0.607-1.338,1.335-1.338H122.32z"/>
	<path fill="#FFFFFF" d="M162.955,281.501c0.728,0,1.335,0.61,1.335,1.336v0.082c0,0.729-0.607,1.336-1.335,1.336h-8.015
		c0.405,3.115,1.012,5.992,1.781,8.62c0.323,1.132,0.688,2.227,1.092,3.279c1.335-1.983,2.469-4.049,3.401-6.274
		c0.283-0.647,1.052-0.973,1.7-0.729l0.081,0.043c0.323,0.16,0.607,0.363,0.729,0.687c0.162,0.405,0.162,0.729,0,1.093
		c-1.214,2.954-2.794,5.668-4.655,8.178c1.215,2.67,2.672,5.059,4.331,7.203c0.446,0.567,0.324,1.377-0.161,1.818
		c-0.323,0.248-0.647,0.366-1.053,0.327c-0.365-0.041-0.729-0.162-0.932-0.529c-1.538-1.98-2.873-4.127-4.087-6.476
		c-1.093,1.257-2.267,2.47-3.521,3.645c-0.243,0.243-0.566,0.405-1.012,0.364c-0.363-0.041-0.647-0.203-0.89-0.485l-0.041-0.041
		c-0.445-0.526-0.405-1.334,0.082-1.819c1.498-1.378,2.914-2.873,4.128-4.411c-0.647-1.581-1.215-3.197-1.74-4.941
		c-0.89-2.953-1.539-6.109-1.983-9.551h-22.667c-0.729,0-1.335-0.607-1.335-1.336v-0.08c0-0.729,0.607-1.336,1.335-1.336h8.338
		v-4.049h-7.042c-0.729,0-1.335-0.605-1.335-1.294v-0.082c0-0.769,0.607-1.334,1.335-1.334h7.042v-1.056
		c0-0.726,0.606-1.334,1.336-1.334h0.041c0.728,0,1.334,0.608,1.334,1.334v1.056h7.083c0.688,0,1.335,0.565,1.335,1.334v0.082
		c0,0.688-0.648,1.294-1.335,1.294h-7.083v4.049h11.292c-0.203-2.388-0.322-4.896-0.322-7.527c0-0.729,0.606-1.336,1.335-1.336
		h0.081c0.688,0,1.295,0.605,1.334,1.295c0,2.672,0.122,5.182,0.324,7.568L162.955,281.501L162.955,281.501z M148.666,287.656
		c0.769,0,1.335,0.604,1.335,1.336v0.038c0,0.769-0.567,1.337-1.335,1.337h-13.641l-1.498,4.576h5.021v-2.311
		c0-0.728,0.606-1.335,1.334-1.335h0.08c0.77,0,1.335,0.607,1.335,1.335v2.311h6.597c0.77,0,1.336,0.606,1.336,1.336v0.037
		c0,0.729-0.567,1.336-1.336,1.336h-6.597v2.592l7.165-1.133c0.688-0.122,1.417,0.363,1.538,1.053v0.121
		c0.122,0.729-0.405,1.416-1.093,1.496l-7.608,1.256v4.251c0,0.728-0.568,1.336-1.336,1.336h-0.081
		c-0.729,0-1.334-0.608-1.334-1.336v-3.804l-8.42,1.332c-0.689,0.123-1.377-0.361-1.498-1.09v-0.082
		c-0.121-0.729,0.364-1.416,1.093-1.537l8.824-1.418v-3.034h-6.963c-0.445,0-0.851-0.204-1.093-0.528
		c-0.284-0.363-0.323-0.768-0.203-1.214l1.822-5.544h-2.186c-0.689,0-1.336-0.566-1.336-1.337v-0.04
		c0-0.729,0.648-1.336,1.336-1.336H133l0.566-1.619c0.243-0.688,0.971-1.053,1.701-0.811h0.041c0.688,0.205,1.053,1.013,0.85,1.66
		l-0.243,0.77H148.666L148.666,287.656z M162.266,278.346c0,0.769-0.606,1.338-1.335,1.338h-0.08c-0.73,0-1.336-0.569-1.336-1.338
		v-3.604c0-0.768,0.606-1.337,1.336-1.337h0.08c0.729,0,1.335,0.569,1.335,1.337V278.346z"/>
	<path fill="#FFFFFF" d="M171.491,307.288c-0.323,0.646-1.133,0.89-1.781,0.565l-0.08-0.041c-0.648-0.322-0.932-1.172-0.526-1.82
		l5.505-10.321c0.323-0.606,1.134-0.891,1.782-0.524h0.081c0.647,0.362,0.932,1.172,0.566,1.819L171.491,307.288z M173.961,278.79
		c0,0.769-0.607,1.336-1.336,1.336h-0.081c-0.769,0-1.336-0.567-1.336-1.336v-4.938c0-0.728,0.567-1.336,1.336-1.336h0.081
		c0.729,0,1.336,0.608,1.336,1.336V278.79z M173.961,289.962c0,0.771-0.607,1.337-1.336,1.337h-0.081
		c-0.769,0-1.336-0.566-1.336-1.337v-4.854c0-0.731,0.567-1.338,1.336-1.338h0.081c0.729,0,1.336,0.605,1.336,1.338V289.962z
		 M184.12,295.304c0,3.646-0.405,7.246-2.185,10.403c-0.284,0.484-0.606,1.052-0.971,1.62c-0.243,0.282-0.527,0.526-0.891,0.565
		c-0.364,0.041-0.769-0.039-1.053-0.283l-0.082-0.041c-0.526-0.442-0.648-1.213-0.243-1.82c0.849-1.254,1.457-2.467,1.902-3.926
		c0.606-2.023,0.77-4.293,0.77-6.516v-3.646c0-0.728,0.567-1.336,1.334-1.336h0.081c0.729,0,1.335,0.608,1.335,1.336L184.12,295.304
		L184.12,295.304z M202.699,275.025c0.769,0,1.334,0.607,1.334,1.338v0.037c0,0.729-0.566,1.338-1.334,1.338h-17.688v0.201
		l-1.66,8.095h14.854c0.607,0,1.174-0.198,1.619-0.646c0.445-0.447,0.648-1.015,0.648-1.66v-2.022c0-0.729,0.607-1.337,1.335-1.337
		h0.081c0.769,0,1.335,0.607,1.335,1.337v2.022c0,0.729-0.08,1.377-0.364,2.023c-0.85,1.903-2.591,3.037-4.654,3.037h-16.717
		c-0.405,0-0.729-0.206-0.971-0.487c-0.324-0.323-0.365-0.687-0.324-1.091l2.065-9.473h-2.106c-0.769,0-1.335-0.607-1.335-1.336
		v-0.041c0-0.729,0.567-1.336,1.335-1.336h9.877v-1.821c0-0.729,0.606-1.334,1.336-1.334h0.081c0.688,0,1.335,0.604,1.335,1.334
		v1.821H202.699L202.699,275.025z M192.985,306.598c0,0.771-0.607,1.338-1.334,1.338h-0.083c-0.728,0-1.335-0.567-1.335-1.338
		v-14.57c0-0.768,0.608-1.336,1.335-1.336h0.083c0.728,0,1.334,0.568,1.334,1.336V306.598z M203.589,308.257
		c-1.133,0-2.226-0.444-3.036-1.255c-0.809-0.811-1.294-1.902-1.294-3.077v-12.263c0-0.73,0.606-1.336,1.335-1.336h0.081
		c0.729,0,1.335,0.604,1.335,1.336v12.263c0,0.488,0.161,0.853,0.445,1.134c0.323,0.323,0.688,0.485,1.133,0.485h0.405
		c0.688,0,1.335,0.606,1.335,1.337v0.04c0,0.729-0.648,1.334-1.335,1.334h-0.404V308.257z"/>
	<path fill="#FFFFFF" d="M239.084,277.576c-0.202-0.608-0.527-1.135-0.971-1.577c-0.485-0.446-0.971-0.69-1.538-0.69h-18.499
		c-0.607,0-1.133,0.244-1.58,0.69c-0.444,0.442-0.769,0.969-0.971,1.577l-3.239,8.703c-0.242,0.688-1.052,1.051-1.7,0.81
		l-0.122-0.04c-0.647-0.245-1.012-1.054-0.769-1.701l3.238-8.701c0.364-1.135,1.012-2.065,1.903-2.873
		c0.85-0.771,1.982-1.174,3.238-1.174h18.499c1.215,0,2.266,0.402,3.197,1.174c0.891,0.808,1.498,1.738,1.903,2.873l3.198,8.701
		c0.283,0.647-0.081,1.456-0.77,1.701l-0.082,0.04c-0.688,0.241-1.457-0.122-1.7-0.81L239.084,277.576z M211.195,308.501
		c-0.729,0-1.335-0.565-1.335-1.336v-0.08c0-0.729,0.607-1.296,1.335-1.296h6.396l-2.671-6.881
		c-0.243-0.688,0.081-1.497,0.728-1.742c0.729-0.24,1.498,0.082,1.74,0.77l2.956,7.448c0.04,0.121,0.08,0.244,0.08,0.405h5.545
		v-12.266h-12.832c-0.728,0-1.335-0.565-1.335-1.336v-0.08c0-0.729,0.607-1.336,1.335-1.336h12.831v-5.991h-9.472
		c-0.769,0-1.334-0.646-1.334-1.335v-0.121c0-0.729,0.567-1.338,1.334-1.338h21.615c0.728,0,1.335,0.608,1.335,1.338v0.121
		c0,0.688-0.607,1.335-1.335,1.335h-9.432v5.991h12.75c0.729,0,1.336,0.607,1.336,1.336v0.08c0,0.771-0.607,1.336-1.336,1.336
		h-12.75v12.266h5.505c0-0.161,0.042-0.284,0.081-0.405l2.915-7.487c0.243-0.647,1.012-0.971,1.701-0.729h0.081
		c0.689,0.285,1.012,1.056,0.769,1.742l-2.671,6.881h6.314c0.729,0,1.336,0.565,1.336,1.296v0.08c0,0.77-0.607,1.336-1.336,1.336
		L211.195,308.501L211.195,308.501z"/>
	<path fill="#FFFFFF" d="M254.702,278.549c0,0.852,0.648,1.618,1.58,1.618h10.242v-7.043c0-0.771,0.606-1.337,1.335-1.337h0.04
		c0.729,0,1.335,0.566,1.335,1.337v7.043h10.2c1.053,0,1.58-0.769,1.58-1.618v-4.412c0-0.729,0.606-1.336,1.335-1.336h0.041
		c0.769,0,1.334,0.606,1.334,1.336v4.412c0,2.508-2.023,4.331-4.291,4.331h-19.226l-0.122,0.444l-2.226,4.088h24.61
		c0.77,0,1.335,0.648,1.335,1.378c0,0.202-0.081,0.403-0.162,0.604c-6.071,12.146-16.838,17.326-31.288,18.985
		c-0.728,0-1.417-0.446-1.417-1.296v-0.204c0-0.647,0.486-1.174,1.172-1.255c7.287-0.77,14.532-2.712,20.36-6.92h-17.931
		c-0.729,0-1.335-0.566-1.335-1.336v-0.042c0-0.769,0.606-1.334,1.335-1.334h21.17c1.701-1.661,3.198-3.604,4.493-5.83H255.43
		c-0.769,0-1.296-0.646-1.296-1.335c0-0.204,0.041-0.444,0.162-0.646l2.792-5.305h-0.81c-2.307,0-4.332-1.982-4.332-4.332v-4.412
		c0-0.729,0.648-1.337,1.335-1.337h0.081c0.729,0,1.334,0.608,1.334,1.337v4.415L254.702,278.549L254.702,278.549z"/>
	<path fill="#FFFFFF" d="M294.488,277.171c0.041-0.688,0.203-1.296,0.445-1.94c0.566-1.176,1.499-2.105,2.672-2.674
		c0.607-0.24,1.255-0.402,1.942-0.402h19.55c0.688,0,1.336,0.162,1.944,0.402c1.215,0.567,2.144,1.498,2.673,2.715
		c0.281,0.604,0.402,1.252,0.402,1.94v26.065c0,0.729-0.121,1.338-0.402,1.986c-0.529,1.213-1.458,2.144-2.673,2.711
		c-0.608,0.243-1.257,0.363-1.944,0.363h-1.903c-0.729,0-1.332-0.605-1.332-1.337v-0.041c0-0.728,0.604-1.333,1.332-1.333h1.903
		c0.606,0,1.175-0.203,1.617-0.689c0.447-0.443,0.69-1.012,0.69-1.66v-5.866h-25.46h-0.041l-0.647,9.591
		c-0.082,0.688-0.729,1.255-1.417,1.217h-0.081c-0.728-0.041-1.295-0.648-1.254-1.416L294.488,277.171z M296.674,286.157h-0.041
		l-0.567,8.5h25.337v-8.5H296.674z M321.405,283.445v-6.233c0-0.606-0.243-1.172-0.69-1.618c-0.44-0.484-1.008-0.688-1.617-0.688
		h-19.55c-0.605,0-1.133,0.201-1.578,0.688c-0.445,0.484-0.688,1.053-0.728,1.7l-0.406,6.151H321.405z"/>
</g>
<g>
	<path fill="#FFFFFF" d="M346.42,307.448c-0.326,0.688-1.093,0.972-1.821,0.605h-0.041c-0.648-0.321-0.931-1.094-0.607-1.739
		c0.607-1.377,1.174-2.791,1.619-4.33c0.526-1.577,0.931-3.278,1.175-5.101c0.122-0.729,0.809-1.216,1.539-1.134h0.04
		c0.364,0.08,0.687,0.243,0.932,0.566c0.202,0.283,0.281,0.647,0.202,1.014C348.891,300.932,347.876,304.21,346.42,307.448z
		 M346.3,279.843c0.079-0.647,0.281-1.253,0.565-1.86c0.526-1.174,1.417-2.147,2.591-2.674c0.567-0.281,1.172-0.404,1.862-0.404
		h14.814l-0.163-0.484c-0.28-0.729,0.122-1.496,0.81-1.741l0.082-0.038c0.688-0.242,1.457,0.078,1.697,0.769
		c0.166,0.526,0.367,1.012,0.565,1.496h5.063c0.444,0,0.812-0.161,1.093-0.484c0.286-0.282,0.405-0.608,0.444-0.89
		c0.081-0.567,0.526-0.975,1.096-0.975h0.28c0.404,0,0.771,0.122,1.014,0.485c0.281,0.323,0.325,0.688,0.281,1.093
		c-0.321,1.458-1.254,2.553-2.59,3.158c-0.484,0.243-1.01,0.322-1.617,0.322h-3.969c0.973,2.389,2.064,4.736,3.197,7.003
		c0.932-1.375,1.741-2.832,2.469-4.371c0.323-0.646,1.093-0.931,1.739-0.646l0.041,0.038c0.728,0.284,1.013,1.093,0.688,1.782
		c-0.972,2.104-2.146,4.127-3.52,5.988c1.294,2.388,2.629,4.656,4.046,6.883c0.405,0.648,0.203,1.457-0.401,1.861h-0.04
		c-0.608,0.404-1.459,0.242-1.823-0.404c-1.256-1.982-2.47-3.967-3.603-6.031c-1.377,1.619-2.914,3.157-4.614,4.615
		c-0.243,0.284-0.569,0.404-0.973,0.363c-0.364-0.041-0.648-0.201-0.893-0.484l-0.039-0.041c-0.486-0.566-0.404-1.416,0.12-1.9
		c1.821-1.621,3.521-3.362,4.979-5.222c-1.578-3.038-3.036-6.194-4.369-9.433h-15.907c-0.608,0-1.135,0.283-1.539,0.729
		c-0.445,0.484-0.688,1.051-0.729,1.738l-1.174,13.925c-0.08,0.729-0.728,1.295-1.456,1.216h-0.039
		c-0.77-0.041-1.298-0.688-1.256-1.416L346.3,279.843z M361.801,284.135c1.011,0,1.862,0.322,2.551,1.012
		c0.729,0.729,1.093,1.537,1.093,2.549v2.955c0,1.942-1.659,3.604-3.644,3.604h-7.203c-0.974,0-1.863-0.402-2.553-1.093
		c-0.646-0.646-0.97-1.537-0.97-2.509v-2.955c0-1.014,0.321-1.82,0.97-2.549c0.688-0.69,1.538-1.014,2.553-1.014H361.801
		L361.801,284.135z M363.784,279.762c0.729,0,1.335,0.607,1.335,1.336v0.038c0,0.771-0.606,1.337-1.335,1.337h-11.131
		c-0.729,0-1.337-0.566-1.337-1.337v-0.038c0-0.729,0.607-1.336,1.337-1.336H363.784z M358.238,308.703
		c-0.688,0-1.377-0.161-1.944-0.364c-1.172-0.446-2.103-1.215-2.672-2.308c-0.282-0.526-0.405-1.135-0.405-1.739v-6.881
		c0-0.688,0.57-1.337,1.336-1.337h0.043c0.769,0,1.336,0.647,1.336,1.337v6.881c0,0.483,0.242,0.849,0.688,1.172
		c0.483,0.325,1.011,0.485,1.619,0.485h11.495c0.769,0,1.338,0.607,1.338,1.337v0.079c0,0.688-0.569,1.336-1.338,1.336h-11.495
		L358.238,308.703L358.238,308.703z M354.598,286.804c-0.245,0-0.405,0.08-0.566,0.285c-0.162,0.159-0.284,0.364-0.284,0.604v2.955
		c0,0.244,0.122,0.445,0.284,0.569c0.161,0.202,0.321,0.281,0.566,0.281h7.203c0.484,0,0.851-0.363,0.851-0.851v-2.955
		c0-0.484-0.365-0.892-0.851-0.892h-7.203V286.804z M365.079,301.701c0,0.729-0.606,1.334-1.336,1.334h-0.08
		c-0.729,0-1.335-0.604-1.335-1.334v-4.292c0-0.728,0.605-1.337,1.335-1.337h0.08c0.729,0,1.336,0.609,1.336,1.337V301.701z
		 M378.881,306.639c0.244,0.688-0.12,1.416-0.808,1.659l-0.082,0.041c-0.688,0.203-1.417-0.161-1.701-0.853l-3.317-10.037
		c-0.241-0.646,0.161-1.416,0.81-1.66l0.081-0.04c0.687-0.242,1.497,0.16,1.699,0.851L378.881,306.639z"/>
	<path fill="#FFFFFF" d="M386.892,282.027c0.608,0,1.173,0.123,1.7,0.324c0.484,0.243,0.933,0.525,1.336,0.891
		c0.851,0.81,1.297,1.906,1.297,3.037v17.729c0,0.445,0.12,0.809,0.442,1.092c0.284,0.284,0.649,0.444,1.055,0.444h1.012
		c0.727,0,1.337,0.61,1.337,1.337v0.08c0,0.688-0.61,1.296-1.337,1.296h-1.012c-0.61,0-1.134-0.121-1.661-0.364
		c-1.014-0.443-1.822-1.174-2.227-2.186c-0.244-0.527-0.323-1.092-0.323-1.699v-17.729c0-0.403-0.161-0.769-0.446-1.053
		c-0.322-0.326-0.729-0.483-1.173-0.483h-1.415c-0.77,0-1.337-0.608-1.337-1.337v-0.041c0-0.729,0.567-1.338,1.337-1.338H386.892
		L386.892,282.027z M390.534,277.775c0,0.69-0.606,1.299-1.333,1.299h-0.041c-0.73,0-1.337-0.607-1.337-1.299v-4.612
		c0-0.729,0.605-1.335,1.337-1.335h0.041c0.727,0,1.333,0.605,1.333,1.335V277.775z M396.041,279.033
		c0-1.133,0.443-2.227,1.254-3.034c0.729-0.69,1.7-1.174,2.753-1.257v-1.579c0-0.729,0.567-1.335,1.335-1.335h0.04
		c0.77,0,1.336,0.605,1.336,1.335v1.579h0.363c1.783,0,3.24,1.051,3.927,2.67c0.204,0.488,0.323,1.014,0.323,1.621v15.261
		c0.688,0.079,1.176,0.687,1.176,1.296v0.079c0,0.728-0.486,1.255-1.176,1.336v6.313c0,0.688-0.119,1.338-0.364,1.942
		c-0.564,1.257-1.454,2.146-2.669,2.673c-0.649,0.281-1.296,0.404-1.981,0.404h-0.327c-0.688,0-1.294-0.605-1.294-1.337v-0.041
		c0-0.769,0.605-1.335,1.294-1.335h0.327c0.646,0,1.213-0.242,1.657-0.688c0.442-0.443,0.647-1.012,0.647-1.619v-6.313h-2.753
		c0,0.08-0.041,0.161-0.041,0.202c-0.363,2.023-0.932,3.885-1.66,5.505c-0.688,1.539-1.457,2.954-2.307,4.249
		c-0.159,0.325-0.483,0.487-0.892,0.566c-0.365,0.082-0.688,0-0.97-0.2l-0.082-0.081c-0.567-0.404-0.729-1.174-0.324-1.78
		c0.771-1.174,1.415-2.429,2.064-3.806c0.605-1.375,1.052-2.913,1.417-4.655h-2.995c-0.729,0-1.338-0.567-1.338-1.334v-0.081
		c0-0.646,0.566-1.257,1.258-1.296L396.041,279.033L396.041,279.033z M404.662,279.033c0-0.443-0.164-0.813-0.445-1.133
		c-0.243-0.324-0.646-0.445-1.093-0.445h-2.793c-0.445,0-0.853,0.121-1.133,0.445c-0.323,0.32-0.445,0.688-0.445,1.133v2.388h5.909
		V279.033L404.662,279.033z M398.751,287.938h5.909v-3.803h-5.909V287.938z M398.751,294.294h5.909v-3.604h-5.909V294.294z
		 M418.626,276.563c0.769,0,1.336,0.608,1.336,1.338v0.041c0,0.769-0.567,1.336-1.336,1.336v24.084c0,0.688-0.082,1.335-0.404,1.943
		c-0.811,1.862-2.55,3.034-4.613,3.034h-1.339c-0.727,0-1.335-0.606-1.335-1.337v-0.041c0-0.77,0.608-1.335,1.335-1.335h1.339
		c0.646,0,1.172-0.242,1.659-0.688c0.443-0.442,0.688-1.01,0.688-1.576v-24.084h-6.192c-0.689,0-1.295-0.567-1.295-1.336V277.9
		c0-0.729,0.604-1.338,1.295-1.338h6.192v-3.521c0-0.767,0.565-1.333,1.335-1.333c0.771,0,1.336,0.566,1.336,1.333L418.626,276.563
		L418.626,276.563z M414.295,294.373c0.16,0.729-0.324,1.458-1.051,1.618h-0.041c-0.729,0.081-1.418-0.363-1.58-1.05l-1.74-8.948
		c-0.12-0.687,0.325-1.414,1.053-1.536h0.043c0.686-0.16,1.414,0.323,1.536,1.012L414.295,294.373z"/>
	<path fill="#FFFFFF" d="M429.755,273.811c0.849-0.77,2.226-0.201,2.226,0.974v18.175c0,0.729-0.606,1.295-1.336,1.295h-0.078
		c-0.729,0-1.339-0.566-1.339-1.295v-14.977l-2.185,2.104c-0.284,0.243-0.609,0.364-0.972,0.364
		c-0.404-0.041-0.688-0.203-1.015-0.485c-0.444-0.528-0.444-1.376,0.082-1.903L429.755,273.811z M427.486,307.044
		c-0.161,0.363-0.405,0.565-0.729,0.729c-0.365,0.119-0.729,0.119-1.092-0.084c-0.609-0.282-0.932-1.094-0.609-1.699
		c1.336-3.196,2.228-6.477,2.835-9.999c0.118-0.728,0.769-1.255,1.496-1.132h0.082c0.402,0.082,0.687,0.242,0.89,0.567
		c0.243,0.282,0.323,0.605,0.243,1.011C429.995,300.162,428.984,303.645,427.486,307.044z M439.427,308.257
		c-0.688,0-1.375-0.121-1.982-0.325c-1.172-0.482-2.146-1.296-2.67-2.388c-0.284-0.567-0.445-1.131-0.445-1.739v-7.287
		c0-0.687,0.605-1.336,1.335-1.336h0.08c0.77,0,1.336,0.649,1.336,1.336v7.287c0,0.485,0.244,0.891,0.688,1.215
		c0.488,0.325,0.973,0.526,1.66,0.526h11.577c0.688,0,1.338,0.608,1.338,1.337v0.038c0,0.729-0.648,1.336-1.338,1.336H439.427
		L439.427,308.257z M440.319,287.734c-0.69,1.217-1.46,2.43-2.269,3.522c-0.205,0.322-0.527,0.524-0.892,0.566
		c-0.406,0.041-0.729-0.042-1.054-0.244v-0.039c-0.565-0.446-0.688-1.294-0.283-1.823c0.77-1.093,1.496-2.144,2.104-3.316
		c0.688-1.135,1.256-2.391,1.821-3.726c0.284-0.688,0.973-1.011,1.66-0.809c0.406,0.161,0.646,0.405,0.85,0.77
		c0.122,0.322,0.122,0.688,0.04,1.011C441.692,285.104,441.046,286.439,440.319,287.734z M440.521,275.025h17.892
		c0.442,0,0.809,0.203,1.092,0.526c0.243,0.364,0.323,0.77,0.202,1.214l-1.415,4.211c-0.202,0.688-0.972,1.092-1.659,0.891
		c-0.366-0.121-0.648-0.364-0.812-0.688c-0.159-0.324-0.202-0.648-0.08-1.054l0.769-2.347h-6.759v12.02
		c0,1.784-1.092,3.24-2.673,3.969c-0.526,0.203-1.093,0.323-1.699,0.323h-0.564c-0.771,0-1.338-0.608-1.338-1.336v-0.079
		c0-0.688,0.567-1.337,1.338-1.337h0.564c0.445,0,0.891-0.161,1.173-0.442c0.286-0.244,0.485-0.646,0.485-1.094V277.78h-8.579
		c-0.445,0-0.812-0.203-1.054-0.567c-0.282-0.363-0.363-0.768-0.202-1.213l1.095-3.076c0.281-0.729,1.051-1.093,1.78-0.812
		l0.039,0.042c0.686,0.242,1.051,0.973,0.81,1.699L440.521,275.025z M446.268,301.092c0,0.729-0.563,1.34-1.334,1.34h-0.041
		c-0.729,0-1.338-0.61-1.338-1.34v-4.613c0-0.729,0.608-1.334,1.338-1.334h0.041c0.771,0,1.334,0.604,1.334,1.334V301.092z
		 M459.747,290.045c0.324,0.646,0.122,1.455-0.526,1.82l-0.039,0.041c-0.648,0.363-1.458,0.117-1.861-0.528l-3.973-7.043
		c-0.362-0.688-0.115-1.457,0.529-1.821l0.04-0.039c0.649-0.324,1.459-0.123,1.821,0.526L459.747,290.045z M460.192,306.273
		c0.201,0.771-0.204,1.5-0.892,1.701h-0.081c-0.688,0.24-1.458-0.123-1.66-0.852l-3.358-10.564c-0.284-0.688,0.119-1.457,0.85-1.66
		l0.041-0.039c0.729-0.204,1.458,0.16,1.7,0.851L460.192,306.273z"/>
	<path fill="#FFFFFF" d="M499.408,287.33c0.73,0,1.337,0.607,1.337,1.336v0.083c0,0.729-0.605,1.335-1.337,1.335h-32.621
		c-0.729,0-1.337-0.605-1.337-1.335v-0.083c0-0.729,0.607-1.336,1.337-1.336H499.408z"/>
	<path fill="#FFFFFF" d="M515.962,272.598c1.052,0,1.902,0.323,2.552,1.012c0.726,0.688,1.051,1.537,1.051,2.552v8.054
		c0,1.014-0.325,1.82-1.051,2.512c-0.648,0.729-1.498,1.051-2.552,1.051h-0.646v4.615h3.439c0.729,0,1.336,0.607,1.336,1.336v0.039
		c0,0.77-0.605,1.336-1.336,1.336h-3.439v8.34l2.711-0.688c0.729-0.203,1.418,0.243,1.62,0.972l0.041,0.082
		c0.159,0.688-0.286,1.416-1.017,1.618l-11.614,2.791c-0.688,0.165-1.457-0.241-1.578-0.93l-0.039-0.081
		c-0.205-0.729,0.241-1.457,0.971-1.618l0.364-0.121v-0.243v-13.356c0-0.771,0.605-1.337,1.333-1.337h0.084
		c0.727,0,1.335,0.565,1.335,1.337v12.95l3.074-0.728v-0.284v-16.027h-2.63c-0.972,0-1.82-0.364-2.552-1.051
		c-0.646-0.649-1.012-1.58-1.012-2.513v-8.054c0-0.973,0.364-1.82,1.012-2.51c0.688-0.688,1.58-1.053,2.552-1.053h5.991V272.598z
		 M509.971,275.309c-0.485,0-0.851,0.364-0.851,0.853v8.054c0,0.485,0.362,0.852,0.851,0.852h5.991c0.242,0,0.404-0.121,0.608-0.243
		c0.158-0.161,0.242-0.405,0.242-0.607v-8.054c0-0.202-0.084-0.445-0.242-0.607c-0.204-0.121-0.366-0.244-0.608-0.244h-5.991
		V275.309z M526.566,274.825h12.548c0.931,0,1.619,1.009,1.213,1.901c-1.701,3.684-3.966,6.879-6.759,9.594l7.325,4.815
		c0.608,0.404,0.81,1.214,0.404,1.862l-0.041,0.038c-0.401,0.608-1.254,0.771-1.862,0.364l-7.892-5.221
		c-2.589,2.187-5.505,4.006-8.661,5.465c-0.689,0.362-1.456,0.041-1.783-0.646v-0.041c-0.321-0.648,0-1.458,0.649-1.739
		c2.592-1.216,5.14-2.794,7.406-4.616l-6.396-4.25c-0.646-0.405-0.808-1.217-0.363-1.821v-0.081
		c0.404-0.606,1.257-0.768,1.821-0.362l7.043,4.695c2.309-2.188,4.21-4.615,5.507-7.206h-12.225c-0.447,0-0.852-0.201-1.136-0.565
		c-0.242-0.364-0.283-0.81-0.12-1.216l0.972-2.671c0.284-0.688,1.052-1.053,1.701-0.771l0.118,0.043
		c0.73,0.242,1.054,0.97,0.811,1.697L526.566,274.825z M526.525,308.621c-1.782,0-3.239-1.012-3.927-2.631
		c-0.242-0.526-0.366-1.094-0.366-1.698v-6.235c0-0.566,0.124-1.131,0.366-1.66c0.688-1.658,2.104-2.668,3.927-2.668h10.117
		c1.782,0,3.279,1.051,3.97,2.668c0.241,0.529,0.322,1.094,0.322,1.66v6.235c0,2.388-1.901,4.329-4.292,4.329H526.525
		L526.525,308.621z M536.644,305.91c0.934,0,1.619-0.688,1.619-1.618v-6.235c0-0.891-0.687-1.576-1.619-1.576h-10.117
		c-0.893,0-1.538,0.687-1.538,1.576v6.235c0,0.931,0.646,1.618,1.538,1.618H536.644z"/>
	<path fill="#FFFFFF" d="M550.403,289.759c0,3.481-0.12,6.841-0.526,10.081c-0.322,2.348-0.729,4.37-1.295,6.639
		c-0.206,0.688-0.933,1.133-1.661,0.93l-0.08-0.04c-0.729-0.2-1.133-0.89-0.932-1.619c0.567-2.144,0.973-4.126,1.256-6.394
		c0.366-3.078,0.484-6.235,0.484-9.595v-7.083c0-0.771,0.607-1.337,1.336-1.337h0.081c0.729,0,1.333,0.566,1.333,1.337v7.081
		H550.403L550.403,289.759z M559.47,276.809c0.729,0,1.337,0.605,1.337,1.336v0.039c0,0.729-0.607,1.334-1.337,1.334h-4.448v27.526
		c0,0.729-0.57,1.295-1.338,1.295h-0.041c-0.729,0-1.336-0.565-1.336-1.295v-27.526h-4.412c-0.729,0-1.336-0.604-1.336-1.334v-0.039
		c0-0.729,0.606-1.336,1.336-1.336h4.412v-3.768c0-0.768,0.606-1.333,1.336-1.333h0.041c0.768,0,1.338,0.565,1.338,1.333v3.768
		H559.47z M559.874,306.479c0,0.726-0.565,1.334-1.335,1.334h-0.082c-0.688,0-1.295-0.608-1.295-1.334v-23.883
		c0-0.729,0.605-1.336,1.295-1.336h0.082c0.77,0,1.335,0.607,1.335,1.336V306.479z M567.688,308.216
		c-0.689,0-1.336-0.12-1.943-0.403c-1.903-0.811-3.036-2.551-3.036-4.655v-25.097c0-2.062,1.133-3.804,3.036-4.613
		c0.607-0.283,1.254-0.405,1.943-0.405h9.432c0.688,0,1.333,0.122,1.981,0.405c1.862,0.809,3.036,2.553,3.036,4.613v25.097
		c0,2.104-1.174,3.844-3.036,4.655c-0.648,0.283-1.295,0.403-1.981,0.403H567.688z M579.386,278.061
		c0-0.607-0.243-1.172-0.686-1.617c-0.447-0.445-0.978-0.69-1.581-0.69h-9.432c-0.607,0-1.175,0.247-1.62,0.69
		c-0.448,0.443-0.646,1.01-0.646,1.617v6.355h13.962v-6.355H579.386z M565.422,295.184h13.962v-8.014h-13.962V295.184z
		 M577.119,305.505c0.604,0,1.134-0.243,1.581-0.688c0.441-0.444,0.686-1.012,0.686-1.659v-5.261h-13.964v5.261
		c0,0.647,0.201,1.215,0.647,1.659c0.443,0.445,1.011,0.688,1.618,0.688H577.119z"/>
	<path fill="#FFFFFF" d="M592.453,274.984c0.894-0.81,2.268-0.242,2.268,0.974v31.166c0,0.728-0.567,1.336-1.336,1.336h-0.038
		c-0.729,0-1.338-0.608-1.338-1.336v-27.849l-2.873,2.752c-0.243,0.244-0.568,0.365-0.934,0.365c-0.362,0-0.688-0.162-0.932-0.406
		l-0.119-0.079c-0.443-0.527-0.443-1.377,0.041-1.902L592.453,274.984z M621.149,288.344c0.729,0,1.338,0.646,1.338,1.336v0.079
		c0,0.771-0.608,1.336-1.338,1.336h-9.996v7.325h9.838c0.727,0,1.335,0.569,1.335,1.338v0.041c0,0.77-0.608,1.336-1.335,1.336
		h-9.838v5.95c0,0.728-0.608,1.336-1.335,1.336h-0.08c-0.688,0-1.338-0.608-1.338-1.336v-5.95h-9.795
		c-0.771,0-1.338-0.566-1.338-1.336v-0.041c0-0.769,0.567-1.338,1.338-1.338h9.795v-7.325h-9.795c-0.771,0-1.338-0.565-1.338-1.336
		v-0.079c0-0.688,0.567-1.336,1.338-1.336h9.795v-14.854c0-0.729,0.648-1.339,1.338-1.339h0.08c0.727,0,1.335,0.608,1.335,1.339
		v14.854H621.149z M603.504,283.891c0.162,0.688-0.242,1.416-0.931,1.657h-0.081c-0.729,0.205-1.459-0.202-1.661-0.89l-2.43-8.217
		c-0.199-0.689,0.206-1.418,0.934-1.658l0.082-0.041c0.686-0.162,1.414,0.242,1.659,0.931L603.504,283.891z M619.453,281.461
		c-0.649,1.496-1.377,2.874-2.227,4.049c-0.164,0.322-0.487,0.524-0.893,0.607c-0.405,0.04-0.729-0.041-1.014-0.285
		c-0.566-0.443-0.729-1.215-0.323-1.821c0.729-1.052,1.378-2.305,1.981-3.642c0.649-1.416,1.093-2.875,1.5-4.291
		c0.119-0.689,0.809-1.135,1.495-1.014c0.406,0.082,0.729,0.244,0.933,0.607c0.202,0.285,0.242,0.689,0.161,1.055
		C620.707,278.304,620.183,279.884,619.453,281.461z"/>
</g>
<g>
	<path fill="#FFFFFF" d="M3.777,325.215c-0.629,0-1.156-0.489-1.156-1.154v-0.069c0-0.631,0.526-1.156,1.156-1.156h11.447
		c0.629,0,1.155,0.525,1.155,1.156v0.069c0,0.665-0.526,1.154-1.155,1.154h-4.237v21.846c0,0.629-0.526,1.156-1.155,1.156H9.797
		c-0.664,0-1.155-0.527-1.155-1.156v-21.846H3.777z M4.199,339.954c0.246-2.905,0.314-6.161,0.314-9.836
		c0-0.562,0-1.154-0.034-1.783c0-0.633,0.526-1.154,1.155-1.154h0.07c0.665,0,1.155,0.521,1.155,1.117
		c0,0.631,0.034,1.261,0.034,1.822c0,5.913-0.282,11.587-1.122,16.977c-0.139,0.633-0.7,1.088-1.329,0.98H4.406
		c-0.629-0.104-1.048-0.701-0.944-1.33C3.741,344.646,4.021,342.405,4.199,339.954z M5.143,319.651
		c-0.665,0-1.155-0.525-1.155-1.156v-0.105c0-0.629,0.492-1.154,1.155-1.154h9.592c0.629,0,1.155,0.525,1.155,1.154v0.105
		c0,0.631-0.526,1.156-1.155,1.156H5.143z M12.774,328.368c-0.036-0.632,0.49-1.189,1.12-1.189h0.071
		c0.595-0.035,1.155,0.488,1.188,1.118l0.595,18.729c0.035,0.664-0.49,1.192-1.121,1.192h-0.069c-0.595,0.033-1.155-0.49-1.19-1.122
		L12.774,328.368z M20.336,341.179c0.629-1.924,0.945-3.987,0.945-6.162v-1.467v-0.031c-0.314-0.07-0.595-0.144-0.875-0.319
		c-1.049-0.419-1.785-1.26-2.206-2.31c-0.209-0.525-0.349-1.121-0.349-1.68v-7.879c0-0.593,0.14-1.154,0.349-1.68
		c0.42-1.048,1.155-1.854,2.206-2.343c0.49-0.21,1.016-0.351,1.611-0.351h7.386c0.593,0,1.12,0.141,1.646,0.351
		c1.576,0.735,2.485,2.275,2.485,4.025v7.879c0,1.714-0.909,3.288-2.485,3.989c-0.351,0.174-0.7,0.316-1.051,0.35v10.292
		c0,0.49,0.176,0.978,0.49,1.364c0.349,0.386,0.771,0.559,1.26,0.559h1.296c0.629,0,1.155,0.563,1.155,1.154v0.072
		c0,0.666-0.526,1.154-1.155,1.154h-1.296c-1.716,0-3.186-1.014-3.814-2.625c-0.177-0.525-0.316-1.121-0.316-1.68V333.55h-3.956
		v1.467c0,1.228-0.105,2.455-0.246,3.643c-0.351,2.416-1.191,4.621-2.556,6.689c-0.49,0.699-1.085,1.398-1.716,2.064
		c-0.21,0.246-0.526,0.35-0.874,0.316c-0.317,0-0.597-0.107-0.807-0.387l-0.071-0.033c-0.385-0.457-0.385-1.156,0.071-1.578
		C18.831,344.295,19.777,342.79,20.336,341.179z M29.403,331.203c0.489,0,0.91-0.211,1.261-0.595
		c0.349-0.385,0.524-0.873,0.524-1.398v-7.879c0-0.527-0.175-1.014-0.524-1.435c-0.351-0.386-0.772-0.562-1.261-0.562h-7.386
		c-0.49,0-0.912,0.176-1.262,0.562c-0.349,0.421-0.524,0.907-0.524,1.435v7.879c0,0.525,0.175,1.014,0.524,1.398
		c0.351,0.386,0.772,0.595,1.262,0.595H29.403z"/>
	<path fill="#FFFFFF" d="M44.185,319.796h21.041c0.419,0,0.804,0.246,1.016,0.667c0.175,0.387,0.175,0.841-0.139,1.188
		c-1.016,1.332-2.242,2.559-3.676,3.714c-1.541,1.224-3.185,2.31-4.936,3.255l10.537,3.326c0.629,0.209,0.946,0.842,0.736,1.471
		v0.032c-0.176,0.631-0.806,0.945-1.436,0.772l-12.917-4.096c-2.381,1.051-4.901,1.854-7.458,2.521
		c-2.625,0.632-5.355,1.118-8.086,1.4c-0.665,0.071-1.226-0.42-1.26-1.049v-0.072c-0.069-0.594,0.419-1.188,1.014-1.224
		c4.307-0.386,8.507-1.225,12.498-2.658l-9.732-3.117c-0.595-0.176-0.909-0.875-0.77-1.435c0.141-0.315,0.28-0.561,0.595-0.702
		c0.28-0.173,0.561-0.211,0.876-0.103l12.391,3.955c2.906-1.365,5.636-3.15,8.122-5.462H42.156c-0.874,0-1.434-0.945-1.015-1.679
		l1.47-2.906c0.28-0.561,0.98-0.804,1.541-0.525l0.105,0.035c0.526,0.313,0.771,1.016,0.455,1.574L44.185,319.796z M45.13,348.223
		c-0.561,0-1.155-0.14-1.68-0.349c-1.646-0.701-2.625-2.24-2.625-4.063v-4.412c0-1.782,0.979-3.323,2.625-4.024
		c0.525-0.244,1.12-0.385,1.68-0.385H62.11c0.595,0,1.155,0.141,1.682,0.385c1.086,0.455,1.854,1.227,2.345,2.311
		c0.246,0.528,0.315,1.121,0.315,1.714v4.412c0,0.629-0.07,1.189-0.315,1.717c-0.49,1.086-1.259,1.891-2.345,2.346
		c-0.525,0.209-1.085,0.349-1.682,0.349H45.13z M62.108,345.841c0.526,0,1.016-0.174,1.401-0.559
		c0.419-0.387,0.629-0.875,0.629-1.471v-4.412c0-0.593-0.21-1.013-0.629-1.432c-0.386-0.386-0.875-0.595-1.401-0.595H45.129
		c-0.49,0-0.979,0.209-1.365,0.595c-0.385,0.419-0.595,0.841-0.595,1.432v4.412c0,0.597,0.21,1.084,0.595,1.471
		c0.385,0.385,0.875,0.559,1.365,0.559H62.108z"/>
	<path fill="#FFFFFF" d="M77.661,319.6c0.734-0.699,1.96-0.173,1.96,0.843v25.94c0,0.629-0.524,1.154-1.155,1.154h-0.035
		c-0.63,0-1.155-0.528-1.155-1.154v-23.176l-2.171,2.24c-0.456,0.457-1.19,0.457-1.647,0c-0.246-0.28-0.385-0.523-0.349-0.84
		c0-0.316,0.103-0.594,0.314-0.84L77.661,319.6z M103.181,320.545c0.631,0,1.155,0.492,1.155,1.156c0,0.661-0.524,1.156-1.155,1.156
		H83.122c-0.664,0-1.154-0.495-1.154-1.156c0-0.664,0.49-1.156,1.154-1.156h8.823v-1.75c0-0.629,0.524-1.156,1.155-1.156h0.035
		c0.665,0,1.155,0.527,1.155,1.156v1.75H103.181z M103.181,345.191c0.631,0,1.155,0.527,1.155,1.156v0.032
		c0,0.629-0.524,1.156-1.155,1.156H83.122c-0.664,0-1.154-0.527-1.154-1.156v-0.032c0-0.629,0.49-1.156,1.154-1.156H103.181z
		 M88.864,340.43c0.069,0.629-0.349,1.224-0.98,1.329h-0.104c-0.595,0.106-1.19-0.313-1.296-0.945l-2.17-13.3
		c-0.104-0.597,0.316-1.227,0.945-1.296h0.07c0.63-0.143,1.227,0.315,1.295,0.908L88.864,340.43z M99.68,340.92
		c-0.141,0.629-0.806,1.014-1.401,0.839l-0.104-0.032c-0.595-0.176-0.979-0.806-0.841-1.402c1.121-4.271,1.786-8.575,2.135-13.092
		c0.069-0.595,0.596-1.085,1.225-1.049h0.036c0.664,0.068,1.155,0.596,1.12,1.26C101.501,332.03,100.8,336.581,99.68,340.92z"/>
	<path fill="#FFFFFF" d="M137.323,319.306c0.629,0,1.155,0.487,1.155,1.154v0.07c0,0.596-0.526,1.156-1.155,1.156h-27.656
		c-0.631,0-1.155-0.561-1.155-1.156v-0.07c0-0.664,0.524-1.154,1.155-1.154h12.637v-1.438c0-0.661,0.525-1.155,1.156-1.155h0.068
		c0.629,0,1.156,0.493,1.156,1.155v1.438H137.323z M114.286,334.708c-0.246,0.212-0.561,0.282-0.909,0.176
		c-0.315-0.07-0.561-0.246-0.735-0.561c-0.314-0.561-0.106-1.226,0.351-1.541c1.785-1.155,3.079-2.413,3.99-3.813h-3.815
		c-0.561,0-1.016,0.209-1.401,0.629c-0.383,0.387-0.593,0.875-0.593,1.4v16.28c0,0.661-0.525,1.154-1.156,1.154h-0.07
		c-0.629,0-1.156-0.49-1.156-1.154v-16.28c0-0.593,0.142-1.154,0.385-1.679c0.42-1.086,1.226-1.891,2.311-2.347
		c0.526-0.243,1.121-0.313,1.682-0.313h1.05l-0.699-2.277c-0.176-0.664,0.173-1.293,0.806-1.504
		c0.595-0.144,1.225,0.211,1.399,0.805l0.841,2.66c0.035,0.103,0.035,0.211,0.035,0.313h13.792c0-0.103,0.036-0.211,0.07-0.313
		l0.841-2.696c0.176-0.596,0.806-0.912,1.436-0.733h0.035c0.56,0.209,0.909,0.84,0.736,1.468l-0.736,2.275h1.085
		c0.596,0,1.155,0.07,1.681,0.316c1.085,0.456,1.891,1.261,2.345,2.346c0.246,0.525,0.315,1.084,0.315,1.679v13.094
		c0,0.593-0.07,1.188-0.315,1.681c-0.456,1.117-1.26,1.889-2.345,2.344c-0.524,0.244-1.085,0.349-1.681,0.349h-0.385
		c-0.629,0-1.155-0.49-1.155-1.156v-0.032c0-0.667,0.526-1.156,1.155-1.156h0.385c0.526,0,1.016-0.211,1.401-0.594
		c0.419-0.419,0.629-0.875,0.629-1.435v-13.094c0-0.524-0.21-1.015-0.629-1.402c-0.385-0.419-0.875-0.626-1.401-0.626h-3.955
		l4.131,4.163c0.246,0.209,0.35,0.49,0.35,0.804c0,0.386-0.14,0.632-0.385,0.843c-0.42,0.455-1.155,0.455-1.611,0l-5.25-5.324
		c-0.141-0.138-0.246-0.314-0.314-0.485h-7.212c0,0.171-0.035,0.313-0.105,0.453C118.417,331.383,116.702,333.167,114.286,334.708z
		 M117.368,345.91c-1.503,0-2.8-0.91-3.395-2.311c-0.211-0.457-0.282-0.907-0.282-1.433v-3.293c0-2.064,1.646-3.745,3.676-3.745
		h12.253c2.03,0,3.71,1.681,3.71,3.745v3.293c0,0.525-0.103,0.976-0.314,1.433c-0.561,1.4-1.855,2.311-3.396,2.311H117.368z
		 M129.621,343.53c0.385,0,0.7-0.106,0.946-0.388c0.28-0.279,0.385-0.593,0.385-0.976v-3.293c0-0.804-0.561-1.365-1.331-1.365
		h-12.253c-0.769,0-1.33,0.562-1.33,1.365v3.293c0,0.383,0.105,0.697,0.385,0.976c0.244,0.281,0.56,0.388,0.944,0.388H129.621z"/>
	<path fill="#FFFFFF" d="M172.546,344.63c0.21,0.213,0.316,0.528,0.316,0.843c0,0.594-0.455,1.086-1.086,1.156
		c-0.314,0-0.593-0.07-0.805-0.316l-10.328-9.767l0.035,6.544c0,2.731-1.716,4.797-4.271,5.357
		c-0.104,0.034-0.175,0.034-0.246,0.034c-0.664,0-1.119-0.489-1.119-1.155v-0.034c0-1.752,3.291-1.018,3.291-4.203v-2.03
		c-3.535,2.8-8.786,4.655-13.583,5.67c-0.104,0.036-0.175,0.036-0.244,0.036c-0.526,0-1.016-0.35-1.121-0.947v-0.035
		c-0.036-0.068-0.036-0.172-0.036-0.244c0-0.525,0.385-0.979,0.909-1.084c4.69-1.013,10.607-3.152,13.618-6.162
		c0.105-0.102,0.28-0.21,0.42-0.245v-2.623c0-0.354-0.035-0.701-0.14-1.016c-3.186,3.5-8.402,6.089-13.408,7.351
		c-0.105,0.032-0.175,0.032-0.28,0.032c-0.49,0-0.945-0.349-1.085-0.907v-0.035c-0.036-0.07-0.036-0.175-0.036-0.245
		c0-0.528,0.35-0.945,0.875-1.087c4.517-1.154,9.942-3.921,12.532-7.068l0.037-0.036c-0.561-0.42-1.261-0.701-2.102-0.875
		c-0.175-0.034-0.314-0.069-0.419-0.14c-2.695,2.098-6.303,3.604-9.453,4.514c-0.139,0.038-0.244,0.071-0.349,0.071
		c-0.561,0-0.945-0.387-1.052-0.912h-0.033c-0.036-0.067-0.036-0.172-0.036-0.245c0-0.522,0.314-0.977,0.84-1.118
		c3.569-1.016,7.525-2.868,10.082-5.497h-8.612c-0.595,0-1.121-0.488-1.121-1.154v-0.033c0-0.63,0.526-1.118,1.121-1.118h25.415
		c0.631,0,1.155,0.488,1.155,1.118v0.033c0,0.666-0.524,1.154-1.155,1.154h-13.933c-0.034,0.176-0.103,0.351-0.21,0.492
		c-0.211,0.281-0.419,0.559-0.665,0.842c2.135,0.662,3.326,2.1,3.885,3.533c0.21,0.034,0.349,0.14,0.525,0.246l3.291,3.15
		l0.105-0.104l6.791-4.969c0.21-0.144,0.42-0.214,0.666-0.214c0.349,0,0.699,0.175,0.945,0.457l0.034,0.035
		c0.14,0.208,0.21,0.453,0.21,0.664c0,0.349-0.175,0.699-0.492,0.945l-6.546,4.796L172.546,344.63z M170.972,322.684
		c0-0.807-0.665-1.331-1.365-1.331h-22.509c-0.769,0-1.329,0.56-1.329,1.331v0.771c0,0.63-0.526,1.118-1.121,1.118h-0.071
		c-0.595,0-1.121-0.488-1.121-1.118v-0.771c0-2.03,1.647-3.642,3.642-3.642h10.118v-1.189c0-0.666,0.49-1.156,1.121-1.156h0.069
		c0.63,0,1.121,0.49,1.121,1.156v1.189h10.082c2.031,0,3.712,1.646,3.712,3.642v0.771c0,0.63-0.526,1.118-1.155,1.118h-0.034
		c-0.665,0-1.155-0.488-1.155-1.118v-0.771H170.972z"/>
	<path fill="#FFFFFF" d="M205.603,317.477c0.982,0,1.505,1.052,0.982,1.821l-5.533,7.807h5.882c0.875,0,1.401,0.876,1.014,1.647
		c-1.014,2.134-2.099,4.093-3.325,5.877c-1.261,1.855-2.662,3.538-4.166,5.043l7.981,5.775c0.526,0.386,0.629,1.085,0.246,1.576
		l-0.035,0.07c-0.385,0.524-1.086,0.633-1.577,0.281l-8.4-6.056c-1.716,1.4-3.605,2.625-5.601,3.673
		c-1.96,1.051-4.06,1.894-6.372,2.626c-0.315,0.108-0.63,0.071-0.946-0.104c-0.246-0.139-0.419-0.383-0.524-0.698l-0.035-0.069
		c-0.175-0.598,0.174-1.227,0.771-1.403c2.03-0.666,3.886-1.399,5.565-2.206c1.927-0.907,3.605-2.028,5.147-3.288l-11.062-7.982
		l-0.665,2.592c-1.189,4.516-2.73,8.717-4.587,12.567c-0.244,0.593-0.945,0.841-1.505,0.561l-0.035-0.035
		c-0.562-0.28-0.804-0.945-0.525-1.505c1.714-3.746,3.22-7.806,4.375-12.184c1.121-4.376,2.066-9.066,2.766-14.004h-4.936
		c-0.629,0-1.155-0.525-1.155-1.154v-0.07c0-0.632,0.526-1.156,1.155-1.156L205.603,317.477L205.603,317.477z M187.854,319.998
		c-0.456,3.257-1.015,6.371-1.682,9.383c0.105,0.035,0.211,0.104,0.315,0.176l11.973,8.681c2.521-2.484,4.587-5.426,6.511-8.786
		h-6.267c-0.945,0-1.47-1.051-0.909-1.82l5.495-7.773h-15.437v0.141H187.854z"/>
	<path fill="#FFFFFF" d="M215.343,347.537c-0.315,0.524-1.014,0.736-1.575,0.457c-0.28-0.176-0.492-0.387-0.561-0.735
		c-0.105-0.314-0.071-0.595,0.069-0.875l5.041-8.963c0.315-0.561,1.015-0.771,1.611-0.455l0.034,0.035
		c0.525,0.35,0.735,1.051,0.42,1.574L215.343,347.537z M217.584,322.857c0,0.629-0.526,1.154-1.155,1.154h-0.07
		c-0.631,0-1.155-0.525-1.155-1.154v-4.201c0-0.665,0.526-1.156,1.155-1.156h0.07c0.629,0,1.155,0.49,1.155,1.156V322.857z
		 M217.584,332.554c0,0.631-0.526,1.156-1.155,1.156h-0.07c-0.631,0-1.155-0.525-1.155-1.156v-4.233
		c0-0.632,0.526-1.156,1.155-1.156h0.07c0.629,0,1.155,0.524,1.155,1.156V332.554z M222.87,329.754c0-0.559,0.105-1.155,0.314-1.68
		c0.49-1.051,1.295-1.855,2.345-2.31c0.561-0.245,1.086-0.351,1.716-0.351h5.11v-7.563c0-0.661,0.56-1.155,1.155-1.155h0.07
		c0.63,0,1.155,0.493,1.155,1.155v7.563h5.146c0.595,0,1.189,0.105,1.681,0.351c1.085,0.454,1.89,1.259,2.345,2.31
		c0.246,0.524,0.351,1.121,0.351,1.68v14.389c0,0.561-0.104,1.155-0.351,1.677c-0.455,1.089-1.26,1.855-2.345,2.313
		c-0.49,0.281-1.085,0.35-1.681,0.35h-0.28c-0.629,0-1.155-0.488-1.155-1.154v-0.036c0-0.63,0.526-1.155,1.155-1.155h0.28
		c0.561,0,1.016-0.209,1.399-0.594c0.385-0.388,0.561-0.88,0.561-1.403v-1.648h-16.627l0.034,4.835c0,0.665-0.525,1.156-1.154,1.156
		h-0.036c-0.63,0-1.155-0.491-1.155-1.156L222.87,329.754z M228.193,322.646c0.314,0.559,0.034,1.263-0.49,1.539
		c-0.351,0.141-0.629,0.176-0.946,0.07c-0.28-0.103-0.526-0.279-0.629-0.593l-2.136-4.306c-0.28-0.595-0.07-1.26,0.526-1.54
		c0.28-0.176,0.561-0.211,0.91-0.07c0.314,0.104,0.524,0.28,0.665,0.561L228.193,322.646z M241.844,329.754
		c0-0.525-0.175-1.017-0.561-1.401c-0.383-0.385-0.839-0.561-1.399-0.561h-12.637c-0.56,0-1.051,0.176-1.436,0.561
		c-0.383,0.385-0.593,0.876-0.593,1.401v3.185h16.627v-3.185H241.844z M225.216,340.115h16.627v-4.797h-16.627V340.115z
		 M241.073,323.732c-0.14,0.279-0.385,0.454-0.735,0.525c-0.351,0.033-0.629-0.034-0.875-0.246h-0.069
		c-0.492-0.385-0.596-1.084-0.281-1.576c0.841-1.26,1.471-2.589,1.996-3.99c0.244-0.56,0.84-0.875,1.436-0.664l0.035,0.035
		c0.316,0.069,0.525,0.28,0.701,0.559c0.104,0.281,0.139,0.631,0.035,0.912C242.719,320.859,241.984,322.367,241.073,323.732z"/>
	<path fill="#FFFFFF" d="M255.611,344.788c1.75-0.527,3.115-1.086,4.026-1.752c0.945-0.666,1.54-1.365,1.82-2.169
		c0.176-0.455,0.315-1.016,0.386-1.576c0.034-0.562,0.524-1.016,1.12-1.016h0.069c0.351,0,0.629,0.14,0.841,0.384
		c0.246,0.247,0.313,0.562,0.279,0.878c-0.033,0.804-0.174,1.574-0.384,2.242l-0.175,0.485l14.002,3.676
		c0.595,0.176,0.979,0.771,0.805,1.367v0.067c-0.14,0.632-0.805,1.017-1.399,0.845l-14.492-3.818
		c-0.141-0.035-0.28-0.068-0.385-0.141l-0.456,0.387c-1.051,0.805-2.625,1.539-4.654,2.205c-1.786,0.561-4.131,1.087-6.966,1.539
		c-0.7,0.072-1.261-0.348-1.365-1.017v-0.067c-0.07-0.596,0.351-1.156,0.979-1.262C252.11,345.663,254.105,345.244,255.611,344.788z
		 M273.814,318.428c0.874,0,1.611,0.314,2.206,0.945c0.631,0.559,0.91,1.295,0.91,2.17v0.98c0,0.839-0.28,1.575-0.91,2.204
		c-0.595,0.597-1.331,0.91-2.206,0.91h-3.92v2.73h4.691c0.841,0,1.575,0.349,2.169,0.91c0.595,0.56,0.91,1.364,0.91,2.204v2.205
		c0,0.666-0.524,1.156-1.156,1.156h-0.068c-0.595,0-1.121-0.49-1.121-1.156v-2.205c0-0.418-0.314-0.733-0.735-0.733h-4.691v2.273
		c0,0.632-0.524,1.155-1.155,1.155h-0.035c-0.664,0-1.155-0.523-1.155-1.155v-2.273h-9.241c-0.875,1.258-2.03,2.31-3.429,3.219
		c-1.156,0.734-2.557,1.469-4.237,2.135c-0.595,0.246-1.295-0.034-1.506-0.629l-0.035-0.103c-0.209-0.596,0.071-1.229,0.632-1.471
		c1.399-0.596,2.591-1.156,3.535-1.786c0.665-0.418,1.26-0.876,1.785-1.363h-2.029c-0.84,0-1.574-0.352-2.206-0.945
		c-0.56-0.561-0.874-1.332-0.874-2.172v-1.294c0-1.225,0.735-2.312,1.89-2.801c0.385-0.176,0.772-0.28,1.191-0.28h4.866v-0.489
		v-1.964h-6.686c-0.666,0-1.155-0.523-1.155-1.156v-0.07c0-0.593,0.489-1.153,1.155-1.153h6.686v-0.49
		c0-0.63,0.525-1.157,1.156-1.157h0.034c0.629,0,1.155,0.528,1.155,1.157v0.49h7.315v-0.49c0-0.63,0.49-1.157,1.155-1.157h0.035
		c0.631,0,1.156,0.528,1.156,1.157v0.49h3.919V318.428z M273.5,338.484c0-0.383-0.141-0.699-0.385-0.979
		c-0.246-0.243-0.559-0.385-0.944-0.385h-17.119c-0.805,0-1.331,0.594-1.331,1.363v4.238c0,0.628-0.525,1.154-1.155,1.154h-0.07
		c-0.631,0-1.155-0.526-1.155-1.154v-4.238c0-2.029,1.717-3.709,3.712-3.709h17.119c1.015,0,1.926,0.385,2.626,1.086
		c0.314,0.348,0.595,0.732,0.804,1.155c0.177,0.489,0.282,0.98,0.282,1.468v4.238c0,0.628-0.526,1.154-1.155,1.154h-0.07
		c-0.629,0-1.155-0.526-1.155-1.154v-4.238H273.5z M257.675,325.638h-4.656c-0.211,0-0.35,0.073-0.526,0.212
		c-0.139,0.104-0.211,0.315-0.211,0.49v1.294c0,0.211,0.071,0.387,0.211,0.561c0.176,0.104,0.314,0.176,0.526,0.176h3.851
		c0.28-0.561,0.49-1.158,0.63-1.787C257.572,326.302,257.607,325.987,257.675,325.638z M259.496,328.37h8.053v-2.732h-7.492
		c-0.069,0.597-0.174,1.191-0.279,1.718C259.706,327.704,259.601,328.054,259.496,328.37z M260.232,323.259h7.315v-2.453h-7.315
		v1.964V323.259z M273.814,323.259c0.42,0,0.771-0.352,0.771-0.735v-0.979c0-0.455-0.351-0.737-0.771-0.737h-3.92v2.452
		L273.814,323.259L273.814,323.259z"/>
	<path fill="#FFFFFF" d="M311.875,320.28c0.665,0,1.155,0.523,1.155,1.156v0.032c0,0.629-0.49,1.156-1.155,1.156h-11.552v4.445h7.28
		v-1.891c0-0.594,0.492-1.156,1.156-1.156h0.034c0.664,0,1.156,0.563,1.156,1.156v1.891h2.94c0.631,0,1.155,0.527,1.155,1.156v0.07
		c0,0.663-0.524,1.156-1.155,1.156h-20.62c0,0.104,0,0.175-0.033,0.277c-0.281,0.91-0.667,1.754-1.086,2.592
		c0.315-0.07,0.631-0.106,0.98-0.106h16.487c0.561,0,1.156,0.106,1.682,0.353c1.085,0.455,1.854,1.259,2.309,2.311
		c0.246,0.524,0.351,1.086,0.351,1.715v7.458c0,0.594-0.105,1.191-0.351,1.715c-0.698,1.611-2.241,2.628-3.991,2.628h-16.487
		c-2.45,0-4.339-1.855-4.339-4.342v-7.105c-0.736,0.768-1.541,1.504-2.417,2.205c-0.246,0.174-0.56,0.28-0.875,0.212
		c-0.314-0.036-0.561-0.176-0.77-0.458l-0.07-0.035c-0.35-0.523-0.245-1.187,0.245-1.573c1.541-1.263,2.801-2.627,3.886-3.992
		c0.875-1.188,1.574-2.519,2.064-3.849h-4.446c-0.665,0-1.155-0.491-1.155-1.154v-0.073c0-0.629,0.492-1.154,1.155-1.154h12.568
		v-4.446h-11.551c-0.63,0-1.155-0.525-1.155-1.156v-0.032c0-0.631,0.526-1.156,1.155-1.156h11.551v-2.349
		c0-0.626,0.525-1.152,1.121-1.152h0.069c0.629,0,1.156,0.526,1.156,1.152v2.349h11.552V320.28z M310.616,336.594
		c0-0.597-0.211-1.051-0.594-1.471c-0.385-0.383-0.841-0.561-1.399-0.561h-16.489c-0.526,0-0.979,0.178-1.4,0.561
		c-0.385,0.42-0.595,0.874-0.595,1.471v2.38h20.481v-2.38H310.616z M308.621,346.043c0.559,0,1.014-0.209,1.399-0.593
		c0.385-0.421,0.594-0.843,0.594-1.401v-2.73h-20.479v2.73c0,0.559,0.211,0.978,0.595,1.401c0.419,0.384,0.874,0.593,1.399,0.593
		H308.621z"/>
	<path fill="#FFFFFF" d="M321.23,347.546c-0.209,0.527-0.841,0.878-1.506,0.666c-0.561-0.209-0.84-0.804-0.664-1.436l1.682-5.181
		c0.174-0.561,0.84-0.84,1.469-0.664c0.527,0.209,0.91,0.875,0.701,1.437L321.23,347.546z"/>
	<path fill="#FFFFFF" d="M347.734,327.107c0.664,0,1.156,0.525,1.156,1.157v0.033c0,0.663-0.49,1.155-1.156,1.155h-6.299v3.43h5.773
		c0.594,0,1.154,0.525,1.154,1.155v0.036c0,0.632-0.559,1.154-1.154,1.154h-5.773v8.823c0,0.594-0.143,1.188-0.352,1.715
		c-0.455,1.048-1.26,1.855-2.311,2.31c-0.49,0.212-0.98,0.317-1.471,0.351c-0.348,0.034-0.629-0.105-0.841-0.351
		c-0.28-0.211-0.349-0.454-0.349-0.806v-0.034c0-0.63,0.455-1.118,1.086-1.155c0.492-0.033,0.908-0.244,1.262-0.593
		c0.385-0.421,0.592-0.875,0.592-1.437v-8.821h-5.811c-0.594,0-1.119-0.524-1.119-1.156v-0.035c0-0.629,0.525-1.156,1.119-1.156
		h5.811v-3.427h-6.336c-0.662,0-1.154-0.492-1.154-1.156v-0.035c0-0.632,0.49-1.156,1.154-1.156h1.367v-2.73
		c0-0.662,0.523-1.154,1.154-1.154h0.069c0.597,0,1.119,0.491,1.119,1.154v2.73h7.634v-2.73c0-0.662,0.525-1.154,1.156-1.154h0.035
		c0.629,0,1.154,0.491,1.154,1.154v2.73L347.734,327.107L347.734,327.107z M334.187,347.236c-0.28,0.597-0.945,0.878-1.54,0.632
		l-0.068-0.034c-0.598-0.245-0.843-0.911-0.598-1.471c1.123-2.801,1.719-5.672,1.928-8.786c0.035-0.596,0.561-1.051,1.189-1.051
		h0.035c0.314,0.035,0.63,0.141,0.84,0.387c0.21,0.244,0.315,0.527,0.281,0.84C336.007,341.11,335.376,344.261,334.187,347.236z
		 M347.209,319.477c0.594,0,1.154,0.561,1.154,1.155v0.07c0,0.632-0.559,1.155-1.154,1.155h-13.968c-0.595,0-1.12-0.526-1.12-1.155
		v-0.07c0-0.593,0.525-1.155,1.12-1.155h5.812v-1.579c0-0.626,0.561-1.152,1.156-1.152h0.07c0.631,0,1.154,0.526,1.154,1.152v1.579
		H347.209z M348.154,346.503c0.139,0.629-0.279,1.225-0.91,1.33l-0.033,0.032c-0.666,0.104-1.26-0.279-1.365-0.945l-1.68-9.03
		c-0.141-0.631,0.281-1.226,0.873-1.331c0.35-0.069,0.631-0.035,0.912,0.143c0.277,0.209,0.455,0.417,0.488,0.733L348.154,346.503z
		 M350.359,321.857c0-0.594,0.143-1.155,0.35-1.681c0.734-1.575,2.277-2.662,4.027-2.662h7.352c0.594,0,1.121,0.526,1.121,1.156
		v0.035c0,0.664-0.527,1.154-1.121,1.154h-7.352c-0.596,0-1.051,0.244-1.402,0.631c-0.385,0.418-0.592,0.873-0.592,1.434
		l-0.107,4.973h9.521c0.666,0,1.156,0.522,1.156,1.155v0.071c0,0.629-0.49,1.153-1.156,1.153h-1.152v17.889
		c0,0.629-0.527,1.155-1.156,1.155h-0.035c-0.664,0-1.154-0.526-1.154-1.155v-17.889h-6.092l-0.105,5.845
		c-0.105,4.028-0.174,8.02-0.244,12.079c0,0.594-0.559,1.12-1.156,1.12h-0.07c-0.662-0.033-1.154-0.561-1.119-1.189L350.359,321.857
		z"/>
	<path fill="#FFFFFF" d="M370.393,331.403c0-0.597,0.141-1.156,0.385-1.717c0.42-1.051,1.227-1.855,2.277-2.312
		c0.561-0.244,1.154-0.347,1.715-0.347h8.365v-4.938H370.43c-0.805,0-1.365-0.805-1.086-1.576l1.154-2.87
		c0.387-0.943,1.717-1.016,2.137-0.07c0.105,0.314,0.141,0.595,0.035,0.944l-0.529,1.192h24.578c0.629,0,1.154,0.56,1.154,1.156
		v0.067c0,0.634-0.525,1.156-1.154,1.156h-11.203v4.938h10.746c0.594,0,1.156,0.523,1.156,1.152v0.069
		c0,0.599-0.563,1.157-1.156,1.157h-10.746v9.138h11.553c0.592,0,1.117,0.561,1.117,1.156v0.067c0,0.632-0.525,1.156-1.117,1.156
		h-11.553v6.197c0,0.631-0.527,1.154-1.156,1.154h-0.07c-0.596,0-1.156-0.523-1.156-1.154v-6.197h-15.33
		c-0.631,0-1.156-0.524-1.156-1.156v-0.067c0-0.595,0.527-1.156,1.156-1.156h2.59V331.403z M372.773,331.403v7.142h10.361v-9.138
		h-8.367c-0.559,0-1.016,0.176-1.398,0.56C372.982,330.35,372.773,330.805,372.773,331.403z"/>
	<path fill="#FFFFFF" d="M403.867,343.494c0,0.663-0.523,1.153-1.154,1.153h-0.068c-0.633,0-1.156-0.487-1.156-1.153v-21.773
		c0-0.665,0.525-1.156,1.156-1.156h0.068c0.631,0,1.154,0.491,1.154,1.156V343.494z M409.189,347.344
		c0,0.666-0.492,1.156-1.156,1.156H408c-0.631,0-1.156-0.49-1.156-1.156v-29.511c0-0.661,0.527-1.155,1.156-1.155h0.033
		c0.664,0,1.156,0.493,1.156,1.155v9.595h2.555c0.631,0,1.154,0.523,1.154,1.153v0.068c0,0.669-0.525,1.157-1.154,1.157h-2.555
		V347.344z M414.264,334.776c-0.596,0-1.121-0.526-1.121-1.156v-0.066c0-0.668,0.525-1.156,1.121-1.156h6.129
		c0.104-1.33,0.174-2.697,0.174-4.095v-5.776h-5.498c-0.629,0-1.154-0.525-1.154-1.157v-0.034c0-0.662,0.527-1.154,1.154-1.154
		h5.529v-2.277c0-0.629,0.529-1.155,1.158-1.155h0.07c0.629,0,1.156,0.526,1.156,1.155l-0.035,2.277h3.99
		c0.594,0,1.189,0.104,1.68,0.349c1.084,0.421,1.855,1.226,2.346,2.312c0.244,0.527,0.348,1.12,0.348,1.682v7.735v0.141h0.666
		c0.631,0,1.156,0.489,1.156,1.155v0.069c0,0.63-0.525,1.155-1.156,1.155h-6.301l6.791,11.308c0.316,0.526,0.174,1.226-0.385,1.574
		h-0.035c-0.527,0.352-1.227,0.174-1.576-0.385l-7.279-12.112c-0.105-0.105-0.143-0.243-0.176-0.385h-0.561l-0.105,0.666
		c-0.699,3.639-2.064,6.825-4.549,9.381c-0.912,0.944-1.926,1.821-3.082,2.731c-0.525,0.383-1.26,0.244-1.645-0.282h-0.035
		c-0.348-0.525-0.246-1.227,0.279-1.61c1.016-0.771,1.891-1.576,2.66-2.379c1.051-1.088,1.893-2.313,2.557-3.643
		c0.734-1.505,1.225-3.116,1.539-4.866H414.264L414.264,334.776z M422.912,328.303c0,1.469-0.07,2.836-0.174,4.095h6.229v-0.141
		v-7.735c0-0.527-0.209-1.016-0.592-1.402c-0.42-0.385-0.875-0.594-1.436-0.594h-3.992L422.912,328.303z"/>
	<path fill="#FFFFFF" d="M441.648,342.764c-0.594,1.47-1.332,2.765-2.137,3.954c-0.174,0.247-0.49,0.422-0.805,0.492
		c-0.314,0.035-0.631-0.035-0.875-0.281l-0.033-0.035c-0.488-0.385-0.596-1.05-0.244-1.54c0.736-1.047,1.398-2.276,1.959-3.571
		c0.596-1.4,1.156-2.94,1.646-4.585c0.178-0.63,0.807-0.98,1.398-0.807l0.072,0.034c0.631,0.143,0.98,0.806,0.805,1.437
		C442.912,339.648,442.35,341.257,441.648,342.764z M442.033,320.744c-0.385,0-0.699,0.142-0.945,0.42
		c-0.244,0.246-0.387,0.563-0.387,0.978v7.492c0,0.806,0.563,1.367,1.332,1.367h9.906v-6.934c0-0.593,0.527-1.154,1.156-1.154h0.07
		c0.664,0,1.154,0.562,1.154,1.154v6.934h11.973c0.631,0,1.156,0.525,1.156,1.154v0.034c0,0.629-0.527,1.154-1.156,1.154H454.32
		v9.73c0,0.562-0.104,1.156-0.348,1.682c-0.457,1.049-1.262,1.854-2.348,2.312c-0.488,0.209-1.084,0.347-1.68,0.347h-1.434
		c-0.666,0-1.154-0.525-1.154-1.155v-0.067c0-0.596,0.488-1.156,1.154-1.156h1.434c0.561,0,1.051-0.176,1.436-0.563
		c0.387-0.385,0.561-0.873,0.561-1.4v-9.729h-9.906c-0.457,0-0.945-0.103-1.402-0.281c-1.398-0.629-2.307-1.893-2.307-3.43v-7.493
		c0-1.017,0.383-1.961,1.086-2.659c0.699-0.699,1.645-1.087,2.623-1.087l23.279-0.629c0.666-0.034,1.154,0.491,1.191,1.12v0.104
		c0.033,0.631-0.457,1.154-1.121,1.189L442.033,320.744z M467.59,345.424c0.244,0.595,0,1.264-0.631,1.508l-0.07,0.033
		c-0.561,0.28-1.223-0.033-1.506-0.593l-3.643-8.402c-0.244-0.597,0-1.297,0.563-1.542l0.104-0.037c0.6-0.244,1.262,0,1.508,0.596
		L467.59,345.424z"/>
	<path fill="#FFFFFF" d="M473.865,321.982c0-0.63,0.455-1.088,1.191-1.088c0.594,0,1.084,0.458,1.084,1.088v13.651
		c0,0.595-0.488,1.088-1.156,1.088c-0.666,0-1.119-0.492-1.119-1.088V321.982L473.865,321.982z M473.865,341.096
		c0-0.63,0.455-1.121,1.191-1.121c0.594,0,1.084,0.491,1.084,1.121v2.064c0,0.634-0.488,1.121-1.156,1.121
		c-0.666,0-1.119-0.487-1.119-1.121V341.096L473.865,341.096z"/>
	<path fill="#FFFFFF" d="M513.184,317.686c0.631,0,1.158,0.527,1.158,1.121v0.07c0,0.629-0.529,1.154-1.158,1.154h-21.631v0.072
		c-0.178,2.24-0.389,4.479-0.633,6.686h18.27c0.6,0,1.156,0.14,1.719,0.351c1.051,0.488,1.854,1.293,2.309,2.344
		c0.246,0.525,0.35,1.086,0.35,1.715v11.483c0,0.595-0.104,1.19-0.35,1.682c-0.453,1.084-1.258,1.888-2.309,2.342
		c-0.563,0.247-1.119,0.353-1.719,0.353h-8.223c-0.633,0-1.156-0.492-1.156-1.155v-0.071c0-0.629,0.525-1.154,1.156-1.154h8.223
		c0.6,0,1.088-0.173,1.473-0.56c0.383-0.386,0.525-0.875,0.525-1.436v-11.483c0-0.559-0.143-1.016-0.525-1.434
		c-0.387-0.387-0.873-0.598-1.473-0.598h-18.445h-0.141c-0.318,2.031-0.633,4.027-1.051,5.99c-0.875,4.095-1.963,7.908-3.396,11.586
		c-0.244,0.629-0.945,0.907-1.506,0.661l-0.033-0.032c-0.594-0.211-0.875-0.875-0.666-1.47c2.313-5.848,3.713-12.254,4.551-18.661
		c0.281-2.272,0.49-4.651,0.701-7.21h-4.201c-0.664,0-1.156-0.525-1.156-1.154v-0.07c0-0.594,0.492-1.121,1.156-1.121H513.184
		L513.184,317.686z"/>
	<path fill="#FFFFFF" d="M548.131,319.132c0.627,0,1.154,0.523,1.154,1.156v0.031c0,0.63-0.527,1.156-1.154,1.156h-12.918v2.03
		H545.4c0.662,0,1.26,0.245,1.717,0.735c0.49,0.489,0.699,1.051,0.699,1.716v1.996c0,0.664-0.209,1.258-0.699,1.715
		c-0.457,0.456-1.053,0.734-1.717,0.734h-10.188v1.611h9.52c0.842,0,1.541,0.314,2.17,0.909c0.596,0.629,0.91,1.363,0.91,2.206
		v1.505h0.316c0.629,0,1.154,0.526,1.154,1.156v0.033c0,0.666-0.525,1.154-1.154,1.154h-0.316v1.435c0,0.772-0.35,1.542-0.91,2.138
		c-0.559,0.593-1.363,0.909-2.17,0.909h-9.52v0.033c0,0.631-0.07,1.193-0.352,1.717c-0.416,1.051-1.223,1.854-2.309,2.346
		c-0.527,0.21-1.086,0.35-1.682,0.35h-4.338c-0.633,0-1.154-0.559-1.154-1.155v-0.072c0-0.629,0.521-1.154,1.154-1.154h4.338
		c0.525,0,1.016-0.176,1.4-0.595c0.387-0.386,0.633-0.876,0.633-1.437v-0.035h-12.463c-0.631,0-1.156-0.489-1.156-1.118v-0.07
		c0-0.667,0.527-1.156,1.156-1.156h12.463v-2.137h-13.268c-0.631,0-1.156-0.488-1.156-1.154v-0.033c0-0.63,0.525-1.156,1.156-1.156
		h13.268v-2.277h-12.463c-0.631,0-1.156-0.487-1.156-1.154v-0.037c0-0.629,0.527-1.152,1.156-1.152h12.463v-1.611h-11.098
		c-0.701,0-1.262-0.28-1.752-0.736c-0.49-0.455-0.734-1.048-0.734-1.714v-1.996c0-0.663,0.244-1.225,0.734-1.717
		c0.49-0.488,1.051-0.734,1.752-0.734h11.098v-2.031h-13.268c-0.631,0-1.156-0.525-1.156-1.154v-0.033
		c0-0.631,0.525-1.155,1.156-1.155h13.268v-0.701c0-0.632,0.488-1.154,1.156-1.154c0.666,0,1.154,0.522,1.154,1.154v0.701h12.916
		V319.132z M521.701,327.953c0,0.032,0.031,0.07,0.102,0.07H532.9v-2.137h-11.098c-0.07,0-0.102,0.035-0.102,0.07V327.953z
		 M545.506,325.957c0-0.035-0.035-0.07-0.105-0.07h-10.188v2.137H545.4c0.07,0,0.105-0.035,0.105-0.07V325.957z M545.471,335.129
		c0-0.421-0.316-0.772-0.736-0.772h-9.521v2.277h10.26v-1.505H545.471z M544.736,341.114c0.174,0,0.385-0.07,0.488-0.244
		c0.176-0.104,0.246-0.314,0.246-0.458v-1.433h-10.258v2.135H544.736z"/>
	<path fill="#FFFFFF" d="M567.463,320.228c0.631,0,1.154,0.524,1.154,1.156v0.032c0,0.667-0.523,1.156-1.154,1.156h-0.877
		c0,1.962,0,3.817-0.033,5.463c0,1.959-0.105,3.781-0.316,5.425c-0.174,1.645-0.525,3.151-0.98,4.516
		c-0.455,1.367-1.119,2.662-1.996,3.851l-0.488,0.632l4.902,3.396c0.561,0.349,0.701,1.084,0.314,1.576v0.033
		c-0.385,0.524-1.121,0.665-1.609,0.279l-5.213-3.535c-1.541,1.471-3.432,2.73-5.357,3.922c-0.596,0.314-1.295,0.104-1.611-0.455
		l-0.035-0.035c-0.279-0.562-0.139-1.262,0.457-1.576c1.645-0.945,3.186-2.029,4.516-3.254l-0.316-0.246
		c-0.699-0.49-1.225-0.947-1.645-1.471c-0.771-0.978-1.225-2.063-1.363-3.256c-0.072-0.558-0.107-1.153-0.107-1.819v-0.771
		c0-0.244,0.035-0.488,0.035-0.7c0-0.175,0.035-0.349,0.035-0.527c0-0.103,0.035-0.278,0.035-0.455l0.314-10.991h-1.434
		c-0.633,0-1.158-0.487-1.158-1.156v-0.032c0-0.632,0.527-1.156,1.158-1.156h1.504l0.07-2.208c0-0.593,0.561-1.12,1.189-1.12
		l0.035,0.032c0.631,0,1.154,0.563,1.121,1.194l-0.07,2.101L567.463,320.228L567.463,320.228z M558.115,333.6v0.487
		c-0.035,0.176-0.035,0.316-0.035,0.528v1.401c0,0.908,0.107,1.713,0.387,2.521c0.244,0.771,0.805,1.47,1.68,2.066l0.629,0.454
		c0.947-1.225,1.717-2.59,2.242-4.2c0.418-1.262,0.699-2.66,0.873-4.203c0.213-1.506,0.316-3.218,0.316-5.074
		c0-1.543,0.035-3.188,0.035-5.008h-5.775L558.115,333.6z M574.92,346.97c-0.563,0-1.084-0.104-1.576-0.35
		c-1.541-0.735-2.592-2.171-2.592-3.886V322.57c0-1.68,1.051-3.185,2.592-3.885c0.492-0.246,1.014-0.313,1.576-0.313h5.322
		c0.557,0,1.119,0.067,1.572,0.313c1.578,0.7,2.592,2.205,2.592,3.885v20.164c0,1.715-1.051,3.15-2.592,3.886
		c-0.453,0.245-1.016,0.35-1.572,0.35H574.92z M580.242,344.593c0.486,0,0.908-0.214,1.258-0.562c0.35-0.313,0.527-0.77,0.527-1.294
		v-20.165c0-0.527-0.176-0.945-0.527-1.329c-0.348-0.352-0.771-0.528-1.258-0.528h-5.322c-0.457,0-0.91,0.176-1.262,0.528
		c-0.314,0.384-0.525,0.802-0.525,1.329v20.165c0,0.525,0.211,0.98,0.525,1.294c0.35,0.348,0.805,0.562,1.262,0.562H580.242z"/>
	<path fill="#FFFFFF" d="M592.5,344.858c-0.418,0.946-0.875,1.855-1.4,2.73c-0.176,0.279-0.422,0.456-0.736,0.526
		c-0.314,0.072-0.631,0-0.908-0.141l-0.068-0.071c-0.492-0.349-0.633-1.013-0.316-1.538c0.457-0.807,0.908-1.611,1.262-2.486
		c0.383-0.842,0.699-1.782,0.943-2.766c0.141-0.598,0.736-0.98,1.33-0.874c0.352,0.067,0.596,0.209,0.805,0.525
		c0.141,0.279,0.211,0.56,0.141,0.875C593.273,342.793,592.92,343.844,592.5,344.858z M618.127,324.275
		c0.629,0,1.154,0.525,1.154,1.154v0.07c0,0.63-0.525,1.155-1.154,1.155h-28.041c-0.594,0-1.121-0.525-1.121-1.155v-0.07
		c0-0.631,0.527-1.154,1.121-1.154h4.34v-1.435c0-0.632,0.525-1.12,1.154-1.12h0.035c0.633,0,1.156,0.488,1.156,1.12v1.435h14.631
		v-1.435c0-0.632,0.49-1.12,1.158-1.12h0.033c0.664,0,1.154,0.488,1.154,1.12v1.435H618.127z M616.936,318.357
		c0.631,0,1.156,0.525,1.156,1.154v0.069c0,0.632-0.525,1.156-1.156,1.156h-25.693c-0.631,0-1.154-0.527-1.154-1.156v-0.069
		c0-0.631,0.525-1.154,1.154-1.154h11.693v-0.49c0-0.664,0.523-1.154,1.154-1.154h0.07c0.596,0,1.156,0.488,1.156,1.154v0.49
		H616.936z M595.057,339.325c-1.994,0-3.711-1.646-3.711-3.674V331.8c0-0.943,0.42-1.961,1.086-2.624
		c0.35-0.315,0.734-0.595,1.189-0.771c0.457-0.211,0.947-0.279,1.436-0.279h18.027c0.529,0,1.02,0.068,1.438,0.279
		c0.457,0.176,0.873,0.455,1.223,0.771c0.701,0.663,1.086,1.681,1.086,2.624v3.852c0,1.506-0.906,2.799-2.309,3.396
		c-0.42,0.211-0.908,0.281-1.438,0.281h-18.027V339.325z M614.521,332.536V331.8c0-0.348-0.178-0.664-0.42-0.943
		c-0.281-0.279-0.596-0.388-1.018-0.388h-18.027c-0.385,0-0.699,0.108-0.945,0.388c-0.244,0.279-0.387,0.593-0.387,0.943v0.736
		H614.521z M613.084,336.981c0.42,0,0.734-0.106,1.02-0.386c0.24-0.244,0.418-0.561,0.418-0.944v-0.734h-20.797v0.734
		c0,0.771,0.561,1.33,1.332,1.33H613.084z M600.799,348.465c-0.631,0-1.156-0.071-1.646-0.315c-0.49-0.211-0.91-0.489-1.26-0.874
		c-0.631-0.737-0.945-1.611-0.945-2.592v-3.502c0-0.629,0.488-1.154,1.154-1.154s1.156,0.525,1.156,1.154v3.502
		c0,0.316,0.141,0.666,0.385,0.98c0.281,0.313,0.666,0.489,1.154,0.489h10.432c0.629,0,1.156,0.488,1.156,1.122v0.034
		c0,0.664-0.527,1.154-1.156,1.154L600.799,348.465L600.799,348.465z M607.205,343.109c0,0.664-0.523,1.156-1.156,1.156h-0.068
		c-0.631,0-1.121-0.49-1.121-1.156v-1.928c0-0.629,0.49-1.154,1.121-1.154h0.068c0.633,0,1.156,0.525,1.156,1.154V343.109z
		 M618.969,346.574c0.279,0.595,0,1.294-0.598,1.54l-0.035,0.033c-0.559,0.244-1.219-0.033-1.504-0.561l-2.656-5.74
		c-0.283-0.593-0.037-1.296,0.592-1.541l0.035-0.035c0.559-0.243,1.26,0,1.539,0.562L618.969,346.574z"/>
	<path fill="#FFFFFF" d="M625.346,321.982c0-0.63,0.455-1.088,1.189-1.088c0.596,0,1.086,0.458,1.086,1.088v13.651
		c0,0.595-0.488,1.088-1.154,1.088c-0.664,0-1.119-0.492-1.119-1.088v-13.651H625.346z M625.346,341.096
		c0-0.63,0.455-1.121,1.189-1.121c0.596,0,1.086,0.491,1.086,1.121v2.064c0,0.634-0.488,1.121-1.154,1.121
		c-0.664,0-1.119-0.487-1.119-1.121v-2.064H625.346z"/>
</g>
</svg>
