<?xml version="1.0" encoding="utf-8"?>
<!-- Generator: Adobe Illustrator 16.0.0, SVG Export Plug-In . SVG Version: 6.00 Build 0)  -->
<!DOCTYPE svg PUBLIC "-//W3C//DTD SVG 1.1//EN" "http://www.w3.org/Graphics/SVG/1.1/DTD/svg11.dtd">
<svg version="1.1" id="图层_1" xmlns="http://www.w3.org/2000/svg" xmlns:xlink="http://www.w3.org/1999/xlink" x="0px" y="0px"
	 width="680px" height="680px" viewBox="0 0 680 680" enable-background="new 0 0 680 680" xml:space="preserve">
<g>
	<g id="XMLID_9_">
		<g>
			<path fill="#FFFFFF" d="M349.297,252.547c5.4,5.047-4.604,7.049-8.057,8.75c-0.578,6.885,1.238,16.167-1.046,21.354
				c-7.473,1.113-2.979-12.607-4.2-18.9c-4.403,1.078-7.035,3.931-12.25,4.2c-4.417-6.748,8.411-7.119,12.25-10.15
				c0-8.284,0-16.565,0-24.847c-3.469-1.214-10.287,0.949-12.25-1.753c1.221-5.516-0.014-16.534,6.65-14.357
				c1.351,2.884-0.525,7-1.05,10.153c2.215,0,4.435,0,6.65,0c0.315-4.816-0.718-10.979,0.7-14.689c1.2-0.336,2.17-1.099,3.5-0.357
				c2.149,3.213,0.556,10.171,1.046,15.046c9.373-2.685,9.919,8.068,0.357,5.604c-0.82,6.895-0.119,15.288-0.357,22.761
				C344.386,254.868,345.895,252.768,349.297,252.547z"/>
			<path fill="#FFFFFF" d="M468.646,240.304c3.433,1.894,9.38,3.77,5.25,7.704c-5.989-0.917-10.396-4.858-15.048-7.357
				c-4.917-2.639-9.786-4.896-14.704-7.697c-4.718,5.855-10.786,13.85-19.946,12.943c-2.77-4.662,6.727-6.535,9.797-9.1
				c4.608-3.843,5.673-7.836,7.696-12.247c-4.81-0.445-11.642,1.134-14.351-1.4c0.053-3.532,2.583-11.816,7.354-8.4
				c0.979,1.715-0.42,2.744-0.347,4.554c12.499,0.448,26.811-0.917,38.146,0.7c0.56,3.91-1.271,8.225-3.15,10.836
				c-0.809,0-1.631,0-2.446,0c-2.048-1.341-1.116-4.147-0.354-6.29c-6.419,0-12.835,0-19.247,0c-3.451,3.958,2.912,5.488,6.296,7.35
				C458.781,234.757,463.149,237.263,468.646,240.304z"/>
			<path fill="#FFFFFF" d="M296.793,298.401c0,1.043,0,2.106,0,3.152c-1.516,0-3.031,0-4.547,0c0-1.046,0-2.109,0-3.152
				C293.762,298.401,295.277,298.401,296.793,298.401z"/>
			<path fill="#FFFFFF" d="M224.692,230.84c0.287,4.564-9.779,2.807-13.65,2.807c-6.272,0-11.141,0-16.45,0
				c6.846,11.522,15.396,24.325,23.454,36.404c2.338,3.51,7.479,7.704,5.25,12.6c-3.927,1.466-7.721-6.878-9.807-10.15
				c-7.158-11.238-15.873-23.58-22.754-33.947c-3.23,15.631-10.364,28.592-21.343,37.454c-3.248,2.614-7.647,6.909-12.597,5.593
				c-1.711-3.78,6.556-7.801,9.447-10.15c10.752-8.719,17.199-20.983,19.6-37.443c-4.599-0.641-9.895-0.36-16.104-0.36
				c-4.204,0-13.77,1.564-13.997-2.447c-0.249-4.462,9.811-2.804,13.997-2.804c6.439,0,11.364,0,16.804,0
				c2.548-4.553-1.876-16.104,5.596-15.75c2.429,3.787,0.084,10.749,0,15.393c5.054,0.651,10.819,0.357,17.497,0.357
				C214.237,228.397,224.44,226.885,224.692,230.84z"/>
			<path fill="#FFFFFF" d="M417.891,215.801c-0.309,3.311,0.829,8.053-1.047,9.793c-1.525,0.49-2.064,0.014-3.5-0.343
				C411.227,221.159,412.896,210.669,417.891,215.801z"/>
			<path fill="#FFFFFF" d="M239.039,304.694c3.539,3.237,0.721,12.828,2.107,18.204c-1.533-0.336-4.603,0.864-4.554-1.043
				c-2.695,1.914-9.881,1.001-13.646,0.692c-2.167-1.886-1.838-9.151-0.354-11.55c3.402-1.501,9.772-0.018,13.65-1.05
				c0.389-6.009-10.409-2.229-14.35-2.8c0.77-0.508-0.207-2.77,1.054-2.801C228.241,304.541,234.313,303.963,239.039,304.694z
				 M235.896,320.098c0.756-1.799,0.154-4.97,0.347-7.34c-3.377,0.123-7.315-0.322-10.153,0.348
				c-0.417,2.261-0.648,5.555,0.354,7.347C229.505,320.245,233.404,320.882,235.896,320.098z"/>
			<path fill="#FFFFFF" d="M466.198,305.408c1.516,3.994,2.047,14.146-0.7,17.14c-3.595,0.375-9.926,0.952-12.958-0.346
				c0,2.568,0,5.138,0,7.7c-1.747,0-3.493,0-5.243,0c0.581-7.719,0.57-17.83,0-25.555c0.351,0.154,2.047-0.168,3.144,0
				c0.508,0.077,1.593,1.062,1.754,1.062c0.608,0,1.799-0.945,2.453-1.062C458.456,303.7,463.021,304.188,466.198,305.408z
				 M461.994,320.452c0.574-3.645,0.574-9.653,0-13.304c-2.275-0.574-6.821-0.574-9.101,0c-0.576,3.649-0.576,9.659,0,13.304
				C455.932,320.452,458.963,320.452,461.994,320.452z"/>
			<path fill="#FFFFFF" d="M162.042,307.501c4.904,0,9.797,0,14.697,0c-1.285,3.833-0.746,11.015-0.347,15.396
				c-1.421-0.444-4.777,1.035-4.553-1.044c-3.269,1.9-11.043,1.016-15.397,0.693c-2.058-3.065-2.719-15.375-1.753-21.339
				c0.773-4.764,6.64-3.507,12.95-3.507c2.807,0,7.956-1.326,7.693,2.1c-2.964,1.184-10.941-0.434-15.036,0.707
				c-0.809,5.719-0.123,12.943-0.367,19.24c2.268,1.229,7.717,0.794,10.51,0.35c1.369-2.132,0.413-6.569,0.7-9.8
				c-2.877-0.065-7.371,0.091-9.097,0C162.042,309.36,162.042,308.436,162.042,307.501z"/>
			<path fill="#FFFFFF" d="M566.295,297.701c2.331,0,4.669,0,7,0c-0.584,7.608-0.584,17.595,0,25.197c-1.995,0-3.962,0-5.95,0
				c0.78-6.454,0.147-14.318,0.351-21.344c-2.832,6.962-5.38,14.207-8.05,21.344c-1.394,0-2.801,0-4.205,0
				c-2.323-7.348-5.189-14.172-7.699-21.344c-0.469,6.305-0.878,15.583,0.354,21.344c-1.169,0-2.331,0-3.504,0
				c0.588-7.603,0.588-17.588,0-25.197c2.457,0,4.904,0,7.357,0c2.142,6.479,4.627,12.632,6.997,18.907
				C561.763,310.672,563.884,304.033,566.295,297.701z"/>
			<path fill="#FFFFFF" d="M644.35,320.452c0.245,3.901-5.17,2.446-8.403,2.446c-3.731,0-7.707,0-10.512,0
				c1.131-6.793,1.181-18.063,0-24.851c1.418-0.815,4.323-0.119,6.312-0.347c-1.54,6.157-0.294,15.105-0.707,22.396
				C634.787,321.13,641.094,319.898,644.35,320.452z"/>
			<path fill="#FFFFFF" d="M413.688,232.247c9.173,0.193-1.685,11.281-3.146,14.357c-1.537,0.147-2.702-0.098-3.5-0.707
				C406.6,240.042,411.29,236.412,413.688,232.247z"/>
			<path fill="#FFFFFF" d="M253.742,224.901c1.593,2.478,9.226,11.532,3.847,12.596c-3.014,0.605-6.384-6.482-8.046-9.1
				c-1.593-2.492-10.759-13.37-2.45-13.3C249.378,217.596,251.047,220.683,253.742,224.901z"/>
			<path fill="#FFFFFF" d="M289.093,320.452c0.252,3.901-5.169,2.446-8.396,2.446c-3.738,0-7.7,0-10.504,0
				c1.124-6.793,1.169-18.063,0-24.851c1.411-0.815,4.309-0.119,6.297-0.347c-1.54,6.157-0.294,15.105-0.7,22.396
				C279.538,321.13,285.845,319.898,289.093,320.452z"/>
			<path fill="#FFFFFF" d="M485.798,298.401c0,1.043,0,2.106,0,3.152c-1.521,0-3.034,0-4.55,0c0-1.046,0-2.109,0-3.152
				C482.764,298.401,484.275,298.401,485.798,298.401z"/>
			<path fill="#FFFFFF" d="M532.345,304.348c-0.154,1.208,0.137,1.972,0.351,2.801c-3.776-0.444-9.563-0.662-13.3,0
				c-0.803,0.493-0.127,2.445-0.351,3.503c3.839,0.944,9.982-0.421,12.946,1.399c1.357,2.702,1.428,7.826-0.346,10.15
				c-1.862,1.066-5.888,0.695-9.457,0.695c-2.896,0-8.013,1.268-7.697-2.096c2.447-0.879,9.142-0.063,13.304-0.35
				c0.693-0.945,0.203-3.06,0.347-4.555c-3.902-1.222-11.357,1.104-13.297-2.093c-0.615-2.037-0.452-5.646,0-7.704
				C517.953,302.801,526.563,304.978,532.345,304.348z"/>
			<path fill="#FFFFFF" d="M441.344,304.694c1.669,3.217,3.563,12.46,1.4,16.454c-2.041,3.763-10.535,1.39-14.351,1.054
				c0.231,2.345-0.462,5.6,0.347,7.35c-1.058,0.806-3.608,0.123-5.25,0.351c0.347-7.642,1.008-18.142-0.347-25.208
				c-0.065-0.294,0.134-0.322,0.347-0.348c1.54,0.348,4.596-0.854,4.557,1.062C430.669,303.466,437.634,304.425,441.344,304.694z
				 M438.194,320.098c0.57-3.576,0.57-9.354,0-12.949c-2.446-0.521-7.024-0.612-9.454,0c-0.577,3.534-0.577,9.426,0,12.949
				C431.131,320.675,435.804,320.675,438.194,320.098z"/>
			<path fill="#FFFFFF" d="M345.797,322.898c-1.757,0-3.504,0-5.257,0c0.271-4.624,1.033-11.715-0.346-15.75
				c-2.279-0.574-6.818-0.574-9.1,0c-1.365,3.833-0.71,11.356-0.357,15.75c-1.855,0-3.724,0-5.593,0
				c1.354-7.021,0.707-17.596,0.354-25.197c1.631,0,3.262,0,4.896,0c0,2.331,0,4.669,0,6.993c2.607-0.302,9.601-0.726,13.304,0
				C347.189,307.967,344.386,317.54,345.797,322.898z"/>
			<path fill="#FFFFFF" d="M418.938,304.348c0.22,6.095-0.438,13.045,0.354,18.551c-5.895-0.844-12.775,1.05-18.895-0.696
				c-2.684-3.735-0.553-12.292-1.752-17.507c1.061-0.802,3.608-0.108,5.25-0.348c0.224,5.149-0.455,11.193,0.354,15.75
				c2.363,0.784,6.157,0.147,9.098,0.354c2.016-3.683,0.829-11.295,0.699-16.104C415.682,304.348,417.307,304.348,418.938,304.348z"
				/>
			<path fill="#FFFFFF" d="M622.642,320.452c0.141,3.867-5.138,2.446-8.399,2.446c-3.749,0-7.672,0-10.5,0
				c1.124-7.024,1.124-18.165,0-25.197c1.98,0,3.972,0,5.957,0c-0.761,6.825-0.168,15.019-0.354,22.396
				C613.115,321.188,619.328,319.825,622.642,320.452z"/>
			<path fill="#FFFFFF" d="M297.15,322.898c-1.757,0-3.511,0-5.257,0c0.553-5.437,0.595-13.111,0-18.551c1.638,0,3.269,0,4.9,0
				C296.94,310.504,296.446,317.291,297.15,322.898z"/>
			<path fill="#FFFFFF" d="M670.596,198.304c1.38,2.471,0.71,8.845,0.348,11.89c-2.294-0.724-0.458-5.593-1.048-8.04
				c-1.47,2.499-2.246,5.677-3.854,8.04c-2.887-1.298-2.939-5.446-4.55-8.04c-1.246,1.785,0.776,6.839-1.046,8.04
				c-1.614-2.58-0.252-8.141-0.7-11.89c0.35,0,0.7,0,1.05,0c2.191,2.471,3.052,6.279,4.547,9.45
				C667.891,205.392,667.75,200.358,670.596,198.304z"/>
			<path fill="#FFFFFF" d="M393.744,298.048c-0.207,1.146,0.238,1.631,0.347,2.46c-3.993-0.476-10.042-0.668-13.997,0
				c-1.173,1.188-0.707,4.567-0.347,6.296c3.771,1.113,10.401-0.602,13.644,1.047c1.553,3.385,1.914,12.261-0.701,14.696
				c-5.277,0.561-12.929,0.609-18.192,0c0-0.584,0-1.166,0-1.746c3.08-1.313,10.542,0.49,14.696-0.704c0-2.323,0-4.662,0-6.993
				c-3.269-1.638-9.846,0.046-13.649-1.054c-1.663-2.958-1.517-10.671,0-13.649C380.236,297.145,388.504,297.6,393.744,298.048z"/>
			<path fill="#FFFFFF" d="M471.098,257.447c0.403,3.087,1.048,13.797-2.8,13.657c-4.802-0.189-0.301-14.697-5.253-16.804
				c-4.563-1.946-15.215-0.346-23.447-0.346c-5.571,0-19.709-1.708-22.054,1.747c-2.569,3.808,1.823,15.127-3.146,15.403
				c-3.735,0.196-3.801-11.932-2.45-16.104c0.962-3,4.333-5.316,7.343-5.954c4.725-0.98,14.188-0.35,22.054-0.35
				C455.147,248.697,469.554,245.873,471.098,257.447z"/>
			<path fill="#FFFFFF" d="M657.646,198.65c-0.136,1.488-2.93,0.333-4.199,0.704c-0.441,3.405,0.906,8.603-0.7,10.839
				c-1.604-2.117-0.255-7.21-0.7-10.489c-0.71-0.815-2.9-0.137-4.204-0.35c0-0.234,0-0.465,0-0.704
				C649.529,197.492,655.956,197.492,657.646,198.65z"/>
			<path fill="#FFFFFF" d="M260.042,320.098c-0.546,0.512-0.305,1.803-0.354,2.801c-4.109-0.318-9.727,0.856-12.243-1.043
				c-1.369-3.776-0.431-9.854-0.7-14.707c-0.269-1.016-2.891,0.325-3.153-0.7c0-0.462,0-0.932,0-1.4
				c-0.137-1.417,2.177-0.385,3.153-0.7c0-1.283,0-2.562,0-3.839c1.264-0.252,2.902-0.144,3.843-0.707
				c1.516,0.231,0.329,3.179,0.7,4.546c2.685,0,5.369,0,8.053,0c0,0.823,0,1.639,0,2.457c-2.569,0-5.138,0-7.707,0
				c-0.448,3.722-0.896,10.47,0.347,13.647C254.649,320.308,257.936,320.794,260.042,320.098z"/>
			<path fill="#FFFFFF" d="M557.545,259.205c0,6.538,0.791,13.304,0,17.143c-1.103,5.341-7.896,9.296-12.954,6.304
				c-2.197-5.814,5.149-2.552,7.357-6.304c1.547-2.625,0.699-12.18,0.699-17.143c0-6.356,1.303-13.321-0.699-17.161
				c-2.09-3.979-7.91-1.932-12.604-2.447c0.276,3.283,10.703,7.693,9.45,11.911c-1.585,5.348-7.626-2.033-9.803-4.21
				c-3.007-3-4.918-5.194-7.348-7.7c-5.25,0-10.504,0-15.746,0c-2.237,3.84-5.033,7.595-8.758,10.5c-1.738,1.372-4.301,3.602-7,2.45
				c-1.746-6.604,7.795-7.473,9.45-12.95c-17.206-3.881-13.297,9.271-13.297,24.5c0,3.206,0,7.262,0,11.196
				c0,4.375,0.438,8.264-2.45,8.404c-4.33,0.22-2.8-13.797-2.8-19.25c0-14.865-3.293-31.591,12.25-30.093
				c-0.021-2.905-2.69-5.002-1.399-7.357c2.51-4.582,6.992,2.835,6.646,7.357c10.388,0,20.771,0,31.157,0
				c2.293-2.608,0.539-9.261,6.293-8.404c2.303,2.215,0.049,6.055-0.697,8.404C559.131,232.804,557.545,244.875,557.545,259.205z"/>
			<path fill="#FFFFFF" d="M194.238,304.348c0.221,0.956-0.441,2.786,0.354,3.154c-1.747,0.542-6.178-0.623-8.396,0.35
				c-0.578,4.268-0.578,10.791,0,15.047c-1.869,0-3.752,0-5.6,0c1.277-5.051,0.675-12.926,0.347-18.551
				c1.421,0.448,4.777-1.039,4.553,1.062C187.151,303.788,191.113,304.502,194.238,304.348z"/>
			<path fill="#FFFFFF" d="M486.146,322.898c-1.748,0-3.498,0-5.25,0c0.569-5.446,0.569-13.095,0-18.551c1.638,0,3.271,0,4.902,0
				C485.973,310.48,485.41,317.336,486.146,322.898z"/>
			<path fill="#FFFFFF" d="M589.746,266.905c9.319,4.063-14.511,11.998-16.45,10.15c-3.339-3.199,2.639-5.754,5.604-6.3
				c0-11.907,0-23.804,0-35.7c-2.026-0.189-4.974,0.532-5.949-0.7c-0.784-1.446-0.516-2.363,0-3.861
				c1.292-0.917,3.742-0.672,5.949-0.693c0.438-4.235-1.024-10.364,1.047-12.957c1.869-0.735,3.178,0.035,4.199,1.053
				c0,3.976,0,7.935,0,11.904c8.071-2.401,8.664,7.441,0.354,5.253c-0.815,10.503-0.123,22.516-0.354,33.597
				C586.175,268.231,587.323,266.918,589.746,266.905z"/>
			<path fill="#FFFFFF" d="M392.689,229.101c0.953,6.195,0,14.413,0,23.093c0,8.795,1.313,19.012-0.346,24.154
				c-1.83,5.684-10.227,8.463-15.4,4.907c-0.783-6.055,5.205-2.667,8.404-4.561c3.773-2.226,2.101-16.16,2.101-23.093
				c0-4.172,0-8.635,0-12.604c0-7.525,1.364-15.792-6.304-14.689c-1.916,14.83-3.731,30.072-7.348,44.447
				c-0.783,3.091-2.125,12.471-6.3,10.847c-3.332-1.292,0.444-10.063,1.053-12.597c3.108-13.122,5.765-27.437,6.646-42.357
				c-1.991-0.815-5.484-0.119-8.054-0.339c-1.873,14.907-4.903,30.034-8.742,44.09c-0.899,3.262-2.002,12.821-6.305,11.204
				c-3.359-1.26,0.731-10.125,1.4-12.597c3.527-13.174,6.438-27.717,8.043-42.357c-1.785-1.011-6.023,0.431-7.348-1.053
				c-1.448-2.849,4.799-16.807,8.047-10.843c1.386,2.548-1.221,3.545-1.4,6.3C373.064,222.244,390.818,216.798,392.689,229.101z"/>
			<path fill="#FFFFFF" d="M644.696,289.644c-0.199,2.492-4.399,1.407-6.653,1.407c-158.909,0-319.35,0-478.801,0
				c-1.918,0-5.796,0.864-6.65-1.04c0.032-0.567-0.168-1.344,0.354-1.411c161.247,0,323.435,0,485.098,0
				C639.971,288.601,643.849,287.729,644.696,289.644z"/>
			<path fill="#FFFFFF" d="M364.348,320.098c0.146,1.204-0.144,1.963-0.354,2.801c-3.808-0.26-8.823,0.657-11.558-0.696
				c-2.229-3.248-1.123-9.835-1.393-15.054c-0.154-1.009-2.646,0.312-2.8-0.7c0-0.462,0-0.932,0-1.4
				c-0.214-1.375,1.925-0.413,2.8-0.7c0-1.283,0-2.562,0-3.839c1.486-0.153,3.107-0.168,4.193-0.707
				c1.525,0.231,0.326,3.179,0.703,4.546c2.569,0,5.139,0,7.707,0c0,0.823,0,1.639,0,2.457c-2.453,0-4.906,0-7.354,0
				c-0.814,3.616-0.123,8.747-0.354,12.943C357.521,321.001,362.219,320.515,364.348,320.098z"/>
			<path fill="#FFFFFF" d="M466.897,276.694c3.14,0.997,10.091,1.214,7.696,6.307c-6.135,0.725-12.189-2.289-18.2-4.2
				c-5.933-1.883-12.082-3.64-17.85-5.6c-7.259,5.849-19.117,10.692-30.45,10.15c-3.472-5.365,6.504-5.373,11.197-6.657
				c9.716-2.625,18.015-6.552,18.903-18.193c1.386-1.323,3.665-0.438,4.55,0.704c0.031,3.644-0.294,6.947-1.747,9.1
				C447.581,270.828,458.12,273.947,466.897,276.694z"/>
			<path fill="#FFFFFF" d="M476.694,322.898c-1.758,0-3.497,0-5.25,0c0.578-7.631,0.578-17.561,0-25.197c1.635,0,3.259,0,4.896,0
				C476.562,306.01,475.903,315.177,476.694,322.898z"/>
			<path fill="#FFFFFF" d="M545.992,258.501c2.474,5.828,0.686,16.839-4.2,18.907c-3.607,1.516-11.34,0.693-17.85,0.693
				c-6.374,0-14.222,0.623-17.493-1.046c-4.016-2.055-6.248-10.948-3.854-18.207c0.906-2.755,3.615-4.33,6.301-4.893
				c3.492-0.749,10.77-0.354,17.153-0.354C535.062,253.601,543.468,252.547,545.992,258.501z M540.045,272.155
				c2.142-2.181,1.879-9.937,0.347-12.6c-9.048-1.152-22.799-1.166-31.851,0c-1.799,2.156-1.323,9.538-0.343,12.247
				C517.33,273.169,530.329,272.522,540.045,272.155z"/>
			<path fill="#FFFFFF" d="M316.046,305.408c0.602-1.491,3.209-1.004,5.25-1.062c-1.449,7.539,1.337,19.308-1.753,25.204
				c-3.535,0.221-9.538,0.843-14.354,0.351c-1.222-0.13-3.948,0.672-3.146-1.747c2.845-1.421,9.765,0.546,13.65-0.7
				c0.707-1.054,0.2-3.3,0.354-4.907c-2.408,0.413-9.433,0.665-12.95,0c-2.761-2.992-2.229-13.146-0.7-17.14
				C305.112,303.973,313.407,303.532,316.046,305.408z M315.693,320.452c0.578-3.645,0.578-9.653,0-13.304
				c-2.278-0.574-6.825-0.574-9.097,0c-0.805,3.64-0.136,8.742-0.354,12.949C308.784,320.83,312.592,320.284,315.693,320.452z"/>
			<path fill="#FFFFFF" d="M510.298,320.452c0.145,0.84-0.641,0.763-0.354,1.75c-4.463,1.414-12.797,0.683-17.848,0.346
				c-2.762-2.992-2.223-13.146-0.699-17.14c4.134-1.666,14.053-1.666,18.192,0c1.2,2.167,0.535,6.227,0.707,9.442
				c-4.896,0-9.804,0-14.707,0c-0.644,1.009-0.497,4.218,0,5.247C499.626,320.956,506.833,320.161,510.298,320.452z
				 M505.741,312.405c-0.061-1.811,0.224-3.962-0.339-5.257c-4.341-0.528-12.618-2.167-10.157,5.257
				C498.741,312.405,502.248,312.405,505.741,312.405z"/>
			<path fill="#FFFFFF" d="M308.693,280.901c0.231,4.154-14.308,3.587-17.847,2.1c-9.265-3.906-4.386-23.16-5.604-36.396
				c-7.354,0-14.697,0-22.061,0c-1.669,12.285-6.801,22.978-13.997,30.804c-1.915,2.079-5.086,6.842-8.747,3.847
				c-0.686-3.598,2.975-5.576,4.9-7.7c6.125-6.78,10.626-15.099,12.25-26.95c-4.911-1.383-17.028,2.457-18.55-1.396
				c-2.163-5.499,9.842-3.85,14.004-3.85c6.653,0,12.303,0,17.85,0c0-4.655,0-10.028,0-15.05c0-5.121-0.802-10.374,1.046-14
				c1.564-0.529,2.17-0.123,3.503,0.339c1.568,8.229,0.284,19.324,0.693,28.711c4.995,0,10.864,0,17.157,0
				c4.7,0,14.077-1.337,14.696,2.093c1.047,5.674-12.285,2.226-17.143,3.154c-0.647,5.159-0.354,10.545-0.354,15.747
				c0,4.669-0.924,12.45,1.054,14.704C294.679,280.632,308.392,275.487,308.693,280.901z"/>
			<path fill="#FFFFFF" d="M601.295,322.548c-1.407,0.81-4.315,0.13-6.307,0.351c-0.192-3.192-2.017-4.746-2.446-7.693
				c-3.612,0-7.234,0-10.843,0c-1.025,2.471-2.64,4.364-2.8,7.693c-1.055,0-2.104,0-3.15,0c3.118-8.31,8.234-16.472,9.796-25.197
				c1.869,0,3.731,0,5.597,0C594.547,305.968,597.351,314.82,601.295,322.548z M582.752,313.105c2.793,0,5.593,0,8.39,0
				c-0.466-3.179-2.559-7.693-4.196-10.857C585.794,306.108,583.666,309.01,582.752,313.105z"/>
			<path fill="#FFFFFF" d="M217.332,320.098c0.021,0.84-0.588,1.032-0.339,2.104c-4.463,1.414-12.796,0.683-17.847,0.346
				c-2.691-3.118-2.691-14.728,0-17.854c5.218-0.103,14.752-1.739,17.847,1.406c0.714,2.327,0.192,5.873,0.339,8.75
				c-5.005,0-10.021,0-15.036,0c-0.794,1.529-0.263,4.348,0.343,5.601C207.458,320.252,213.104,320.875,217.332,320.098z
				 M201.938,312.405c3.605,0,7.242,0,10.854,0c-0.056-1.811,0.213-3.962-0.35-5.257
				C207.948,306.581,199.723,305.111,201.938,312.405z"/>
			<path fill="#FFFFFF" d="M558.252,219.65c1.068,5.023-9.835,3.5-15.407,3.5c-11.647,0-25.393,0-37.442,0
				c-5.062,0-16.091,1.477-15.064-3.5c0.707-3.349,13.206-2.093,14.711-2.093c6.758,0,10.213,0,16.446,0
				c1.113-0.872-0.577-4.55,1.047-4.911c0.393-0.899,1.891-0.675,3.153-0.696c1.34,0.983,1.609,3.059,1.399,5.607
				c5.472,0,10.344,0,16.801,0C547.195,217.558,557.56,216.441,558.252,219.65z"/>
			<path fill="#FFFFFF" d="M639.796,213.704c4.078-0.71,3.629,5.106,1.753,7.7c-2.239,3.076-5.341,3.262-10.856,3.146
				c0.294,7.882,2.319,17.045,3.854,24.854c2.488-1.498,2.023-7.087,5.946-6.3c5.303,1.053-2.607,11.063-4.193,13.997
				c1.078,4.718,1.972,8.621,3.497,14.003c0.798,2.804,5.307,12.005,0.354,12.247c-3.419,0.168-4.046-6.598-4.904-9.457
				c-1.26-4.179-2.17-7.336-3.146-10.843c-2.587,0.592-4.764,7.917-8.75,7.347c-0.914-0.123-2.287-1.239-2.455-2.093
				c-0.836-4.168,8.694-8.047,9.45-12.604c0.294-1.81-0.885-5.1-1.399-7.693c-1.54-7.875-3.042-14.889-3.851-23.457
				c-10.293,1.263-27.898-4.799-25.2,9.457c7.551,1.239,17.179-2.167,18.9,7.35c0.815,4.515,0,10.979,0,17.143
				c0,7.06,1.092,15.428-0.7,19.254c-1.525,3.237-7.725,6.293-11.55,3.5c-0.275-1.743-0.107-1.971,0.354-3.5
				c1.585-1.215,5.425-0.179,6.297-2.107c0.375-10.77,1.008-24.794-0.351-34.997c-2.716-1.957-8.642-0.693-12.949-1.054
				c-0.567,9.132-0.938,21.399-1.4,31.507c-0.255,5.656,0.938,12.474-2.8,12.593c-4.494,0.157-2.632-9.842-2.453-13.993
				c0.259-5.779,0.399-12.295,0.707-19.25c0.546-12.534-1.669-29.127,8.743-31.15c7.347-1.432,12.103,1.008,21.703,0
				c-2.968-8.085,7.211-9.181,5.243-0.354c1.375,0.738,4.032,0.178,5.96,0.354C638.532,218.296,636.954,214.187,639.796,213.704z"/>
			<path fill="#FFFFFF" d="M299.596,215.801c9.247-2.373,0.791,10.066-1.053,12.954c-1.341,2.093-5.278,9.45-8.397,9.096
				c-6.002-0.696,2.286-9.467,3.847-11.9C296.548,221.981,297.958,219.329,299.596,215.801z"/>
		</g>
	</g>
	<g id="XMLID_6_">
		<g>
			<path fill="#FFFFFF" d="M107.182,302.381c0,2.693,0,5.389,0,8.09c-1.351,0-2.701,0-4.051,0c0-1.949,0-3.913,0-5.878
				c-1.036,0-2.081,0-3.125,0c0-0.735,0-1.476,0-2.211C102.396,302.381,104.793,302.381,107.182,302.381z"/>
			<path fill="#FFFFFF" d="M107.182,293.735c0,1.842,0,3.686,0,5.518c-1.227,0-2.451,0-3.68,0c-0.723,0.112-0.217-1.01-0.372-1.472
				c-2.699,0-5.397,0-8.092,0c-0.23,2.315-0.489,6.258,0.184,8.282c1.68,0.775,4.721,0.175,6.986,0.359c0,1.347,0,2.699,0,4.048
				c-3.801,0-7.601,0-11.406,0c0-5.579,0-11.158,0-16.736C96.269,293.735,101.723,293.735,107.182,293.735z"/>
			<path fill="#FFFFFF" d="M122.639,216.268c4.541-0.677,7.222,2.392,6.986,6.257c-0.437,7.406-11.967,7.356-12.137-0.182
				C117.408,219.05,119.493,216.735,122.639,216.268z"/>
			<path fill="#FFFFFF" d="M75.719,294.104c0.927,1.281,1.406,3.01,2.21,4.418c-1.767,4.186-4.07,7.822-5.89,11.947
				c-1.47,0-2.942,0-4.418,0C70.155,304.846,73.11,299.645,75.719,294.104z"/>
			<path fill="#FFFFFF" d="M88.968,310.291c-4.541,0-9.082,0-13.618,0c0.548-1.098,1.108-2.202,1.656-3.304c1.959,0,3.926,0,5.891,0
				c-1.906-4.49-3.895-8.871-6.075-13.073c1.168-0.427,3.126-0.051,4.6-0.178C83.864,299.328,86.569,304.649,88.968,310.291z"/>
			<path fill="#FFFFFF" d="M66.155,293.735c0,5.518,0,11.042,0,16.556c-5.157,0.427-11.106,0.07-16.563,0.18
				c0-5.637,0-11.272,0-16.92c1.531,0,3.065,0,4.598,0c0,4.112,0,8.215,0,12.332c1.971,0.302,5.202,0.298,7.174,0
				c0.71-1.781,0.382-5.474,0.186-7.546c-1.117-0.668-3.295-0.261-4.966-0.375c0-1.404,0-2.815,0-4.227
				C59.77,293.735,62.964,293.735,66.155,293.735z"/>
			<path fill="#FFFFFF" d="M95.038,222.343c-1.424,0.97-3.592,1.19-5.521,1.658c-0.688,1.829-1.126,3.897-1.654,5.884
				c-0.776-1.672-1.113-3.792-1.656-5.696c-1.897-0.506-3.634-1.15-5.702-1.479c1.457-0.922,3.623-1.159,5.518-1.646
				c0.725-1.796,1.135-3.896,1.654-5.894c0.775,1.669,1.113,3.789,1.66,5.704C91.163,221.437,92.978,222.014,95.038,222.343z"/>
			<path fill="#FFFFFF" d="M146.185,256.195c1.686,21.599-7.273,39.113-17.476,50.05c-10.271,11.008-25.583,21.189-45.811,22.076
				c-22.051,0.973-38.396-7.019-50.048-17.475c-12.052-10.814-20.633-25.181-22.267-45.632
				c-1.746-21.943,7.128-39.211,17.295-50.227c8.019-8.692,17.816-15.638,31.279-19.689c4.613-1.391,9.85-2.263,14.72-2.572
				c21.827-1.408,39.158,7.17,50.413,17.468C135.846,220.778,144.593,235.885,146.185,256.195z M135.334,280.857
				c3.665-9.354,4.782-25.052,1.465-35.695c-7.848,0-15.693,0-23.544,0C118.03,259.648,124.932,271.994,135.334,280.857z
				 M135.334,240.009c-1.728-4.342-3.672-8.473-6.075-12.149c7.345-6.673-3.005-18.149-10.486-12.328
				c-3.509-3.174-7.404-5.965-11.772-8.274c0.151,12.362,1.893,23.125,4.592,32.935
				C119.449,240.071,127.791,240.438,135.334,240.009z M131.839,288.763c-3.941-4.613-8.109-8.852-11.594-13.981
				c-3.464-5.097-6.36-10.725-9.012-16.742c-0.017-0.118-0.031-0.213-0.186-0.182c-1.777,9.338-4.964,16.548-10.489,22.631
				c-4.915,5.409-12.659,10.305-22.265,10.296c-9.293,0-17.06-4.913-21.892-10.49c-5.214-5.993-8.611-12.972-10.306-22.256
				c-3.853,9.143-8.944,17.444-14.905,24.282c-2.041,2.348-4.374,4.337-6.07,6.815c10.177,16.896,26.677,31.91,53.36,31.826
				C105.43,320.889,121.656,305.75,131.839,288.763z M51.982,240.193c17.788,0,35.577,0,53.358,0
				c-2.491-10.755-4.247-22.249-4.048-35.695c-11.658-5.654-33.452-5.86-45.262-0.181C56.249,217.843,54.495,229.39,51.982,240.193z
				 M100.558,267.604c3.284-6.138,5.715-13.877,4.598-22.442c-17.665,0-35.329,0-52.988,0c-0.256,0.048-0.209,0.394-0.37,0.543
				c-0.651,11.292,2.811,19.904,7.914,27.051c5.577,7.82,16.259,14.891,27.418,9.207C92.708,279.113,97.362,273.577,100.558,267.604
				z M45.726,240.193c2.627-9.826,4.804-21.082,4.417-33.309c-13.19,7.488-23.194,18.149-28.701,33.309
				C29.536,240.193,37.632,240.193,45.726,240.193z M44.259,245.162c-8.101,0-16.199,0-24.294,0
				c-3.373,10.727-2.228,26.839,1.66,36.056C31.981,272.745,39.209,259.558,44.259,245.162z"/>
		</g>
	</g>
</g>
<g>
	<path fill="#FFFFFF" d="M147.504,462.109c0,1.057-0.248,2.051-0.622,2.982c-1.243,2.921-3.977,4.661-7.146,4.661h-3.418
		c-1.119,0-2.051-0.87-2.051-2.05v-0.063c0-1.117,0.932-2.051,2.051-2.051h3.418c0.994,0,1.801-0.31,2.547-1.057
		c0.684-0.684,0.995-1.491,0.995-2.423v-9.631l-8.328,3.665c-1.056,0.56-2.238,0-2.672-0.994l-0.062-0.063
		c-0.497-1.057,0-2.3,0.994-2.735l10.067-4.475v-13.671h-10.191c-1.119,0-2.051-0.933-2.051-2.05v-0.063
		c0-1.118,0.933-2.051,2.051-2.051h10.191v-8.576l-7.83,1.555c-1.119,0.249-2.175-0.497-2.424-1.616v-0.124
		c-0.187-1.119,0.559-2.174,1.616-2.423l18.457-3.604c1.119-0.249,2.237,0.497,2.423,1.616v0.062
		c0.187,1.118-0.497,2.177-1.616,2.424l-6.4,1.306v0.248v9.136H167.7c-0.87-4.226-1.554-8.638-2.051-13.174
		c-0.124-1.119,0.684-2.175,1.802-2.238h0.125c1.119-0.186,2.112,0.685,2.299,1.74c0.497,4.785,1.243,9.321,2.175,13.671h12.926
		c1.119,0,2.051,0.933,2.051,2.051v0.063c0,1.118-0.932,2.05-2.051,2.05h-11.994c0.808,3.169,1.74,6.214,2.735,9.198
		c0.373,1.243,0.87,2.424,1.305,3.604c1.926-2.175,3.604-4.412,5.095-6.711c0.559-0.932,1.74-1.243,2.734-0.684l0.063,0.062
		c0.498,0.249,0.87,0.746,0.995,1.244c0.124,0.559,0.062,1.119-0.249,1.616c-1.927,3.106-4.288,6.09-6.96,8.886
		c2.175,5.22,4.537,10.254,7.271,14.978c0.56,0.993,0.249,2.175-0.745,2.733l-0.125,0.063c-0.933,0.622-2.175,0.311-2.734-0.746
		c-2.548-4.412-4.847-9.01-6.898-13.795c-3.977,3.666-8.576,7.146-13.796,10.315c-0.932,0.621-2.299,0.373-2.859-0.684l-0.062-0.124
		c-0.559-0.934-0.248-2.175,0.684-2.735c5.531-3.417,10.254-7.084,14.293-10.999c-0.746-1.802-1.43-3.667-2.051-5.593
		c-1.181-3.417-2.175-6.959-3.045-10.626h-21.129v11.746l5.283-2.362c1.056-0.497,2.236,0,2.671,0.994l0.062,0.125
		c0.435,1.057,0,2.299-0.994,2.734l-7.022,3.169V462.109z M183.236,422.896c0,1.181-0.87,2.051-2.051,2.051h-0.124
		c-1.057,0-2.051-0.87-2.051-2.051v-5.531c0-1.181,0.994-2.05,2.051-2.05h0.124c1.181,0,2.051,0.869,2.051,2.05V422.896z"/>
	<path fill="#FFFFFF" d="M203.006,418.919c1.242-1.305,3.48-0.373,3.48,1.43v46.607c0,1.119-0.933,2.051-2.051,2.051h-0.124
		c-1.119,0-2.051-0.932-2.051-2.051v-41.512l-3.79,3.791c-0.747,0.745-2.051,0.745-2.859-0.063l-0.063-0.062
		c-0.807-0.746-0.746-2.051,0.063-2.858L203.006,418.919z M218.604,421.033c0,1.119-0.932,1.989-2.051,1.989h-0.062
		c-1.118,0-2.05-0.87-2.05-1.989v-3.293c0-1.057,0.932-2.051,2.05-2.051h0.062c1.119,0,2.051,0.994,2.051,2.051V421.033z
		 M218.604,466.957c0,1.119-0.932,2.051-2.051,2.051h-0.062c-1.118,0-2.05-0.932-2.05-2.051V429.05c0-1.181,0.932-2.051,2.05-2.051
		h0.062c1.119,0,2.051,0.87,2.051,2.051V466.957z M241.1,464.533c1.056,0,1.926-0.312,2.609-0.994
		c0.684-0.622,0.933-1.492,0.933-2.548v-37.162c0-0.932-0.249-1.802-0.933-2.485c-0.684-0.683-1.553-0.994-2.609-0.994h-15.723
		c-1.18,0-2.05-0.994-2.05-2.051v-0.124c0-1.181,0.87-2.051,2.05-2.051H241.1c1.056,0,2.05,0.188,3.044,0.621
		c1.865,0.808,3.293,2.237,4.102,4.102c0.435,0.934,0.621,1.989,0.621,2.982v37.162c0,1.056-0.186,2.051-0.621,3.045
		c-1.244,2.859-3.916,4.786-7.146,4.786h-6.525c-1.119,0-2.051-0.933-2.051-2.051v-0.187c0-1.119,0.933-2.052,2.051-2.052H241.1
		L241.1,464.533z"/>
	<path fill="#FFFFFF" d="M254.398,469.008c-1.118,0-2.051-0.932-2.051-2.051v-0.124c0-1.058,0.933-2.051,2.051-2.051h15.909
		c1.181,0,2.051,0.994,2.051,2.051v0.124c0,1.119-0.87,2.051-2.051,2.051H254.398z M259.183,436.879h3.294
		c0.249,0,0.56,0.063,0.808,0.188l2.983-5.842c0.497-1.056,1.74-1.429,2.734-0.869l0.124,0.062c0.995,0.498,1.367,1.678,0.87,2.734
		l-10.378,20.756h9.446c1.18,0,2.05,0.932,2.05,2.051v0.063c0,1.117-0.871,2.05-2.05,2.05h-13.113c-1.554,0-2.548-1.615-1.864-2.982
		l7.146-14.045h-5.717c-1.429,0-2.423-1.554-1.802-2.92l10.067-21.75c0.498-1.056,1.741-1.43,2.734-0.995l0.249,0.125
		c0.932,0.436,1.43,1.677,0.932,2.672L259.183,436.879z M305.916,466.087c1.119,0,2.051,0.932,2.051,2.051v0.124
		c0,1.119-0.932,2.053-2.051,2.053h-29.829c-1.119,0-2.051-0.934-2.051-2.053v-0.124c0-1.119,0.933-2.051,2.051-2.051h12.801
		v-16.655h-11.621c-1.118,0-2.05-0.932-2.05-2.05v-0.125c0-1.119,0.933-2.05,2.05-2.05h27.467c1.119,0,2.051,0.932,2.051,2.05v0.125
		c0,1.119-0.932,2.05-2.051,2.05h-11.62v16.655H305.916z M301.379,414.632c1.492,0,2.548,1.678,1.74,3.045
		c-2.113,3.854-4.599,7.333-7.457,10.503l0.311,0.187l10.75,10.066c0.808,0.808,0.87,2.113,0.063,2.921v0.063
		c-0.808,0.745-2.113,0.808-2.921,0.062l-10.75-10.066c-0.125-0.063-0.188-0.188-0.312-0.312c-4.536,4.351-9.818,7.894-15.784,10.44
		c-1.057,0.498-2.299,0-2.672-1.056l-0.063-0.063c-0.435-0.994,0.063-2.237,1.056-2.672c9.757-4.288,17.027-10.564,22.186-18.892
		h-19.762c-1.18,0-2.05-0.995-2.05-2.052v-0.124c0-1.118,0.871-2.051,2.05-2.051H301.379L301.379,414.632z"/>
	<path fill="#FFFFFF" d="M329.724,422.524c0,1.056-0.87,2.05-2.05,2.05h-0.063c-1.118,0-2.051-0.994-2.051-2.05v-1.243h-9.445
		c-1.119,0-2.051-0.933-2.051-2.051v-0.124c0-1.119,0.933-2.053,2.051-2.053h9.445v-1.181c0-1.18,0.933-2.05,2.051-2.05h0.063
		c1.18,0,2.05,0.87,2.05,2.05v1.181h24.795v-1.181c0-1.18,0.869-2.05,2.051-2.05h0.063c1.118,0,2.051,0.87,2.051,2.05v1.181h9.445
		c1.118,0,2.05,0.934,2.05,2.053v0.124c0,1.118-0.932,2.051-2.05,2.051h-9.445v1.243c0,1.056-0.934,2.05-2.051,2.05h-0.063
		c-1.182,0-2.051-0.994-2.051-2.05v-1.243h-24.795V422.524z M314.934,432.902c0-1.803,0.746-3.48,1.988-4.661
		c1.244-1.242,2.921-1.988,4.661-1.988h41.077c1.74,0,3.418,0.746,4.661,1.988c1.243,1.181,1.989,2.858,1.989,4.661v2.609
		c0,1.182-0.994,2.051-2.052,2.051h-0.124c-1.119,0-2.051-0.869-2.051-2.051v-2.609c0-0.685-0.249-1.306-0.684-1.739
		c-0.496-0.437-1.057-0.747-1.739-0.747h-41.077c-0.684,0-1.243,0.311-1.74,0.747c-0.436,0.435-0.684,1.056-0.684,1.739v2.609
		c0,1.182-0.933,2.051-2.051,2.051h-0.124c-1.056,0-2.051-0.869-2.051-2.051V432.902L314.934,432.902z M324.567,470.126
		c-0.932,0-1.74-0.125-2.549-0.498c-2.486-1.056-4.101-3.354-4.101-6.09v-3.978c0-1.802,0.745-3.479,1.989-4.723
		c1.242-1.243,2.921-1.926,4.661-1.926h35.111c1.74,0,3.417,0.684,4.661,1.926s1.989,2.921,1.989,4.723v3.978
		c0,2.735-1.616,5.034-4.102,6.09c-0.809,0.373-1.615,0.498-2.547,0.498H324.567z M328.233,449.619
		c-3.542,0-6.587-2.983-6.587-6.649v-2.797c0-0.933,0.249-1.802,0.559-2.609c1.057-2.486,3.356-4.04,6.028-4.04h27.778
		c2.673,0,4.972,1.553,6.028,4.04c0.373,0.808,0.561,1.677,0.561,2.609v2.797c0,3.666-3.047,6.649-6.589,6.649H328.233z
		 M359.678,465.963c0.684,0,1.243-0.249,1.74-0.684c0.498-0.436,0.684-1.058,0.684-1.741v-3.978c0-0.744-0.186-1.305-0.684-1.739
		c-0.497-0.497-1.057-0.684-1.74-0.684h-35.111c-0.684,0-1.244,0.188-1.74,0.684c-0.498,0.435-0.684,0.995-0.684,1.739v3.978
		c0,0.684,0.187,1.306,0.684,1.741c0.496,0.435,1.056,0.684,1.74,0.684H359.678z M356.011,445.455c1.367,0,2.362-1.056,2.362-2.485
		v-2.797c0-0.746-0.248-1.305-0.684-1.802s-0.996-0.745-1.679-0.745h-27.778c-0.684,0-1.243,0.249-1.677,0.745
		c-0.436,0.497-0.684,1.057-0.684,1.802v2.797c0,1.43,0.994,2.485,2.361,2.485H356.011z"/>
	<path fill="#FFFFFF" d="M376.525,427.869c0-1.74,0.746-3.418,1.988-4.661s2.859-1.988,4.661-1.988h2.733v-4.661
		c0-1.118,0.933-2.051,2.051-2.051h0.063c1.119,0,2.052,0.933,2.052,2.051v4.661h5.468c0.87,0,1.677,0.187,2.486,0.497
		c1.678,0.685,2.92,1.927,3.604,3.542c0.311,0.809,0.561,1.677,0.561,2.61v35.358c0,2.797-1.616,4.973-4.164,6.028
		c-0.81,0.373-1.616,0.56-2.486,0.56h-12.367c-0.933,0-1.74-0.188-2.548-0.56c-2.485-1.057-4.101-3.231-4.101-6.028V427.869
		L376.525,427.869z M397.966,427.869c0-0.685-0.186-1.305-0.746-1.74c-0.435-0.436-0.993-0.684-1.677-0.684h-12.367
		c-0.684,0-1.305,0.249-1.74,0.684c-0.498,0.436-0.684,1.056-0.684,1.74v15.163h17.213L397.966,427.869L397.966,427.869z
		 M380.752,463.228c0,0.622,0.186,1.182,0.684,1.679c0.436,0.498,1.057,0.746,1.74,0.746h12.367c0.684,0,1.243-0.249,1.677-0.746
		c0.561-0.497,0.746-1.057,0.746-1.679v-15.971h-17.213L380.752,463.228L380.752,463.228z M409.586,420.412h14.666
		c1.057,0,2.051,0.249,2.982,0.621c1.927,0.808,3.293,2.236,4.164,4.101c0.374,0.995,0.622,1.989,0.622,3.046v34.304
		c0,1.056-0.248,2.05-0.622,3.045c-0.87,1.863-2.236,3.293-4.164,4.101c-0.932,0.436-1.927,0.622-2.982,0.622h-7.333
		c-1.119,0-2.051-0.933-2.051-2.051v-0.124c0-1.057,0.933-2.051,2.051-2.051h7.333c0.994,0,1.802-0.373,2.547-1.057
		c0.685-0.684,0.995-1.49,0.995-2.485V428.18c0-1.057-0.311-1.864-0.995-2.548c-0.745-0.622-1.553-0.994-2.547-0.994h-17.896
		c-1.491,0-2.424-1.554-1.865-2.921l2.673-5.903c0.435-0.994,1.616-1.492,2.672-1.058c0.56,0.249,0.87,0.622,1.119,1.182
		c0.248,0.496,0.248,1.057,0,1.615L409.586,420.412z M418.846,454.279c0.374,1.119-0.187,2.236-1.305,2.61h-0.063
		c-1.117,0.436-2.299-0.125-2.672-1.243l-6.399-19.451c-0.373-0.994,0.248-2.237,1.305-2.547h0.062
		c1.058-0.436,2.3,0.187,2.61,1.242L418.846,454.279z"/>
	<path fill="#FFFFFF" d="M438.243,449.308c0-1.056,0.249-2.112,0.684-2.982c0.809-1.864,2.238-3.293,4.103-4.163
		c0.932-0.373,1.987-0.622,3.044-0.622h10.751c1.119,0,2.112,0.249,3.106,0.622c1.864,0.87,3.294,2.299,4.103,4.163
		c0.373,0.87,0.621,1.927,0.621,2.982v12.864c0,1.119-0.249,2.113-0.621,3.045c-0.809,1.926-2.237,3.356-4.103,4.164
		c-0.994,0.373-1.987,0.622-3.106,0.622h-10.751c-1.058,0-2.112-0.249-3.044-0.622c-1.864-0.808-3.294-2.236-4.103-4.164
		c-0.435-0.932-0.684-1.926-0.684-3.045V449.308z M442.468,462.172c0,1.056,0.373,1.864,1.119,2.61
		c0.684,0.684,1.491,0.994,2.485,0.994h10.751c1.057,0,1.802-0.311,2.484-0.994c0.685-0.746,1.058-1.555,1.058-2.61v-12.864
		c0-0.932-0.374-1.802-1.058-2.485c-0.683-0.746-1.428-1.057-2.484-1.057h-10.751c-0.994,0-1.802,0.312-2.485,1.057
		c-0.746,0.684-1.119,1.554-1.119,2.485V462.172z M443.214,421.965c0-1.119,0.249-2.05,0.621-3.045
		c0.809-1.864,2.237-3.293,4.102-4.164c0.994-0.373,1.988-0.559,3.107-0.559h30.885c1.057,0,2.113,0.186,3.045,0.559
		c1.928,0.87,3.355,2.299,4.103,4.164c0.435,0.995,0.684,1.927,0.684,3.045v6.96c0,1.119-0.249,2.114-0.684,3.044
		c-1.243,2.859-4.039,4.725-7.146,4.725h-30.885c-3.231,0-5.966-1.864-7.209-4.725c-0.373-0.931-0.621-1.926-0.621-3.044
		L443.214,421.965L443.214,421.965z M447.44,428.925c0,0.995,0.311,1.865,0.994,2.548c0.685,0.684,1.554,0.994,2.61,0.994h30.885
		c1.057,0,1.802-0.31,2.548-0.994c0.684-0.684,1.058-1.554,1.058-2.548v-6.96c0-0.995-0.374-1.865-1.058-2.548
		c-0.746-0.684-1.491-1.057-2.548-1.057h-30.885c-1.057,0-1.926,0.373-2.61,1.057c-0.684,0.683-0.994,1.553-0.994,2.548V428.925z
		 M468.196,449.308c0-1.056,0.186-2.112,0.621-2.982c0.808-1.864,2.236-3.293,4.102-4.163c0.994-0.373,1.926-0.622,3.044-0.622
		h10.813c1.056,0,2.05,0.249,2.982,0.622c1.926,0.87,3.355,2.299,4.102,4.163c0.498,0.87,0.684,1.927,0.684,2.982v12.864
		c0,1.119-0.186,2.113-0.684,3.045c-0.746,1.926-2.176,3.356-4.102,4.164c-0.933,0.373-1.927,0.622-2.982,0.622h-10.813
		c-1.119,0-2.05-0.249-3.044-0.622c-1.865-0.808-3.294-2.236-4.102-4.164c-0.436-0.932-0.621-1.926-0.621-3.045V449.308z
		 M472.484,462.172c0,1.056,0.31,1.864,0.993,2.61c0.685,0.684,1.492,0.994,2.486,0.994h10.813c0.932,0,1.802-0.311,2.485-0.994
		c0.684-0.746,1.119-1.555,1.119-2.61v-12.864c0-0.932-0.436-1.802-1.119-2.485c-0.684-0.746-1.554-1.057-2.485-1.057h-10.813
		c-0.994,0-1.802,0.312-2.486,1.057c-0.684,0.684-0.993,1.554-0.993,2.485V462.172z"/>
	<path fill="#FFFFFF" d="M500.519,415.813c0-1.117,0.933-2.05,2.051-2.05h0.187c1.056,0,1.988,0.933,1.988,2.05v12.554h7.892
		v-12.491c0-1.119,0.934-2.05,2.051-2.05h0.125c1.118,0,2.051,0.932,2.051,2.05v12.491h0.684c1.119,0,2.051,0.87,2.051,2.05v0.125
		c0,1.119-0.932,1.989-2.051,1.989h-12.802v8.638h7.769c0.933,0,1.803,0.188,2.61,0.559c2.423,0.995,4.039,3.295,4.039,6.028v19.948
		c0,1.119-0.933,2.05-1.988,2.05h-0.125c-1.181,0-2.05-0.932-2.05-2.05v-19.948c0-0.746-0.249-1.305-0.684-1.678
		c-0.498-0.497-1.119-0.685-1.803-0.685h-7.769v22.186c0,1.119-0.933,2.051-1.988,2.051h-0.187c-1.119,0-2.051-0.932-2.051-2.051
		V415.813z M554.21,455.088c1.119,0,2.051,0.932,2.051,2.05v0.063c0,1.119-0.933,2.051-2.051,2.051h-10.999v8.452
		c0,1.119-0.932,2.05-2.051,2.05h-0.124c-1.119,0-2.051-0.932-2.051-2.05v-8.452h-15.599c-1.119,0-2.051-0.933-2.051-2.051v-0.063
		c0-1.118,0.933-2.05,2.051-2.05h2.113c0.063-0.249,0.248-0.56,0.435-0.809c1.989-2.485,3.791-5.097,5.097-7.955h-0.124
		c-0.995,0-2.052-0.248-2.983-0.621c-2.858-1.243-4.599-3.915-4.599-7.085v-12.925c0-3.231,1.74-5.904,4.599-7.146
		c0.56-0.249,1.181-0.435,1.865-0.498v-2.36c0-1.119,0.932-2.052,1.989-2.052h0.123c1.119,0,2.052,0.933,2.052,2.052v2.236h13.733
		c1.119,0,2.051,0.249,3.045,0.621c1.865,0.87,3.293,2.237,4.102,4.103c0.374,0.993,0.622,1.926,0.622,3.044v12.925
		c0,1.057-0.249,2.051-0.622,2.984c-0.807,1.863-2.236,3.293-4.102,4.101c-0.994,0.373-1.926,0.621-3.045,0.621h-12.242
		l-0.188,0.622c-1.181,2.796-2.672,5.531-4.599,8.141h8.327v-4.103c0-1.119,0.932-2.05,2.051-2.05h0.124
		c1.119,0,2.051,0.931,2.051,2.05v4.103h10.999V455.088z M527.426,425.693v4.475h9.819v-8.017h-6.338
		c-0.87,0-1.74,0.311-2.423,0.993C527.799,423.829,527.426,424.699,527.426,425.693z M530.907,442.162h6.338v-7.83h-9.819v4.287
		c0,0.995,0.373,1.865,1.058,2.549C529.167,441.851,530.037,442.162,530.907,442.162z M551.289,425.693
		c0-0.995-0.312-1.865-1.056-2.549c-0.685-0.684-1.555-0.993-2.547-0.993h-6.277v8.017h9.88V425.693z M547.687,442.162
		c0.993,0,1.863-0.312,2.547-0.994c0.746-0.684,1.056-1.554,1.056-2.549v-4.287h-9.88v7.83H547.687z"/>
</g>
</svg>
