<?xml version="1.0" encoding="utf-8"?>
<!-- Generator: Adobe Illustrator 16.0.0, SVG Export Plug-In . SVG Version: 6.00 Build 0)  -->
<!DOCTYPE svg PUBLIC "-//W3C//DTD SVG 1.1//EN" "http://www.w3.org/Graphics/SVG/1.1/DTD/svg11.dtd">
<svg version="1.1" id="图层_1" xmlns="http://www.w3.org/2000/svg" xmlns:xlink="http://www.w3.org/1999/xlink" x="0px" y="0px"
	 width="680px" height="680px" viewBox="0 0 680 680" enable-background="new 0 0 680 680" xml:space="preserve">
<g>
	<path fill="#FFFFFF" d="M46.938,516.015h42.83v-5.866c0-3.126,1.953-4.888,5.867-5.281c3.905,0.394,5.867,2.154,5.867,5.281v5.866
		h29.922c3.521,0,5.473,1.761,5.867,5.28c-0.395,3.521-2.347,5.482-5.867,5.867h-29.922v6.454c0,3.135-1.962,4.693-5.867,4.693
		c-3.915,0-5.867-1.559-5.867-4.693v-6.454h-42.83v7.627c0,3.135-1.962,4.694-5.867,4.694c-3.915,0-5.867-1.56-5.867-4.694v-7.627
		H5.28c-3.521,0-5.28-1.953-5.28-5.867c0.385-3.521,2.347-5.28,5.867-5.28h29.336v-7.628c0-3.126,1.952-4.692,5.867-4.692
		c3.905,0,5.867,1.566,5.867,4.692L46.938,516.015L46.938,516.015z M22.295,572.926c1.174,1.173,2.146,1.962,2.934,2.348
		c3.521,2.74,4.3,5.866,2.347,9.387c-2.741,3.135-5.867,3.52-9.387,1.173c-1.568-1.559-4.501-3.713-8.801-6.454
		c-2.741-1.558-4.896-2.933-6.454-4.105c-3.135-2.348-3.722-5.28-1.76-8.802c2.347-3.521,5.078-4.3,8.214-2.347
		C12.119,565.693,16.428,568.626,22.295,572.926z M39.896,591.114c3.126,2.741,3.713,5.867,1.76,9.388
		c-8.608,14.081-18.775,25.623-30.509,34.616c-3.52,2.73-6.655,2.73-9.387,0c-2.347-3.136-1.962-6.069,1.173-8.801
		c10.946-9.389,20.535-20.333,28.749-32.856C34.029,589.941,36.761,589.162,39.896,591.114z M36.376,552.979
		c2.347,2.74,2.347,5.674,0,8.8c-2.741,2.741-5.481,2.934-8.214,0.586c-5.482-5.474-10.955-10.166-16.428-14.081
		c-2.741-2.348-2.934-5.078-0.587-8.214c2.347-2.731,5.079-3.126,8.214-1.173C23.661,541.244,29.336,545.938,36.376,552.979z
		 M113.235,545.35c8.214-0.385,12.12,3.521,11.734,11.734v30.509c-0.394,17.216-13.109,21.708-38.136,13.495
		c-3.52-1.174-5.088-3.521-4.694-7.041c1.174-3.52,3.521-4.886,7.041-4.105c17.207,5.48,25.421,3.722,24.642-5.281v-22.295
		c0-3.521-1.76-5.28-5.28-5.28H66.885c-3.52,0-5.28,1.76-5.28,5.28v55.737c0,6.655,3.52,9.772,10.561,9.388h30.509
		c16.428,0.385,24.055-4.492,22.882-14.668c0-3.521,1.953-5.28,5.867-5.28c3.521,0.394,5.473,2.347,5.867,5.867
		c1.559,17.601-7.041,26.2-25.815,25.814H69.232c-13.302,0.386-19.756-5.675-19.362-18.188v-63.952
		c0-8.214,3.906-12.119,11.734-11.734H113.235L113.235,545.35z"/>
	<path fill="#FFFFFF" d="M283.969,624.557c0.385,9.388-3.52,13.879-11.734,13.495H168.387c-9.002,0.386-13.302-3.722-12.908-12.32
		V523.055c-0.394-8.992,4.107-13.292,13.495-12.906h103.261c8.214-0.779,12.119,3.52,11.734,12.906V624.557z M166.626,621.037
		c0,4.309,1.559,6.454,4.694,6.454h96.221c3.521,0,5.079-1.761,4.694-5.281v-93.287c0.385-5.473-1.375-8.012-5.281-7.627h-92.7
		c-5.482-0.385-8.021,2.154-7.627,7.627L166.626,621.037L166.626,621.037z M221.777,534.79h35.79c3.126,0,4.694,1.76,4.694,5.28
		c0,3.915-1.567,5.867-4.694,5.867h-35.79v11.146h32.27c3.126,0,4.693,1.76,4.693,5.28c0,3.915-1.567,5.867-4.693,5.867h-32.27
		v10.561h28.162c7.041-0.385,10.359,2.548,9.975,8.801v13.495c0.385,12.907-8.801,18.774-27.576,17.602
		c-3.52-0.386-5.482-2.146-5.867-5.28c0.385-3.521,2.347-5.281,5.867-5.281c7.82,0,12.706-0.779,14.667-2.347
		c1.953-1.173,2.732-4.693,2.347-10.562c0.385-4.3-1.375-6.06-5.281-5.279h-22.295v31.096c0,3.52-1.962,5.481-5.867,5.867
		c-3.914-0.386-5.867-2.348-5.867-5.867V589.94h-30.509c-3.135-0.387-4.693-2.348-4.693-5.867c0.385-3.521,2.145-5.281,5.28-5.281
		h29.922v-10.561h-25.815c-3.135,0-4.895-1.952-5.28-5.867c0.385-3.521,2.146-5.28,5.28-5.28h25.815v-11.146h-27.575
		c-3.521-0.386-5.482-2.348-5.867-5.867c0.779-3.521,2.934-5.28,6.454-5.28h26.988v-6.454c0-3.52,1.953-5.473,5.867-5.867
		c3.521,0,5.473,1.762,5.867,5.281L221.777,534.79L221.777,534.79z"/>
	<path fill="#FFFFFF" d="M357.895,523.642c1.174-11.733,7.041-18.188,17.603-19.36h33.442c6.646,0.394,9.975,4.105,9.975,11.146
		c-0.395,6.655-3.915,10.177-10.561,10.562h-18.775c-6.262,0.395-9.589,4.309-9.975,11.733v96.809
		c-0.395,6.252-4.309,9.58-11.733,9.974c-6.656-0.789-9.976-4.309-9.976-10.561V523.642L357.895,523.642z M374.909,535.376
		c1.174-8.599,4.694-13.293,10.562-14.081h21.709c3.521-0.385,5.279-2.54,5.279-6.454c-0.395-3.521-2.347-5.473-5.867-5.867h-29.335
		c-8.608,0.789-13.495,6.069-14.667,15.842v106.781c0,3.905,1.76,6.252,5.28,7.041c4.692,0,7.04-2.347,7.04-7.041L374.909,535.376
		L374.909,535.376z"/>
	<path fill="#FFFFFF" d="M582.604,521.295c3.905,0,6.061,1.962,6.454,5.867c-0.394,3.914-2.549,5.867-6.454,5.867h-99.153
		c-5.088-0.387-7.436,2.153-7.04,7.627v28.162c-0.396,34.817-6.069,58.863-17.016,72.166c-3.136,3.52-6.262,4.105-9.388,1.76
		c-2.741-2.347-2.741-5.675,0-9.975c5.474-7.041,9.187-15.254,11.147-24.642c1.953-8.599,2.934-21.121,2.934-37.549v-36.376
		c-0.788-9.387,3.713-13.688,13.494-12.907h44.004c-1.568-3.126-3.136-6.252-4.693-9.388c-1.174-3.126-0.203-5.665,2.934-7.627
		c3.52-1.56,6.252-0.779,8.214,2.347c3.126,5.482,5.473,10.368,7.041,14.668L582.604,521.295L582.604,521.295z"/>
	<path fill="#FFFFFF" d="M680,625.73c-1.173,11.34-7.242,17.602-18.188,18.774h-32.855c-6.655-0.394-9.975-4.106-9.975-11.146
		c0.386-6.252,3.905-9.58,10.562-9.975h18.774c6.252-0.385,9.58-4.3,9.975-11.733v-97.396c0.385-5.867,4.105-9.186,11.146-9.974
		c7.04,1.173,10.562,4.692,10.562,10.561V625.73L680,625.73z M662.985,614.583c-1.174,8.214-4.896,12.522-11.147,12.908h-21.122
		c-3.52,0.385-5.481,2.54-5.867,6.454c0.386,3.521,2.348,5.473,5.867,5.867h29.922c8.6-0.788,13.494-5.867,14.668-15.255v-107.37
		c0-3.52-1.761-5.866-5.28-7.039c-4.694,0-7.041,2.347-7.041,7.039L662.985,614.583L662.985,614.583z"/>
</g>
<g id="XMLID_6_">
	<g>
		<path fill="#FFFFFF" d="M468.826,106.367c10.205,55.71-63.516,67.881-82.28,29.712c-12.937-26.318,1.313-59.001,34.283-62.853
			C444.485,70.46,464.906,84.974,468.826,106.367z"/>
		<path fill="#FFFFFF" d="M353.405,342.922c7.987,43.345-64.087,37.826-47.997-3.429c2.034-5.222,6.411-11.679,19.427-13.713
			C337.978,323.712,351.245,331.186,353.405,342.922z"/>
		<path fill="#FFFFFF" d="M188.845,188.647c33.598-4.423,36.992,48.568,3.428,49.139
			C163.715,238.266,156.561,192.886,188.845,188.647z"/>
		<path fill="#FFFFFF" d="M226.557,85.796c51.974-8.651,42.991,77.092-6.857,59.425c-17.839-6.331-23.598-35.106-12.57-49.14
			C211.438,90.585,218.9,87.065,226.557,85.796z"/>
		<path fill="#FFFFFF" d="M443.685,291.497c9.509,9.497,8.675,37.769-10.284,42.283c-15.68,3.726-38.523-4.595-31.998-31.998
			c1.439-6.045,8.354-13.919,19.427-15.999C430.623,283.932,438.497,286.297,443.685,291.497z"/>
		<path fill="#FFFFFF" d="M463.112,188.647c32.718-3.611,36.718,49.654,2.285,49.139
			C433.902,237.306,433.937,191.858,463.112,188.647z"/>
		<path fill="#FFFFFF" d="M227.699,284.64c40.352-5.542,35.129,58.316-3.428,49.14c-23.324-5.555-21.702-43.083,2.286-47.997
			C226.636,285.76,226.888,284.743,227.699,284.64z"/>
		<path fill="#FFFFFF" d="M320.265,40.085c69.035-14.262,51.424,97.65-8,69.709C282.576,95.83,285.135,47.331,320.265,40.085z"/>
	</g>
</g>
</svg>
