<?xml version="1.0" encoding="utf-8"?>
<!-- Generator: Adobe Illustrator 16.0.0, SVG Export Plug-In . SVG Version: 6.00 Build 0)  -->
<!DOCTYPE svg PUBLIC "-//W3C//DTD SVG 1.1//EN" "http://www.w3.org/Graphics/SVG/1.1/DTD/svg11.dtd">
<svg version="1.1" id="图层_2" xmlns="http://www.w3.org/2000/svg" xmlns:xlink="http://www.w3.org/1999/xlink" x="0px" y="0px"
	 width="680px" height="680px" viewBox="0 0 680 680" enable-background="new 0 0 680 680" xml:space="preserve">
<g id="图层_1">
	<g>
		<g>
			<g id="XMLID_10_">
				<g>
					<path fill="#FFFFFF" d="M231.753,209.886c0.894,2.203-0.463,5.082-1.109,6.847c-0.84,2.28-1.537,4.142-2.592,5.735
						c-13.134,0-26.271,0-39.405,0c-2.779,6.16-5.398,12.488-7.957,18.877c-7.213,0-14.431,0-21.646,0
						c2.605-6.935,5.088-13.629,7.957-20.36c0.939-2.206,1.701-4.653,2.961-6.478c6.576-9.482,24.391-7.397,40.701-7.397
						C215.805,207.11,230.167,205.972,231.753,209.886z"/>
					<path fill="#FFFFFF" d="M93.37,211.736c3.057,2.899,5.658,6.164,4.626,11.843c-1.114,6.125-5.651,12.879-7.401,17.571
						c-8.152-0.117-16.831,0.167-24.232,0.196c0.79-2.969,2.345-6.303,3.882-9.814c0.513-1.164,1.367-2.349,1.11-3.516
						c-0.544-2.508-7.953-1.926-11.1-2.035c-12.996-0.448-27.094,0.495-39.037,0.182c2.616-6.259,5.334-12.416,8.139-18.496
						c-0.131-0.3,0.37-0.805,0.37-0.367c15.38-0.409,31.111,0,47.178,0c3.117,0,6.491-0.416,9.249,0
						C88.946,207.716,91.562,210.022,93.37,211.736z"/>
					<path fill="#FFFFFF" d="M130,243.738c7.894,0,15.789,0,23.682,0c-2.1,5.491-4.526,10.646-6.661,16.099
						c-8.018,0-16.035,0-24.053,0C125.271,254.427,127.417,248.865,130,243.738z"/>
					<path fill="#FFFFFF" d="M224.353,228.391c0.349,2.11-1.452,5.073-2.221,6.843c-1.014,2.338-1.84,4.109-2.775,6.113
						c-5.487,0.113-11.469-0.256-16.65,0.178c-0.397-1.313,1.521-3.384,2.036-4.993c-5.242,0-10.483,0-15.725,0
						c1.594-3.839,2.985-7.871,4.811-11.473c7.889,0.569,17.764-0.761,25.158,0C221.217,225.28,224.049,226.554,224.353,228.391z"/>
					<path fill="#FFFFFF" d="M4.382,243.372c7.028,0,14.061,0,21.092,0c-2.328,5.443-4.471,11.069-6.848,16.465
						c-4.384,0.313-10.042,0.31-14.43,0C4.319,254.409,3.953,248.492,4.382,243.372z"/>
					<path fill="#FFFFFF" d="M157.568,243.738c20.102,0,40.207,0,60.309,0c-2.452,7.679-7.443,15.116-17.205,16.099
						c-8.786,0.885-21.24,0.463-31.08,0.185c-7.088-0.192-13.455,0.651-16.279-3.697
						C153.408,250.813,155.739,247.527,157.568,243.738z"/>
					<path fill="#FFFFFF" d="M236.191,243.738c0,5.37,0,10.736,0,16.099c-7.284,0.444-16.33,0.057-23.309,0.185
						c2.829-5.491,5.513-11.138,8.693-16.283C226.449,243.738,231.32,243.738,236.191,243.738z"/>
					<path fill="#FFFFFF" d="M166.446,209.701c0.192,0.491,0.221,1.136,0.185,1.851c-0.662,0.455-1.771,0.455-2.59,0.74
						c-0.125,1.541,1.221,1.618,1.48,2.775c-0.438,0.303-0.527,0.95-0.925,1.295c-0.884,0.021-1.382-0.345-2.036-0.555
						c-1.175,0.359-0.537,1.769-0.37,2.771c-0.143,0.662-0.904,0.705-1.295,1.107c-0.845-0.32-1.242-1.096-1.852-1.662
						c-1.299,0.061-0.925,1.79-1.477,2.594c-0.62,0-1.235,0-1.852,0c-0.377-0.918-0.252-2.338-1.295-2.594
						c-0.86,0.256-1.198,1.027-1.665,1.662c-0.836-0.018-0.968-0.751-1.851-0.732c0.149-0.837,0.317-1.662,0.555-2.406
						c-0.053-0.377-0.502-0.363-0.555-0.74c-0.84,0.031-1.274,0.451-2.036,0.555c-0.719-0.082-0.758-0.847-1.11-1.295
						c1.363-1.107,2.374-3.633-0.925-3.331c0-0.616,0-1.235,0-1.851c0.719-0.327,1.736-0.353,2.405-0.736
						c0.256-1.616-1.053-1.662-1.48-2.594c0.121-0.619,0.576-0.904,0.74-1.48c0.766,0.221,1.609,0.363,2.406,0.555
						c1.1-0.572,0.192-2.063,0-2.957c0.566-0.238,0.925-0.676,1.666-0.744c0.715,0.402,0.971,1.248,1.85,1.479
						c0.149-0.093,0.3-0.192,0.556-0.182c0.598-1.067,0.26-3.067,2.591-2.405c0.331,0.775,0.455,1.762,0.74,2.587
						c1.451,0.101,1.705-1.003,2.587-1.479c0.701,0.043,0.899,0.582,1.479,0.744c-0.063,0.918-0.516,1.451-0.555,2.401
						c0.068,0.245,0.328,0.292,0.37,0.556c0.968-0.08,1.623-0.475,2.591-0.556c0.274,0.405,0.363,0.996,0.74,1.295
						c-0.268,0.968-1.246,1.224-1.666,2.042C163.955,209.609,165.5,209.359,166.446,209.701z M154.237,210.993
						c0.185,3.27,5.167,2.915,4.996-0.363c-0.078-1.487-1.042-2.744-3.331-2.035C154.643,208.983,154.159,209.651,154.237,210.993z"
						/>
					<path fill="#FFFFFF" d="M55.074,243.738c10.917,0.435,22.632,0.063,33.855,0.188c-3.56,5.813-7.16,13.465-14.245,15.725
						c-3.252,1.043-9.594,0.37-14.244,0.37c-12.619,0-26.372,0.288-38.296,0.188c3.381-10.188,8.021-20.711,12.023-30.898
						c8.572,0,17.146,0,25.717,0C58.372,234.222,56.611,238.866,55.074,243.738z"/>
					<path fill="#FFFFFF" d="M93,243.738c8.448,0,16.899,0,25.348,0c-1.673,5.181-4.615,10.687-6.661,16.099
						c-8.917,0.106-17.86-0.211-26.087,0.185C87.939,254.466,90.277,248.919,93,243.738z"/>
					<path fill="#FFFFFF" d="M163.115,217.106c0.676,0.054,1.207-0.036,1.666-0.188c-0.413,4.533-3.167,8.945-4.996,13.137
						c-1.662,3.805-3.256,7.416-4.808,11.096c-8.078,0-16.159,0-24.236,0c0.22-1.007,0.889-1.568,1.11-2.59
						c-2.93-0.771-7.213-0.182-10.729-0.37c-0.598,0.89-1.092,1.875-1.479,2.96c-8.513,0-17.021,0-25.532,0
						c4.886-11.27,9.409-22.902,14.614-33.852c11.348,0,23.753,0,35.521,0c1.249,0,3.583-0.666,3.886,1.113
						c-0.65,0.74-1.374,0.336-2.405,0.549c-0.359,0.707-0.544,2.096-0.186,2.959c0.363,0.748,2.238-0.014,2.591,0.74
						c0.136,1.293-1.398,1.11-1.479,2.59c-0.101,1.815,1.477,2.584,3.886,2.037c-0.598,1.754-0.392,3.529,1.11,3.696
						c1.341,0.153,1.676-1.537,2.774-1.478c0.934,0.175,0.385,1.836,0.926,2.406c2.159,0.803,3.323-0.656,3.516-2.406
						c1.278,1.121,3.722,2.389,4.623,0.367C163.883,218.985,163.115,217.982,163.115,217.106z M137.772,224.13
						c-3.58,0-7.156,0-10.732,0c-0.989,1.48-1.683,3.25-2.22,5.182c3.64,0,7.277,0,10.917,0
						C136.398,227.568,137.333,226.099,137.772,224.13z"/>
				</g>
			</g>
			<g>
				<path fill="#FFFFFF" d="M48.8,276.865h8.365v7.418h14.522v7.577H57.956c2.313,6.525,7.206,11.892,14.68,16.101l-4.894,6.631
					c-5.367-3.056-10.102-7.577-14.206-13.574c-2.841,5.579-7.84,10.102-14.995,13.574c0,0.21-1.79-2-5.367-6.631
					c8.209-3.575,13.206-8.941,14.995-16.101H33.963v-7.577H48.8V276.865L48.8,276.865z"/>
				<path fill="#FFFFFF" d="M89.839,276.55h7.894v13.258h6.629l-5.524-2.524c1.896-3.155,3.366-6.366,4.42-9.628l6.787,3
					c-1.159,3.684-2.524,6.734-4.104,9.153h6.629v7.893h-11.208v7.893c0.104,0.946,0.841,1.368,2.21,1.264
					c1.157-0.315,1.736-0.999,1.736-2.053v-3.314l7.261,1.896v4.577c-0.212,3.996-2.789,6.051-7.734,6.155h-6.472
					c-4,1.052-5.683-1.211-5.051-6.788v-9.627h-1.42c-1.265,8.945-5.58,14.573-12.944,16.89l-5.051-5.842
					c5.683-2.104,8.942-5.785,9.786-11.048h-9.154v-7.893h7.576c-1.578-2.944-3.369-5.84-5.366-8.682l5.998-3.472
					c1.997,2.423,4.05,5.474,6.155,9.155l-4.735,2.998h5.683V276.55z"/>
				<path fill="#FFFFFF" d="M151.714,277.497v7.893h-14.363l-1.105,4.578H148.4v15.94h5.052v7.42h-38.515v-7.735h8.522l2.368-8.049
					h-7.576v-7.576h9.313l1.104-4.578h-12.152v-7.893H151.714L151.714,277.497z M140.191,297.544h-5.684l-2.366,8.207h8.05V297.544z
					"/>
				<path fill="#FFFFFF" d="M169.866,276.708h8.997c3.156,3.577,8.207,6.842,15.152,9.786l-3.631,7.103
					c-1.264-0.418-3.054-1.209-5.365-2.368v2.052h-6.788v1.58h13.574v7.102h-6.155l2.999,1.578c-0.422,1.16-1.002,2.475-1.737,3.945
					h5.525v6.788h-36.305v-6.945h5.209c-0.315-0.841-0.946-2.104-1.895-3.789l3.313-1.578h-6.154v-7.102h13.73v-1.58h-6.943v-1.896
					c-1.896,0.949-3.632,1.738-5.209,2.369l-3.632-6.944C161.604,283.757,166.708,280.393,169.866,276.708z M166.394,301.962
					c0.314,0.424,0.789,1.316,1.42,2.685c0.632,1.262,1.104,2.21,1.421,2.84h1.104v-5.523L166.394,301.962L166.394,301.962z
					 M174.601,283.494c-1.368,1.16-2.422,2.106-3.156,2.841h5.683C176.389,285.601,175.547,284.654,174.601,283.494z
					 M178.074,301.962v5.523h1.262c0.735-1.681,1.421-3.523,2.054-5.523H178.074z"/>
			</g>
			<g>
				<path fill="#FFFFFF" d="M33.647,263.708h3.503c3.41,0.037,5.133,1.762,5.17,5.172c-0.037,3.373-1.761,5.078-5.17,5.114h-3.503
					V263.708z M35.816,272.271h1.167c2.038,0.075,3.039-1.058,3.002-3.392c0.037-2.373-0.964-3.521-3.002-3.447h-1.167V272.271z"/>
				<path fill="#FFFFFF" d="M43.1,273.994l3.725-10.286h2.613l3.613,10.286h-2.224l-0.778-2.168h-4.059l-0.778,2.168H43.1z
					 M49.494,270.103l-1.39-4.393h-0.057l-1.501,4.393H49.494z"/>
				<path fill="#FFFFFF" d="M59,270.214v-1.725h4.17v5.171c-0.741,0.222-1.501,0.333-2.278,0.333
					c-0.594,0.074-1.372,0.111-2.335,0.111c-3.151-0.186-4.764-1.928-4.838-5.227c0.074-3.373,1.688-5.172,4.838-5.395
					c3.225,0,4.817,1.111,4.781,3.336h-2.335c0-1.148-0.687-1.725-2.058-1.725c-1.89,0.037-2.854,1.299-2.891,3.781
					c0.036,2.446,1.001,3.689,2.891,3.726c0.556,0,1.204-0.074,1.946-0.222c-0.038,0.037,0,0.037,0.11,0v-2.168H59V270.214z"/>
				<path fill="#FFFFFF" d="M74.235,263.708v6.45c-0.111,2.558-1.594,3.873-4.448,3.948c-2.929-0.075-4.43-1.391-4.503-3.948v-6.45
					h2.224v5.616c-0.036,1.224,0.111,2.058,0.445,2.502c0.37,0.521,0.982,0.778,1.835,0.778s1.446-0.26,1.779-0.778
					c0.333-0.444,0.48-1.278,0.444-2.502v-5.616H74.235z"/>
				<path fill="#FFFFFF" d="M75.458,273.994l3.726-10.286h2.612l3.614,10.286h-2.224l-0.778-2.168H78.35l-0.778,2.168H75.458z
					 M81.853,270.103l-1.391-4.393h-0.056l-1.501,4.393H81.853z"/>
				<path fill="#FFFFFF" d="M92.583,273.994l-4.003-8.563l-0.056,0.056v8.507h-2.058v-10.286h3.28l3.893,8.118l0.056-0.056v-8.063
					h2.057v10.286H92.583z"/>
				<path fill="#FFFFFF" d="M102.424,270.214v-1.725h4.17v5.171c-0.741,0.222-1.501,0.333-2.278,0.333
					c-0.593,0.074-1.372,0.111-2.335,0.111c-3.151-0.186-4.764-1.928-4.837-5.227c0.073-3.373,1.686-5.172,4.837-5.395
					c3.225,0,4.817,1.111,4.782,3.336h-2.337c0-1.148-0.687-1.725-2.058-1.725c-1.89,0.037-2.854,1.299-2.891,3.781
					c0.037,2.446,1.001,3.689,2.891,3.726c0.556,0,1.204-0.074,1.946-0.222c-0.038,0.037,0,0.037,0.11,0v-2.168h-2.001V270.214z"/>
				<path fill="#FFFFFF" d="M112.6,273.994v-10.286h2.168v4.06h3.892v-4.06h2.224v10.286h-2.168v-4.504h-3.946v4.504H112.6z"/>
				<path fill="#FFFFFF" d="M121.996,273.994l3.726-10.286h2.612l3.614,10.286h-2.224l-0.778-2.168h-4.06l-0.777,2.168H121.996z
					 M128.39,270.103L127,265.71h-0.056l-1.501,4.393H128.39z"/>
				<path fill="#FFFFFF" d="M135.118,273.994h-2.224v-10.286h4.393c2.335,0.037,3.521,0.928,3.558,2.67
					c-0.036,1.334-0.741,2.168-2.112,2.502v0.056c1.147,0.036,1.76,0.797,1.835,2.278c0.037,0.149,0.056,0.261,0.056,0.334
					c0.111,1.224,0.296,2.039,0.557,2.447h-2.392c-0.222-0.891-0.353-1.816-0.389-2.781c-0.075-0.889-0.39-1.334-0.945-1.334h-2.335
					L135.118,273.994L135.118,273.994z M135.118,268.156h1.834c1.038,0,1.557-0.481,1.557-1.446c0-0.89-0.52-1.314-1.557-1.279
					h-1.834V268.156z"/>
				<path fill="#FFFFFF" d="M142.457,263.708h3.503c3.41,0.037,5.133,1.762,5.17,5.172c-0.037,3.373-1.761,5.078-5.17,5.114h-3.503
					V263.708z M144.625,272.271h1.167c2.038,0.075,3.039-1.058,3.002-3.392c0.037-2.373-0.964-3.521-3.002-3.447h-1.167V272.271z"/>
				<path fill="#FFFFFF" d="M157.747,263.708h2.502l1.779,7.729h0.056l1.668-7.729h2.058l-2.613,10.286h-2.446l-1.835-7.84
					l-2.001,7.84h-2.502l-2.502-10.286h2.279l1.557,7.729L157.747,263.708z"/>
				<path fill="#FFFFFF" d="M166.143,273.994l3.725-10.286h2.613l3.613,10.286h-2.224l-0.778-2.168h-4.059l-0.778,2.168H166.143z
					 M172.537,270.103l-1.39-4.393h-0.057l-1.501,4.393H172.537z"/>
				<path fill="#FFFFFF" d="M179.264,273.994h-2.225v-10.286h4.394c2.335,0.037,3.521,0.928,3.558,2.67
					c-0.037,1.334-0.742,2.168-2.113,2.502v0.056c1.148,0.036,1.761,0.797,1.835,2.278c0.037,0.149,0.057,0.261,0.057,0.334
					c0.11,1.224,0.296,2.039,0.556,2.447h-2.391c-0.223-0.891-0.354-1.816-0.39-2.781c-0.075-0.889-0.389-1.334-0.944-1.334h-2.335
					L179.264,273.994L179.264,273.994z M179.264,268.156h1.834c1.037,0,1.557-0.481,1.557-1.446c0-0.89-0.521-1.314-1.557-1.279
					h-1.834V268.156z"/>
				<path fill="#FFFFFF" d="M186.492,263.708h6.895v1.725h-4.67v2.391h4.338v1.725h-4.338v2.725h4.838v1.725h-7.062L186.492,263.708
					L186.492,263.708z"/>
			</g>
		</g>
		<g id="XMLID_9_">
			<g>
				<path fill="#FFFFFF" d="M590.818,255.218c0,5.334,0.645,10.852,0,13.982c-0.9,4.354-6.441,7.579-10.566,5.141
					c-1.793-4.74,4.199-2.08,6-5.141c1.262-2.141,0.572-9.934,0.572-13.982c0-5.184,1.061-10.864-0.572-13.996
					c-1.703-3.245-6.451-1.575-10.279-1.995c0.227,2.678,8.729,6.274,7.707,9.714c-1.293,4.361-6.219-1.658-7.994-3.434
					c-2.453-2.446-4.012-4.236-5.992-6.28c-4.281,0-8.566,0-12.844,0c-1.822,3.132-4.104,6.194-7.143,8.563
					c-1.418,1.119-3.508,2.938-5.709,2c-1.424-5.388,6.357-6.096,7.709-10.563c-14.033-3.166-10.846,7.562-10.846,19.981
					c0,2.615,0,5.924,0,9.129c0,3.568,0.355,6.742-1.998,6.856c-3.531,0.177-2.283-11.256-2.283-15.7
					c0-12.124-2.686-25.766,9.99-24.544c-0.018-2.37-2.195-4.083-1.143-6c2.049-3.737,5.703,2.31,5.422,6c8.473,0,16.938,0,25.41,0
					c1.871-2.127,0.439-7.554,5.135-6.854c1.877,1.805,0.039,4.938-0.568,6.854C592.111,233.687,590.818,243.532,590.818,255.218z"
					/>
				<path fill="#FFFFFF" d="M473.486,233.229c7.48,0.16-1.373,9.204-2.566,11.713c-1.252,0.12-2.203-0.08-2.854-0.577
					C467.707,239.589,471.531,236.626,473.486,233.229z"/>
				<path fill="#FFFFFF" d="M520.313,253.782c0.326,2.521,0.854,11.256-2.283,11.143c-3.918-0.154-0.246-11.986-4.285-13.705
					c-3.725-1.588-12.41-0.283-19.123-0.283c-4.545,0-16.076-1.393-17.988,1.424c-2.094,3.104,1.488,12.338-2.564,12.563
					c-3.045,0.16-3.102-9.73-1.998-13.133c0.785-2.447,3.535-4.337,5.99-4.856c3.854-0.8,11.57-0.285,17.984-0.285
					C507.303,246.649,519.053,244.345,520.313,253.782z"/>
				<path fill="#FFFFFF" d="M418.115,307.167c-1.434,0-2.857,0-4.287,0c0.219-3.771,0.842-9.555-0.283-12.846
					c-1.857-0.468-5.561-0.468-7.422,0c-1.113,3.126-0.578,9.263-0.291,12.846c-1.514,0-3.037,0-4.563,0
					c1.104-5.727,0.578-14.351,0.289-20.551c1.33,0,2.66,0,3.992,0c0,1.901,0,3.809,0,5.704c2.129-0.246,7.83-0.591,10.852,0
					C419.252,294.989,416.965,302.796,418.115,307.167z"/>
				<path fill="#FFFFFF" d="M524.875,307.167c-1.432,0-2.852,0-4.281,0c0.471-6.223,0.471-14.322,0-20.551c1.332,0,2.658,0,3.994,0
					C524.768,293.394,524.23,300.867,524.875,307.167z"/>
				<path fill="#FFFFFF" d="M597.955,286.616c1.9,0,3.807,0,5.709,0c-0.477,6.206-0.477,14.352,0,20.551c-1.627,0-3.232,0-4.854,0
					c0.637-5.264,0.119-11.679,0.283-17.41c-2.309,5.681-4.387,11.59-6.563,17.41c-1.139,0-2.285,0-3.432,0
					c-1.895-5.99-4.23-11.559-6.277-17.41c-0.383,5.144-0.717,12.712,0.287,17.41c-0.953,0-1.9,0-2.857,0
					c0.48-6.199,0.48-14.345,0-20.551c2.004,0,4,0,6,0c1.748,5.281,3.775,10.303,5.707,15.421
					C594.258,297.196,595.988,291.78,597.955,286.616z"/>
				<path fill="#FFFFFF" d="M456.361,230.667c0.775,5.053,0,11.752,0,18.834c0,7.172,1.068,15.506-0.283,19.7
					c-1.492,4.636-8.34,6.9-12.559,4.003c-0.643-4.938,4.242-2.176,6.854-3.721c3.078-1.814,1.713-13.18,1.713-18.835
					c0-3.405,0-7.042,0-10.282c0-6.135,1.113-12.877-5.141-11.979c-1.564,12.096-3.043,24.527-5.992,36.252
					c-0.641,2.521-1.734,10.171-5.139,8.846c-2.719-1.053,0.361-8.207,0.857-10.273c2.535-10.701,4.701-22.377,5.42-34.547
					c-1.623-0.664-4.473-0.097-6.566-0.277c-1.527,12.158-4,24.496-7.131,35.961c-0.734,2.66-1.635,10.455-5.143,9.137
					c-2.74-1.027,0.598-8.258,1.143-10.273c2.879-10.744,5.252-22.605,6.561-34.547c-1.455-0.824-4.912,0.352-5.992-0.858
					c-1.182-2.323,3.914-13.708,6.564-8.843c1.129,2.078-0.996,2.889-1.145,5.138C440.355,225.074,454.834,220.63,456.361,230.667z"
					/>
				<path fill="#FFFFFF" d="M476.916,219.818c-0.252,2.7,0.676,6.567-0.854,7.987c-1.246,0.4-1.686,0.012-2.855-0.28
					C471.48,224.189,472.842,215.634,476.916,219.818z"/>
				<path fill="#FFFFFF" d="M661.615,305.171c0.199,3.185-4.217,1.996-6.855,1.996c-3.043,0-6.285,0-8.57,0
					c0.922-5.541,0.961-14.731,0-20.268c1.154-0.665,3.523-0.098,5.146-0.283c-1.256,5.021-0.24,12.321-0.578,18.269
					C653.816,305.726,658.959,304.721,661.615,305.171z"/>
				<path fill="#FFFFFF" d="M661.898,280.046c-0.164,2.032-3.588,1.146-5.43,1.146c-129.604,0-260.461,0-390.508,0
					c-1.563,0-4.728,0.705-5.424-0.848c0.025-0.463-0.137-1.096,0.288-1.15c131.513,0,263.792,0,395.644,0
					C658.043,279.194,661.207,278.481,661.898,280.046z"/>
				<path fill="#FFFFFF" d="M420.971,249.79c4.404,4.115-3.754,5.748-6.572,7.135c-0.471,5.615,1.012,13.187-0.854,17.416
					c-6.094,0.908-2.428-10.281-3.426-15.414c-3.592,0.879-5.738,3.205-9.99,3.426c-3.604-5.504,6.859-5.807,9.99-8.281
					c0-6.754,0-13.508,0-20.262c-2.828-0.991-8.391,0.773-9.99-1.43c0.996-4.5-0.012-13.485,5.424-11.709
					c1.104,2.352-0.428,5.709-0.855,8.28c1.807,0,3.615,0,5.424,0c0.258-3.928-0.584-8.954,0.57-11.981
					c0.98-0.273,1.771-0.896,2.855-0.291c1.752,2.621,0.453,8.296,0.854,12.272c7.645-2.192,8.09,6.58,0.291,4.57
					c-0.668,5.624-0.098,12.466-0.291,18.563C416.965,251.683,418.195,249.97,420.971,249.79z"/>
				<path fill="#FFFFFF" d="M331.043,292.32c2.887,2.642,0.588,10.462,1.718,14.847c-1.25-0.272-3.754,0.705-3.714-0.851
					c-2.197,1.562-8.059,0.816-11.13,0.563c-1.767-1.534-1.499-7.46-0.289-9.417c2.775-1.225,7.971-0.014,11.133-0.855
					c0.316-4.9-8.489-1.818-11.703-2.284c0.628-0.414-0.168-2.258,0.858-2.287C322.238,292.194,327.19,291.724,331.043,292.32z
					 M328.481,304.884c0.617-1.472,0.125-4.056,0.283-5.986c-2.756,0.1-5.967-0.264-8.282,0.283
					c-0.339,1.844-0.528,4.529,0.289,5.993C323.268,305.003,326.448,305.521,328.481,304.884z"/>
				<path fill="#FFFFFF" d="M387.854,272.915c0.189,3.389-11.67,2.926-14.557,1.709c-7.555-3.183-3.576-18.886-4.57-29.682
					c-5.998,0-11.984,0-17.992,0c-1.359,10.02-5.545,18.74-11.416,25.124c-1.563,1.694-4.148,5.581-7.134,3.137
					c-0.561-2.935,2.427-4.547,3.997-6.28c4.996-5.528,8.667-12.314,9.99-21.979c-4.004-1.131-13.887,2.004-15.128-1.14
					c-1.764-4.484,8.027-3.139,11.421-3.139c5.426,0,10.033,0,14.559,0c0-3.798,0-8.18,0-12.275c0-4.176-0.652-8.461,0.855-11.418
					c1.273-0.432,1.77-0.101,2.855,0.277c1.279,6.711,0.23,15.76,0.564,23.416c4.074,0,8.861,0,13.994,0
					c3.834,0,11.48-1.09,11.986,1.707c0.854,4.627-10.021,1.815-13.982,2.572c-0.527,4.208-0.287,8.602-0.287,12.843
					c0,3.808-0.754,10.154,0.859,11.992C376.424,272.694,387.607,268.499,387.854,272.915z"/>
				<path fill="#FFFFFF" d="M268.246,294.609c3.999,0,7.99,0,11.986,0c-1.047,3.125-0.608,8.983-0.283,12.558
					c-1.159-0.361-3.896,0.847-3.714-0.851c-2.666,1.55-9.006,0.828-12.558,0.563c-1.679-2.496-2.218-12.538-1.43-17.4
					c0.631-3.886,5.415-2.86,10.563-2.86c2.29,0,6.487-1.082,6.273,1.713c-2.418,0.965-8.924-0.354-12.264,0.577
					c-0.659,4.665-0.101,10.556-0.3,15.692c1.85,1.002,6.294,0.646,8.572,0.286c1.116-1.739,0.338-5.358,0.571-7.993
					c-2.347-0.055-6.012,0.074-7.419,0C268.246,296.126,268.246,295.372,268.246,294.609z"/>
				<path fill="#FFFFFF" d="M378.438,307.167c-1.434,0-2.861,0-4.287,0c0.451-4.434,0.484-10.692,0-15.133c1.336,0,2.666,0,3.996,0
					C378.268,297.06,377.865,302.595,378.438,307.167z"/>
				<path fill="#FFFFFF" d="M457.221,286.899c-0.168,0.934,0.195,1.33,0.283,2.007c-3.258-0.388-8.189-0.545-11.416,0
					c-0.957,0.968-0.578,3.726-0.283,5.134c3.074,0.91,8.484-0.488,11.127,0.855c1.27,2.761,1.563,10-0.57,11.982
					c-4.307,0.46-10.545,0.5-14.838,0c0-0.474,0-0.946,0-1.421c2.512-1.069,8.598,0.399,11.984-0.572c0-1.896,0-3.805,0-5.706
					c-2.666-1.336-8.029,0.037-11.133-0.858c-1.355-2.415-1.236-8.704,0-11.133C446.205,286.163,452.947,286.531,457.221,286.899z"
					/>
				<path fill="#FFFFFF" d="M516.314,292.9c1.234,3.26,1.67,11.541-0.57,13.979c-2.932,0.308-8.096,0.777-10.568-0.28
					c0,2.095,0,4.188,0,6.28c-1.424,0-2.85,0-4.275,0c0.475-6.296,0.465-14.545,0-20.847c0.285,0.13,1.67-0.137,2.563,0
					c0.414,0.066,1.299,0.865,1.432,0.865c0.496,0,1.467-0.769,2.002-0.865C510,291.507,513.723,291.906,516.314,292.9z
					 M512.887,305.171c0.469-2.972,0.469-7.873,0-10.851c-1.854-0.468-5.563-0.468-7.422,0c-0.471,2.978-0.471,7.879,0,10.851
					C507.941,305.171,510.414,305.171,512.887,305.171z"/>
				<path fill="#FFFFFF" d="M626.5,306.88c-1.146,0.661-3.52,0.107-5.145,0.288c-0.156-2.604-1.645-3.869-1.994-6.273
					c-2.947,0-5.9,0-8.846,0c-0.836,2.013-2.15,3.557-2.283,6.273c-0.859,0-1.717,0-2.568,0c2.543-6.775,6.717-13.434,7.99-20.551
					c1.521,0,3.043,0,4.563,0C620.996,293.359,623.283,300.578,626.5,306.88z M611.377,299.181c2.277,0,4.563,0,6.842,0
					c-0.379-2.596-2.086-6.274-3.422-8.855C613.857,293.474,612.121,295.837,611.377,299.181z"/>
				<path fill="#FFFFFF" d="M570.264,292.034c-0.125,0.988,0.111,1.61,0.285,2.287c-3.08-0.361-7.799-0.54-10.846,0
					c-0.654,0.403-0.105,1.996-0.287,2.857c3.131,0.771,8.143-0.342,10.561,1.142c1.107,2.204,1.164,6.383-0.281,8.278
					c-1.521,0.871-4.803,0.566-7.715,0.566c-2.359,0-6.533,1.033-6.275-1.71c1.996-0.72,7.455-0.052,10.85-0.286
					c0.566-0.771,0.166-2.493,0.283-3.714c-3.184-0.996-9.264,0.899-10.844-1.706c-0.502-1.662-0.369-4.607,0-6.283
					C558.525,290.775,565.549,292.552,570.264,292.034z"/>
				<path fill="#FFFFFF" d="M518.311,239.804c2.801,1.543,7.65,3.074,4.281,6.283c-4.883-0.748-8.477-3.963-12.27-6
					c-4.014-2.152-7.982-3.994-11.992-6.277c-3.85,4.773-8.799,11.296-16.271,10.557c-2.258-3.803,5.488-5.33,7.99-7.422
					c3.76-3.134,4.627-6.391,6.277-9.988c-3.922-0.361-9.494,0.926-11.703-1.142c0.043-2.88,2.105-9.638,5.998-6.851
					c0.799,1.397-0.344,2.237-0.283,3.713c10.193,0.363,21.867-0.748,31.113,0.568c0.457,3.191-1.037,6.711-2.57,8.842
					c-0.658,0-1.33,0-1.996,0c-1.67-1.094-0.91-3.383-0.287-5.131c-5.234,0-10.469,0-15.697,0c-2.814,3.229,2.375,4.477,5.137,5.995
					C510.266,235.279,513.828,237.323,518.311,239.804z"/>
				<path fill="#FFFFFF" d="M617.08,261.499c7.602,3.314-11.834,9.786-13.416,8.278c-2.723-2.608,2.152-4.692,4.57-5.138
					c0-9.711,0-19.415,0-29.117c-1.654-0.154-4.059,0.434-4.855-0.571c-0.639-1.179-0.418-1.927,0-3.149
					c1.057-0.748,3.053-0.547,4.855-0.564c0.355-3.457-0.836-8.453,0.854-10.568c1.523-0.603,2.592,0.028,3.426,0.859
					c0,3.243,0,6.473,0,9.709c6.582-1.958,7.064,6.069,0.287,4.285c-0.664,8.564-0.1,18.363-0.287,27.4
					C614.168,262.581,615.105,261.511,617.08,261.499z"/>
				<path fill="#FFFFFF" d="M313.339,304.884c0.018,0.685-0.479,0.842-0.276,1.715c-3.641,1.151-10.438,0.557-14.557,0.278
					c-2.194-2.541-2.194-12.009,0-14.559c4.257-0.083,12.032-1.418,14.557,1.147c0.583,1.896,0.156,4.789,0.276,7.137
					c-4.082,0-8.173,0-12.263,0c-0.648,1.248-0.214,3.545,0.279,4.565C305.287,305.01,309.892,305.518,313.339,304.884z
					 M300.785,298.609c2.94,0,5.906,0,8.854,0c-0.047-1.476,0.174-3.231-0.286-4.288
					C305.687,293.859,298.979,292.66,300.785,298.609z"/>
				<path fill="#FFFFFF" d="M496.043,292.32c1.363,2.624,2.906,10.16,1.143,13.419c-1.664,3.069-8.592,1.133-11.703,0.859
					c0.188,1.913-0.377,4.565,0.281,5.995c-0.861,0.652-2.941,0.1-4.281,0.286c0.281-6.231,0.82-14.799-0.283-20.561
					c-0.055-0.24,0.107-0.263,0.283-0.286c1.256,0.286,3.748-0.692,3.717,0.865C487.338,291.318,493.02,292.101,496.043,292.32z
					 M493.475,304.884c0.465-2.917,0.465-7.631,0-10.563c-1.994-0.425-5.729-0.5-7.711,0c-0.471,2.884-0.471,7.688,0,10.563
					C487.713,305.354,491.525,305.354,493.475,304.884z"/>
				<path fill="#FFFFFF" d="M516.885,269.483c2.563,0.811,8.23,0.991,6.277,5.141c-5.004,0.594-9.941-1.863-14.844-3.423
					c-4.838-1.539-9.854-2.969-14.561-4.567c-5.92,4.771-15.592,8.722-24.834,8.279c-2.832-4.376,5.305-4.382,9.131-5.43
					c7.926-2.141,14.693-5.344,15.418-14.838c1.131-1.082,2.988-0.357,3.711,0.574c0.025,2.972-0.238,5.666-1.424,7.422
					C501.131,264.699,509.727,267.242,516.885,269.483z"/>
				<path fill="#FFFFFF" d="M591.395,222.956c0.871,4.1-8.021,2.857-12.564,2.857c-9.5,0-20.711,0-30.539,0
					c-4.127,0-13.123,1.205-12.287-2.857c0.578-2.729,10.771-1.705,11.998-1.705c5.512,0,8.33,0,13.414,0
					c0.908-0.709-0.471-3.711,0.855-4.004c0.318-0.734,1.543-0.552,2.57-0.568c1.096,0.802,1.314,2.494,1.145,4.572
					c4.461,0,8.436,0,13.703,0C582.377,221.251,590.828,220.341,591.395,222.956z"/>
				<path fill="#FFFFFF" d="M657.9,218.109c3.326-0.58,2.961,4.165,1.43,6.28c-1.826,2.506-4.355,2.66-8.854,2.566
					c0.238,6.428,1.893,13.901,3.143,20.271c2.031-1.222,1.65-5.781,4.85-5.14c4.326,0.859-2.127,9.023-3.42,11.416
					c0.879,3.849,1.607,7.031,2.854,11.422c0.65,2.287,4.328,9.791,0.289,9.988c-2.789,0.137-3.301-5.381-4-7.713
					c-1.027-3.41-1.771-5.982-2.566-8.847c-2.107,0.485-3.885,6.46-7.135,5.995c-0.746-0.1-1.865-1.012-2.002-1.708
					c-0.682-3.399,7.092-6.565,7.709-10.279c0.24-1.476-0.723-4.159-1.145-6.274c-1.256-6.422-2.479-12.144-3.139-19.131
					c-8.396,1.03-22.754-3.918-20.553,7.713c6.156,1.01,14.01-1.768,15.414,5.994c0.664,3.684,0,8.955,0,13.982
					c0,5.758,0.891,12.583-0.57,15.703c-1.246,2.641-6.301,5.133-9.42,2.854c-0.227-1.422-0.088-1.606,0.287-2.854
					c1.293-0.99,4.426-0.146,5.137-1.721c0.305-8.781,0.822-20.22-0.287-28.541c-2.215-1.597-7.047-0.565-10.561-0.859
					c-0.463,7.447-0.768,17.453-1.145,25.697c-0.207,4.612,0.768,10.174-2.283,10.271c-3.664,0.128-2.146-8.026-2-11.413
					c0.211-4.716,0.324-10.027,0.576-15.701c0.445-10.222-1.361-23.756,7.131-25.406c5.992-1.166,9.871,0.822,17.701,0
					c-2.42-6.594,5.881-7.487,4.277-0.289c1.121,0.604,3.289,0.144,4.861,0.289C656.871,221.852,655.584,218.503,657.9,218.109z"/>
				<path fill="#FFFFFF" d="M393.852,292.9c0.49-1.213,2.617-0.815,4.281-0.865c-1.182,6.149,1.09,15.749-1.43,20.561
					c-2.883,0.18-7.779,0.688-11.707,0.286c-0.996-0.105-3.221,0.548-2.566-1.426c2.322-1.157,7.965,0.445,11.133-0.569
					c0.578-0.862,0.164-2.692,0.289-4.006c-1.965,0.341-7.691,0.543-10.563,0c-2.252-2.438-1.818-10.72-0.57-13.979
					C384.934,291.732,391.699,291.372,393.852,292.9z M393.563,305.171c0.471-2.972,0.471-7.873,0-10.851
					c-1.857-0.468-5.566-0.468-7.42,0c-0.656,2.97-0.109,7.131-0.287,10.563C387.928,305.48,391.033,305.034,393.563,305.171z"/>
				<path fill="#FFFFFF" d="M683.021,205.546c1.125,2.019,0.58,7.217,0.281,9.696c-1.867-0.588-0.373-4.559-0.854-6.554
					c-1.199,2.038-1.832,4.63-3.145,6.554c-2.354-1.056-2.395-4.438-3.711-6.554c-1.016,1.456,0.635,5.578-0.854,6.554
					c-1.316-2.101-0.205-6.637-0.57-9.696c0.285,0,0.57,0,0.855,0c1.787,2.019,2.49,5.123,3.709,7.709
					C680.814,211.329,680.701,207.225,683.021,205.546z"/>
				<path fill="#FFFFFF" d="M477.77,292.034c0.18,4.973-0.357,10.644,0.287,15.133c-4.807-0.688-10.418,0.856-15.408-0.566
					c-2.189-3.049-0.451-10.025-1.432-14.279c0.865-0.654,2.943-0.088,4.283-0.286c0.182,4.202-0.371,9.132,0.287,12.851
					c1.928,0.636,5.021,0.119,7.42,0.287c1.645-3.004,0.676-9.211,0.57-13.138C475.113,292.034,476.439,292.034,477.77,292.034z"/>
				<path fill="#FFFFFF" d="M552.283,305.171c0.117,0.687-0.523,0.622-0.289,1.429c-3.639,1.151-10.438,0.557-14.555,0.278
					c-2.252-2.438-1.814-10.719-0.572-13.979c3.373-1.359,11.461-1.359,14.838,0c0.98,1.77,0.438,5.078,0.578,7.705
					c-3.994,0-7.996,0-11.996,0c-0.525,0.822-0.404,3.438,0,4.279C543.58,305.583,549.457,304.936,552.283,305.171z
					 M548.566,298.609c-0.051-1.476,0.182-3.231-0.277-4.288c-3.541-0.431-10.291-1.768-8.285,4.288
					C542.857,298.609,545.717,298.609,548.566,298.609z"/>
				<path fill="#FFFFFF" d="M348.174,304.884c-0.445,0.417-0.248,1.47-0.287,2.282c-3.352-0.26-7.933,0.699-9.986-0.851
					c-1.116-3.08-0.352-8.036-0.571-11.995c-0.22-0.828-2.357,0.267-2.572-0.571c0-0.377,0-0.759,0-1.142
					c-0.11-1.156,1.775-0.313,2.572-0.574c0-1.044,0-2.086,0-3.128c1.031-0.206,2.367-0.117,3.134-0.577
					c1.236,0.188,0.269,2.593,0.572,3.705c2.189,0,4.379,0,6.566,0c0,0.675,0,1.339,0,2.004c-2.096,0-4.189,0-6.285,0
					c-0.365,3.037-0.73,8.541,0.283,11.132C343.775,305.055,346.457,305.451,348.174,304.884z"/>
				<path fill="#FFFFFF" d="M532.301,287.188c0,0.852,0,1.718,0,2.568c-1.242,0-2.475,0-3.711,0c0-0.851,0-1.717,0-2.568
					C529.826,287.188,531.059,287.188,532.301,287.188z"/>
				<path fill="#FFFFFF" d="M672.459,205.831c-0.111,1.213-2.389,0.271-3.424,0.574c-0.361,2.777,0.738,7.018-0.572,8.838
					c-1.307-1.724-0.207-5.877-0.57-8.552c-0.58-0.666-2.365-0.11-3.428-0.286c0-0.191,0-0.38,0-0.574
					C665.84,204.886,671.082,204.886,672.459,205.831z"/>
				<path fill="#FFFFFF" d="M643.91,305.171c0.115,3.154-4.191,1.996-6.85,1.996c-3.061,0-6.26,0-8.564,0
					c0.916-5.729,0.916-14.814,0-20.551c1.615,0,3.24,0,4.857,0c-0.619,5.566-0.139,12.247-0.287,18.269
					C636.141,305.771,641.207,304.661,643.91,305.171z"/>
				<path fill="#FFFFFF" d="M380.434,219.818c7.543-1.937,0.646,8.209-0.857,10.565c-1.094,1.707-4.307,7.705-6.85,7.416
					c-4.895-0.565,1.865-7.719,3.139-9.703C377.949,224.857,379.098,222.696,380.434,219.818z"/>
				<path fill="#FFFFFF" d="M433.246,304.884c0.119,0.98-0.117,1.601-0.289,2.282c-3.105-0.211-7.197,0.537-9.426-0.566
					c-1.818-2.649-0.918-8.024-1.137-12.278c-0.125-0.822-2.158,0.254-2.285-0.57c0-0.377,0-0.76,0-1.143
					c-0.174-1.122,1.57-0.337,2.285-0.574c0-1.044,0-2.086,0-3.128c1.213-0.125,2.535-0.137,3.42-0.577
					c1.246,0.188,0.266,2.592,0.572,3.705c2.098,0,4.191,0,6.287,0c0,0.674,0,1.34,0,2.004c-2.002,0-4.002,0-5.998,0
					c-0.666,2.952-0.1,7.137-0.289,10.56C427.678,305.62,431.51,305.224,433.246,304.884z"/>
				<path fill="#FFFFFF" d="M378.146,287.188c0,0.852,0,1.718,0,2.568c-1.234,0-2.473,0-3.707,0c0-0.851,0-1.717,0-2.568
					C375.676,287.188,376.912,287.188,378.146,287.188z"/>
				<path fill="#FFFFFF" d="M581.395,254.646c2.02,4.753,0.561,13.732-3.426,15.421c-2.941,1.235-9.248,0.565-14.559,0.565
					c-5.197,0-11.598,0.508-14.268-0.854c-3.273-1.676-5.096-8.929-3.145-14.851c0.74-2.25,2.949-3.53,5.139-3.99
					c2.85-0.611,8.783-0.289,13.99-0.289C572.48,250.648,579.336,249.79,581.395,254.646z M576.545,265.78
					c1.746-1.777,1.533-8.107,0.281-10.275c-7.379-0.939-18.594-0.951-25.979,0c-1.467,1.758-1.076,7.778-0.277,9.987
					C558.018,266.609,568.619,266.081,576.545,265.78z"/>
				<path fill="#FFFFFF" d="M343.037,227.24c1.299,2.021,7.523,9.406,3.137,10.271c-2.459,0.494-5.207-5.283-6.563-7.418
					c-1.299-2.032-8.775-10.904-1.998-10.849C339.477,221.283,340.838,223.8,343.037,227.24z"/>
				<path fill="#FFFFFF" d="M532.584,307.167c-1.424,0-2.852,0-4.283,0c0.467-4.44,0.467-10.679,0-15.133c1.336,0,2.67,0,4,0
					C532.443,297.04,531.984,302.632,532.584,307.167z"/>
				<path fill="#FFFFFF" d="M294.504,292.034c0.181,0.782-0.358,2.275,0.289,2.575c-1.424,0.442-5.039-0.508-6.848,0.285
					c-0.471,3.479-0.471,8.801,0,12.271c-1.524,0-3.062,0-4.567,0c1.042-4.118,0.552-10.541,0.282-15.133
					c1.159,0.369,3.897-0.845,3.714,0.865C288.725,291.581,291.956,292.163,294.504,292.034z"/>
				<path fill="#FFFFFF" d="M371.867,305.171c0.207,3.185-4.217,1.996-6.848,1.996c-3.051,0-6.279,0-8.566,0
					c0.916-5.541,0.953-14.731,0-20.268c1.148-0.665,3.514-0.098,5.135-0.283c-1.256,5.021-0.24,12.321-0.57,18.269
					C364.074,305.726,369.219,304.721,371.867,305.171z"/>
				<path fill="#FFFFFF" d="M319.342,232.085c0.234,3.724-7.976,2.291-11.133,2.291c-5.115,0-9.086,0-13.417,0
					c5.583,9.396,12.559,19.838,19.129,29.69c1.907,2.862,6.101,6.283,4.282,10.276c-3.203,1.195-6.297-5.612-7.999-8.278
					c-5.838-9.166-12.946-19.231-18.558-27.687c-2.636,12.748-8.452,23.318-17.407,30.547c-2.649,2.132-6.237,5.632-10.274,4.562
					c-1.396-3.083,5.348-6.362,7.705-8.278c8.771-7.11,14.028-17.113,15.986-30.539c-3.751-0.521-8.07-0.293-13.134-0.293
					c-3.43,0-11.23,1.275-11.416-1.996c-0.203-3.641,8.001-2.287,11.416-2.287c5.252,0,9.269,0,13.705,0
					c2.079-3.715-1.53-13.135,4.564-12.846c1.981,3.088,0.068,8.767,0,12.555c4.122,0.531,8.823,0.291,14.271,0.291
					C310.816,230.093,319.138,228.859,319.342,232.085z"/>
			</g>
		</g>
	</g>
</g>
<g>
	<path fill="#FFFFFF" d="M100.793,481.369c0.307-0.648,1.068-0.879,1.68-0.611l0.039,0.037c0.648,0.306,0.876,1.069,0.611,1.644
		l-2.711,5.687c-0.306,0.686-1.032,0.913-1.68,0.609c-0.61-0.269-0.879-1.03-0.573-1.642L100.793,481.369z M103.581,478.813
		c-1.107,0-2.101-0.421-2.864-1.185s-1.183-1.793-1.183-2.862v-5.303c0-1.069,0.419-2.102,1.183-2.863
		c0.764-0.764,1.757-1.185,2.864-1.185h5.496v-9.197c0-0.688,0.531-1.258,1.258-1.258h0.037c0.689,0,1.261,0.57,1.261,1.258v1.642
		h17.364c0.688,0,1.259,0.573,1.259,1.26v0.077c0,0.648-0.57,1.22-1.259,1.22h-17.364v4.999h14.921c1.679,0,3.054,0.994,3.742,2.481
		c0.189,0.497,0.307,1.03,0.307,1.566v5.303c0,0.535-0.117,1.069-0.307,1.565c-0.688,1.488-2.063,2.481-3.742,2.481H103.581z
		 M126.553,476.253c0.459,0,0.803-0.152,1.068-0.418c0.232-0.306,0.385-0.649,0.385-1.069v-5.303c0-0.842-0.576-1.453-1.453-1.453
		h-22.973c-0.42,0-0.803,0.115-1.107,0.421c-0.267,0.269-0.42,0.611-0.42,1.032v5.303c0,0.42,0.153,0.764,0.42,1.069
		c0.305,0.266,0.688,0.418,1.107,0.418H126.553z M109.151,482.323c0-0.688,0.609-1.26,1.262-1.26h0.074
		c0.727,0,1.26,0.572,1.26,1.26v5.648c0,0.687-0.533,1.257-1.26,1.257h-0.074c-0.652,0-1.262-0.57-1.262-1.257V482.323z
		 M117.778,482.323c0-0.688,0.533-1.26,1.258-1.26h0.078c0.648,0,1.259,0.572,1.259,1.26v5.648c0,0.687-0.61,1.257-1.259,1.257
		h-0.078c-0.725,0-1.258-0.57-1.258-1.257V482.323z M126.248,482.476c-0.267-0.611-0.037-1.412,0.573-1.681
		c0.342-0.152,0.648-0.188,0.994-0.074c0.342,0.112,0.57,0.304,0.723,0.648l2.826,5.687c0.267,0.648,0.037,1.41-0.609,1.679
		c-0.611,0.304-1.338,0.076-1.643-0.574L126.248,482.476z"/>
	<path fill="#FFFFFF" d="M166.672,458.929c0.727,0,1.258,0.61,1.258,1.26v0.076c0,0.688-0.531,1.259-1.258,1.259H154v7.328h13.893
		c0.646,0,1.22,0.57,1.22,1.258v0.038c0,0.725-0.573,1.261-1.22,1.261H154v14.999h9.313c0.611,0,1.106-0.192,1.564-0.611
		c0.42-0.421,0.609-0.954,0.609-1.565v-7.747c0-0.688,0.574-1.259,1.26-1.259h0.041c0.723,0,1.26,0.57,1.26,1.259v7.747
		c0,0.65-0.117,1.26-0.385,1.832c-0.495,1.183-1.374,2.023-2.518,2.557c-0.572,0.23-1.186,0.344-1.832,0.344H142.13
		c-1.945,0-3.622-1.028-4.348-2.824c-0.27-0.611-0.345-1.221-0.345-1.908v-7.747c0-0.688,0.535-1.259,1.26-1.259h0.037
		c0.688,0,1.258,0.57,1.258,1.259v7.747c0,0.611,0.192,1.145,0.65,1.565c0.42,0.419,0.916,0.611,1.487,0.611h9.312v-14.999h-13.89
		c-0.648,0-1.222-0.536-1.222-1.261v-0.038c0-0.688,0.573-1.258,1.222-1.258h13.89v-7.328h-12.67c-0.723,0-1.259-0.571-1.259-1.259
		v-0.076c0-0.649,0.536-1.26,1.259-1.26h12.67v-2.711c0-0.688,0.574-1.258,1.262-1.258h0.039c0.686,0,1.258,0.57,1.258,1.258v2.711
		H166.672z"/>
	<path fill="#FFFFFF" d="M178.012,460.799c0,0.687-0.531,1.257-1.258,1.257s-1.26-0.57-1.26-1.257v-4.047
		c0-0.686,0.533-1.259,1.26-1.259s1.258,0.573,1.258,1.259V460.799z M180.227,489.461c-0.648,0-1.26-0.117-1.832-0.384
		c-1.183-0.496-2.062-1.373-2.52-2.518c-0.307-0.611-0.381-1.185-0.381-1.87v-18.97c0-0.684,0.533-1.258,1.26-1.258
		s1.258,0.574,1.258,1.258v18.97c0,0.609,0.23,1.106,0.689,1.525c0.419,0.42,0.952,0.65,1.525,0.65h25.264
		c0.725,0,1.261,0.57,1.261,1.26v0.074c0,0.688-0.536,1.262-1.261,1.262H180.227z M205.224,458.929c0.688,0,1.259,0.572,1.259,1.26
		v0.076c0,0.688-0.571,1.259-1.259,1.259h-3.319c0,0.075-0.039,0.114-0.039,0.19c-1.029,4.732-2.861,8.777-5.496,12.176l8.777,8.356
		c0.27,0.229,0.383,0.572,0.383,0.915c0,0.347-0.076,0.611-0.345,0.878l-0.075,0.078c-0.457,0.495-1.298,0.495-1.756,0.037
		l-8.662-8.281c-3.281,3.512-7.367,6.412-12.404,8.623c-0.648,0.268-1.375,0-1.68-0.683v-0.08c-0.266-0.609,0-1.336,0.65-1.601
		c4.426-1.948,8.355-4.542,11.525-8.053l-9.236-8.818c-0.268-0.267-0.382-0.531-0.42-0.877c0-0.344,0.152-0.649,0.342-0.914
		l0.117-0.078c0.457-0.495,1.258-0.495,1.754-0.037l9.121,8.738c1.068-1.41,1.984-2.899,2.747-4.542
		c0.88-1.832,1.565-3.854,2.102-6.028h-17.402c-0.688,0-1.261-0.571-1.261-1.259v-0.076c0-0.688,0.572-1.26,1.261-1.26h10.341
		v-2.594c0-0.689,0.57-1.262,1.221-1.262h0.076c0.688,0,1.26,0.572,1.26,1.262v2.594H205.224z"/>
	<path fill="#FFFFFF" d="M219.389,474.919c-1.945,0-3.625-1.069-4.389-2.862c-0.265-0.573-0.382-1.185-0.382-1.83V460.15
		c0-0.688,0.117-1.3,0.382-1.872c0.499-1.144,1.375-2.021,2.52-2.555c0.611-0.23,1.185-0.384,1.869-0.384h19.77
		c0.648,0,1.297,0.153,1.871,0.384c1.185,0.533,2.02,1.411,2.518,2.555c0.266,0.572,0.419,1.184,0.419,1.872v10.076
		c0,0.646-0.153,1.257-0.419,1.83c-0.763,1.793-2.441,2.862-4.389,2.862h-8.511v4.273h12.214c0.646,0,1.258,0.535,1.258,1.262v0.036
		c0,0.726-0.611,1.259-1.258,1.259h-12.214v5.344h13.929c0.727,0,1.26,0.573,1.26,1.26v0.076c0,0.688-0.533,1.258-1.26,1.258
		h-30.414c-0.727,0-1.26-0.57-1.26-1.258v-0.076c0-0.687,0.533-1.26,1.26-1.26h13.892v-5.344h-12.252
		c-0.688,0-1.26-0.533-1.26-1.259v-0.036c0-0.727,0.572-1.262,1.26-1.262h12.252v-4.273H219.389z M217.176,460.15v3.854h10.878
		v-6.07h-8.665c-0.609,0-1.143,0.231-1.564,0.65C217.444,459.003,217.176,459.539,217.176,460.15z M219.389,472.362h8.665v-5.728
		h-10.878v3.592c0,0.57,0.268,1.104,0.648,1.524C218.247,472.171,218.78,472.362,219.389,472.362z M241.373,460.15
		c0-0.611-0.228-1.147-0.648-1.566c-0.458-0.419-0.917-0.65-1.565-0.65h-8.511v6.07h10.725V460.15z M239.159,472.362
		c0.648,0,1.107-0.191,1.565-0.611c0.421-0.421,0.648-0.954,0.648-1.524v-3.592h-10.725v5.728H239.159z"/>
	<path fill="#FFFFFF" d="M292.525,460.799c0,0.687-0.533,1.257-1.26,1.257h-0.037c-0.724,0-1.26-0.57-1.26-1.257v-4.047
		c0-0.686,0.536-1.259,1.26-1.259h0.037c0.727,0,1.26,0.573,1.26,1.259V460.799z M294.701,489.461c-0.611,0-1.26-0.117-1.83-0.384
		c-1.185-0.496-2.023-1.373-2.522-2.518c-0.265-0.611-0.38-1.185-0.38-1.87v-18.97c0-0.684,0.536-1.258,1.26-1.258h0.037
		c0.727,0,1.26,0.574,1.26,1.258v18.97c0,0.609,0.23,1.106,0.651,1.525c0.418,0.42,0.954,0.65,1.524,0.65h25.302
		c0.727,0,1.26,0.57,1.26,1.26v0.074c0,0.688-0.533,1.262-1.26,1.262H294.701z M318.475,459.614c0.689,0,1.263,0.574,1.263,1.26
		v0.04c0,0.724-0.573,1.258-1.263,1.258h-3.089v9.045h4.121c0.648,0,1.26,0.571,1.26,1.259v0.077c0,0.726-0.611,1.259-1.26,1.259
		h-4.121v10.496c0,0.688-0.574,1.258-1.26,1.258h-0.078c-0.724,0-1.257-0.57-1.257-1.258v-10.496h-8.514
		c-0.225,1.795-0.646,3.511-1.371,5.076c-1.029,2.251-2.444,4.009-4.274,5.648c-0.306,0.228-0.611,0.345-0.992,0.306
		c-0.346-0.078-0.61-0.229-0.879-0.534l-0.037-0.038c-0.384-0.573-0.306-1.298,0.228-1.719c2.635-2.214,4.084-4.998,4.695-8.396
		c0-0.112,0.037-0.229,0.037-0.344H297.6c-0.686,0-1.26-0.533-1.26-1.259v-0.077c0-0.688,0.574-1.259,1.26-1.259h4.314
		c0.037-0.459,0.037-0.953,0.037-1.448v-7.597h-3.395c-0.688,0-1.263-0.534-1.263-1.258v-0.04c0-0.686,0.574-1.26,1.263-1.26h3.395
		v-3.279c0-0.689,0.574-1.262,1.257-1.262h0.081c0.683,0,1.26,0.572,1.26,1.262v3.279h8.242v-3.279c0-0.689,0.533-1.262,1.257-1.262
		h0.078c0.686,0,1.26,0.572,1.26,1.262v3.279H318.475z M304.549,469.769c0,0.495,0,0.989-0.041,1.448h8.283v-9.045h-8.242V469.769z"
		/>
	<path fill="#FFFFFF" d="M360.273,487.056c0.383,0.573,0.23,1.336-0.344,1.716l-0.115,0.115c-0.305,0.151-0.611,0.229-0.916,0.151
		c-0.34-0.036-0.646-0.228-0.799-0.494l-14.045-20.992c-1.758,3.969-3.968,7.938-6.256,11.144c-2.56,3.628-5.425,6.948-8.552,9.886
		c-0.268,0.269-0.573,0.382-0.916,0.344c-0.344,0-0.648-0.153-0.914-0.381l-0.04-0.078c-0.418-0.531-0.418-1.295,0.077-1.792
		c3.016-2.786,5.725-5.953,8.243-9.427c2.441-3.473,4.922-7.978,6.641-12.289l-4.621-6.908c-0.381-0.574-0.266-1.374,0.346-1.756
		l0.112-0.076c0.269-0.151,0.573-0.228,0.917-0.151c0.343,0.037,0.611,0.228,0.801,0.494L360.273,487.056z"/>
	<path fill="#FFFFFF" d="M374.82,484.727c0,0.648-0.154,1.26-0.381,1.833c-0.762,1.793-2.441,2.862-4.391,2.862h-2.098
		c-0.686,0-1.26-0.535-1.26-1.262v-0.035c0-0.689,0.574-1.26,1.26-1.26h2.098c0.611,0,1.107-0.191,1.566-0.65
		c0.42-0.419,0.611-0.916,0.611-1.488v-5.914l-5.113,2.251c-0.648,0.343-1.375,0-1.641-0.609l-0.041-0.039
		c-0.301-0.65,0-1.414,0.611-1.681l6.184-2.746v-8.397h-6.262c-0.686,0-1.256-0.572-1.256-1.26v-0.037
		c0-0.688,0.57-1.258,1.256-1.258h6.262v-5.269l-4.809,0.953c-0.689,0.153-1.338-0.305-1.49-0.991v-0.076
		c-0.115-0.688,0.344-1.336,0.994-1.488l11.336-2.214c0.684-0.152,1.373,0.306,1.488,0.993v0.037
		c0.111,0.688-0.307,1.336-0.996,1.489l-3.93,0.801v0.152v5.612h12.404c-0.533-2.598-0.955-5.307-1.26-8.092
		c-0.074-0.688,0.422-1.336,1.107-1.373h0.074c0.689-0.116,1.301,0.419,1.412,1.069c0.305,2.937,0.764,5.722,1.338,8.396h7.938
		c0.686,0,1.26,0.57,1.26,1.258v0.037c0,0.688-0.574,1.26-1.26,1.26h-7.363c0.494,1.945,1.068,3.817,1.676,5.647
		c0.229,0.764,0.533,1.488,0.803,2.215c1.184-1.336,2.213-2.711,3.129-4.123c0.346-0.572,1.07-0.762,1.68-0.421l0.039,0.041
		c0.305,0.152,0.533,0.458,0.609,0.764c0.076,0.343,0.039,0.686-0.152,0.991c-1.184,1.908-2.635,3.739-4.273,5.459
		c1.334,3.205,2.783,6.296,4.465,9.197c0.342,0.61,0.152,1.336-0.459,1.677l-0.074,0.039c-0.574,0.384-1.334,0.191-1.682-0.458
		c-1.564-2.709-2.977-5.532-4.232-8.471c-2.445,2.249-5.27,4.388-8.477,6.333c-0.572,0.384-1.41,0.231-1.752-0.419l-0.041-0.076
		c-0.344-0.574-0.152-1.338,0.42-1.679c3.398-2.1,6.299-4.351,8.779-6.755c-0.457-1.108-0.879-2.252-1.262-3.436
		c-0.725-2.098-1.334-4.275-1.871-6.526H374.82v7.216l3.244-1.453c0.648-0.306,1.375,0,1.641,0.611l0.041,0.078
		c0.264,0.646,0,1.41-0.611,1.677l-4.314,1.947V484.727z M396.764,460.646c0,0.725-0.533,1.258-1.256,1.258h-0.078
		c-0.648,0-1.26-0.533-1.26-1.258v-3.396c0-0.727,0.611-1.26,1.26-1.26h0.078c0.723,0,1.256,0.533,1.256,1.26V460.646z"/>
	<path fill="#FFFFFF" d="M408.906,458.202c0.766-0.8,2.139-0.228,2.139,0.879v28.623c0,0.688-0.57,1.259-1.258,1.259h-0.076
		c-0.688,0-1.26-0.571-1.26-1.259V462.21l-2.332,2.327c-0.455,0.458-1.256,0.458-1.752-0.037l-0.037-0.038
		c-0.498-0.458-0.457-1.259,0.037-1.755L408.906,458.202z M418.488,459.501c0,0.688-0.57,1.22-1.26,1.22h-0.037
		c-0.689,0-1.26-0.532-1.26-1.22v-2.025c0-0.646,0.57-1.258,1.26-1.258h0.037c0.689,0,1.26,0.611,1.26,1.258V459.501z
		 M418.488,487.704c0,0.688-0.57,1.259-1.26,1.259h-0.037c-0.689,0-1.26-0.571-1.26-1.259v-23.279c0-0.727,0.57-1.261,1.26-1.261
		h0.037c0.689,0,1.26,0.534,1.26,1.261V487.704z M432.305,486.215c0.648,0,1.182-0.191,1.6-0.609
		c0.42-0.383,0.574-0.916,0.574-1.566v-22.82c0-0.572-0.154-1.108-0.574-1.526c-0.418-0.421-0.951-0.611-1.6-0.611h-9.654
		c-0.727,0-1.264-0.61-1.264-1.26v-0.076c0-0.728,0.537-1.258,1.264-1.258h9.654c0.648,0,1.26,0.112,1.871,0.379
		c1.145,0.497,2.02,1.373,2.516,2.521c0.268,0.57,0.383,1.221,0.383,1.832v22.82c0,0.65-0.115,1.26-0.383,1.871
		c-0.764,1.756-2.404,2.939-4.387,2.939h-4.01c-0.686,0-1.26-0.572-1.26-1.261v-0.112c0-0.689,0.574-1.262,1.26-1.262H432.305z"/>
	<path fill="#FFFFFF" d="M473.414,457.859c0.686,0,1.258,0.533,1.258,1.26v0.077c0,0.648-0.572,1.26-1.258,1.26h-30.15
		c-0.686,0-1.26-0.611-1.26-1.26v-0.077c0-0.727,0.574-1.26,1.26-1.26h13.779v-1.565c0-0.723,0.57-1.26,1.256-1.26h0.078
		c0.686,0,1.26,0.537,1.26,1.26v1.565H473.414z M448.301,474.653c-0.266,0.227-0.611,0.305-0.99,0.188
		c-0.344-0.076-0.611-0.268-0.803-0.61c-0.346-0.609-0.115-1.336,0.381-1.679c1.945-1.259,3.357-2.632,4.352-4.159h-4.162
		c-0.607,0-1.105,0.228-1.523,0.685c-0.422,0.422-0.652,0.955-0.652,1.527v17.747c0,0.725-0.57,1.259-1.256,1.259h-0.078
		c-0.686,0-1.26-0.534-1.26-1.259v-17.747c0-0.646,0.152-1.258,0.422-1.832c0.457-1.183,1.334-2.059,2.518-2.556
		c0.572-0.266,1.223-0.345,1.83-0.345h1.148l-0.764-2.48c-0.193-0.727,0.189-1.41,0.879-1.641c0.645-0.153,1.334,0.23,1.523,0.877
		l0.918,2.901c0.037,0.116,0.037,0.229,0.037,0.343h15.035c0-0.114,0.041-0.227,0.078-0.343l0.914-2.938
		c0.189-0.648,0.879-0.993,1.564-0.802h0.037c0.611,0.229,0.996,0.917,0.805,1.603l-0.805,2.48h1.186c0.648,0,1.26,0.079,1.83,0.345
		c1.186,0.497,2.064,1.373,2.559,2.556c0.27,0.574,0.344,1.186,0.344,1.832v14.275c0,0.646-0.074,1.295-0.344,1.832
		c-0.494,1.222-1.373,2.059-2.559,2.556c-0.57,0.267-1.182,0.381-1.83,0.381h-0.422c-0.686,0-1.258-0.533-1.258-1.258v-0.039
		c0-0.724,0.572-1.26,1.258-1.26h0.422c0.57,0,1.107-0.228,1.525-0.648c0.457-0.458,0.688-0.954,0.688-1.563v-14.275
		c0-0.572-0.23-1.105-0.688-1.527c-0.418-0.457-0.955-0.685-1.525-0.685h-4.313l4.502,4.541c0.266,0.229,0.381,0.534,0.381,0.877
		c0,0.42-0.15,0.689-0.418,0.915c-0.457,0.498-1.26,0.498-1.754,0l-5.729-5.8c-0.152-0.153-0.264-0.343-0.342-0.533h-7.859
		c0,0.19-0.041,0.343-0.115,0.496C452.807,471.026,450.936,472.974,448.301,474.653z M451.658,486.865
		c-1.639,0-3.051-0.994-3.699-2.521c-0.229-0.496-0.307-0.99-0.307-1.563v-3.589c0-2.25,1.793-4.082,4.006-4.082h13.359
		c2.213,0,4.043,1.832,4.043,4.082v3.589c0,0.573-0.111,1.067-0.342,1.563c-0.611,1.526-2.023,2.521-3.701,2.521H451.658z
		 M465.018,484.27c0.42,0,0.76-0.115,1.029-0.421c0.305-0.306,0.42-0.646,0.42-1.067v-3.589c0-0.876-0.611-1.486-1.449-1.486
		h-13.359c-0.838,0-1.449,0.61-1.449,1.486v3.589c0,0.421,0.115,0.762,0.422,1.067c0.264,0.306,0.609,0.421,1.027,0.421H465.018z"/>
	<path fill="#FFFFFF" d="M481.281,486.635c-0.648,0.23-1.375-0.075-1.639-0.764l-0.041-0.075c-0.189-0.648,0.115-1.373,0.764-1.605
		l2.213-0.836v-17.061h-1.867c-0.727,0-1.262-0.574-1.262-1.258v-0.078c0-0.686,0.535-1.26,1.262-1.26h1.867v-5.114
		c0-0.686,0.574-1.26,1.26-1.26h0.078c0.686,0,1.26,0.574,1.26,1.26v5.114h1.908c0.648,0,1.219,0.574,1.219,1.26v0.078
		c0,0.684-0.57,1.258-1.219,1.258h-1.908v16.066l1.83-0.725c0.648-0.267,1.375,0.076,1.643,0.725l0.037,0.115
		c0.229,0.611-0.078,1.338-0.764,1.603L481.281,486.635z M497.693,465.912c0.574,0,1.066,0.076,1.563,0.306
		c0.498,0.191,0.957,0.497,1.336,0.84c0.764,0.725,1.186,1.832,1.186,2.901v14.995c0,1.72-0.994,3.054-2.521,3.704
		c-0.496,0.229-0.988,0.344-1.563,0.344h-0.648c-0.727,0-1.26-0.573-1.26-1.261v-0.075c0-0.687,0.533-1.259,1.26-1.259h0.648
		c0.42,0,0.801-0.115,1.066-0.421c0.305-0.269,0.457-0.611,0.457-1.032v-14.995c0-0.423-0.152-0.765-0.457-1.032
		c-0.266-0.306-0.646-0.458-1.066-0.458h-5.039h-0.037l-0.689,19.884c-0.037,0.686-0.648,1.222-1.297,1.222h-0.076
		c-0.684-0.039-1.258-0.611-1.221-1.297l0.914-24.922c0.078-1.909,1.186-3.588,2.939-4.353c0.537-0.267,1.182-0.38,1.793-0.38
		l9.506,0.037l-0.152-1.984c-0.041-0.686,0.496-1.298,1.182-1.373h0.078c0.648-0.037,1.258,0.458,1.334,1.145
		c0.041,0.764,0.115,1.486,0.193,2.213h2.25c0.418,0,0.762-0.152,1.066-0.458c0.307-0.269,0.422-0.573,0.422-0.991
		c0-0.688,0.572-1.221,1.258-1.221h0.078c0.688,0,1.258,0.533,1.258,1.26c-0.039,1.679-1.029,3.015-2.516,3.664
		c-0.5,0.227-0.996,0.342-1.566,0.342h-1.986c0.459,3.893,1.107,7.71,1.871,11.412l0.115,0.61c0.496-0.803,0.955-1.605,1.412-2.481
		c0.307-0.61,1.07-0.876,1.678-0.57c0.344,0.188,0.533,0.379,0.648,0.763c0.115,0.341,0.115,0.646-0.074,0.952
		c-0.877,1.718-1.834,3.359-2.863,4.885c0.877,3.701,1.871,7.364,3.053,10.993c0.189,0.646-0.152,1.372-0.842,1.563l-0.037,0.039
		c-0.686,0.228-1.371-0.153-1.563-0.841c-0.994-3.016-1.869-6.03-2.633-9.083c-0.955,1.182-2.023,2.329-3.168,3.398
		c-0.23,0.228-0.537,0.343-0.879,0.343c-0.381,0-0.648-0.152-0.879-0.421l-0.076-0.074c-0.455-0.498-0.418-1.262,0.076-1.759
		c1.527-1.487,2.902-3.052,4.16-4.732c-0.264-1.067-0.457-2.098-0.686-3.166c-0.801-3.893-1.449-7.825-1.908-11.831l-9.811-0.037
		c-0.533,0-1.066,0.228-1.486,0.648c-0.381,0.456-0.611,0.992-0.686,1.563l-0.078,2.481H497.693z"/>
	<path fill="#FFFFFF" d="M527.961,489.649c-1.676,0-3.051-0.991-3.736-2.52c-0.191-0.533-0.307-0.991-0.307-1.564v-8.815
		c-1.146,1.336-2.328,2.674-3.551,3.93c-0.266,0.23-0.57,0.384-0.914,0.384c-0.346,0-0.65-0.153-0.879-0.384l-0.078-0.037
		c-0.455-0.494-0.492-1.258,0-1.755c2.941-3.093,5.611-6.259,7.979-9.655h-7.137c-0.648,0-1.26-0.533-1.26-1.26v-0.076
		c0-0.688,0.611-1.262,1.26-1.262h8.893l1.602-2.594h-8.355c-0.688,0-1.26-0.57-1.26-1.259v-0.038c0-0.725,0.572-1.259,1.26-1.259
		h9.73c0.533-1.069,1.029-2.138,1.527-3.246h-11.258c-0.688,0-1.26-0.61-1.26-1.258v-0.076c0-0.688,0.572-1.26,1.26-1.26h26.752
		c0.686,0,1.26,0.572,1.26,1.26v0.076c0,0.647-0.574,1.258-1.26,1.258h-12.787c0,0.115-0.035,0.231-0.035,0.345
		c-0.42,0.993-0.879,1.947-1.338,2.901h14.16c0.686,0,1.26,0.534,1.26,1.259v0.038c0,0.688-0.574,1.259-1.26,1.259h-15.457
		c-0.494,0.88-0.994,1.759-1.523,2.594h19.154c0.689,0,1.262,0.574,1.262,1.262v0.076c0,0.727-0.572,1.26-1.262,1.26h-20.797
		c-0.232,0.383-0.496,0.762-0.764,1.146l-0.688,0.952H545.1c1.105,0,2.139,0.458,2.861,1.223c0.383,0.382,0.648,0.801,0.842,1.297
		c0.266,0.536,0.377,1.069,0.377,1.566v10.149c0,0.573-0.111,1.031-0.377,1.564c-0.193,0.499-0.459,0.917-0.842,1.299
		c-0.723,0.763-1.756,1.221-2.861,1.221H527.961z M546.586,475.416c0-0.421-0.152-0.763-0.459-1.03
		c-0.264-0.306-0.648-0.459-1.027-0.459h-17.139c-0.416,0-0.764,0.153-1.027,0.459c-0.266,0.268-0.418,0.609-0.418,1.03v1.105h20.07
		V475.416z M526.516,481.675h20.07v-2.594h-20.07V481.675z M545.1,487.056c0.379,0,0.764-0.115,1.027-0.459
		c0.307-0.268,0.459-0.61,0.459-1.031v-1.296h-20.07v1.296c0,0.421,0.152,0.764,0.418,1.031c0.264,0.344,0.611,0.459,1.027,0.459
		H545.1z"/>
	<path fill="#FFFFFF" d="M566.133,489.649c-1.68,0-3.051-0.991-3.738-2.52c-0.191-0.533-0.305-0.991-0.305-1.564v-8.815
		c-1.146,1.336-2.328,2.674-3.551,3.93c-0.266,0.23-0.57,0.384-0.916,0.384c-0.344,0-0.648-0.153-0.877-0.384l-0.078-0.037
		c-0.457-0.494-0.496-1.258,0-1.755c2.939-3.093,5.611-6.259,7.979-9.655h-7.137c-0.648,0-1.26-0.533-1.26-1.26v-0.076
		c0-0.688,0.611-1.262,1.26-1.262h8.893l1.602-2.594h-8.355c-0.689,0-1.262-0.57-1.262-1.259v-0.038
		c0-0.725,0.572-1.259,1.262-1.259h9.73c0.533-1.069,1.029-2.138,1.525-3.246h-11.256c-0.689,0-1.262-0.61-1.262-1.258v-0.076
		c0-0.688,0.572-1.26,1.262-1.26h26.75c0.688,0,1.26,0.572,1.26,1.26v0.076c0,0.647-0.572,1.258-1.26,1.258h-12.785
		c0,0.115-0.039,0.231-0.039,0.345c-0.416,0.993-0.879,1.947-1.334,2.901h14.158c0.688,0,1.26,0.534,1.26,1.259v0.038
		c0,0.688-0.572,1.259-1.26,1.259h-15.455c-0.498,0.88-0.994,1.759-1.527,2.594h19.158c0.689,0,1.26,0.574,1.26,1.262v0.076
		c0,0.727-0.57,1.26-1.26,1.26h-20.797c-0.232,0.383-0.496,0.762-0.766,1.146l-0.688,0.952h16.947c1.105,0,2.135,0.458,2.861,1.223
		c0.383,0.382,0.648,0.801,0.838,1.297c0.27,0.536,0.381,1.069,0.381,1.566v10.149c0,0.573-0.111,1.031-0.381,1.564
		c-0.189,0.499-0.455,0.917-0.838,1.299c-0.727,0.763-1.756,1.221-2.861,1.221H566.133z M584.758,475.416
		c0-0.421-0.152-0.763-0.459-1.03c-0.264-0.306-0.648-0.459-1.027-0.459h-17.139c-0.418,0-0.764,0.153-1.027,0.459
		c-0.27,0.268-0.422,0.609-0.422,1.03v1.105h20.074V475.416z M564.684,481.675h20.074v-2.594h-20.074V481.675z M583.271,487.056
		c0.379,0,0.764-0.115,1.027-0.459c0.307-0.268,0.459-0.61,0.459-1.031v-1.296h-20.074v1.296c0,0.421,0.152,0.764,0.422,1.031
		c0.264,0.344,0.609,0.459,1.027,0.459H583.271z"/>
	<path fill="none" stroke="#CEFF00" stroke-width="2" stroke-miterlimit="10" d="M284.643,540.188
		c-6.592,0.057-13.721-5.337-17.1-10.033c-3.811-5.29-8.928-8.398-12.432-8.349c-0.506,0.007-0.975,0.084-1.396,0.222
		c-0.384,0.125-0.71,0.182-1.001,0.188c-1.415,0.022-1.799-1.24-1.959-1.957c-0.486-2.17,1.678-5.324,5.549-6.744
		c1.379-0.508,2.662-0.729,3.84-0.742c5.988-0.096,9.264,5.1,9.264,5.1s0.826,0.631,1.037,0.627c0.098,0,0.059-0.137-0.262-0.539
		c-1.014-1.262-19.783-27.467-19.783-27.467c-2.023-2.813-1.558-6.52,1.043-8.285c0.902-0.614,1.939-0.91,3.002-0.93
		c1.981-0.028,4.025,0.939,5.287,2.699l12.541,17.417c-0.898-1.784,0.318-4.161,2.208-5.321c0.966-0.591,2.048-0.922,3.093-0.936
		c1.22-0.02,2.391,0.389,3.264,1.3c-0.266-1.53,1.151-2.968,2.633-3.8c0.676-0.381,1.553-0.6,2.457-0.619
		c1.438-0.017,2.941,0.492,3.873,1.738c0.021-1.755,1.048-2.949,1.889-3.35c0.635-0.307,1.527-0.65,2.615-0.668
		c1.904-0.025,4.41,0.951,7.199,4.885c6.438,9.074,9.427,15.017,10.961,21.119c0.51,2.008,0.197,4.082-0.522,5.885L284.643,540.188z
		"/>
</g>
</svg>
