<?xml version="1.0" encoding="utf-8"?>
<!-- Generator: Adobe Illustrator 16.0.0, SVG Export Plug-In . SVG Version: 6.00 Build 0)  -->
<!DOCTYPE svg PUBLIC "-//W3C//DTD SVG 1.1//EN" "http://www.w3.org/Graphics/SVG/1.1/DTD/svg11.dtd">
<svg version="1.1" id="图层_1" xmlns="http://www.w3.org/2000/svg" xmlns:xlink="http://www.w3.org/1999/xlink" x="0px" y="0px"
	 width="680px" height="680px" viewBox="0 0 680 680" enable-background="new 0 0 680 680" xml:space="preserve">
<g>
	<g>
		<g id="XMLID_10_">
			<g>
				<path fill="#FFFFFF" d="M226.587,207.194c0.893,2.203-0.463,5.081-1.11,6.846c-0.84,2.281-1.537,4.142-2.591,5.736
					c-13.134,0-26.271,0-39.406,0c-2.779,6.16-5.398,12.487-7.957,18.877c-7.213,0-14.43,0-21.646,0
					c2.605-6.935,5.088-13.629,7.957-20.361c0.939-2.206,1.701-4.654,2.961-6.477c6.576-9.483,24.39-7.398,40.701-7.398
					C210.638,204.418,225,203.28,226.587,207.194z"/>
				<path fill="#FFFFFF" d="M88.203,209.044c3.057,2.9,5.658,6.164,4.626,11.843c-1.114,6.124-5.651,12.878-7.401,17.571
					c-8.153-0.117-16.832,0.167-24.233,0.196c0.79-2.968,2.345-6.302,3.882-9.814c0.513-1.164,1.367-2.349,1.11-3.516
					c-0.544-2.508-7.953-1.925-11.099-2.035c-12.996-0.448-27.094,0.495-39.037,0.182c2.616-6.259,5.334-12.416,8.138-18.497
					c-0.131-0.299,0.37-0.804,0.37-0.367c15.38-0.409,31.112,0,47.178,0c3.117,0,6.491-0.416,9.249,0
					C83.779,205.023,86.395,207.33,88.203,209.044z"/>
				<path fill="#FFFFFF" d="M124.833,241.046c7.893,0,15.789,0,23.681,0c-2.099,5.491-4.526,10.646-6.661,16.098
					c-8.017,0-16.035,0-24.052,0C120.104,251.735,122.25,246.173,124.833,241.046z"/>
				<path fill="#FFFFFF" d="M219.186,225.698c0.349,2.11-1.452,5.074-2.22,6.843c-1.014,2.338-1.84,4.11-2.776,6.113
					c-5.487,0.114-11.469-0.256-16.65,0.178c-0.398-1.313,1.52-3.384,2.036-4.993c-5.242,0-10.483,0-15.725,0
					c1.594-3.839,2.986-7.871,4.811-11.473c7.889,0.569,17.764-0.761,25.158,0C216.051,222.588,218.883,223.862,219.186,225.698z"/>
				<path fill="#FFFFFF" d="M-0.784,240.679c7.028,0,14.06,0,21.091,0c-2.328,5.444-4.47,11.07-6.847,16.465
					c-4.384,0.313-10.042,0.31-14.43,0C-0.848,251.717-1.214,245.8-0.784,240.679z"/>
				<path fill="#FFFFFF" d="M152.401,241.046c20.102,0,40.207,0,60.309,0c-2.452,7.679-7.444,15.116-17.205,16.098
					c-8.786,0.886-21.241,0.463-31.08,0.185c-7.088-0.192-13.455,0.651-16.28-3.697C148.241,248.12,150.572,244.835,152.401,241.046
					z"/>
				<path fill="#FFFFFF" d="M231.024,241.046c0,5.37,0,10.736,0,16.098c-7.284,0.445-16.33,0.057-23.308,0.185
					c2.829-5.491,5.512-11.138,8.693-16.283C221.282,241.046,226.153,241.046,231.024,241.046z"/>
				<path fill="#FFFFFF" d="M161.279,207.009c0.192,0.491,0.221,1.135,0.185,1.85c-0.662,0.456-1.772,0.456-2.59,0.74
					c-0.125,1.541,1.221,1.619,1.48,2.776c-0.438,0.302-0.527,0.95-0.925,1.295c-0.883,0.021-1.381-0.345-2.036-0.555
					c-1.174,0.359-0.537,1.769-0.37,2.772c-0.142,0.662-0.904,0.705-1.295,1.107c-0.844-0.32-1.242-1.096-1.851-1.662
					c-1.299,0.06-0.925,1.79-1.477,2.594c-0.62,0-1.235,0-1.851,0c-0.377-0.918-0.252-2.338-1.295-2.594
					c-0.861,0.256-1.199,1.028-1.665,1.662c-0.836-0.018-0.968-0.751-1.851-0.733c0.149-0.836,0.317-1.662,0.555-2.406
					c-0.053-0.377-0.502-0.363-0.555-0.74c-0.84,0.032-1.274,0.452-2.036,0.555c-0.719-0.082-0.758-0.847-1.11-1.295
					c1.363-1.107,2.374-3.633-0.925-3.331c0-0.616,0-1.235,0-1.85c0.719-0.328,1.736-0.353,2.405-0.737
					c0.256-1.616-1.053-1.662-1.48-2.594c0.121-0.619,0.576-0.904,0.74-1.48c0.765,0.22,1.609,0.363,2.406,0.555
					c1.1-0.573,0.192-2.064,0-2.958c0.566-0.238,0.925-0.676,1.666-0.744c0.715,0.402,0.971,1.249,1.85,1.48
					c0.149-0.093,0.299-0.192,0.555-0.182c0.598-1.067,0.26-3.067,2.591-2.405c0.331,0.776,0.455,1.761,0.74,2.587
					c1.452,0.1,1.705-1.003,2.587-1.48c0.701,0.043,0.9,0.583,1.48,0.744c-0.064,0.918-0.516,1.452-0.555,2.402
					c0.068,0.245,0.328,0.292,0.37,0.555c0.968-0.079,1.623-0.474,2.591-0.555c0.274,0.405,0.363,0.996,0.74,1.295
					c-0.267,0.968-1.246,1.224-1.666,2.042C158.788,206.917,160.333,206.667,161.279,207.009z M149.07,208.301
					c0.185,3.27,5.167,2.915,4.996-0.363c-0.078-1.488-1.042-2.744-3.331-2.036C149.476,206.291,148.992,206.959,149.07,208.301z"/>
				<path fill="#FFFFFF" d="M49.907,241.046c10.917,0.434,22.632,0.064,33.855,0.188c-3.559,5.814-7.16,13.465-14.245,15.725
					c-3.252,1.043-9.593,0.37-14.244,0.37c-12.619,0-26.372,0.288-38.296,0.188c3.381-10.188,8.021-20.71,12.024-30.898
					c8.572,0,17.145,0,25.717,0C53.205,231.53,51.444,236.174,49.907,241.046z"/>
				<path fill="#FFFFFF" d="M87.833,241.046c8.448,0,16.899,0,25.347,0c-1.672,5.181-4.615,10.686-6.661,16.098
					c-8.917,0.107-17.86-0.21-26.087,0.185C82.772,251.774,85.11,246.227,87.833,241.046z"/>
				<path fill="#FFFFFF" d="M157.948,214.414c0.676,0.054,1.207-0.036,1.666-0.188c-0.413,4.534-3.167,8.946-4.996,13.138
					c-1.662,3.804-3.256,7.416-4.808,11.095c-8.078,0-16.159,0-24.236,0c0.22-1.007,0.889-1.569,1.11-2.59
					c-2.929-0.772-7.213-0.182-10.729-0.37c-0.598,0.89-1.092,1.875-1.48,2.96c-8.512,0-17.02,0-25.532,0
					c4.886-11.27,9.409-22.902,14.614-33.852c11.348,0,23.753,0,35.521,0c1.249,0,3.583-0.665,3.886,1.114
					c-0.651,0.74-1.374,0.335-2.406,0.548c-0.359,0.708-0.544,2.096-0.185,2.96c0.363,0.748,2.238-0.014,2.591,0.74
					c0.135,1.292-1.399,1.11-1.48,2.59c-0.1,1.815,1.477,2.583,3.886,2.036c-0.598,1.754-0.392,3.53,1.11,3.697
					c1.341,0.153,1.676-1.537,2.775-1.477c0.933,0.174,0.384,1.836,0.925,2.405c2.16,0.804,3.324-0.655,3.516-2.405
					c1.278,1.121,3.722,2.388,4.623,0.366C158.717,216.293,157.948,215.29,157.948,214.414z M132.605,221.438
					c-3.58,0-7.156,0-10.732,0c-0.989,1.48-1.683,3.249-2.22,5.181c3.64,0,7.277,0,10.917,0
					C131.231,224.876,132.167,223.406,132.605,221.438z"/>
			</g>
		</g>
		<g>
			<path fill="#FFFFFF" d="M43.634,274.173h8.365v7.418h14.522v7.577H52.789c2.313,6.525,7.206,11.892,14.68,16.101l-4.894,6.63
				c-5.367-3.055-10.102-7.577-14.206-13.574c-2.841,5.579-7.84,10.102-14.995,13.574c0,0.21-1.79-2-5.367-6.63
				c8.209-3.576,13.206-8.942,14.995-16.101H28.797v-7.577h14.837V274.173L43.634,274.173z"/>
			<path fill="#FFFFFF" d="M84.673,273.857h7.893v13.258h6.629l-5.524-2.524c1.895-3.156,3.366-6.366,4.42-9.628l6.787,3
				c-1.159,3.684-2.525,6.734-4.104,9.153h6.629v7.893H96.195v7.892c0.104,0.947,0.841,1.369,2.21,1.264
				c1.157-0.315,1.736-0.999,1.736-2.053v-3.314l7.261,1.896v4.577c-0.212,3.997-2.789,6.051-7.734,6.156h-6.472
				c-4,1.051-5.683-1.211-5.051-6.788v-9.627h-1.42c-1.264,8.945-5.58,14.573-12.944,16.889l-5.051-5.841
				c5.683-2.104,8.943-5.786,9.786-11.048h-9.154v-7.893h7.576c-1.578-2.944-3.369-5.84-5.366-8.681l5.998-3.472
				c1.997,2.422,4.05,5.473,6.155,9.155l-4.735,2.998h5.683V273.857z"/>
			<path fill="#FFFFFF" d="M146.548,274.804v7.893h-14.364l-1.105,4.578h12.154v15.941h5.052v7.42H109.77V302.9h8.523l2.368-8.048
				h-7.576v-7.577h9.313l1.104-4.578h-12.153v-7.893H146.548L146.548,274.804z M135.024,294.851h-5.683l-2.367,8.208h8.05V294.851z"
				/>
			<path fill="#FFFFFF" d="M164.699,274.015h8.997c3.156,3.578,8.207,6.842,15.152,9.787l-3.63,7.102
				c-1.264-0.418-3.054-1.208-5.366-2.368v2.052h-6.788v1.58h13.574v7.102h-6.155l2.999,1.578c-0.422,1.16-1.002,2.474-1.737,3.945
				h5.525v6.788h-36.304v-6.945h5.209c-0.316-0.841-0.947-2.104-1.895-3.789l3.314-1.578h-6.155v-7.102h13.731v-1.58h-6.944v-1.895
				c-1.895,0.948-3.631,1.737-5.209,2.369l-3.631-6.945C156.437,281.065,161.542,277.7,164.699,274.015z M161.227,299.27
				c0.315,0.423,0.789,1.316,1.42,2.684c0.632,1.262,1.105,2.21,1.421,2.84h1.104v-5.523H161.227z M169.434,280.802
				c-1.368,1.16-2.422,2.106-3.156,2.841h5.683C171.222,282.908,170.381,281.962,169.434,280.802z M172.907,299.27v5.523h1.262
				c0.735-1.681,1.421-3.523,2.053-5.523H172.907z"/>
		</g>
		<g>
			<path fill="#FFFFFF" d="M28.48,261.016h3.503c3.41,0.037,5.133,1.761,5.17,5.171c-0.037,3.374-1.761,5.079-5.17,5.115H28.48
				V261.016z M30.649,269.579h1.167c2.038,0.075,3.039-1.057,3.002-3.392c0.037-2.372-0.964-3.521-3.002-3.447h-1.167V269.579z"/>
			<path fill="#FFFFFF" d="M37.933,271.302l3.725-10.286h2.613l3.614,10.286h-2.224l-0.778-2.168h-4.059l-0.778,2.168H37.933z
				 M44.327,267.41l-1.39-4.393h-0.056l-1.501,4.393H44.327z"/>
			<path fill="#FFFFFF" d="M53.834,267.521v-1.724h4.17v5.171c-0.742,0.222-1.501,0.333-2.279,0.333
				c-0.593,0.074-1.372,0.111-2.335,0.111c-3.151-0.185-4.763-1.927-4.837-5.227c0.074-3.373,1.687-5.171,4.837-5.394
				c3.225,0,4.818,1.112,4.782,3.336h-2.335c0-1.148-0.687-1.724-2.058-1.724c-1.89,0.037-2.854,1.298-2.891,3.781
				c0.037,2.446,1.001,3.689,2.891,3.725c0.556,0,1.204-0.074,1.946-0.222c-0.038,0.037,0,0.037,0.111,0v-2.168h-2.002V267.521z"/>
			<path fill="#FFFFFF" d="M69.068,261.016v6.45c-0.111,2.558-1.594,3.873-4.448,3.948c-2.929-0.075-4.43-1.39-4.503-3.948v-6.45
				h2.224v5.616c-0.037,1.223,0.111,2.057,0.445,2.502c0.37,0.52,0.982,0.778,1.835,0.778c0.852,0,1.446-0.259,1.779-0.778
				c0.333-0.445,0.481-1.279,0.445-2.502v-5.616H69.068z"/>
			<path fill="#FFFFFF" d="M70.292,271.302l3.725-10.286h2.613l3.614,10.286H78.02l-0.778-2.168h-4.059l-0.778,2.168H70.292z
				 M76.686,267.41l-1.39-4.393H75.24l-1.501,4.393H76.686z"/>
			<path fill="#FFFFFF" d="M87.417,271.302l-4.003-8.563l-0.056,0.056v8.507h-2.057v-10.286h3.28l3.892,8.118l0.056-0.056v-8.062
				h2.057v10.286H87.417z"/>
			<path fill="#FFFFFF" d="M97.258,267.521v-1.724h4.17v5.171c-0.742,0.222-1.501,0.333-2.279,0.333
				c-0.593,0.074-1.372,0.111-2.335,0.111c-3.151-0.185-4.763-1.927-4.837-5.227c0.074-3.373,1.686-5.171,4.837-5.394
				c3.225,0,4.818,1.112,4.782,3.336H99.26c0-1.148-0.687-1.724-2.058-1.724c-1.89,0.037-2.854,1.298-2.891,3.781
				c0.037,2.446,1.001,3.689,2.891,3.725c0.556,0,1.204-0.074,1.946-0.222c-0.038,0.037,0,0.037,0.111,0v-2.168h-2.001V267.521z"/>
			<path fill="#FFFFFF" d="M107.433,271.302v-10.286h2.168v4.059h3.892v-4.059h2.224v10.286h-2.168v-4.504h-3.947v4.504H107.433z"/>
			<path fill="#FFFFFF" d="M116.829,271.302l3.725-10.286h2.613l3.614,10.286h-2.224l-0.778-2.168h-4.059l-0.778,2.168H116.829z
				 M123.223,267.41l-1.39-4.393h-0.056l-1.501,4.393H123.223z"/>
			<path fill="#FFFFFF" d="M129.951,271.302h-2.224v-10.286h4.393c2.335,0.037,3.521,0.927,3.558,2.669
				c-0.037,1.334-0.742,2.168-2.113,2.502v0.056c1.148,0.037,1.76,0.797,1.835,2.279c0.037,0.149,0.056,0.26,0.056,0.334
				c0.111,1.223,0.296,2.039,0.556,2.446h-2.391c-0.222-0.89-0.353-1.816-0.389-2.78c-0.075-0.889-0.389-1.334-0.945-1.334h-2.335
				L129.951,271.302L129.951,271.302z M129.951,265.464h1.834c1.038,0,1.557-0.481,1.557-1.446c0-0.89-0.52-1.315-1.557-1.279
				h-1.834V265.464z"/>
			<path fill="#FFFFFF" d="M137.29,261.016h3.503c3.41,0.037,5.133,1.761,5.17,5.171c-0.037,3.374-1.761,5.079-5.17,5.115h-3.503
				V261.016z M139.458,269.579h1.167c2.038,0.075,3.039-1.057,3.002-3.392c0.037-2.372-0.964-3.521-3.002-3.447h-1.167V269.579z"/>
			<path fill="#FFFFFF" d="M152.58,261.016h2.502l1.779,7.729h0.056l1.668-7.729h2.057l-2.613,10.286h-2.446l-1.835-7.84
				l-2.001,7.84h-2.502l-2.502-10.286h2.279l1.557,7.729L152.58,261.016z"/>
			<path fill="#FFFFFF" d="M160.976,271.302l3.725-10.286h2.613l3.614,10.286h-2.224l-0.778-2.168h-4.059l-0.778,2.168H160.976z
				 M167.37,267.41l-1.39-4.393h-0.056l-1.501,4.393H167.37z"/>
			<path fill="#FFFFFF" d="M174.097,271.302h-2.224v-10.286h4.393c2.335,0.037,3.521,0.927,3.558,2.669
				c-0.037,1.334-0.742,2.168-2.113,2.502v0.056c1.148,0.037,1.76,0.797,1.835,2.279c0.037,0.149,0.056,0.26,0.056,0.334
				c0.111,1.223,0.296,2.039,0.556,2.446h-2.391c-0.222-0.89-0.353-1.816-0.389-2.78c-0.075-0.889-0.389-1.334-0.945-1.334h-2.335
				L174.097,271.302L174.097,271.302z M174.097,265.464h1.834c1.038,0,1.557-0.481,1.557-1.446c0-0.89-0.521-1.315-1.557-1.279
				h-1.834V265.464z"/>
			<path fill="#FFFFFF" d="M181.325,261.016h6.895v1.724h-4.67v2.391h4.337v1.724h-4.337v2.725h4.837v1.724h-7.061L181.325,261.016
				L181.325,261.016z"/>
		</g>
	</g>
	<g id="XMLID_9_">
		<g>
			<path fill="#FFFFFF" d="M585.651,252.526c0,5.333,0.645,10.851,0,13.982c-0.899,4.354-6.44,7.579-10.565,5.141
				c-1.793-4.741,4.199-2.081,6-5.141c1.262-2.141,0.571-9.934,0.571-13.982c0-5.184,1.062-10.865-0.571-13.996
				c-1.704-3.246-6.452-1.576-10.28-1.996c0.227,2.678,8.729,6.274,7.708,9.714c-1.293,4.362-6.22-1.658-7.995-3.434
				c-2.453-2.446-4.012-4.236-5.992-6.28c-4.282,0-8.567,0-12.844,0c-1.823,3.132-4.104,6.195-7.142,8.564
				c-1.419,1.119-3.508,2.938-5.709,1.999c-1.424-5.387,6.356-6.095,7.708-10.563c-14.033-3.166-10.845,7.562-10.845,19.982
				c0,2.615,0,5.923,0,9.129c0,3.568,0.356,6.742-1.998,6.856c-3.531,0.177-2.284-11.256-2.284-15.7
				c0-12.124-2.686-25.766,9.991-24.544c-0.018-2.37-2.195-4.083-1.143-6c2.048-3.737,5.704,2.309,5.421,6
				c8.474,0,16.939,0,25.412,0c1.87-2.127,0.439-7.554,5.133-6.854c1.877,1.804,0.039,4.938-0.568,6.854
				C586.944,230.994,585.651,240.84,585.651,252.526z"/>
			<path fill="#FFFFFF" d="M468.32,230.537c7.481,0.16-1.373,9.204-2.566,11.713c-1.253,0.12-2.204-0.08-2.854-0.577
				C462.54,236.897,466.365,233.934,468.32,230.537z"/>
			<path fill="#FFFFFF" d="M515.146,251.09c0.327,2.521,0.854,11.256-2.284,11.142c-3.917-0.154-0.246-11.986-4.285-13.705
				c-3.724-1.587-12.409-0.283-19.123-0.283c-4.545,0-16.075-1.393-17.987,1.424c-2.095,3.103,1.487,12.338-2.565,12.563
				c-3.046,0.16-3.101-9.731-1.998-13.134c0.784-2.446,3.534-4.336,5.989-4.856c3.854-0.799,11.571-0.285,17.986-0.285
				C502.136,243.957,513.886,241.653,515.146,251.09z"/>
			<path fill="#FFFFFF" d="M412.949,304.475c-1.434,0-2.858,0-4.288,0c0.22-3.771,0.842-9.555-0.282-12.846
				c-1.857-0.468-5.561-0.468-7.422,0c-1.113,3.126-0.579,9.263-0.291,12.846c-1.514,0-3.037,0-4.563,0
				c1.104-5.727,0.578-14.351,0.289-20.551c1.33,0,2.66,0,3.993,0c0,1.901,0,3.808,0,5.704c2.128-0.246,7.83-0.591,10.851,0
				C414.085,292.297,411.799,300.104,412.949,304.475z"/>
			<path fill="#FFFFFF" d="M519.709,304.475c-1.433,0-2.853,0-4.282,0c0.471-6.223,0.471-14.322,0-20.551c1.333,0,2.658,0,3.994,0
				C519.601,290.701,519.063,298.175,519.709,304.475z"/>
			<path fill="#FFFFFF" d="M592.788,283.924c1.9,0,3.808,0,5.709,0c-0.477,6.206-0.477,14.351,0,20.551c-1.627,0-3.231,0-4.854,0
				c0.637-5.264,0.12-11.679,0.285-17.411c-2.309,5.681-4.388,11.59-6.564,17.411c-1.137,0-2.284,0-3.43,0
				c-1.896-5.991-4.232-11.559-6.279-17.411c-0.383,5.144-0.717,12.712,0.287,17.411c-0.953,0-1.9,0-2.856,0
				c0.479-6.2,0.479-14.345,0-20.551c2.004,0,4,0,6,0c1.747,5.281,3.774,10.302,5.706,15.421
				C589.091,294.504,590.821,289.088,592.788,283.924z"/>
			<path fill="#FFFFFF" d="M451.195,227.974c0.775,5.053,0,11.752,0,18.835c0,7.171,1.069,15.506-0.283,19.7
				c-1.493,4.636-8.341,6.9-12.56,4.002c-0.641-4.938,4.244-2.175,6.854-3.72c3.078-1.815,1.713-13.18,1.713-18.835
				c0-3.405,0-7.042,0-10.282c0-6.135,1.113-12.877-5.141-11.978c-1.563,12.095-3.043,24.527-5.992,36.251
				c-0.641,2.521-1.733,10.171-5.139,8.846c-2.718-1.053,0.362-8.207,0.858-10.273c2.535-10.702,4.702-22.377,5.421-34.547
				c-1.624-0.665-4.473-0.097-6.567-0.277c-1.527,12.158-4,24.496-7.132,35.96c-0.733,2.66-1.633,10.456-5.141,9.137
				c-2.741-1.027,0.597-8.258,1.142-10.273c2.878-10.745,5.251-22.606,6.561-34.547c-1.456-0.825-4.913,0.351-5.992-0.859
				c-1.182-2.323,3.914-13.708,6.563-8.843c1.13,2.078-0.996,2.889-1.143,5.138C435.188,222.382,449.668,217.937,451.195,227.974z"
				/>
			<path fill="#FFFFFF" d="M471.749,217.126c-0.251,2.7,0.677,6.568-0.854,7.987c-1.245,0.4-1.685,0.012-2.854-0.28
				C466.313,221.497,467.675,212.941,471.749,217.126z"/>
			<path fill="#FFFFFF" d="M656.448,302.479c0.199,3.184-4.217,1.996-6.854,1.996c-3.043,0-6.286,0-8.571,0
				c0.922-5.541,0.961-14.732,0-20.268c1.155-0.665,3.524-0.097,5.146-0.283c-1.256,5.021-0.24,12.321-0.577,18.268
				C648.649,303.033,653.793,302.028,656.448,302.479z"/>
			<path fill="#FFFFFF" d="M656.731,277.353c-0.163,2.033-3.588,1.147-5.428,1.147c-129.604,0-260.461,0-390.509,0
				c-1.564,0-4.728,0.705-5.424-0.848c0.025-0.462-0.137-1.096,0.288-1.15c131.513,0,263.793,0,395.645,0
				C652.877,276.502,656.04,275.789,656.731,277.353z"/>
			<path fill="#FFFFFF" d="M415.804,247.097c4.405,4.116-3.754,5.749-6.571,7.136c-0.471,5.615,1.011,13.186-0.854,17.416
				c-6.095,0.908-2.429-10.282-3.426-15.415c-3.592,0.879-5.738,3.206-9.991,3.426c-3.603-5.504,6.86-5.806,9.991-8.281
				c0-6.754,0-13.508,0-20.262c-2.829-0.991-8.391,0.773-9.991-1.43c0.997-4.499-0.011-13.485,5.424-11.709
				c1.103,2.352-0.428,5.709-0.855,8.281c1.807,0,3.616,0,5.424,0c0.257-3.928-0.585-8.955,0.571-11.981
				c0.979-0.274,1.77-0.896,2.854-0.291c1.752,2.621,0.454,8.295,0.854,12.272c7.645-2.192,8.09,6.58,0.291,4.57
				c-0.668,5.624-0.098,12.466-0.291,18.563C411.799,248.99,413.029,247.277,415.804,247.097z"/>
			<path fill="#FFFFFF" d="M325.877,289.628c2.886,2.641,0.588,10.462,1.718,14.847c-1.25-0.273-3.754,0.705-3.714-0.851
				c-2.198,1.562-8.059,0.816-11.13,0.563c-1.767-1.535-1.499-7.461-0.289-9.417c2.775-1.225,7.97-0.014,11.133-0.856
				c0.316-4.901-8.49-1.818-11.704-2.284c0.628-0.414-0.168-2.258,0.859-2.287C317.071,289.502,322.023,289.031,325.877,289.628z
				 M323.314,302.191c0.617-1.471,0.125-4.055,0.283-5.986c-2.755,0.1-5.966-0.263-8.282,0.283c-0.339,1.844-0.528,4.53,0.289,5.993
				C318.101,302.311,321.281,302.828,323.314,302.191z"/>
			<path fill="#FFFFFF" d="M382.688,270.222c0.188,3.389-11.67,2.926-14.557,1.71c-7.556-3.183-3.576-18.886-4.57-29.682
				c-5.998,0-11.985,0-17.992,0c-1.361,10.02-5.546,18.74-11.417,25.124c-1.562,1.695-4.148,5.581-7.134,3.137
				c-0.56-2.935,2.427-4.547,3.997-6.28c4.996-5.529,8.667-12.315,9.991-21.98c-4.005-1.131-13.888,2.004-15.129-1.139
				c-1.764-4.485,8.027-3.14,11.421-3.14c5.427,0,10.034,0,14.56,0c0-3.797,0-8.179,0-12.275c0-4.176-0.654-8.461,0.854-11.418
				c1.275-0.431,1.77-0.1,2.857,0.277c1.278,6.711,0.23,15.76,0.564,23.417c4.074,0,8.861,0,13.994,0
				c3.833,0,11.48-1.09,11.986,1.707c0.854,4.627-10.021,1.815-13.982,2.572c-0.527,4.208-0.288,8.601-0.288,12.843
				c0,3.808-0.754,10.154,0.859,11.992C371.257,270.002,382.441,265.806,382.688,270.222z"/>
			<path fill="#FFFFFF" d="M263.079,291.917c3.999,0,7.99,0,11.986,0c-1.047,3.125-0.608,8.983-0.283,12.558
				c-1.159-0.362-3.896,0.846-3.714-0.851c-2.666,1.55-9.006,0.828-12.557,0.563c-1.679-2.497-2.218-12.538-1.43-17.401
				c0.631-3.885,5.415-2.86,10.562-2.86c2.29,0,6.488-1.082,6.274,1.713c-2.418,0.965-8.924-0.354-12.264,0.577
				c-0.659,4.665-0.1,10.556-0.3,15.692c1.85,1.002,6.294,0.647,8.573,0.286c1.116-1.739,0.337-5.358,0.571-7.993
				c-2.347-0.054-6.012,0.074-7.419,0C263.079,293.433,263.079,292.68,263.079,291.917z"/>
			<path fill="#FFFFFF" d="M373.271,304.475c-1.433,0-2.862,0-4.287,0c0.451-4.434,0.484-10.693,0-15.133c1.336,0,2.666,0,3.996,0
				C373.102,294.367,372.699,299.902,373.271,304.475z"/>
			<path fill="#FFFFFF" d="M452.055,284.207c-0.168,0.934,0.194,1.33,0.282,2.007c-3.257-0.388-8.189-0.545-11.416,0
				c-0.956,0.968-0.577,3.725-0.283,5.133c3.075,0.911,8.484-0.488,11.127,0.856c1.269,2.761,1.563,10-0.57,11.983
				c-4.306,0.46-10.545,0.5-14.838,0c0-0.474,0-0.947,0-1.421c2.512-1.07,8.598,0.399,11.985-0.573c0-1.896,0-3.804,0-5.705
				c-2.666-1.336-8.03,0.037-11.133-0.859c-1.356-2.415-1.236-8.704,0-11.133C441.039,283.471,447.781,283.839,452.055,284.207z"/>
			<path fill="#FFFFFF" d="M511.147,290.208c1.236,3.26,1.671,11.541-0.57,13.979c-2.932,0.308-8.096,0.778-10.568-0.28
				c0,2.095,0,4.189,0,6.28c-1.424,0-2.849,0-4.275,0c0.474-6.295,0.465-14.544,0-20.846c0.285,0.129,1.67-0.137,2.563,0
				c0.414,0.066,1.299,0.865,1.43,0.865c0.497,0,1.468-0.768,2.002-0.865C504.833,288.814,508.556,289.214,511.147,290.208z
				 M507.72,302.479c0.469-2.972,0.469-7.873,0-10.851c-1.854-0.468-5.563-0.468-7.422,0c-0.471,2.978-0.471,7.879,0,10.851
				C502.775,302.479,505.248,302.479,507.72,302.479z"/>
			<path fill="#FFFFFF" d="M621.333,304.188c-1.146,0.661-3.52,0.107-5.145,0.288c-0.156-2.604-1.644-3.87-1.994-6.274
				c-2.946,0-5.9,0-8.844,0c-0.837,2.013-2.152,3.557-2.284,6.274c-0.859,0-1.716,0-2.569,0c2.543-6.776,6.717-13.434,7.99-20.551
				c1.523,0,3.043,0,4.563,0C615.83,290.667,618.117,297.886,621.333,304.188z M606.21,296.488c2.278,0,4.563,0,6.842,0
				c-0.379-2.595-2.086-6.274-3.422-8.855C608.69,290.781,606.955,293.145,606.21,296.488z"/>
			<path fill="#FFFFFF" d="M565.098,289.342c-0.125,0.988,0.111,1.61,0.285,2.287c-3.08-0.362-7.799-0.54-10.847,0
				c-0.654,0.403-0.104,1.996-0.286,2.857c3.131,0.771,8.142-0.342,10.56,1.142c1.107,2.204,1.164,6.383-0.282,8.278
				c-1.52,0.871-4.802,0.567-7.714,0.567c-2.36,0-6.533,1.033-6.276-1.71c1.996-0.72,7.456-0.052,10.851-0.286
				c0.565-0.771,0.166-2.494,0.282-3.714c-3.183-0.996-9.263,0.899-10.844-1.707c-0.502-1.662-0.369-4.607,0-6.283
				C553.359,288.083,560.382,289.859,565.098,289.342z"/>
			<path fill="#FFFFFF" d="M513.144,237.111c2.801,1.544,7.65,3.075,4.282,6.283c-4.884-0.748-8.478-3.962-12.271-6
				c-4.012-2.152-7.981-3.994-11.992-6.277c-3.849,4.773-8.798,11.296-16.27,10.557c-2.258-3.803,5.487-5.33,7.99-7.422
				c3.759-3.134,4.627-6.391,6.277-9.988c-3.922-0.362-9.495,0.925-11.704-1.142c0.043-2.88,2.105-9.637,5.998-6.851
				c0.799,1.398-0.343,2.238-0.283,3.714c10.194,0.362,21.867-0.748,31.113,0.568c0.457,3.191-1.037,6.711-2.569,8.841
				c-0.659,0-1.33,0-1.996,0c-1.67-1.093-0.91-3.383-0.288-5.13c-5.234,0-10.468,0-15.697,0c-2.814,3.229,2.375,4.476,5.136,5.995
				C505.099,232.587,508.662,234.631,513.144,237.111z"/>
			<path fill="#FFFFFF" d="M611.914,258.807c7.602,3.314-11.835,9.786-13.417,8.278c-2.723-2.609,2.152-4.693,4.57-5.138
				c0-9.711,0-19.415,0-29.117c-1.653-0.154-4.057,0.434-4.854-0.571c-0.639-1.179-0.419-1.927,0-3.149
				c1.055-0.748,3.052-0.548,4.854-0.565c0.356-3.457-0.836-8.453,0.854-10.568c1.524-0.603,2.592,0.028,3.426,0.859
				c0,3.243,0,6.472,0,9.709c6.583-1.958,7.065,6.069,0.288,4.285c-0.665,8.564-0.1,18.364-0.288,27.401
				C609.001,259.889,609.938,258.818,611.914,258.807z"/>
			<path fill="#FFFFFF" d="M308.173,302.191c0.017,0.685-0.479,0.842-0.277,1.715c-3.64,1.152-10.437,0.557-14.556,0.279
				c-2.195-2.541-2.195-12.009,0-14.559c4.256-0.083,12.032-1.418,14.556,1.147c0.583,1.896,0.157,4.79,0.277,7.137
				c-4.082,0-8.173,0-12.263,0c-0.648,1.248-0.214,3.545,0.279,4.566C300.12,302.317,304.725,302.825,308.173,302.191z
				 M295.618,295.917c2.94,0,5.906,0,8.853,0c-0.046-1.476,0.174-3.231-0.286-4.288C300.52,291.167,293.812,289.968,295.618,295.917
				z"/>
			<path fill="#FFFFFF" d="M490.877,289.628c1.362,2.624,2.906,10.16,1.142,13.419c-1.664,3.069-8.592,1.133-11.703,0.859
				c0.188,1.913-0.377,4.566,0.281,5.995c-0.861,0.653-2.942,0.1-4.281,0.286c0.282-6.231,0.821-14.798-0.283-20.56
				c-0.055-0.24,0.107-0.263,0.283-0.286c1.256,0.286,3.748-0.693,3.717,0.865C482.171,288.626,487.853,289.408,490.877,289.628z
				 M488.308,302.191c0.465-2.917,0.465-7.631,0-10.563c-1.994-0.425-5.729-0.5-7.71,0c-0.471,2.883-0.471,7.688,0,10.563
				C482.547,302.662,486.358,302.662,488.308,302.191z"/>
			<path fill="#FFFFFF" d="M511.719,266.791c2.562,0.811,8.23,0.991,6.277,5.141c-5.004,0.594-9.942-1.864-14.844-3.423
				c-4.839-1.539-9.854-2.969-14.56-4.567c-5.92,4.77-15.592,8.721-24.835,8.279c-2.832-4.376,5.304-4.382,9.132-5.43
				c7.924-2.141,14.692-5.344,15.417-14.838c1.13-1.082,2.989-0.357,3.711,0.574c0.026,2.972-0.239,5.667-1.424,7.422
				C495.964,262.007,504.56,264.55,511.719,266.791z"/>
			<path fill="#FFFFFF" d="M586.228,220.264c0.871,4.099-8.021,2.857-12.565,2.857c-9.5,0-20.71,0-30.539,0
				c-4.127,0-13.123,1.205-12.286-2.857c0.577-2.729,10.771-1.705,11.998-1.705c5.512,0,8.33,0,13.414,0
				c0.908-0.71-0.471-3.711,0.854-4.005c0.32-0.733,1.543-0.551,2.572-0.568c1.094,0.802,1.313,2.495,1.143,4.573
				c4.462,0,8.436,0,13.703,0C577.21,218.559,585.662,217.648,586.228,220.264z"/>
			<path fill="#FFFFFF" d="M652.734,215.417c3.325-0.58,2.96,4.165,1.43,6.28c-1.827,2.506-4.356,2.661-8.854,2.566
				c0.239,6.429,1.893,13.902,3.143,20.271c2.03-1.222,1.65-5.781,4.85-5.139c4.325,0.859-2.127,9.023-3.42,11.416
				c0.879,3.848,1.607,7.031,2.853,11.421c0.65,2.287,4.327,9.792,0.288,9.989c-2.788,0.137-3.3-5.381-4-7.713
				c-1.027-3.411-1.77-5.983-2.565-8.847c-2.109,0.485-3.885,6.46-7.136,5.995c-0.745-0.1-1.864-1.011-2.001-1.708
				c-0.683-3.399,7.091-6.565,7.708-10.279c0.24-1.476-0.723-4.159-1.143-6.274c-1.256-6.423-2.48-12.144-3.14-19.132
				c-8.396,1.031-22.754-3.917-20.553,7.713c6.157,1.01,14.01-1.767,15.415,5.995c0.664,3.683,0,8.955,0,13.982
				c0,5.758,0.891,12.583-0.571,15.703c-1.245,2.641-6.3,5.133-9.42,2.855c-0.226-1.422-0.088-1.607,0.288-2.855
				c1.293-0.99,4.425-0.146,5.136-1.721c0.305-8.781,0.822-20.219-0.286-28.541c-2.215-1.596-7.048-0.565-10.562-0.859
				c-0.462,7.448-0.766,17.453-1.143,25.697c-0.208,4.613,0.766,10.174-2.284,10.271c-3.664,0.128-2.146-8.027-2-11.413
				c0.211-4.716,0.325-10.028,0.576-15.701c0.445-10.222-1.361-23.756,7.131-25.406c5.992-1.167,9.871,0.822,17.702,0
				c-2.421-6.594,5.88-7.488,4.276-0.289c1.122,0.603,3.289,0.143,4.862,0.289C651.704,219.159,650.417,215.81,652.734,215.417z"/>
			<path fill="#FFFFFF" d="M388.686,290.208c0.49-1.213,2.617-0.816,4.281-0.865c-1.182,6.149,1.09,15.749-1.43,20.56
				c-2.883,0.18-7.779,0.688-11.707,0.286c-0.996-0.105-3.221,0.548-2.566-1.425c2.321-1.158,7.965,0.445,11.133-0.57
				c0.578-0.862,0.164-2.692,0.289-4.006c-1.965,0.341-7.693,0.543-10.563,0c-2.252-2.438-1.818-10.719-0.571-13.979
				C379.768,289.04,386.532,288.68,388.686,290.208z M388.396,302.479c0.471-2.972,0.471-7.873,0-10.851
				c-1.858-0.468-5.566-0.468-7.42,0c-0.656,2.969-0.11,7.131-0.287,10.563C382.761,302.788,385.867,302.342,388.396,302.479z"/>
			<path fill="#FFFFFF" d="M677.854,202.853c1.125,2.019,0.58,7.217,0.283,9.697c-1.869-0.588-0.374-4.559-0.854-6.554
				c-1.199,2.038-1.833,4.63-3.144,6.554c-2.354-1.056-2.396-4.439-3.711-6.554c-1.016,1.456,0.634,5.578-0.854,6.554
				c-1.316-2.101-0.206-6.637-0.571-9.697c0.286,0,0.571,0,0.856,0c1.786,2.019,2.489,5.124,3.708,7.71
				C675.647,208.637,675.534,204.532,677.854,202.853z"/>
			<path fill="#FFFFFF" d="M472.603,289.342c0.18,4.973-0.357,10.643,0.288,15.133c-4.808-0.688-10.419,0.856-15.409-0.567
				c-2.189-3.049-0.451-10.025-1.431-14.279c0.865-0.654,2.943-0.088,4.282-0.286c0.183,4.202-0.371,9.132,0.288,12.85
				c1.927,0.636,5.021,0.119,7.419,0.287c1.645-3.003,0.676-9.211,0.571-13.137C469.947,289.342,471.272,289.342,472.603,289.342z"
				/>
			<path fill="#FFFFFF" d="M547.116,302.479c0.117,0.686-0.522,0.622-0.288,1.428c-3.64,1.152-10.438,0.557-14.556,0.279
				c-2.252-2.438-1.813-10.719-0.571-13.979c3.372-1.359,11.461-1.359,14.838,0c0.979,1.77,0.437,5.078,0.577,7.705
				c-3.994,0-7.996,0-11.995,0c-0.525,0.822-0.405,3.439,0,4.279C538.413,302.891,544.29,302.243,547.116,302.479z M543.399,295.917
				c-0.049-1.476,0.183-3.231-0.277-4.288c-3.54-0.431-10.291-1.767-8.284,4.288C537.69,295.917,540.551,295.917,543.399,295.917z"
				/>
			<path fill="#FFFFFF" d="M343.008,302.191c-0.445,0.417-0.248,1.47-0.288,2.283c-3.352-0.26-7.933,0.699-9.986-0.851
				c-1.116-3.08-0.351-8.036-0.571-11.995c-0.22-0.828-2.358,0.266-2.572-0.571c0-0.377,0-0.759,0-1.142
				c-0.111-1.156,1.775-0.314,2.572-0.574c0-1.044,0-2.086,0-3.128c1.031-0.206,2.367-0.117,3.134-0.577
				c1.236,0.188,0.269,2.592,0.571,3.705c2.189,0,4.379,0,6.567,0c0,0.674,0,1.339,0,2.004c-2.095,0-4.189,0-6.286,0
				c-0.365,3.037-0.73,8.541,0.283,11.132C338.609,302.362,341.29,302.759,343.008,302.191z"/>
			<path fill="#FFFFFF" d="M527.134,284.496c0,0.851,0,1.718,0,2.569c-1.242,0-2.475,0-3.711,0c0-0.851,0-1.718,0-2.569
				C524.659,284.496,525.892,284.496,527.134,284.496z"/>
			<path fill="#FFFFFF" d="M667.293,203.139c-0.111,1.213-2.389,0.271-3.425,0.574c-0.36,2.777,0.739,7.017-0.571,8.838
				c-1.307-1.724-0.208-5.877-0.571-8.552c-0.58-0.666-2.365-0.111-3.428-0.286c0-0.191,0-0.38,0-0.574
				C660.673,202.194,665.915,202.194,667.293,203.139z"/>
			<path fill="#FFFFFF" d="M638.744,302.479c0.114,3.154-4.191,1.996-6.851,1.996c-3.059,0-6.258,0-8.564,0
				c0.917-5.729,0.917-14.815,0-20.551c1.616,0,3.24,0,4.857,0c-0.619,5.566-0.137,12.247-0.287,18.268
				C630.974,303.079,636.041,301.969,638.744,302.479z"/>
			<path fill="#FFFFFF" d="M375.268,217.126c7.543-1.936,0.646,8.209-0.858,10.565c-1.093,1.707-4.306,7.705-6.849,7.416
				c-4.896-0.565,1.864-7.719,3.138-9.703C372.782,222.165,373.932,220.004,375.268,217.126z"/>
			<path fill="#FFFFFF" d="M428.079,302.191c0.12,0.981-0.117,1.601-0.289,2.283c-3.105-0.211-7.196,0.537-9.426-0.567
				c-1.818-2.649-0.917-8.024-1.136-12.278c-0.125-0.822-2.158,0.254-2.285-0.571c0-0.377,0-0.759,0-1.142
				c-0.174-1.122,1.57-0.337,2.285-0.574c0-1.044,0-2.086,0-3.128c1.213-0.125,2.535-0.137,3.42-0.577
				c1.245,0.188,0.266,2.592,0.573,3.705c2.096,0,4.19,0,6.286,0c0,0.674,0,1.339,0,2.004c-2.001,0-4.002,0-5.998,0
				c-0.666,2.952-0.1,7.136-0.289,10.559C422.512,302.928,426.343,302.531,428.079,302.191z"/>
			<path fill="#FFFFFF" d="M372.98,284.496c0,0.851,0,1.718,0,2.569c-1.235,0-2.472,0-3.707,0c0-0.851,0-1.718,0-2.569
				C370.509,284.496,371.746,284.496,372.98,284.496z"/>
			<path fill="#FFFFFF" d="M576.228,251.953c2.02,4.753,0.561,13.733-3.425,15.421c-2.942,1.236-9.249,0.565-14.559,0.565
				c-5.198,0-11.599,0.508-14.269-0.854c-3.273-1.676-5.095-8.929-3.143-14.85c0.739-2.25,2.949-3.531,5.138-3.991
				c2.85-0.611,8.784-0.289,13.99-0.289C567.313,247.956,574.169,247.097,576.228,251.953z M571.378,263.088
				c1.747-1.778,1.533-8.107,0.282-10.276c-7.379-0.939-18.595-0.951-25.978,0c-1.467,1.758-1.078,7.779-0.279,9.988
				C552.851,263.917,563.453,263.388,571.378,263.088z"/>
			<path fill="#FFFFFF" d="M337.87,224.548c1.299,2.021,7.524,9.406,3.137,10.271c-2.458,0.494-5.207-5.284-6.563-7.419
				c-1.299-2.032-8.775-10.904-1.998-10.848C334.31,218.591,335.671,221.108,337.87,224.548z"/>
			<path fill="#FFFFFF" d="M527.417,304.475c-1.424,0-2.852,0-4.282,0c0.466-4.441,0.466-10.679,0-15.133c1.336,0,2.669,0,3.999,0
				C527.277,294.347,526.817,299.939,527.417,304.475z"/>
			<path fill="#FFFFFF" d="M289.338,289.342c0.18,0.782-0.359,2.275,0.289,2.575c-1.424,0.442-5.039-0.508-6.848,0.285
				c-0.471,3.48-0.471,8.801,0,12.271c-1.524,0-3.061,0-4.567,0c1.042-4.119,0.551-10.542,0.282-15.133
				c1.159,0.369,3.897-0.845,3.714,0.865C283.558,288.889,286.789,289.471,289.338,289.342z"/>
			<path fill="#FFFFFF" d="M366.701,302.479c0.206,3.184-4.217,1.996-6.848,1.996c-3.05,0-6.28,0-8.567,0
				c0.917-5.541,0.954-14.732,0-20.268c1.149-0.665,3.514-0.097,5.136-0.283c-1.256,5.021-0.24,12.321-0.57,18.268
				C358.908,303.033,364.052,302.028,366.701,302.479z"/>
			<path fill="#FFFFFF" d="M314.176,229.393c0.234,3.723-7.976,2.29-11.133,2.29c-5.115,0-9.086,0-13.417,0
				c5.583,9.397,12.558,19.839,19.129,29.691c1.907,2.863,6.1,6.283,4.282,10.276c-3.203,1.196-6.297-5.612-7.999-8.278
				c-5.838-9.166-12.946-19.231-18.558-27.687c-2.635,12.749-8.452,23.319-17.407,30.547c-2.649,2.132-6.237,5.632-10.274,4.562
				c-1.396-3.083,5.347-6.363,7.705-8.278c8.77-7.111,14.028-17.113,15.986-30.539c-3.751-0.522-8.07-0.294-13.134-0.294
				c-3.429,0-11.23,1.276-11.416-1.996c-0.203-3.64,8.001-2.287,11.416-2.287c5.252,0,9.269,0,13.705,0
				c2.079-3.714-1.53-13.134,4.565-12.846c1.981,3.089,0.068,8.767,0,12.555c4.122,0.531,8.823,0.291,14.27,0.291
				C305.649,227.4,313.971,226.167,314.176,229.393z"/>
		</g>
	</g>
</g>
<g>
	<path fill="#FFFFFF" d="M161.223,465.728c4.085,0,8.412-1.317,12.981-3.967c2.164-1.2,3.725-1.803,4.688-1.803
		c1.922,0.242,3.004,1.442,3.246,3.606c-1.685,5.29-8.654,8.175-20.915,8.653c-17.794-0.721-27.406-11.658-28.849-32.814
		c1.442-21.395,11.179-32.572,29.209-33.536c10.097,0.483,16.464,3.729,19.112,9.735c-0.242,2.406-1.324,3.73-3.246,3.968
		c-0.963,0-2.405-0.722-4.327-2.164c-3.605-2.886-7.454-4.327-11.539-4.327c-12.745,0.721-19.597,9.5-20.554,26.324
		C141.986,456.233,148.72,465.006,161.223,465.728z"/>
	<path fill="#FFFFFF" d="M208.822,422.455c13.218,0.963,20.43,9.376,21.636,25.242c-1.206,15.63-8.418,23.8-21.636,24.521
		c-13.467-0.479-20.679-8.653-21.637-24.521C188.144,431.831,195.355,423.418,208.822,422.455z M208.822,465.728
		c8.412-0.236,12.857-6.249,13.342-18.029c-0.484-11.776-4.93-17.788-13.342-18.03c-8.654,0.485-13.225,6.491-13.703,18.03
		C195.598,459.237,200.168,465.249,208.822,465.728z"/>
	<path fill="#FFFFFF" d="M238.752,426.782c0-2.885,1.318-4.327,3.967-4.327c2.643,0,3.967,1.442,3.967,4.327v2.164h0.36
		c3.363-4.327,7.934-6.491,13.703-6.491c10.817,0.963,16.464,7.212,16.948,18.751v27.406c0,2.405-1.324,3.605-3.967,3.605
		c-2.885,0-4.327-1.2-4.327-3.605v-27.045c-0.242-7.449-3.967-11.415-11.179-11.9c-7.454,0.485-11.303,4.451-11.539,11.9v27.045
		c0,2.405-1.324,3.605-3.967,3.605c-2.648,0-3.967-1.2-3.967-3.605L238.752,426.782L238.752,426.782z"/>
	<path fill="#FFFFFF" d="M290.679,412.358c0-2.886,1.318-4.327,3.967-4.327c2.643,0.242,4.085,1.685,4.327,4.327v10.817h3.245
		c2.643,0,3.967,1.206,3.967,3.606c0,2.164-1.324,3.246-3.967,3.246h-3.245v38.584c0,2.405-1.442,3.605-4.327,3.605
		c-2.648,0-3.967-1.2-3.967-3.605v-38.584h-3.245c-2.648,0-3.967-1.082-3.967-3.246c0-2.4,1.318-3.606,3.967-3.606h3.245V412.358z"
		/>
	<path fill="#FFFFFF" d="M352.342,468.973c-0.242,2.164-1.441,3.246-3.605,3.246c-2.647,0-3.967-1.082-3.967-3.246v-3.605
		c-3.605,4.812-8.058,7.088-13.343,6.852c-13.466-0.479-20.679-8.653-21.636-24.521c0.957-15.866,8.17-24.279,21.636-25.242
		c4.563,0,9.015,2.164,13.343,6.491v-2.524c0-2.399,1.318-3.725,3.967-3.967c2.399,0.242,3.605,1.566,3.605,3.967V468.973z
		 M331.427,465.728c8.412-0.236,12.857-6.249,13.343-18.029c-0.484-11.776-4.931-17.788-13.343-18.03
		c-8.654,0.485-13.224,6.491-13.703,18.03C318.203,459.237,322.772,465.249,331.427,465.728z"/>
	<path fill="#FFFFFF" d="M382.993,422.455c8.17,0.242,12.621,2.288,13.342,6.13c-0.242,2.164-1.324,3.369-3.245,3.606
		c-0.964,0-2.164-0.36-3.605-1.082c-2.163-0.958-4.327-1.442-6.49-1.442c-8.654,0.485-13.344,6.491-14.063,18.03
		c0.721,11.54,5.408,17.551,14.063,18.029c2.163,0,4.445-0.597,6.852-1.803c1.442-0.721,2.523-1.082,3.245-1.082
		c1.921,0,2.886,1.206,2.886,3.606c-0.723,3.848-5.05,5.77-12.981,5.77c-13.703-0.479-21.039-8.653-21.997-24.521
		C361.954,431.594,369.29,423.176,382.993,422.455z"/>
	<path fill="#FFFFFF" d="M406.432,412.358c0-2.886,1.318-4.327,3.967-4.327c2.644,0.242,4.086,1.685,4.328,4.327v10.817h3.246
		c2.643,0,3.966,1.206,3.966,3.606c0,2.164-1.323,3.246-3.966,3.246h-3.246v38.584c0,2.405-1.442,3.605-4.328,3.605
		c-2.647,0-3.967-1.2-3.967-3.605v-38.584h-3.244c-2.648,0-3.968-1.082-3.968-3.246c0-2.4,1.318-3.606,3.968-3.606h3.244V412.358z"
		/>
	<path fill="#FFFFFF" d="M450.786,410.195c0-2.886,1.318-4.327,3.967-4.327c2.643,0,3.967,1.441,3.967,4.327V449.5
		c0.479,10.339,6.366,15.748,17.669,16.227c11.056-0.479,16.824-5.888,17.31-16.227v-39.306c0-2.886,1.318-4.327,3.967-4.327
		c2.643,0,3.967,1.441,3.967,4.327v36.06c0,17.309-8.418,25.963-25.242,25.963c-17.071,0-25.603-8.653-25.603-25.963
		L450.786,410.195L450.786,410.195z"/>
	<path fill="#FFFFFF" d="M527.955,422.455c9.854,0.963,15.264,3.849,16.227,8.654c-0.241,2.405-1.441,3.605-3.604,3.605
		c-0.964,0-2.164-0.598-3.606-1.803c-2.885-2.164-5.894-3.246-9.015-3.246c-5.533,0.243-8.418,2.288-8.654,6.13
		c0,2.406,3.605,5.048,10.817,7.933c8.655,1.928,13.821,6.615,15.506,14.063c-0.484,9.376-6.49,14.188-18.029,14.424
		c-10.34-0.479-16.47-3.364-18.392-8.654c0.237-2.399,1.318-3.725,3.246-3.967c0.958,0,2.4,0.722,4.327,2.164
		c3.843,2.648,7.571,3.967,11.179,3.967c5.77-0.236,8.891-2.399,9.375-6.49c0-2.886-3.729-5.889-11.178-9.016
		c-8.418-2.399-13.344-6.97-14.785-13.703C512.089,427.864,517.616,423.176,527.955,422.455z"/>
</g>
</svg>
