<?xml version="1.0" encoding="utf-8"?>
<!-- Generator: Adobe Illustrator 16.0.0, SVG Export Plug-In . SVG Version: 6.00 Build 0)  -->
<!DOCTYPE svg PUBLIC "-//W3C//DTD SVG 1.1//EN" "http://www.w3.org/Graphics/SVG/1.1/DTD/svg11.dtd">
<svg version="1.1" id="图层_1" xmlns="http://www.w3.org/2000/svg" xmlns:xlink="http://www.w3.org/1999/xlink" x="0px" y="0px"
	 width="680px" height="330px" viewBox="0 0 680 330" enable-background="new 0 0 680 330" xml:space="preserve">
<g id="XMLID_2_">
	<g>
		<path fill="#FFFFFF" d="M666.83,120.989c0,15.08,0,30.16,0,45.23c-20.471,1.23-45.891,0.16-65.5,0.52
			c7.95-15.44,15.49-31.3,24.43-45.75C639.45,120.989,653.14,120.989,666.83,120.989z"/>
		<path fill="#FFFFFF" d="M654.359,25.849c2.511,6.2-1.3,14.27-3.119,19.24c-2.36,6.41-4.32,11.64-7.28,16.11
			c-36.91,0-73.83,0-110.74,0c-7.81,17.32-15.17,35.09-22.36,53.03c-20.27,0-40.55,0-60.829,0c7.319-19.46,14.3-38.28,22.359-57.19
			c2.641-6.2,4.78-13.08,8.32-18.19c18.479-26.66,68.54-20.8,114.38-20.8C609.54,18.049,649.899,14.849,654.359,25.849z"/>
		<path fill="#FFFFFF" d="M633.56,77.839c0.98,5.94-4.08,14.26-6.239,19.24c-2.851,6.56-5.171,11.55-7.801,17.15
			c-15.42,0.35-32.229-0.69-46.79,0.52c-1.12-3.68,4.271-9.5,5.721-14.03c-14.73,0-29.46,0-44.19,0
			c4.48-10.78,8.39-22.11,13.521-32.24c22.17,1.61,49.92-2.13,70.699,0C624.75,69.119,632.71,72.699,633.56,77.839z"/>
		<path fill="#FFFFFF" d="M445.88,120.989c56.49,0,112.99,0,169.479,0c-6.89,21.57-20.92,42.47-48.35,45.23
			c-24.689,2.49-59.689,1.29-87.34,0.52c-19.92-0.55-37.811,1.82-45.75-10.4C434.189,140.849,440.74,131.629,445.88,120.989z"/>
		<path fill="#FFFFFF" d="M470.83,25.329c0.54,1.37,0.62,3.19,0.52,5.2c-1.859,1.26-4.979,1.26-7.279,2.08
			c-0.351,4.34,3.43,4.55,4.159,7.8c-1.229,0.85-1.479,2.67-2.6,3.64c-2.48,0.05-3.88-0.97-5.72-1.56
			c-3.301,1.01-1.511,4.97-1.04,7.79c-0.4,1.86-2.54,1.96-3.641,3.12c-2.37-0.91-3.489-3.09-5.199-4.68
			c-3.65,0.16-2.601,5.03-4.15,7.28c-1.74,0-3.47,0-5.2,0c-1.06-2.58-0.71-6.57-3.64-7.28c-2.42,0.71-3.37,2.88-4.681,4.68
			c-2.35-0.07-2.72-2.13-5.199-2.08c0.42-2.35,0.89-4.66,1.56-6.75c-0.149-1.06-1.41-1.02-1.56-2.08
			c-2.36,0.07-3.58,1.27-5.721,1.56c-2.02-0.23-2.13-2.38-3.119-3.64c3.829-3.1,6.67-10.22-2.601-9.36c0-1.73,0-3.47,0-5.2
			c2.021-0.93,4.88-1.01,6.76-2.08c0.721-4.53-2.96-4.66-4.159-7.28c0.34-1.74,1.619-2.54,2.079-4.16
			c2.15,0.62,4.521,1.02,6.761,1.56c3.09-1.62,0.54-5.8,0-8.32c1.59-0.66,2.6-1.9,4.68-2.08c2.01,1.12,2.73,3.51,5.2,4.16
			c0.42-0.27,0.84-0.54,1.56-0.52c1.681-2.99,0.73-8.62,7.28-6.76c0.93,2.19,1.28,4.96,2.08,7.28c4.08,0.27,4.79-2.83,7.27-4.16
			c1.971,0.12,2.53,1.64,4.16,2.08c-0.18,2.59-1.45,4.09-1.56,6.76c0.189,0.68,0.92,0.82,1.04,1.56c2.72-0.23,4.56-1.33,7.279-1.56
			c0.771,1.14,1.021,2.8,2.08,3.64c-0.75,2.72-3.5,3.43-4.68,5.72C463.83,25.049,468.17,24.349,470.83,25.329z M436.52,28.969
			c0.521,9.18,14.521,8.17,14.04-1.04c-0.22-4.17-2.93-7.7-9.359-5.72C437.66,23.299,436.3,25.189,436.52,28.969z"/>
		<path fill="#FFFFFF" d="M461.47,46.129c1.9,0.16,3.39-0.09,4.68-0.52c-1.159,12.74-8.899,25.14-14.04,36.91
			c-4.67,10.7-9.149,20.85-13.51,31.19c-22.7,0-45.41,0-68.109,0c0.619-2.84,2.5-4.43,3.119-7.28
			c-8.229-2.17-20.27-0.52-30.149-1.04c-1.68,2.49-3.07,5.26-4.16,8.32c-23.92,0-47.83,0-71.75,0
			c13.73-31.67,26.44-64.36,41.07-95.14c31.89,0,66.75,0,99.82,0c3.511,0,10.07-1.85,10.92,3.12c-1.829,2.1-3.859,0.96-6.76,1.56
			c-1.01,1.98-1.529,5.89-0.52,8.32c1.02,2.1,6.29-0.05,7.279,2.08c0.381,3.62-3.93,3.11-4.159,7.28
			c-0.28,5.1,4.149,7.26,10.92,5.72c-1.681,4.93-1.101,9.91,3.12,10.39c3.77,0.43,4.71-4.32,7.8-4.16c2.62,0.5,1.08,5.16,2.6,6.76
			c6.07,2.25,9.34-1.84,9.88-6.76c3.59,3.16,10.46,6.72,12.99,1.04C463.63,51.419,461.47,48.599,461.47,46.129z M390.25,65.879
			c-10.061,0-20.11,0-30.16,0c-2.78,4.15-4.73,9.13-6.24,14.56c10.23,0,20.45,0,30.68,0C386.39,75.539,389.02,71.409,390.25,65.879z
			"/>
		<path fill="#FFFFFF" d="M368.41,120.989c22.18,0,44.37,0,66.55,0c-5.9,15.42-12.72,29.91-18.72,45.23c-22.53,0-45.061,0-67.59,0
			C355.12,151.019,361.15,135.389,368.41,120.989z"/>
		<path fill="#FFFFFF" d="M264.43,120.989c23.74,0,47.49,0,71.23,0c-4.7,14.54-12.97,30.01-18.72,45.23
			c-25.06,0.3-50.19-0.6-73.31,0.52C250.21,151.129,256.78,135.529,264.43,120.989z"/>
		<path fill="#FFFFFF" d="M265.47,31.049c8.59,8.15,15.9,17.32,13,33.27c-3.13,17.22-15.88,36.19-20.8,49.39
			c-22.91-0.33-47.3,0.47-68.1,0.52c2.22-8.32,6.59-17.68,10.91-27.55c1.44-3.27,3.84-6.61,3.12-9.88
			c-1.53-7.04-22.35-5.41-31.19-5.72c-36.52-1.26-76.14,1.39-109.7,0.52c7.35-17.6,14.99-34.92,22.87-51.99
			c-0.37-0.85,1.04-2.26,1.04-1.04c43.22-1.14,87.43,0,132.58,0c8.76,0,18.24-1.16,25.99,0
			C253.04,19.749,260.39,26.219,265.47,31.049z"/>
		<path fill="#FFFFFF" d="M157.85,120.989c30.68,1.21,63.6,0.17,95.14,0.52c-10,16.33-20.12,37.83-40.03,44.19
			c-9.14,2.92-26.96,1.04-40.03,1.04c-35.46,0-74.11,0.81-107.62,0.52c9.5-28.62,22.54-58.21,33.79-86.82c24.09,0,48.18,0,72.27,0
			C167.12,94.219,162.17,107.279,157.85,120.989z"/>
		<path fill="#FFFFFF" d="M15.4,119.949c19.75,0,39.51,0,59.27,0c-6.54,15.3-12.56,31.11-19.24,46.27
			c-12.32,0.88-28.22,0.86-40.55,0C15.22,150.969,14.19,134.339,15.4,119.949z"/>
	</g>
	<g>
	</g>
</g>
<g>
	<path fill="#FFFFFF" d="M140.23,214.054h23.509v20.848h40.809v21.292h-38.591c6.501,18.339,20.252,33.419,41.252,45.244
		l-13.75,18.631c-15.082-8.58-28.389-21.291-39.922-38.148c-7.984,15.677-22.033,28.39-42.14,38.148
		c0,0.59-5.032-5.621-15.082-18.631c23.066-10.049,37.108-25.13,42.14-45.244H98.535v-21.292h41.696V214.054z"/>
	<path fill="#FFFFFF" d="M255.56,213.167h22.179v37.261h18.63l-15.525-7.098c5.323-8.871,9.46-17.889,12.42-27.058l19.074,8.428
		c-3.257,10.354-7.097,18.928-11.533,25.728h18.63v22.179h-31.494v22.179c0.291,2.66,2.363,3.846,6.21,3.549
		c3.25-0.889,4.879-2.809,4.879-5.768v-9.315l20.404,5.323v12.863c-0.596,11.236-7.839,17.002-21.735,17.301h-18.187
		c-11.242,2.951-15.968-3.404-14.194-19.074v-27.058h-3.992c-3.548,25.138-15.677,40.955-36.373,47.462l-14.194-16.412
		c15.969-5.912,25.131-16.26,27.502-31.05h-25.728v-22.179h21.292c-4.436-8.275-9.467-16.412-15.082-24.396l16.856-9.759
		c5.614,6.806,11.38,15.379,17.299,25.728l-13.307,8.428h15.969V213.167z"/>
	<path fill="#FFFFFF" d="M429.441,215.829v22.179h-40.365l-3.105,12.863h34.155v44.801h14.194v20.848H326.088v-21.734h23.953
		l6.654-22.623h-21.292v-21.292h26.171l3.105-12.863h-34.156v-22.179H429.441z M397.061,272.163h-15.969l-6.654,23.066h22.623
		V272.163z"/>
	<path fill="#FFFFFF" d="M480.452,213.611h25.284c8.871,10.057,23.065,19.226,42.583,27.501l-10.202,19.961
		c-3.549-1.178-8.58-3.396-15.082-6.653v5.767h-19.073v4.436h38.147v19.96h-17.3l8.428,4.436c-1.185,3.258-2.813,6.951-4.879,11.09
		h15.525v19.074H441.861v-19.518h14.638c-0.887-2.363-2.661-5.912-5.322-10.646l9.314-4.436h-17.299v-19.96h38.591v-4.436h-19.518
		v-5.323c-5.322,2.661-10.202,4.879-14.638,6.653L437.426,242C457.234,233.425,471.581,223.965,480.452,213.611z M470.693,284.582
		c0.888,1.186,2.219,3.701,3.992,7.541c1.774,3.549,3.105,6.211,3.992,7.984h3.105v-15.525H470.693z M493.76,232.684
		c-3.847,3.258-6.807,5.919-8.872,7.984h15.969C498.784,238.603,496.421,235.942,493.76,232.684z M503.519,284.582v15.525h3.548
		c2.065-4.727,3.992-9.904,5.767-15.525H503.519z"/>
</g>
<g>
	<path fill="#FFFFFF" d="M97.642,177.085h9.844c9.583,0.104,14.426,4.948,14.531,14.531c-0.105,9.479-4.949,14.272-14.531,14.375
		h-9.844V177.085z M103.736,201.148h3.281c5.728,0.21,8.54-2.969,8.438-9.531c0.103-6.665-2.71-9.896-8.438-9.688h-3.281V201.148z"
		/>
	<path fill="#FFFFFF" d="M124.205,205.992l10.469-28.906h7.344l10.156,28.906h-6.25l-2.188-6.094H132.33l-2.188,6.094H124.205z
		 M142.173,195.054l-3.906-12.344h-0.156l-4.219,12.344H142.173z"/>
	<path fill="#FFFFFF" d="M168.892,195.367v-4.844h11.719v14.531c-2.085,0.625-4.219,0.938-6.406,0.938
		c-1.667,0.208-3.855,0.313-6.563,0.313c-8.855-0.521-13.386-5.415-13.594-14.688c0.208-9.478,4.739-14.531,13.594-15.156
		c9.063,0,13.54,3.125,13.438,9.375h-6.563c0-3.228-1.929-4.844-5.781-4.844c-5.313,0.104-8.022,3.647-8.125,10.625
		c0.103,6.875,2.813,10.366,8.125,10.469c1.563,0,3.384-0.208,5.469-0.625c-0.105,0.104,0,0.104,0.313,0v-6.094H168.892z"/>
	<path fill="#FFFFFF" d="M211.705,177.085v18.125c-0.313,7.188-4.48,10.884-12.5,11.094c-8.23-0.21-12.449-3.906-12.656-11.094
		v-18.125h6.25v15.781c-0.105,3.438,0.313,5.781,1.25,7.031c1.04,1.46,2.759,2.188,5.156,2.188c2.395,0,4.063-0.728,5-2.188
		c0.938-1.25,1.353-3.594,1.25-7.031v-15.781H211.705z"/>
	<path fill="#FFFFFF" d="M215.142,205.992l10.469-28.906h7.344l10.156,28.906h-6.25l-2.188-6.094h-11.406l-2.188,6.094H215.142z
		 M233.111,195.054l-3.906-12.344h-0.156l-4.219,12.344H233.111z"/>
	<path fill="#FFFFFF" d="M263.267,205.992l-11.25-24.063l-0.156,0.156v23.906h-5.781v-28.906h9.219l10.938,22.813l0.156-0.156
		v-22.656h5.781v28.906H263.267z"/>
	<path fill="#FFFFFF" d="M290.923,195.367v-4.844h11.719v14.531c-2.085,0.625-4.219,0.938-6.406,0.938
		c-1.667,0.208-3.855,0.313-6.563,0.313c-8.855-0.521-13.386-5.415-13.594-14.688c0.208-9.478,4.739-14.531,13.594-15.156
		c9.063,0,13.54,3.125,13.438,9.375h-6.563c0-3.228-1.929-4.844-5.781-4.844c-5.313,0.104-8.022,3.647-8.125,10.625
		c0.103,6.875,2.813,10.366,8.125,10.469c1.563,0,3.384-0.208,5.469-0.625c-0.105,0.104,0,0.104,0.313,0v-6.094H290.923z"/>
	<path fill="#FFFFFF" d="M319.517,205.992v-28.906h6.094v11.406h10.938v-11.406h6.25v28.906h-6.094v-12.656h-11.094v12.656H319.517z
		"/>
	<path fill="#FFFFFF" d="M345.923,205.992l10.469-28.906h7.344l10.157,28.906h-6.25l-2.188-6.094h-11.407l-2.188,6.094H345.923z
		 M363.892,195.054l-3.906-12.344h-0.156l-4.219,12.344H363.892z"/>
	<path fill="#FFFFFF" d="M382.799,205.992h-6.25v-28.906h12.344c6.563,0.104,9.895,2.604,10,7.5
		c-0.105,3.75-2.086,6.094-5.938,7.031v0.156c3.227,0.104,4.945,2.241,5.156,6.406c0.102,0.417,0.156,0.729,0.156,0.938
		c0.313,3.438,0.832,5.729,1.563,6.875h-6.719c-0.625-2.5-0.992-5.103-1.094-7.813c-0.211-2.5-1.094-3.75-2.656-3.75h-6.563V205.992
		z M382.799,189.585h5.156c2.914,0,4.375-1.353,4.375-4.063c0-2.5-1.461-3.696-4.375-3.594h-5.156V189.585z"/>
	<path fill="#FFFFFF" d="M403.424,177.085h9.844c9.582,0.104,14.426,4.948,14.531,14.531c-0.105,9.479-4.949,14.272-14.531,14.375
		h-9.844V177.085z M409.518,201.148h3.281c5.727,0.21,8.539-2.969,8.438-9.531c0.102-6.665-2.711-9.896-8.438-9.688h-3.281V201.148z
		"/>
	<path fill="#FFFFFF" d="M446.393,177.085h7.031l5,21.719h0.156l4.688-21.719h5.781l-7.344,28.906h-6.875l-5.156-22.031
		l-5.625,22.031h-7.031l-7.031-28.906h6.406l4.375,21.719L446.393,177.085z"/>
	<path fill="#FFFFFF" d="M469.986,205.992l10.469-28.906h7.344l10.156,28.906h-6.25l-2.188-6.094h-11.406l-2.188,6.094H469.986z
		 M487.955,195.054l-3.906-12.344h-0.156l-4.219,12.344H487.955z"/>
	<path fill="#FFFFFF" d="M506.861,205.992h-6.25v-28.906h12.344c6.563,0.104,9.895,2.604,10,7.5
		c-0.105,3.75-2.085,6.094-5.938,7.031v0.156c3.228,0.104,4.946,2.241,5.156,6.406c0.103,0.417,0.156,0.729,0.156,0.938
		c0.313,3.438,0.832,5.729,1.563,6.875h-6.719c-0.625-2.5-0.991-5.103-1.094-7.813c-0.21-2.5-1.094-3.75-2.656-3.75h-6.563V205.992z
		 M506.861,189.585h5.156c2.915,0,4.375-1.353,4.375-4.063c0-2.5-1.46-3.696-4.375-3.594h-5.156V189.585z"/>
	<path fill="#FFFFFF" d="M527.174,177.085h19.375v4.844h-13.125v6.719h12.188v4.844h-12.188v7.656h13.594v4.844h-19.844V177.085z"/>
</g>
</svg>
