<?xml version="1.0" encoding="utf-8"?>
<!-- Generator: Adobe Illustrator 16.0.0, SVG Export Plug-In . SVG Version: 6.00 Build 0)  -->
<!DOCTYPE svg PUBLIC "-//W3C//DTD SVG 1.1//EN" "http://www.w3.org/Graphics/SVG/1.1/DTD/svg11.dtd">
<svg version="1.1" id="图层_1" xmlns="http://www.w3.org/2000/svg" xmlns:xlink="http://www.w3.org/1999/xlink" x="0px" y="0px"
	 width="680px" height="680px" viewBox="0 0 680 680" enable-background="new 0 0 680 680" xml:space="preserve">
<g>
	<g id="XMLID_6_">
		<g>
			<path fill="#FFFFFF" d="M665.995,89.955c2.628,6.456-1.356,14.892-3.254,20.065c-2.461,6.675-4.505,12.129-7.592,16.812
				c-38.493,0-76.996,0-115.479,0c-8.156,18.042-15.831,36.574-23.33,55.314c-21.129,0-42.289,0-63.438,0
				c7.634-20.326,14.914-39.932,23.33-59.674c2.742-6.456,4.975-13.63,8.666-18.98C504.17,75.698,556.377,81.82,604.183,81.82
				C619.253,81.82,661.344,78.472,665.995,89.955z"/>
			<path fill="#FFFFFF" d="M260.427,95.377c8.958,8.5,16.592,18.063,13.558,34.697c-3.264,17.948-16.551,37.752-21.692,51.508
				c-23.893-0.344-49.329,0.479-71.021,0.563c2.315-8.687,6.873-18.469,11.378-28.763c1.501-3.4,4.015-6.873,3.253-10.293
				c-1.595-7.363-23.309-5.652-32.527-5.976c-38.086-1.304-79.406,1.45-114.395,0.532c7.655-18.334,15.623-36.396,23.84-54.199
				c-0.386-0.886,1.085-2.357,1.085-1.084c45.084-1.189,91.179,0,138.276,0c9.136,0,19.022-1.21,27.094,0
				C247.474,83.593,255.129,90.34,260.427,95.377z"/>
			<path fill="#FFFFFF" d="M259.342,189.165c24.758,0,49.527,0,74.285,0c-4.901,15.174-13.526,31.318-19.522,47.18
				c-26.135,0.302-52.343-0.616-76.454,0.532C244.512,220.607,251.364,204.338,259.342,189.165z"/>
			<path fill="#FFFFFF" d="M464.833,111.115c1.98,0.156,3.546-0.104,4.881-0.553c-1.21,13.286-9.282,26.218-14.642,38.493
				c-4.87,11.159-9.542,21.744-14.089,32.528c-23.675,0-47.357,0-71.031,0c0.647-2.951,2.606-4.62,3.264-7.603
				c-8.593-2.263-21.149-0.521-31.452-1.084c-1.753,2.617-3.191,5.506-4.339,8.687c-24.936,0-49.881,0-74.817,0
				c14.309-33.028,27.563-67.131,42.821-99.22c33.258,0,69.613,0,104.112,0c3.65,0,10.491-1.95,11.377,3.264
				c-1.908,2.18-4.025,0.98-7.05,1.617c-1.043,2.065-1.597,6.132-0.542,8.666c1.063,2.19,6.561-0.031,7.592,2.18
				c0.396,3.786-4.098,3.244-4.338,7.582c-0.292,5.329,4.328,7.571,11.389,5.976c-1.752,5.131-1.146,10.346,3.253,10.825
				c3.942,0.459,4.912-4.495,8.136-4.317c2.731,0.511,1.126,5.381,2.722,7.05c6.32,2.357,9.73-1.94,10.293-7.05
				c3.744,3.285,10.909,6.998,13.547,1.074C467.096,116.621,464.833,113.68,464.833,111.115z M390.559,131.691
				c-10.492,0-20.973,0-31.453,0c-2.899,4.338-4.934,9.521-6.508,15.184c10.668,0,21.326,0,31.995,0
				C386.533,141.775,389.275,137.468,390.559,131.691z"/>
			<path fill="#FFFFFF" d="M448.574,189.165c58.913,0,117.835,0,176.749,0c-7.187,22.505-21.817,44.291-50.424,47.18
				c-25.75,2.597-62.239,1.355-91.086,0.532c-20.774-0.563-39.432,1.919-47.713-10.825
				C436.383,209.886,443.224,200.271,448.574,189.165z"/>
			<path fill="#FFFFFF" d="M679,189.165c0,15.737,0,31.464,0,47.18c-21.348,1.303-47.858,0.156-68.31,0.532
				c8.302-16.092,16.154-32.632,25.479-47.712C650.446,189.165,664.733,189.165,679,189.165z"/>
			<path fill="#FFFFFF" d="M644.303,144.185c1.022,6.185-4.255,14.861-6.508,20.044c-2.962,6.862-5.392,12.056-8.134,17.917
				c-16.082,0.334-33.612-0.74-48.797,0.532c-1.158-3.859,4.453-9.929,5.976-14.642c-15.372,0-30.733,0-46.095,0
				c4.672-11.243,8.75-23.059,14.1-33.612c23.121,1.658,52.062-2.232,73.732,0C635.115,135.06,643.417,138.793,644.303,144.185z"/>
			<path fill="#FFFFFF" d="M367.782,189.165c23.131,0,46.272,0,69.415,0c-6.164,16.091-13.276,31.203-19.533,47.18
				c-23.497,0-46.993,0-70.489,0C353.922,220.493,360.21,204.192,367.782,189.165z"/>
			<path fill="#FFFFFF" d="M474.594,89.402c0.563,1.45,0.646,3.337,0.542,5.423c-1.938,1.345-5.192,1.345-7.592,2.18
				c-0.365,4.516,3.577,4.745,4.338,8.134c-1.283,0.887-1.543,2.774-2.712,3.796c-2.576,0.063-4.036-1.022-5.965-1.627
				c-3.441,1.043-1.575,5.173-1.074,8.114c-0.428,1.95-2.66,2.065-3.807,3.243c-2.472-0.938-3.641-3.212-5.423-4.86
				c-3.807,0.177-2.711,5.246-4.328,7.603c-1.815,0-3.619,0-5.423,0c-1.105-2.711-0.74-6.862-3.796-7.603
				c-2.524,0.741-3.516,3.003-4.87,4.86c-2.462-0.052-2.848-2.19-5.424-2.148c0.429-2.451,0.919-4.86,1.617-7.039
				c-0.157-1.105-1.471-1.064-1.617-2.169c-2.472,0.073-3.743,1.314-5.965,1.627c-2.116-0.24-2.23-2.493-3.264-3.796
				c3.994-3.243,6.956-10.647-2.711-9.761c0-1.814,0-3.619,0-5.423c2.105-0.97,5.089-1.033,7.05-2.169
				c0.751-4.724-3.087-4.87-4.338-7.603c0.354-1.804,1.7-2.639,2.169-4.338c2.242,0.646,4.714,1.064,7.06,1.627
				c3.213-1.679,0.563-6.049,0-8.667c1.648-0.688,2.711-1.981,4.871-2.18c2.097,1.179,2.848,3.671,5.424,4.349
				c0.438-0.282,0.875-0.563,1.627-0.553c1.752-3.119,0.761-8.969,7.592-7.04c0.97,2.284,1.335,5.172,2.18,7.592
				c4.244,0.292,4.995-2.941,7.571-4.349c2.054,0.136,2.638,1.71,4.338,2.18c-0.188,2.701-1.512,4.266-1.627,7.04
				c0.208,0.709,0.959,0.855,1.095,1.627c2.826-0.219,4.745-1.387,7.582-1.627c0.803,1.199,1.064,2.92,2.169,3.807
				c-0.782,2.826-3.649,3.587-4.881,5.976C467.294,89.141,471.82,88.4,474.594,89.402z M438.813,93.198
				c0.541,9.584,15.152,8.542,14.652-1.063c-0.24-4.359-3.065-8.041-9.771-5.976C440.012,87.306,438.583,89.256,438.813,93.198z"/>
			<path fill="#FFFFFF" d="M148.191,189.165c31.996,1.262,66.328,0.177,99.22,0.552c-10.429,17.041-20.983,39.463-41.747,46.075
				c-9.532,3.056-28.116,1.084-41.747,1.084c-36.97,0-77.288,0.855-112.225,0.563c9.897-29.858,23.497-60.696,35.229-90.564
				c25.123,0,50.246,0,75.369,0C157.859,161.277,152.707,174.887,148.191,189.165z"/>
			<path fill="#FFFFFF" d="M-0.368,188.09c20.597,0,41.215,0,61.812,0c-6.82,15.956-13.099,32.434-20.065,48.254
				c-12.848,0.917-29.43,0.907-42.279,0C-0.545,220.43-1.63,203.097-0.368,188.09z"/>
		</g>
	</g>
	<g>
		<path fill="#FFFFFF" d="M129.82,286.237h24.516v21.741h42.56v22.206h-40.247c6.781,19.122,21.12,34.852,43.022,47.186
			l-14.342,19.428c-15.729-8.95-29.604-22.206-41.634-39.782c-8.325,16.35-22.977,29.605-43.946,39.782
			c0,0.616-5.246-5.862-15.729-19.428c24.056-10.483,38.701-26.211,43.946-47.186h-41.63v-22.206h43.484V286.237z"/>
		<path fill="#FFFFFF" d="M250.094,285.311h23.129v38.856h19.428l-16.189-7.399c5.552-9.251,9.865-18.656,12.953-28.218l19.891,8.79
			c-3.398,10.797-7.401,19.738-12.027,26.827h19.428v23.132h-32.844v23.127c0.303,2.778,2.463,4.015,6.475,3.704
			c3.392-0.926,5.088-2.929,5.088-6.017v-9.712l21.28,5.552v13.416c-0.621,11.714-8.175,17.73-22.667,18.041h-18.967
			c-11.724,3.079-16.652-3.549-14.803-19.894v-28.218h-4.163c-3.702,26.215-16.351,42.71-37.934,49.498l-14.803-17.115
			c16.655-6.167,26.209-16.96,28.682-32.383h-26.832v-23.132h22.206c-4.625-8.63-9.873-17.115-15.728-25.439l17.578-10.177
			c5.855,7.098,11.869,16.038,18.041,26.831l-13.878,8.786h16.654v-38.856H250.094z"/>
		<path fill="#FFFFFF" d="M431.431,288.085v23.132h-42.097l-3.239,13.416h35.619v46.72h14.805v21.745H323.645v-22.671h24.981
			l6.938-23.588h-22.204v-22.206h27.292l3.24-13.416h-35.621v-23.132H431.431z M397.662,346.838h-16.655l-6.938,24.053h23.594
			V346.838z"/>
		<path fill="#FFFFFF" d="M484.628,285.772h26.369c9.251,10.487,24.053,20.053,44.407,28.684l-10.639,20.813
			c-3.702-1.227-8.95-3.539-15.729-6.938v6.013h-19.894v4.63h39.784v20.814h-18.041l8.79,4.625
			c-1.236,3.398-2.935,7.249-5.09,11.563h16.191v19.894H444.381v-20.354h15.269c-0.927-2.463-2.776-6.167-5.553-11.103l9.715-4.625
			h-18.041v-20.814h40.244v-4.63h-20.354v-5.552c-5.551,2.778-10.641,5.091-15.266,6.943l-10.64-20.354
			C460.414,306.436,475.375,296.574,484.628,285.772z M474.452,359.789c0.924,1.236,2.313,3.859,4.163,7.864
			c1.85,3.698,3.237,6.478,4.165,8.325h3.235v-16.189H474.452L474.452,359.789z M498.505,305.665
			c-4.01,3.398-7.098,6.172-9.251,8.325h16.654C503.746,311.837,501.281,309.063,498.505,305.665z M508.684,359.789v16.188h3.7
			c2.153-4.927,4.162-10.327,6.014-16.188H508.684z"/>
	</g>
	<g>
		<path fill="#FFFFFF" d="M85.406,247.675h10.266c9.993,0.109,15.044,5.161,15.154,15.154c-0.11,9.887-5.161,14.885-15.154,14.992
			H85.406V247.675z M91.761,272.77h3.422c5.973,0.219,8.906-3.096,8.799-9.94c0.107-6.951-2.826-10.319-8.799-10.103h-3.422V272.77z
			"/>
		<path fill="#FFFFFF" d="M113.107,277.821l10.917-30.146h7.659l10.592,30.146h-6.518l-2.281-6.355h-11.895l-2.281,6.355H113.107z
			 M131.847,266.414l-4.074-12.873h-0.163l-4.399,12.873H131.847z"/>
		<path fill="#FFFFFF" d="M159.711,266.74v-5.052h12.221v15.155c-2.174,0.652-4.4,0.978-6.681,0.978
			c-1.739,0.216-4.02,0.326-6.844,0.326c-9.235-0.542-13.96-5.647-14.177-15.317c0.216-9.884,4.942-15.154,14.177-15.806
			c9.451,0,14.121,3.259,14.014,9.777h-6.844c0-3.366-2.012-5.052-6.029-5.052c-5.541,0.109-8.367,3.804-8.474,11.081
			c0.107,7.17,2.933,10.811,8.474,10.918c1.629,0,3.529-0.216,5.703-0.652c-0.109,0.109,0,0.109,0.326,0v-6.355L159.711,266.74
			L159.711,266.74z"/>
		<path fill="#FFFFFF" d="M204.359,247.675v18.902c-0.326,7.496-4.672,11.351-13.036,11.569
			c-8.583-0.219-12.982-4.074-13.199-11.569v-18.902h6.518v16.458c-0.11,3.585,0.326,6.029,1.303,7.333
			c1.085,1.522,2.877,2.281,5.377,2.281c2.498,0,4.237-0.759,5.214-2.281c0.978-1.304,1.411-3.748,1.304-7.333v-16.458H204.359
			L204.359,247.675z"/>
		<path fill="#FFFFFF" d="M207.944,277.821l10.917-30.146h7.659l10.592,30.146h-6.518l-2.281-6.355h-11.895l-2.281,6.355H207.944z
			 M226.683,266.414l-4.074-12.873h-0.163l-4.399,12.873H226.683z"/>
		<path fill="#FFFFFF" d="M258.132,277.821L246.4,252.727l-0.163,0.163v24.932h-6.029v-30.146h9.614l11.406,23.791l0.163-0.163
			v-23.628h6.029v30.146L258.132,277.821L258.132,277.821z"/>
		<path fill="#FFFFFF" d="M286.975,266.74v-5.052h12.221v15.155c-2.174,0.652-4.4,0.978-6.681,0.978
			c-1.739,0.216-4.02,0.326-6.844,0.326c-9.235-0.542-13.96-5.647-14.177-15.317c0.216-9.884,4.942-15.154,14.177-15.806
			c9.451,0,14.121,3.259,14.014,9.777h-6.844c0-3.366-2.012-5.052-6.029-5.052c-5.541,0.109-8.367,3.804-8.474,11.081
			c0.107,7.17,2.933,10.811,8.474,10.918c1.629,0,3.529-0.216,5.703-0.652c-0.109,0.109,0,0.109,0.326,0v-6.355L286.975,266.74
			L286.975,266.74z"/>
		<path fill="#FFFFFF" d="M316.794,277.821v-30.146h6.355v11.896h11.406v-11.896h6.518v30.146h-6.355v-13.199h-11.569v13.199
			H316.794z"/>
		<path fill="#FFFFFF" d="M344.333,277.821l10.917-30.146h7.659l10.592,30.146h-6.519l-2.28-6.355h-11.896l-2.281,6.355H344.333z
			 M363.072,266.414l-4.074-12.873h-0.163l-4.399,12.873H363.072z"/>
		<path fill="#FFFFFF" d="M382.789,277.821h-6.518v-30.146h12.873c6.844,0.109,10.318,2.717,10.429,7.822
			c-0.109,3.911-2.175,6.355-6.192,7.333v0.163c3.366,0.109,5.159,2.337,5.377,6.681c0.107,0.435,0.163,0.761,0.163,0.978
			c0.326,3.585,0.868,5.976,1.629,7.17h-7.007c-0.652-2.607-1.034-5.321-1.141-8.147c-0.219-2.607-1.142-3.911-2.771-3.911h-6.844
			L382.789,277.821L382.789,277.821z M382.789,260.711h5.377c3.04,0,4.563-1.411,4.563-4.237c0-2.607-1.522-3.854-4.563-3.748
			h-5.377V260.711z"/>
		<path fill="#FFFFFF" d="M404.298,247.675h10.267c9.992,0.109,15.044,5.161,15.153,15.154c-0.109,9.887-5.161,14.885-15.153,14.992
			h-10.267V247.675z M410.652,272.77h3.423c5.973,0.219,8.906-3.096,8.799-9.94c0.107-6.951-2.826-10.319-8.799-10.103h-3.423
			V272.77z"/>
		<path fill="#FFFFFF" d="M449.109,247.675h7.333l5.214,22.65h0.163l4.889-22.65h6.029l-7.659,30.146h-7.169l-5.377-22.976
			l-5.866,22.976h-7.333L432,247.675h6.681l4.563,22.65L449.109,247.675z"/>
		<path fill="#FFFFFF" d="M473.714,277.821l10.917-30.146h7.659l10.592,30.146h-6.518l-2.281-6.355h-11.895l-2.281,6.355H473.714z
			 M492.454,266.414l-4.074-12.873h-0.163l-4.398,12.873H492.454z"/>
		<path fill="#FFFFFF" d="M512.17,277.821h-6.518v-30.146h12.872c6.845,0.109,10.319,2.717,10.43,7.822
			c-0.109,3.911-2.174,6.355-6.192,7.333v0.163c3.366,0.109,5.159,2.337,5.377,6.681c0.107,0.435,0.163,0.761,0.163,0.978
			c0.326,3.585,0.868,5.976,1.629,7.17h-7.007c-0.651-2.607-1.034-5.321-1.141-8.147c-0.22-2.607-1.142-3.911-2.771-3.911h-6.844
			L512.17,277.821L512.17,277.821z M512.17,260.711h5.377c3.04,0,4.563-1.411,4.563-4.237c0-2.607-1.523-3.854-4.563-3.748h-5.377
			V260.711z"/>
		<path fill="#FFFFFF" d="M533.354,247.675h20.205v5.052h-13.688v7.007h12.71v5.051h-12.71v7.985h14.176v5.051h-20.693V247.675z"/>
	</g>
</g>
<g>
	<path fill="#FFFFFF" d="M73.882,617.491c-0.762,2.648-2.835,3.97-6.238,3.97s-5.299-1.506-5.671-4.537
		c0-1.887,0.567-3.97,1.701-6.238l31.758-85.633c1.887-5.29,4.909-7.938,9.073-7.938c4.537,0,7.559,2.648,9.074,7.938l32.325,85.633
		c1.134,2.27,1.701,4.352,1.701,6.238c0,3.03-2.083,4.537-6.238,4.537c-3.03,0-5.104-1.32-6.238-3.97l-6.238-18.714H80.688
		L73.882,617.491z M105.073,531.857h-0.567l-19.849,56.144h40.265L105.073,531.857z"/>
	<path fill="#FFFFFF" d="M157.814,515.979c0-4.536,2.073-6.805,6.238-6.805c4.156,0,6.238,2.269,6.238,6.805v37.996h0.567
		c4.909-7.177,11.714-10.774,20.416-10.774c20.416,1.515,31.377,14.745,32.892,39.696c-1.515,24.581-12.477,37.431-32.892,38.563
		c-10.208,0-17.013-3.208-20.416-9.641h-0.567v3.97c0,3.784-2.083,5.671-6.238,5.671c-4.165,0-6.238-1.887-6.238-5.671V515.979z
		 M190.14,611.252c13.61-0.753,20.788-10.208,21.55-28.354c-0.762-18.147-7.939-27.594-21.55-28.355
		c-13.238,0.762-20.23,10.208-20.983,28.355C169.91,601.044,176.901,610.5,190.14,611.252z"/>
	<path fill="#FFFFFF" d="M268.4,543.2c20.788,1.515,32.13,14.745,34.027,39.697c-1.896,24.581-13.239,37.43-34.027,38.563
		c-21.178-0.753-32.52-13.61-34.026-38.563C235.88,557.944,247.223,544.715,268.4,543.2z M268.4,611.252
		c13.229-0.372,20.221-9.827,20.983-28.354c-0.762-18.521-7.754-27.975-20.983-28.355c-13.61,0.762-20.797,10.208-21.55,28.355
		C247.604,601.044,254.79,610.5,268.4,611.252z"/>
	<path fill="#FFFFFF" d="M315.471,550.005c0-4.537,2.073-6.805,6.238-6.805c4.156,0,6.238,2.269,6.238,6.805v40.832
		c0,13.611,6.043,20.416,18.146,20.416c11.715,0,17.58-6.805,17.58-20.416v-40.832c0.372-4.156,2.641-6.424,6.805-6.805
		c4.156,0,6.238,2.269,6.238,6.805v41.399c-0.381,19.663-10.589,29.685-30.624,30.057c-20.044-0.372-30.252-10.394-30.624-30.057
		v-41.399H315.471z"/>
	<path fill="#FFFFFF" d="M397.134,527.321c0-4.537,2.074-6.807,6.238-6.807c4.155,0.381,6.424,2.649,6.805,6.807v17.013h5.104
		c4.156,0,6.237,1.896,6.237,5.671c0,3.403-2.083,5.104-6.237,5.104h-5.104v60.681c0,3.784-2.269,5.671-6.805,5.671
		c-4.165,0-6.238-1.887-6.238-5.671v-60.681h-5.104c-4.165,0-6.238-1.701-6.238-5.104c0-3.774,2.074-5.671,6.238-5.671h5.104
		V527.321z"/>
	<path fill="#FFFFFF" d="M466.889,523.918c0-4.537,2.073-6.805,6.238-6.805c4.156,0,6.238,2.268,6.238,6.805v61.815
		c0.753,16.26,10.013,24.767,27.788,25.52c17.386-0.753,26.459-9.26,27.221-25.52v-61.815c0-4.537,2.074-6.805,6.238-6.805
		c4.156,0,6.237,2.268,6.237,6.805v56.711c0,27.221-13.238,40.832-39.697,40.832c-26.85,0-40.266-13.609-40.266-40.832v-56.711
		H466.889z"/>
	<path fill="#FFFFFF" d="M588.25,543.2c15.498,1.515,24.004,6.052,25.521,13.609c-0.382,3.784-2.269,5.672-5.672,5.672
		c-1.515,0-3.401-0.939-5.671-2.835c-4.537-3.403-9.269-5.104-14.178-5.104c-8.702,0.381-13.238,3.598-13.611,9.641
		c0,3.784,5.671,7.939,17.014,12.478c13.61,3.03,21.735,10.402,24.386,22.117c-0.762,14.744-10.208,22.312-28.355,22.684
		c-16.26-0.753-25.9-5.29-28.922-13.61c0.372-3.774,2.074-5.856,5.104-6.237c1.506,0,3.774,1.134,6.805,3.401
		c6.043,4.165,11.91,6.238,17.581,6.238c9.074-0.372,13.982-3.774,14.745-10.208c0-4.537-5.866-9.26-17.58-14.178
		c-13.239-3.774-20.983-10.961-23.251-21.55C563.297,551.706,571.99,544.334,588.25,543.2z"/>
</g>
</svg>
