<?xml version="1.0" encoding="utf-8"?>
<!-- Generator: Adobe Illustrator 16.0.0, SVG Export Plug-In . SVG Version: 6.00 Build 0)  -->
<!DOCTYPE svg PUBLIC "-//W3C//DTD SVG 1.1//EN" "http://www.w3.org/Graphics/SVG/1.1/DTD/svg11.dtd">
<svg version="1.1" id="图层_1" xmlns="http://www.w3.org/2000/svg" xmlns:xlink="http://www.w3.org/1999/xlink" x="0px" y="0px"
	 width="680px" height="680px" viewBox="0 0 680 680" enable-background="new 0 0 680 680" xml:space="preserve">
<g>
	<path fill="#FFFFFF" d="M63.842,520.802c-0.394-1.171-0.586-1.556-0.586-1.171c-1.171-2.727-2.151-4.484-2.929-5.271
		c-1.959-3.515-1.373-6.242,1.757-8.2c3.121-1.557,6.049-0.777,8.786,2.343c1.171,1.958,3.313,6.058,6.443,12.299h58.57
		c3.12,0,4.685,1.757,4.685,5.271c0,3.906-1.565,5.856-4.685,5.856H5.271c-3.13,0-4.887-1.95-5.271-5.856
		c0.384-3.515,2.142-5.271,5.271-5.271H63.842L63.842,520.802z M121.24,553.601c10.149-0.777,14.835,3.717,14.057,13.473v69.112
		c0.778,14.441-9.573,18.156-31.042,11.13c-3.514-1.173-4.887-3.517-4.1-7.029c1.171-3.515,3.514-4.887,7.028-4.101
		c12.886,4.686,18.542,3.706,16.986-2.929v-63.841c0-3.514-1.373-5.07-4.101-4.686H22.257c-4.302-0.385-6.25,1.373-5.857,5.271
		v74.97c0,3.12-1.757,4.878-5.271,5.271c-3.908-0.395-5.857-2.151-5.857-5.271v-78.483c-0.787-9.371,3.313-13.663,12.3-12.885
		h25.771c-0.788-1.557-1.756-4.293-2.928-8.2c-0.787-1.557-1.373-2.929-1.757-4.101c-1.171-3.514,0-6.24,3.514-8.199
		c3.515-0.778,6.049,0.585,7.614,4.1c0.778,1.958,0.97,2.544,0.586,1.757c2.343,6.646,4.292,11.522,5.857,14.644H86.1
		c2.727-4.293,5.071-9.563,7.029-15.814c1.555-3.898,4.1-5.271,7.614-4.1c3.514,1.564,4.483,4.302,2.928,8.199
		c-0.787,2.344-2.343,6.06-4.686,11.128c0-0.384-0.201-0.191-0.586,0.585L121.24,553.601L121.24,553.601z M26.357,597.529
		c-3.908,1.564-6.836,0.788-8.786-2.344c-1.564-3.514-0.586-6.048,2.928-7.613c13.27-5.857,25.186-12.685,35.728-20.499
		c3.121-2.345,5.857-2.143,8.2,0.585c1.949,2.735,1.555,5.473-1.172,8.2C53.885,583.28,41.585,590.501,26.357,597.529z
		 M93.712,591.672c8.2-0.384,12.099,2.929,11.714,9.957v25.186c0.385,6.635-3.13,9.756-10.543,9.371H46.856
		c-7.815,0.385-11.33-2.149-10.543-7.614v-27.528c-0.393-6.635,3.122-9.755,10.543-9.371H93.712z M93.712,606.314
		c0-2.728-1.373-4.101-4.1-4.101h-38.07c-2.342,0-3.514,1.171-3.514,3.513v16.986c0,2.342,1.172,3.514,3.514,3.514h38.071
		c2.728,0,4.1-1.362,4.1-4.1L93.712,606.314L93.712,606.314z M120.069,598.114c-2.736,2.343-5.665,1.958-8.785-1.171
		c-8.594-8.199-16.986-14.835-25.186-19.914c-3.13-2.345-3.907-5.071-2.343-8.201c1.95-2.729,4.686-3.12,8.2-1.171
		c10.928,7.027,20.105,14.258,27.529,21.671C122.211,592.459,122.412,595.388,120.069,598.114z"/>
	<path fill="#FFFFFF" d="M199.725,577.615c8.199-0.778,11.906,2.735,11.128,10.542v43.928c0.778,7.806-2.929,11.32-11.128,10.542
		h-35.728c-8.593,0.777-12.501-2.736-11.714-10.542v-44.514c-0.394-7.029,2.928-10.341,9.957-9.957L199.725,577.615L199.725,577.615
		z M274.694,553.601c0.778,7.815-2.736,11.33-10.542,10.544h-92.541c-7.029,0.394-10.351-3.121-9.957-10.544v-29.284
		c-0.394-8.201,3.313-11.907,11.128-11.129h90.784c8.2-0.778,11.906,3.13,11.128,11.714V553.601z M163.997,627.985
		c-0.394,2.736,0.97,4.1,4.1,4.1h26.357c3.514,0,5.07-1.556,4.685-4.686v-35.729c0-1.949-1.171-2.928-3.515-2.928h-27.528
		c-2.342,0-3.715,1.17-4.1,3.513L163.997,627.985L163.997,627.985z M173.368,548.916c0,2.736,1.556,4.1,4.686,4.1h79.07
		c4.292,0.394,6.241-1.363,5.856-5.271v-19.329c0-2.727-1.372-4.1-4.1-4.1h-81.412c-3.13-0.386-4.494,1.171-4.1,4.685V548.916z
		 M284.651,631.5c0.778,8.2-2.736,11.906-10.543,11.128h-38.07c-7.815,0.384-11.522-3.13-11.128-10.542v-43.341
		c-0.394-7.808,3.313-11.514,11.128-11.129h38.656c7.029-0.386,10.341,2.928,9.958,9.957L284.651,631.5L284.651,631.5z
		 M236.624,628.571c-0.394,2.342,0.97,3.515,4.101,3.515h28.113c3.12,0,4.484-1.172,4.1-3.515v-36.313
		c0-2.343-1.172-3.513-3.515-3.513h-28.699c-2.737,0-4.101,1.372-4.101,4.099L236.624,628.571L236.624,628.571z"/>
	<path fill="#FFFFFF" d="M358.45,528.416c1.171-11.714,7.028-18.157,17.569-19.328h33.387c6.634,0.395,9.955,4.1,9.955,11.129
		c-0.393,6.645-3.906,10.157-10.541,10.542h-18.743c-6.25,0.395-9.572,4.302-9.958,11.714v96.642
		c-0.393,6.242-4.301,9.563-11.714,9.958c-6.645-0.788-9.956-4.303-9.956-10.543L358.45,528.416L358.45,528.416z M375.436,540.13
		c1.172-8.584,4.685-13.27,10.543-14.057h21.67c3.514-0.384,5.271-2.535,5.271-6.443c-0.395-3.515-2.343-5.463-5.857-5.856h-29.285
		c-8.594,0.786-13.471,6.059-14.643,15.813v106.599c0,3.898,1.758,6.241,5.271,7.028c4.686,0,7.029-2.344,7.029-7.028V540.13z"/>
	<path fill="#FFFFFF" d="M476.762,641.457c0,3.514-1.758,5.464-5.271,5.857c-3.909-0.394-5.858-2.344-5.858-5.857v-76.729
		c-3.129,4.687-6.441,9.372-9.956,14.059c-3.13,3.129-6.059,3.513-8.786,1.171c-1.959-2.343-1.959-5.272,0-8.786
		c14.834-18.743,24.206-38.071,28.113-57.984c1.172-4.686,3.707-6.827,7.614-6.442c3.515,1.563,4.687,4.887,3.515,9.957
		c-3.515,14.45-6.645,23.629-9.371,27.528V641.457z M582.772,543.645c3.516,0,5.465,1.959,5.858,5.856
		c-0.394,3.908-2.343,5.857-5.858,5.857h-42.756c3.516,0.393,5.071,2.544,4.688,6.442v61.498c0,5.475,2.535,8.2,7.614,8.2h16.398
		c5.858-0.383,9.17-6.049,9.957-16.985c0.386-4.292,2.345-6.442,5.858-6.442c3.514,0.393,5.271,2.736,5.271,7.028
		c0,18.743-6.836,27.721-20.5,26.942H546.46c-8.987-0.394-13.471-5.666-13.471-15.813v-64.428c0-3.515,1.757-5.656,5.271-6.442
		h-14.642c-5.08,37.101-15.229,65.214-30.457,84.341c-3.514,3.897-6.835,5.07-9.957,3.514c-2.736-1.959-2.736-5.08,0-9.371
		c15.228-19.914,24.792-46.068,28.7-78.483h-21.671c-3.515,0-5.474-1.95-5.856-5.857c0.384-3.897,2.342-5.856,5.856-5.856h23.428
		c1.555-9.756,2.343-20.105,2.343-31.041c0.384-3.516,2.343-5.272,5.856-5.272c3.898,0.394,5.856,2.343,5.856,5.857
		c0,1.172-0.202,3.321-0.585,6.442c-0.787,9.766-1.564,17.772-2.343,24.014H582.772z M570.474,529.587
		c1.949,3.13,1.758,5.857-0.586,8.2c-3.129,1.959-5.856,1.564-8.199-1.172c-2.736-3.12-6.836-7.221-12.3-12.299
		c-2.343-2.729-2.545-5.464-0.586-8.201c2.729-2.342,5.464-2.535,8.2-0.585C563.638,522.175,568.132,526.86,570.474,529.587z"/>
	<path fill="#FFFFFF" d="M680,630.329c-1.171,11.32-7.229,17.571-18.157,18.743h-32.799c-6.644-0.395-9.957-4.102-9.957-11.129
		c0.385-6.242,3.899-9.563,10.543-9.957h18.743c6.241-0.386,9.563-4.292,9.957-11.715v-97.226c0.385-5.856,4.1-9.17,11.128-9.957
		c7.028,1.171,10.543,4.687,10.543,10.542L680,630.329L680,630.329z M663.015,619.2c-1.172,8.2-4.887,12.501-11.129,12.886h-21.085
		c-3.514,0.385-5.473,2.535-5.856,6.443c0.384,3.514,2.343,5.463,5.856,5.855h29.871c8.584-0.787,13.471-5.855,14.644-15.228
		V521.973c0-3.514-1.758-5.856-5.271-7.027c-4.686,0-7.028,2.342-7.028,7.027L663.015,619.2L663.015,619.2z"/>
</g>
<g id="XMLID_6_">
	<g>
		<path fill="#FFFFFF" d="M300.815,255.895c3.058,4.081,4.677,9.561,6.042,15.288c6.792-2.799,10.067-9.02,15.711-12.936
			C314.532,258.987,306.519,253.519,300.815,255.895z M393.874,72.44c-2.515,0.341-7.892-0.471-8.46,0
			c-26.178,21.461-29.537,80.649-45.925,110.543c8.835,0.423,15.155,3.281,24.171,3.528c5.559-17.828,14.176-36.55,20.545-55.271
			C390.453,112.87,400.521,92.161,393.874,72.44z M273.018,247.663c-7.433-14.265-19.651-36.292-33.839-35.28
			c-7.034,0.505-14.152,9.243-14.503,15.288c-0.701,11.89,14.902,31.282,21.754,39.984c10.224,12.983,20.328,22.744,35.048,28.224
			C293.395,285.471,280.958,262.892,273.018,247.663z M256.098,41.864c34.782,26.531,46.65,75.346,62.845,119.951
			c9.076-20.38,17.342-42.653,27.796-64.679c8.823-18.593,23.229-55.213,50.759-48.216c53.587,13.63-2.719,112.684-9.668,142.295
			c25.814,6.397,37.73,26.46,39.882,55.271c6.756,90.269-57.286,161.829-152.278,152.879
			c-56.826-5.352-111.997-55.13-106.353-111.719c2.091-20.991,14.043-36.985,36.257-41.16
			c-15.965-32.081,12.992-67.514,45.925-55.271c-3.469-30.129-36.825-81.202-32.631-119.951
			C220.458,54.376,232.58,38.936,256.098,41.864z M211.382,266.478c-9.644-0.141-18.612,13.512-19.337,25.872
			c-1.462,24.99,16.799,46.734,30.214,58.799c16.328,14.677,39.737,24.425,64.053,25.872
			c72.937,4.339,121.399-56.495,117.23-128.184c-0.399-6.868-0.967-18.722-6.043-25.872
			c-10.756-15.147-84.296-27.318-113.604-21.168c-5.136,41.9,53.382,31.917,90.642,36.456
			c20.316,18.969-17.536,22.956-31.422,31.752c-9.282,5.88-24.256,22.05-29.005,32.928c-9.56,21.909,5.801,35.187,1.208,58.8
			c-17.041-1.341-23.482-13.665-26.588-27.048c-1.015-4.363,2.127-16.287-7.251-15.288c-5.306-0.977-2.236,4.916-2.417,5.88
			c-7.735,40.854-55.497,18.557-70.096,0c-4.291-5.457-17.149-34.433-3.625-36.456c2.417-0.365,18.539,20.273,20.545,22.344
			c7.603,7.855,15.01,18.393,27.796,9.408c-0.375-10.737-7.831-20.885-15.711-30.576
			C233.341,284.306,219.938,266.607,211.382,266.478z M244.013,67.736c-4.773,41.912,20.123,75.263,29.005,111.719
			c7.892-4.328,18.128,0.764,26.588-2.352c-10.357-22.803-20.69-61.704-32.631-89.375C263.168,78.919,252.388,55.611,244.013,67.736
			z"/>
	</g>
</g>
</svg>
