<?xml version="1.0" encoding="utf-8"?>
<!-- Generator: Adobe Illustrator 16.0.0, SVG Export Plug-In . SVG Version: 6.00 Build 0)  -->
<!DOCTYPE svg PUBLIC "-//W3C//DTD SVG 1.1//EN" "http://www.w3.org/Graphics/SVG/1.1/DTD/svg11.dtd">
<svg version="1.1" id="图层_1" xmlns="http://www.w3.org/2000/svg" xmlns:xlink="http://www.w3.org/1999/xlink" x="0px" y="0px"
	 width="680px" height="680px" viewBox="0 0 680 680" enable-background="new 0 0 680 680" xml:space="preserve">
<g>
	<path fill="#FFFFFF" d="M28.033,641.544c0,3.906-1.761,5.868-5.281,5.868c-3.521-0.395-5.282-2.549-5.282-6.455v-62.793
		c-1.568,3.915-3.521,7.437-5.868,10.563c-2.742,3.521-5.869,4.311-9.389,2.348c-2.742-2.348-2.935-5.475-0.587-9.39
		c13.295-20.337,22.299-43.224,26.994-68.658c1.174-4.302,3.713-6.255,7.629-5.868c3.521,1.173,4.887,4.106,4.107,8.802
		c-2.741,12.525-6.849,26.408-12.323,41.665V641.544z M98.453,520.069c5.474,12.131,18.577,27.194,39.318,45.186
		c3.126,2.347,3.713,5.483,1.76,9.389c-2.347,2.742-5.281,2.742-8.802,0c-21.915-20.337-35.21-35.209-39.904-44.599
		c-3.136-4.694-5.089-7.042-5.869-7.042c-0.394,0-2.155,2.155-5.282,6.455c-5.483,11.737-18.778,26.215-39.904,43.426
		c-3.136,1.962-5.868,1.375-8.215-1.761c-1.568-3.521-0.789-6.455,2.347-8.802c19.558-15.257,32.074-29.341,37.557-42.251
		c5.869-9.391,10.361-14.084,13.497-14.084C88.477,505.985,92.97,510.679,98.453,520.069z M65.003,616.309
		c-2.742,10.959-8.023,20.34-15.844,28.17c-3.136,2.732-5.868,2.935-8.216,0.588c-2.741-3.137-2.934-6.264-0.587-9.39
		c7.821-7.042,12.709-14.862,14.671-23.476c1.953-7.427,2.348-21.905,1.174-43.425c0-3.521,1.953-5.667,5.868-6.455
		c3.521,0.394,5.474,2.347,5.868,5.868C68.717,589.314,67.736,605.36,65.003,616.309z M113.71,641.544
		c0,3.521-1.962,5.667-5.868,6.455c-3.521-0.396-5.483-2.347-5.868-5.868v-71.596c0-4.694,1.953-7.234,5.868-7.628
		c3.521,0.394,5.474,2.742,5.868,7.042V641.544L113.71,641.544z"/>
	<path fill="#FFFFFF" d="M180.021,538.847h10.563c5.868,3.521,5.868,7.244,0,11.149h-10.563c4.695,5.869,9.582,12.718,14.671,20.539
		c1.559,2.742,1.366,5.282-0.587,7.629c-3.136,1.962-5.483,1.761-7.042-0.587c-0.788-1.173-1.567-2.54-2.347-4.107
		c-2.348-3.905-3.916-6.254-4.695-7.042v73.942c0,3.127-1.76,4.887-5.281,5.282c-3.915-0.396-5.868-2.155-5.868-5.282v-70.422
		c-3.136,8.609-7.831,17.604-14.084,26.994c-2.347,3.136-5.089,3.521-8.216,1.174c-1.962-2.347-1.962-5.281,0-8.802
		c12.122-17.605,19.164-30.708,21.126-39.318h-13.497c-3.136,0-4.694-1.953-4.694-5.868c0-3.521,1.559-5.281,4.694-5.281h14.671
		v-27.581c3.906-5.867,7.629-5.867,11.149,0V538.847z M268.046,516.547c10.169,0,13.103,4.896,8.803,14.671
		c-7.831,14.479-16.046,25.437-24.647,32.862c8.995,6.263,19.558,11.544,31.689,15.845c4.3,1.962,6.061,4.694,5.281,8.215
		c-1.568,3.521-4.694,4.695-9.389,3.521c-14.084-5.08-26.407-11.535-36.97-19.365c-12.525,8.216-27.196,14.671-44.012,19.365
		c-3.521,0.789-6.07-0.587-7.628-4.108c-0.789-3.521,0.586-5.867,4.107-7.042c12.122-2.731,24.647-8.407,37.557-17.019
		c-8.61-7.427-14.67-15.057-18.192-22.886c-2.347,4.309-4.896,8.021-7.629,11.148c-3.521,3.521-6.849,4.108-9.976,1.761
		c-2.348-2.348-2.155-5.474,0.587-9.39c7.042-8.995,12.516-19.75,16.431-32.275c1.559-4.3,4.301-6.061,8.216-5.28
		c3.906,1.173,5.281,3.915,4.108,8.215c0,0.394-0.202,0.98-0.587,1.76h42.251V516.547z M277.436,630.395
		c0,5.475-0.981,9.188-2.935,11.15c-1.567,1.56-5.676,2.347-12.323,2.347H219.34c-10.563,1.175-15.459-3.328-14.67-13.497V606.92
		c0-6.254,1.173-10.563,3.521-12.91c1.953-1.953,6.253-2.935,12.91-2.935h41.078c10.948-0.779,16.037,3.916,15.258,14.084
		L277.436,630.395L277.436,630.395z M221.1,602.225c-3.915,0-5.868,1.962-5.868,5.868v21.128c0,2.348,1.559,3.521,4.695,3.521
		h41.078c2.732,0,4.301-1.173,4.695-3.521v-22.889c0-2.732-1.375-4.108-4.108-4.108L221.1,602.225L221.1,602.225z M221.1,527.697
		v0.587c-0.394,0.394-0.587,0.789-0.587,1.173c6.254,10.958,13.497,19.953,21.713,26.994c7.821-6.647,14.469-14.67,19.952-24.061
		c0.779-1.953,0.972-3.127,0.587-3.521c0-0.78-0.981-1.174-2.934-1.174L221.1,527.697L221.1,527.697z"/>
	<path fill="#FFFFFF" d="M357.831,526.524c1.174-11.737,7.042-18.192,17.604-19.365h33.448c6.648,0.394,9.978,4.106,9.978,11.148
		c-0.396,6.657-3.916,10.179-10.563,10.563H389.52c-6.263,0.394-9.591,4.309-9.976,11.737v96.828
		c-0.394,6.253-4.31,9.582-11.737,9.977c-6.656-0.789-9.976-4.311-9.976-10.563V526.524L357.831,526.524z M374.85,538.26
		c1.174-8.601,4.694-13.295,10.563-14.084h21.712c3.521-0.385,5.282-2.54,5.282-6.455c-0.396-3.521-2.348-5.474-5.869-5.868h-29.341
		c-8.61,0.789-13.497,6.07-14.671,15.845v106.805c0,3.906,1.761,6.253,5.281,7.042c4.694,0,7.041-2.348,7.041-7.042V538.26H374.85z"
		/>
	<path fill="#FFFFFF" d="M474.022,642.131c0,3.126-1.76,4.694-5.281,4.694c-3.915,0-5.868-1.568-5.868-4.694v-82.158
		c-0.788,3.521-3.136,7.628-7.042,12.323c-2.741,3.521-5.676,4.31-8.802,2.347c-2.348-2.347-2.55-5.474-0.587-9.389
		c11.736-17.604,20.145-35.595,25.233-53.988c1.174-3.127,3.906-4.492,8.215-4.106c3.126,1.173,4.3,3.521,3.521,7.042
		c-3.521,12.524-6.657,21.328-9.39,26.408V642.131z M584.935,553.518c3.127,0,4.887,1.761,5.28,5.281
		c-0.394,3.915-2.153,5.868-5.28,5.868h-33.449c7.042,38.729,15.056,60.647,24.06,65.727c1.953,0,3.127-0.972,3.521-2.934
		c0.385-1.174,0.972-7.427,1.76-18.781c0.385-3.126,2.347-4.694,5.869-4.694c3.521,0.395,5.28,2.348,5.28,5.868
		c-0.789,23.476-5.28,35.212-13.496,35.212c-16.826-2.347-30.131-29.142-39.904-80.397H502.19v57.512
		c0,2.348,1.174,3.136,3.521,2.348c8.215-4.695,15.844-10.565,22.886-17.607c3.127-2.732,6.063-2.732,8.803,0
		c2.349,2.741,2.146,5.676-0.586,8.802c-9.005,8.219-19.365,15.453-31.103,21.715c-9.39,4.695-14.286,1.953-14.671-8.215V528.284
		c-0.395-7.821,4.694-11.737,15.258-11.737c29.728-0.385,53.199-1.953,70.419-4.694c4.302-0.385,6.84,1.175,7.629,4.694
		c0.386,3.521-1.567,5.676-5.868,6.455c-10.957,1.568-21.327,2.549-31.102,2.936c0,4.693,0.587,13.111,1.76,25.232
		c-0.394-1.174-0.394-0.385,0,2.348H584.935z M502.19,553.518h35.21c-0.789-6.647-1.762-15.643-2.935-26.993
		c-15.652,0.394-23.868,0.587-24.646,0.587c-5.09-0.387-7.629,1.173-7.629,4.693V553.518z M541.508,624.526
		c5.474,6.253,8.602,10.168,9.39,11.736c1.952,3.521,1.559,6.455-1.175,8.803c-3.136,1.952-5.868,1.365-8.215-1.762
		c-0.789-1.173-2.347-3.136-4.694-5.868c-2.741-3.914-4.503-6.262-5.281-7.041c-2.349-3.127-2.349-5.868,0-8.216
		c3.127-1.953,6.061-1.559,8.802,1.173C541.114,624.526,541.508,624.92,541.508,624.526z"/>
	<path fill="#FFFFFF" d="M680,628.634c-1.174,11.342-7.244,17.604-18.192,18.778h-32.861c-6.657-0.395-9.977-4.108-9.977-11.149
		c0.385-6.254,3.906-9.582,10.563-9.977h18.778c6.254-0.385,9.582-4.3,9.977-11.739v-97.414c0.385-5.868,4.107-9.188,11.148-9.976
		C676.479,508.33,680,511.851,680,517.72V628.634z M662.981,617.482c-1.174,8.218-4.896,12.526-11.149,12.912h-21.126
		c-3.521,0.386-5.482,2.54-5.868,6.455c0.386,3.521,2.349,5.475,5.868,5.869h29.929c8.602-0.789,13.497-5.869,14.67-15.258V520.069
		c0-3.521-1.76-5.869-5.281-7.042c-4.694,0-7.042,2.347-7.042,7.042V617.482L662.981,617.482z"/>
</g>
<g id="XMLID_6_">
	<g>
		<path fill="#FFFFFF" d="M444.731,33.869c-7.121,27.34-25.429,51.278-39.145,76.781c-14.062,26.166-26.647,52.783-40.647,78.286
			c19.631,0.949,43.086-1.927,60.22,1.506c5.088,8.009,3.493,28.891,1.505,39.143c-23.697,3.402-53.611,0.587-79.792,1.505
			c-3.462,4.562-0.527,15.537-1.505,22.583c26.136,0.979,56.17-1.958,79.792,1.505c4.44,7.723,5.043,31.541,0,39.143
			c-23.622,3.478-53.656,0.542-79.792,1.505c-0.979,29.628,1.972,63.202-1.506,90.331c-12.767,4.908-44.427,4.908-57.208,0
			c-3.478-26.632-0.527-59.693-1.505-88.825c-23.11-4.486-56.652,1.46-79.792-3.011c-2.469-9.801-2.469-29.342,0-39.143
			c23.215-3.388,52.603-0.587,78.286-1.505c3.478-4.547,0.542-15.522,1.506-22.583c-26.121-0.963-56.156,1.972-79.792-1.505
			c-2.469-9.801-2.469-29.342,0-39.143c17.268-3.313,40.513-0.647,60.22-1.506c-19.782-39.926-44.232-79.28-66.242-118.935
			c-6.579-11.848-18.187-26.226-13.55-40.649c17.178-2.409,43.058-2.409,60.22,0c23.622,48.146,50.194,93.342,70.759,144.529
			c24.78-46.475,42.154-100.373,69.252-144.529C402.004,28.555,435.728,22.713,444.731,33.869z"/>
	</g>
</g>
</svg>
