<?xml version="1.0" encoding="utf-8"?>
<!-- Generator: Adobe Illustrator 16.0.0, SVG Export Plug-In . SVG Version: 6.00 Build 0)  -->
<!DOCTYPE svg PUBLIC "-//W3C//DTD SVG 1.1//EN" "http://www.w3.org/Graphics/SVG/1.1/DTD/svg11.dtd">
<svg version="1.1" id="图层_1" xmlns="http://www.w3.org/2000/svg" xmlns:xlink="http://www.w3.org/1999/xlink" x="0px" y="0px"
	 width="680px" height="680px" viewBox="0 0 680 680" enable-background="new 0 0 680 680" xml:space="preserve">
<g>
	<path fill="#FFFFFF" d="M46.299,511.723c6.958,0,10.436,3.679,10.436,11.017V624.78c0,16.232-8.316,21.062-24.93,14.494
		c-3.479-1.55-5.027-3.867-4.637-6.958c1.158-3.099,3.478-4.249,6.957-3.479c8.497,2.701,12.366,1.541,11.596-3.478v-31.889H24.847
		c-0.39,20.872-2.899,35.366-7.537,43.483c-1.938,3.479-4.837,4.828-8.697,4.058c-3.478-1.549-4.448-4.257-2.898-8.116
		c3.859-8.116,6.178-16.614,6.957-25.511c0.77-4.638,1.16-10.047,1.16-16.232c0.38-5.799,0.58-14.686,0.58-26.67v-42.905
		c0.38-6.178,4.059-9.467,11.016-9.855L46.299,511.723L46.299,511.723z M25.427,559.265v5.219c0,5.417,0,9.275,0,11.596
		c0,2.708-0.2,5.027-0.58,6.957H45.72v-23.771L25.427,559.265L25.427,559.265z M45.72,527.376c-0.39-3.089-1.549-4.829-3.479-5.217
		H28.906c-1.938,0.389-3.098,2.128-3.479,5.217v21.452H45.72V527.376z M125.149,511.723c9.277-0.771,13.526,3.1,12.756,11.596
		c0,12.756-2.319,20.682-6.958,23.771c-4.638,3.479-13.914,3.869-27.83,1.161c-3.097-0.77-4.638-2.701-4.638-5.799
		c0.38-3.479,2.12-5.019,5.218-4.639c16.614,3.868,24.151,1.16,22.611-8.116c0-4.25-1.359-6.18-4.059-5.798H81.666
		c-3.098,0.39-4.837,1.739-5.218,4.059v29.569h48.701c10.437-0.382,13.915,4.258,10.437,13.915
		c-4.639,18.172-10.246,32.468-16.814,42.902c6.568,8.117,14.295,13.726,23.191,16.814c2.7,1.541,3.09,4.438,1.16,8.697
		c-1.938,2.699-4.447,3.279-7.537,1.739c-4.258-2.319-12.565-8.116-24.931-17.394c-6.958,6.568-13.335,11.596-19.133,15.074
		c-3.478,1.93-6.377,0.96-8.696-2.899c-1.55-3.478-0.581-5.997,2.898-7.538c6.178-3.478,11.977-8.117,17.393-13.914
		c-10.055-12.755-17.593-28.02-22.611-45.803h-4.059v69.574c-0.39,3.479-2.319,5.218-5.798,5.218
		c-3.478-0.39-5.218-2.319-5.218-5.798V525.058c0-8.887,3.669-13.335,11.016-13.335H125.149z M93.261,569.121
		c4.249,15.853,10.237,27.83,17.974,35.947c6.568-10.816,10.816-21.253,12.755-31.31c1.54-3.478,0-5.018-4.639-4.638H93.261z"/>
	<path fill="#FFFFFF" d="M266.616,515.201c5.408,0,8.887,1.358,10.436,4.059c1.54,2.709,0.771,6.188-2.32,10.438
		c-8.505,11.983-19.332,22.031-32.467,30.148c12.755,5.797,28.409,9.855,46.962,12.174c3.859,0.391,5.798,2.32,5.798,5.799
		c-0.779,3.479-3.099,5.218-6.957,5.218c-21.262-0.771-41.165-6.178-59.717-16.234c-16.234,6.577-38.266,11.597-66.096,15.075
		c-4.638,0.389-7.346-1.351-8.116-5.219c0-3.859,2.12-5.987,6.377-6.377c23.572-2.7,42.125-6.378,55.659-11.017
		c-8.506-6.18-16.233-13.336-23.191-21.452c-6.957,7.735-14.114,13.725-21.451,17.973c-4.258,1.938-7.538,1.549-9.857-1.159
		c-1.549-3.089-0.39-5.988,3.479-8.697c14.295-10.046,25.312-22.61,33.047-37.685c2.32-4.249,5.409-5.409,9.276-3.479
		c3.09,2.708,3.479,6.188,1.16,10.437H266.616z M270.095,588.833c7.729-0.38,11.206,4.059,10.437,13.335
		c0,8.506-0.58,17.203-1.739,26.089c-1.16,7.338-3.869,11.977-8.118,13.915c-4.257,2.699-12.176,3.858-23.771,3.479
		c-4.638-0.39-6.957-2.519-6.957-6.377c0.77-3.867,3.478-5.996,8.117-6.377c7.727,0.381,12.556,0,14.494-1.16
		c2.319-0.779,3.859-2.9,4.638-6.377c0.77-5.799,1.35-12.366,1.739-19.713c0.77-4.25-1.159-6.179-5.797-5.799h-44.644
		c-3.479,22.032-19.522,37.106-48.122,45.224c-3.868,1.16-6.578,0-8.118-3.479c-1.159-3.479,0.191-5.998,4.059-7.538
		c23.191-6.957,36.136-18.353,38.846-34.207h-27.25c-3.479-0.38-5.418-2.318-5.798-5.797c0.77-3.479,2.898-5.218,6.377-5.218h28.41
		c0.77-3.09,1.159-5.988,1.159-8.697c0.38-4.249,2.51-6.567,6.378-6.958c3.858,0.39,5.797,2.709,5.797,6.958
		c-0.389,1.161-0.389,2.52,0,4.059c0,1.938-0.199,3.479-0.58,4.639H270.095L270.095,588.833z M201.68,526.797l-0.58,1.159
		c6.568,8.896,16.035,17.394,28.409,25.511c11.206-5.798,21.253-13.335,30.149-22.611c1.54-1.541,2.12-2.511,1.739-2.899
		c-0.389-0.771-1.938-1.159-4.638-1.159H201.68z"/>
	<path fill="#FFFFFF" d="M361.701,526.217c1.158-11.596,6.957-17.973,17.393-19.133h33.049c6.566,0.39,9.855,4.059,9.855,11.016
		c-0.389,6.577-3.869,10.057-10.436,10.438h-18.554c-6.187,0.389-9.476,4.257-9.856,11.595v95.664
		c-0.39,6.178-4.258,9.466-11.596,9.855c-6.576-0.779-9.855-4.258-9.855-10.436V526.217z M378.514,537.813
		c1.159-8.497,4.639-13.136,10.437-13.914h21.452c3.479-0.381,5.218-2.51,5.218-6.377c-0.39-3.479-2.319-5.409-5.798-5.798h-28.989
		c-8.507,0.779-13.335,5.997-14.494,15.654v105.521c0,3.858,1.739,6.178,5.218,6.956c4.639,0,6.959-2.318,6.959-6.956v-95.087
		H378.514z"/>
	<path fill="#FFFFFF" d="M499.108,531.435c7.727-0.381,11.396,2.708,11.016,9.276c-1.159,27.83-7.348,50.251-18.554,67.254
		c7.729,5.418,13.525,10.055,17.395,13.915c2.7,2.319,3.279,4.838,1.739,7.537c-2.32,2.32-5.028,2.51-8.118,0.58
		c-1.159-0.779-3.868-2.509-8.116-5.218c-3.869-3.09-6.958-5.408-9.276-6.958c-4.259,6.188-12.564,13.916-24.931,23.19
		c-3.479,2.7-6.576,2.51-9.276-0.58c-2.709-3.868-2.319-6.957,1.159-9.275c7.728-4.249,15.455-11.017,23.191-20.292
		c-2.708-1.93-6.188-4.438-10.436-7.537c-8.896-6.179-12.955-10.236-12.177-12.175c0-1.931,0.962-5.22,2.9-9.855
		c2.699-5.799,6.758-18.934,12.175-39.426h-12.754c-3.099,0-4.838-1.541-5.218-4.639c0.38-3.479,2.12-5.408,5.218-5.798h13.915
		c1.159-5.798,2.119-11.976,2.899-18.553c0.38-3.858,2.508-5.799,6.377-5.799c3.858,0.39,5.599,2.519,5.218,6.378
		c-0.39,3.099-0.97,6.958-1.74,11.596c-0.39,3.099-0.58,5.217-0.58,6.377L499.108,531.435L499.108,531.435z M479.396,541.871
		c-2.707,13.915-6.767,27.449-12.175,40.584c-1.55,3.098-2.318,5.028-2.318,5.798c0,0.779,2.318,2.709,6.958,5.798
		c4.637,3.098,7.917,5.417,9.854,6.957c10.046-15.455,15.653-33.627,16.813-54.499c0-3.089-0.778-4.638-2.319-4.638H479.396
		L479.396,541.871z M572.161,515.201c5.408,0,8.695,1.358,9.854,4.059c0.771,2.709-0.777,5.998-4.638,9.856
		c-17.012,15.464-25.511,23.771-25.511,24.931c0,0.389,0.58,1.358,1.739,2.898c2.699,4.257,5.219,8.696,7.539,13.335h27.83
		c3.088,0.39,4.638,2.518,4.638,6.377c-0.391,3.868-2.319,5.798-5.798,5.798h-22.031c1.54,8.896,2.318,17.973,2.318,27.25
		c-1.549,31.308-17.593,41.165-48.121,29.568c-3.868-1.55-5.219-4.259-4.059-8.117c1.54-3.089,4.249-3.859,8.117-2.32
		c11.206,3.86,19.133,4.25,23.771,1.16c4.638-1.93,7.338-8.696,8.116-20.292c0.771-9.657-0.198-18.743-2.898-27.25h-38.847
		c-3.866-0.38-5.797-2.509-5.797-6.377c0.381-3.86,2.51-5.798,6.378-5.798h33.628c-1.551-2.32-3.289-5.219-5.219-8.697
		c-3.479-4.638-5.027-7.727-4.638-9.276c0-1.159,2.699-4.438,8.116-9.856c6.179-5.797,11.396-11.016,15.654-15.653h-45.803
		c-3.099,0-4.837-1.931-5.218-5.798c0-3.479,1.54-5.408,4.639-5.798L572.161,515.201L572.161,515.201z"/>
	<path fill="#FFFFFF" d="M680,627.099c-1.159,11.207-7.156,17.395-17.974,18.554H629.56c-6.578-0.39-9.857-4.059-9.857-11.017
		c0.381-6.178,3.859-9.466,10.437-9.855h18.554c6.179-0.381,9.466-4.248,9.854-11.596V516.94c0.381-5.799,4.06-9.078,11.017-9.857
		c6.957,1.161,10.437,4.639,10.437,10.437V627.099z M663.187,616.083c-1.16,8.116-4.838,12.374-11.017,12.754h-20.872
		c-3.478,0.381-5.417,2.51-5.798,6.379c0.38,3.479,2.32,5.407,5.798,5.797h29.569c8.497-0.778,13.335-5.797,14.494-15.073V519.839
		c0-3.479-1.739-5.798-5.218-6.957c-4.638,0-6.957,2.318-6.957,6.957V616.083z"/>
</g>
<g id="XMLID_6_">
	<g>
		<path fill="#FFFFFF" d="M248.03,348.701c-25.128-3.152-67.671,6.372-81.309-7.267c-12.676-12.652-7.266-51.329-7.266-80.102
			c0-34.987-7.936-87.434,15.761-95.84c16.23-5.746,48.87,2.549,64.318-1.185c12.408-3.041,20.411-19.003,30.337-31.589
			c9.144-11.58,23.697-24.681,27.9-33.936c10.865-24.055,3.756-60.741,33.981-66.755c60.92-12.139,79.721,63.871,55.823,105.565
			c53.632-6.863,93.828,12.475,88.574,60.674c-1.118,10.217-4.896,16.856-9.703,25.508c7.087,16.32-3.532,30.516-6.081,43.639
			c-1.453,7.534,0.537,15.448-1.208,23.049c-2.325,10.083-6.125,16.164-10.933,24.279c2.75,66.731-77.285,68.878-137.108,53.386
			C287.712,362.069,266.362,351.026,248.03,348.701z M238.328,322.03c42.006,3.309,69.661,23.876,111.623,26.671
			c26.134,1.789,57.052,0.961,66.732-12.117c7.512-10.104,1.385-18.086,4.851-31.544c1.811-7.064,12.586-13.704,13.347-25.486
			c0.38-5.701-0.112-9.971-3.622-16.991c11.759-8.249,14.576-34.651,3.622-46.098c10.642-4.158,17.035-15.895,15.783-29.13
			c-3.354-35.322-61.971-20.612-99.506-25.486c8.607-29.688,44.466-103.441-12.117-104.335
			c-13.168,12.743-10.597,38.899-19.427,55.778c-5.679,10.888-17.08,19.651-25.486,30.359
			c-14.397,18.377-23.787,34.853-42.454,44.913c-2.616,2.258-8.897,0.827-13.346,1.185
			C238.328,233.858,238.328,277.944,238.328,322.03z M225.585,282.259c-1.431-16.096-10.373-23.317-29.063-20.12
			c-12.05,2.057-18.645,8.316-20.121,13.414C163.369,320.375,228.849,318.9,225.585,282.259z"/>
	</g>
</g>
</svg>
