<?xml version="1.0" encoding="utf-8"?>
<!-- Generator: Adobe Illustrator 16.0.0, SVG Export Plug-In . SVG Version: 6.00 Build 0)  -->
<!DOCTYPE svg PUBLIC "-//W3C//DTD SVG 1.1//EN" "http://www.w3.org/Graphics/SVG/1.1/DTD/svg11.dtd">
<svg version="1.1" id="图层_1" xmlns="http://www.w3.org/2000/svg" xmlns:xlink="http://www.w3.org/1999/xlink" x="0px" y="0px"
	 width="1100px" height="222px" viewBox="0 0 1100 222" enable-background="new 0 0 1100 222" xml:space="preserve">
<g id="XMLID_4_">
	<g>
		<path fill="#FFFFFF" d="M1076.605,9.711c2.191,3.934,1.13,14.065,0.557,18.912c-3.655-1.168-0.734-8.908-1.675-12.791
			c-2.331,3.967-3.572,9.03-6.12,12.791c-4.596-2.07-4.681-8.668-7.233-12.791c-1.979,2.837,1.229,10.866-1.669,12.791
			c-2.554-4.112-0.396-12.953-1.107-18.912c0.558,0,1.107,0,1.67,0c3.478,3.934,4.847,9.987,7.232,15.022
			C1072.305,20.983,1072.082,12.977,1076.605,9.711z"/>
		<path fill="#FFFFFF" d="M1056.014,10.262c-0.217,2.376-4.656,0.529-6.677,1.119c-0.701,5.414,1.446,13.682-1.106,17.242
			c-2.549-3.377-0.406-11.461-1.118-16.686c-1.13-1.285-4.612-0.206-6.678-0.556c0-0.378,0-0.746,0-1.119
			C1043.111,8.426,1053.338,8.426,1056.014,10.262z"/>
		<path fill="#FFFFFF" d="M1034.877,203.891c0.389,6.197-8.213,3.889-13.354,3.889c-5.938,0-12.246,0-16.697,0
			c1.786-10.799,1.857-28.715,0-39.504c2.242-1.291,6.859-0.188,10.021-0.557c-2.454,9.792-0.473,24.008-1.118,35.608
			C1019.682,204.958,1029.702,203.016,1034.877,203.891z"/>
		<path fill="#FFFFFF" d="M1035.433,154.922c-0.315,3.934-6.993,2.227-10.575,2.227c-252.605,0-507.659,0-761.131,0
			c-3.055,0-9.214,1.379-10.571-1.664c0.044-0.885-0.267-2.119,0.556-2.227c256.333,0,514.157,0,771.146,0
			C1027.916,153.258,1034.075,151.874,1035.433,154.922z"/>
		<path fill="#FFFFFF" d="M957.539,145.463c-7.145,0.239-4.186-15.64-3.9-22.255c0.412-9.181,0.635-19.541,1.118-30.602
			c0.868-19.913-2.647-46.291,13.91-49.513c11.673-2.281,19.233,1.608,34.495,0c-4.719-12.847,11.456-14.594,8.341-0.556
			c2.176,1.168,6.404,0.272,9.464,0.556c4.663-1.597,2.153-8.123,6.677-8.902c6.481-1.124,5.771,8.124,2.782,12.235
			c-3.556,4.896-8.491,5.18-17.248,5.013c0.462,12.536,3.684,27.091,6.12,39.503c3.961-2.387,3.21-11.261,9.458-10.021
			c8.424,1.681-4.145,17.587-6.676,22.255c1.713,7.5,3.132,13.721,5.563,22.256c1.274,4.469,8.44,19.09,0.558,19.479
			c-5.425,0.256-6.428-10.493-7.796-15.027c-2.002-6.638-3.449-11.673-5.002-17.248c-4.111,0.935-7.566,12.591-13.909,11.689
			c-1.446-0.211-3.627-1.976-3.896-3.345c-1.33-6.614,13.815-12.779,15.022-20.029c0.473-2.877-1.413-8.107-2.227-12.235
			c-2.453-12.507-4.835-23.663-6.12-37.278c-16.362,1.998-44.35-7.633-40.06,15.017c12.001,1.975,27.313-3.433,30.045,11.689
			c1.296,7.188,0,17.465,0,27.257c0,11.21,1.735,24.521-1.113,30.607c-2.42,5.146-12.278,9.998-18.359,5.559
			c-0.445-2.76-0.18-3.133,0.556-5.559c2.526-1.926,8.63-0.277,10.016-3.345c0.596-17.119,1.604-39.425-0.563-55.638
			c-4.313-3.104-13.727-1.107-20.58-1.664c-0.901,14.5-1.497,34.006-2.227,50.069C961.584,134.436,963.477,145.275,957.539,145.463z
			"/>
		<path fill="#FFFFFF" d="M1000.375,203.891c0.223,6.152-8.168,3.889-13.354,3.889c-5.959,0-12.195,0-16.687,0
			c1.78-11.172,1.78-28.877,0-40.061c3.149,0,6.304,0,9.458,0c-1.207,10.855-0.261,23.863-0.556,35.608
			C985.225,205.047,995.105,202.895,1000.375,203.891z"/>
		<path fill="#FFFFFF" d="M966.441,207.223c-2.242,1.291-6.86,0.2-10.021,0.557c-0.313-5.068-3.205-7.557-3.89-12.234
			c-5.753,0-11.507,0-17.248,0c-1.63,3.938-4.185,6.943-4.451,12.234c-1.669,0-3.344,0-5.007,0
			c4.968-13.215,13.097-26.185,15.578-40.061c2.966,0,5.932,0,8.901,0C955.703,180.867,960.176,194.932,966.441,207.223z
			 M936.952,192.201c4.451,0,8.901,0,13.354,0c-0.751-5.041-4.077-12.213-6.677-17.248
			C941.793,181.089,938.422,185.691,936.952,192.201z"/>
		<path fill="#FFFFFF" d="M948.08,118.757c14.813,6.472-23.067,19.091-26.15,16.136c-5.313-5.068,4.19-9.131,8.902-10.01
			c0-18.923,0-37.834,0-56.757c-3.222-0.295-7.9,0.852-9.458-1.107c-1.241-2.287-0.807-3.756,0-6.126
			c2.059-1.469,5.947-1.085,9.458-1.113c0.695-6.727-1.63-16.463,1.67-20.586c2.971-1.179,5.052,0.039,6.676,1.675
			c0,6.304,0,12.613,0,18.912c12.825-3.822,13.767,11.834,0.558,8.346c-1.291,16.697-0.189,35.792-0.558,53.414
			C942.405,120.877,944.219,118.796,948.08,118.757z"/>
		<path fill="#FFFFFF" d="M910.803,167.719c3.711,0,7.416,0,11.127,0c-0.923,12.102-0.923,27.971,0,40.061c-3.16,0-6.304,0-9.458,0
			c1.235-10.26,0.233-22.768,0.558-33.939c-4.508,11.072-8.559,22.602-12.797,33.939c-2.227,0-4.451,0-6.678,0
			c-3.706-11.685-8.257-22.527-12.24-33.939c-0.752,10.026-1.401,24.766,0.557,33.939c-1.854,0-3.711,0-5.569,0
			c0.931-12.09,0.931-27.959,0-40.061c3.9,0,7.795,0,11.689,0c3.417,10.305,7.36,20.086,11.128,30.051
			C903.598,188.339,906.958,177.785,910.803,167.719z"/>
		<path fill="#FFFFFF" d="M898.006,43.645c1.708,7.979-15.629,5.569-24.48,5.569c-18.518,0-40.366,0-59.527,0
			c-8.04,0-25.572,2.337-23.938-5.569c1.113-5.33,20.987-3.333,23.374-3.333c10.756,0,16.235,0,26.15,0
			c1.764-1.386-0.918-7.228,1.664-7.795c0.623-1.424,2.993-1.085,5.013-1.107c2.131,1.575,2.561,4.863,2.227,8.902
			c8.695,0,16.44,0,26.706,0C880.435,40.313,896.915,38.543,898.006,43.645z"/>
		<path fill="#FFFFFF" d="M896.893,106.522c0,10.393,1.259,21.154,0,27.263c-1.753,8.49-12.552,14.783-20.592,10.009
			c-3.494-9.229,8.186-4.062,11.689-10.009c2.46-4.186,1.113-19.379,1.113-27.263c0-10.099,2.074-21.17-1.113-27.269
			c-3.315-6.332-12.568-3.088-20.029-3.889c0.439,5.213,17.014,12.212,15.018,18.912c-2.521,8.513-12.118-3.222-15.579-6.677
			c-4.779-4.779-7.817-8.262-11.68-12.235c-8.351,0-16.695,0-25.036,0c-3.545,6.092-7.995,12.074-13.915,16.686
			c-2.771,2.17-6.845,5.725-11.128,3.9c-2.776-10.51,12.386-11.885,15.021-20.586c-27.357-6.182-21.137,14.728-21.137,38.94
			c0,5.086,0,11.545,0,17.805c0,6.938,0.694,13.125-3.896,13.354c-6.877,0.346-4.451-21.933-4.451-30.602
			c0-23.64-5.24-50.23,19.475-47.843c-0.045-4.618-4.279-7.945-2.227-11.69c3.989-7.277,11.116,4.507,10.565,11.69
			c16.514,0,33.011,0,49.522,0c3.65-4.145,0.863-14.722,10.011-13.354c3.654,3.522,0.071,9.625-1.107,13.354
			C899.413,64.571,896.893,83.744,896.893,106.522z"/>
		<path fill="#FFFFFF" d="M856.833,178.291c-0.245,1.92,0.217,3.121,0.557,4.451c-5.998-0.719-15.206-1.059-21.147,0
			c-1.264,0.779-0.2,3.878-0.551,5.563c6.104,1.504,15.867-0.662,20.58,2.227c2.164,4.301,2.265,12.43-0.552,16.141
			c-2.96,1.692-9.353,1.107-15.026,1.107c-4.612,0-12.741,2.003-12.235-3.332c3.878-1.408,14.527-0.106,21.138-0.557
			c1.103-1.504,0.328-4.869,0.557-7.24c-6.209-1.94-18.061,1.754-21.138-3.332c-0.979-3.228-0.712-8.963,0-12.245
			C833.954,175.82,847.636,179.292,856.833,178.291z"/>
		<path fill="#FFFFFF" d="M818.993,107.079c-2.86,3.428-2.108,15.167-0.545,19.474c14.516,2.17,35.186,1.146,50.625,0.557
			c3.398-3.467,2.993-15.79,0.551-20.029C855.241,105.259,833.381,105.22,818.993,107.079z M815.66,134.893
			c-6.376-3.25-9.926-17.388-6.12-28.933c1.44-4.373,5.753-6.883,10.015-7.784c5.554-1.186,17.12-0.557,27.265-0.557
			c14.332,0,27.695-1.669,31.708,7.784c3.938,9.275,1.085,26.773-6.678,30.051c-5.735,2.409-18.038,1.106-28.376,1.106
			C833.343,136.563,820.868,137.557,815.66,134.893z"/>
		<path fill="#FFFFFF" d="M813.997,182.742c-6.894-0.835-20.058-3.449-16.141,8.352c5.558,0,11.127,0,16.686,0
			C814.453,188.216,814.887,184.807,813.997,182.742z M821.78,203.891c0.229,1.334-1.019,1.207-0.557,2.78
			c-7.095,2.243-20.348,1.085-28.376,0.552c-4.385-4.763-3.526-20.908-1.112-27.258c6.582-2.638,22.351-2.638,28.927,0
			c1.914,3.461,0.852,9.909,1.118,15.021c-7.783,0-15.578,0-23.373,0c-1.02,1.598-0.796,6.705,0,8.341
			C804.822,204.691,816.267,203.422,821.78,203.891z"/>
		<path fill="#FFFFFF" d="M783.385,207.779c-2.775,0-5.559,0-8.341,0c0.907-8.663,0.907-20.814,0-29.488c2.599,0,5.191,0,7.79,0
			C783.111,188.033,782.222,198.932,783.385,207.779z"/>
		<path fill="#FFFFFF" d="M782.834,168.837c0,1.664,0,3.333,0,5.002c-2.409,0-4.824,0-7.233,0c0-1.669,0-3.338,0-5.002
			C778.01,168.837,780.425,168.837,782.834,168.837z"/>
		<path fill="#FFFFFF" d="M768.367,207.779c-2.787,0-5.563,0-8.346,0c0.918-12.135,0.918-27.92,0-40.061c2.599,0,5.19,0,7.783,0
			C768.15,180.928,767.11,195.494,768.367,207.779z"/>
		<path fill="#FFFFFF" d="M755.57,76.472c5.458,3.021,14.905,6.003,8.346,12.246c-9.525-1.458-16.524-7.706-23.924-11.689
			c-7.813-4.189-15.552-7.778-23.374-12.235c-7.5,9.297-17.148,22.011-31.709,20.581c-4.406-7.411,10.699-10.388,15.579-14.466
			c7.328-6.115,9.02-12.463,12.239-19.468c-7.645-0.707-18.505,1.814-22.816-2.226c0.084-5.63,4.101-18.794,11.685-13.353
			c1.569,2.726-0.656,4.351-0.545,7.233c19.868,0.712,42.613-1.452,60.641,1.107c0.885,6.22-2.021,13.081-5.014,17.248
			c-1.291,0-2.593,0-3.889,0c-3.255-2.142-1.775-6.61-0.563-10.01c-10.191,0-20.396,0-30.596,0
			c-5.479,6.287,4.642,8.724,10.015,11.679C739.896,67.653,746.835,71.643,755.57,76.472z"/>
		<path fill="#FFFFFF" d="M759.465,103.735c0.646,4.913,1.658,21.927-4.45,21.699c-7.634-0.283-0.479-23.356-8.347-26.707
			c-7.261-3.083-24.191-0.551-37.277-0.551c-8.856,0-31.342-2.715-35.053,2.776c-4.084,6.048,2.899,24.046-5.007,24.481
			c-5.926,0.327-6.037-18.962-3.896-25.589c1.529-4.774,6.889-8.463,11.679-9.464c7.512-1.558,22.557-0.556,35.053-0.556
			C734.116,89.825,757.021,85.335,759.465,103.735z"/>
		<path fill="#FFFFFF" d="M751.676,179.965c2.409,6.35,3.267,22.495-1.111,27.258c-5.709,0.596-15.779,1.52-20.593-0.552
			c0,4.079,0,8.163,0,12.235c-2.775,0-5.559,0-8.341,0c0.93-12.27,0.907-28.342,0-40.616c0.563,0.229,3.255-0.267,5.008,0
			c0.802,0.122,2.531,1.675,2.782,1.675c0.979,0.006,2.859-1.49,3.896-1.675C739.374,177.255,746.624,178.029,751.676,179.965z
			 M744.999,203.891c0.918-5.799,0.918-15.352,0-21.148c-3.622-0.912-10.844-0.912-14.466,0c-0.918,5.798-0.918,15.351,0,21.148
			C735.357,203.891,740.176,203.891,744.999,203.891z"/>
		<path fill="#FFFFFF" d="M659.311,144.913c-5.514-8.54,10.344-8.552,17.805-10.576c15.444-4.188,28.644-10.433,30.051-28.933
			c2.203-2.103,5.819-0.695,7.229,1.119c0.056,5.797-0.469,11.028-2.776,14.459c10.471,4.022,27.219,8.963,41.173,13.354
			c4.99,1.567,16.04,1.925,12.24,10.021c-9.759,1.146-19.385-3.649-28.934-6.676c-9.436-3-19.212-5.793-28.381-8.902
			C696.182,138.081,677.332,145.77,659.311,144.913z"/>
		<path fill="#FFFFFF" d="M683.791,218.907c0.551-12.146,1.592-28.832-0.551-40.06c-0.105-0.474,0.217-0.519,0.551-0.558
			c2.442,0.534,7.306-1.363,7.239,1.675c4.167-3.082,15.239-1.553,21.137-1.117c2.654,5.102,5.67,19.801,2.226,26.149
			c-3.243,5.985-16.741,2.203-22.807,1.674c0.367,3.718-0.734,8.897,0.557,11.679C690.457,219.63,686.4,218.55,683.791,218.907z
			 M707.165,203.328c0.901-5.697,0.901-14.883,0-20.586c-3.89-0.829-11.167-0.975-15.022,0c-0.924,5.619-0.924,14.973,0,20.586
			C695.938,204.246,703.365,204.246,707.165,203.328z"/>
		<path fill="#FFFFFF" d="M676.559,178.291c0.346,9.682-0.695,20.73,0.557,29.488c-9.369-1.353-20.309,1.669-30.039-1.107
			c-4.262-5.941-0.873-19.54-2.782-27.824c1.688-1.285,5.736-0.188,8.341-0.557c0.361,8.174-0.718,17.788,0.563,25.037
			c3.767,1.24,9.787,0.229,14.461,0.563c3.21-5.848,1.329-17.959,1.118-25.6C671.373,178.291,673.966,178.291,676.559,178.291z"/>
		<path fill="#FFFFFF" d="M674.889,37.525c-0.488,5.263,1.319,12.813-1.663,15.579c-2.432,0.773-3.288,0.017-5.568-0.556
			C664.29,46.049,666.943,29.368,674.889,37.525z"/>
		<path fill="#FFFFFF" d="M668.212,63.675c14.578,0.306-2.682,17.921-5.007,22.817c-2.448,0.229-4.296-0.156-5.56-1.118
			C656.94,76.066,664.396,70.302,668.212,63.675z"/>
		<path fill="#FFFFFF" d="M634.829,58.667c1.508,9.843,0,22.912,0,36.727c0,13.971,2.081,30.19-0.551,38.391
			c-2.91,9.029-16.264,13.438-24.48,7.783c-1.247-9.614,8.273-4.229,13.354-7.232c6.004-3.55,3.339-25.688,3.339-36.716
			c0-6.632,0-13.737,0-20.03c0-11.974,2.175-25.121-10.017-23.368c-3.049,23.585-5.931,47.816-11.684,70.661
			c-1.241,4.918-3.372,19.818-10.015,17.242c-5.298-2.048,0.712-15.99,1.669-20.029c4.95-20.859,9.169-43.599,10.57-67.323
			c-3.159-1.291-8.713-0.189-12.797-0.551c-2.977,23.702-7.795,47.754-13.91,70.104c-1.419,5.175-3.177,20.363-10.015,17.799
			c-5.33-1.992,1.174-16.102,2.226-20.029c5.614-20.932,10.237-44.05,12.791-67.323c-2.831-1.614-9.574,0.679-11.679-1.669
			c-2.309-4.534,7.629-26.729,12.792-17.242c2.203,4.039-1.942,5.636-2.226,10.009C603.627,47.768,631.847,39.116,634.829,58.667z"
			/>
		<path fill="#FFFFFF" d="M614.805,172.17c-1.862,1.896-1.117,7.268-0.557,10.021c6.004,1.779,16.536-0.957,21.699,1.662
			c2.465,5.388,3.044,19.49-1.118,23.369c-8.392,0.885-20.547,0.963-28.927,0c0-0.924,0-1.854,0-2.775
			c4.896-2.098,16.759,0.777,23.367-1.119c0-3.705,0-7.416,0-11.127c-5.201-2.594-15.649,0.076-21.697-1.67
			c-2.645-4.695-2.409-16.953,0-21.693c7.455-2.003,20.603-1.279,28.932-0.563c-0.328,1.809,0.378,2.588,0.551,3.896
			C630.706,171.436,621.092,171.125,614.805,172.17z"/>
		<path fill="#FFFFFF" d="M589.768,203.328c0.239,1.914-0.223,3.122-0.557,4.451c-6.054-0.435-14.026,1.052-18.366-1.107
			c-3.55-5.163-1.797-15.64-2.226-23.93c-0.245-1.608-4.206,0.494-4.451-1.112c0-0.739,0-1.479,0-2.226
			c-0.334-2.192,3.061-0.657,4.451-1.113c0-2.042,0-4.078,0-6.12c2.376-0.229,4.939-0.25,6.677-1.106
			c2.409,0.373,0.519,5.047,1.112,7.228c4.084,0,8.168,0,12.241,0c0,1.297,0,2.599,0,3.899c-3.891,0-7.79,0-11.68,0
			c-1.297,5.754-0.194,13.904-0.563,20.582C578.918,204.77,586.391,203.979,589.768,203.328z"/>
		<path fill="#FFFFFF" d="M565.843,95.951c8.598,8.018-7.311,11.189-12.803,13.904c-0.918,10.944,1.97,25.706-1.663,33.939
			c-11.874,1.753-4.735-20.035-6.677-30.039c-7.005,1.714-11.189,6.242-19.475,6.677c-7.026-10.731,13.37-11.316,19.475-16.135
			c0-13.17,0-26.334,0-39.503c-5.502-1.931-16.353,1.513-19.475-2.788c1.938-8.763-0.021-26.284,10.571-22.812
			c2.143,4.579-0.846,11.105-1.675,16.135c3.521,0,7.056,0,10.577,0c0.501-7.656-1.146-17.465,1.111-23.362
			c1.903-0.534,3.45-1.742,5.564-0.557c3.427,5.107,0.89,16.174,1.663,23.919c14.896-4.268,15.763,12.813,0.563,8.902
			c-1.298,10.95-0.185,24.303-0.563,36.17C558.037,99.634,560.435,96.285,565.843,95.951z"/>
		<path fill="#FFFFFF" d="M560.279,207.779c-2.788,0-5.564,0-8.353,0c0.43-7.355,1.643-18.622-0.551-25.037
			c-3.622-0.912-10.844-0.912-14.466,0c-2.164,6.087-1.135,18.049-0.563,25.037c-2.96,0-5.931,0-8.896,0
			c2.153-11.166,1.118-27.975,0.557-40.061c2.593,0,5.187,0,7.789,0c0,3.717,0,7.417,0,11.129c4.146-0.496,15.262-1.164,21.144,0
			C562.493,184.049,558.042,199.261,560.279,207.779z"/>
		<path fill="#FFFFFF" d="M512.986,179.965c0.968-2.37,5.102-1.574,8.346-1.675c-2.298,11.983,2.125,30.69-2.782,40.06
			c-5.625,0.356-15.161,1.348-22.812,0.558c-1.947-0.2-6.276,1.079-5.008-2.782c4.518-2.242,15.522,0.88,21.698-1.105
			c1.119-1.67,0.317-5.248,0.558-7.795c-3.823,0.649-14.989,1.063-20.586,0c-4.385-4.764-3.527-20.91-1.113-27.259
			C495.604,177.701,508.796,176.989,512.986,179.965z M512.43,203.891c0.918-5.799,0.918-15.352,0-21.148
			c-3.622-0.912-10.85-0.912-14.466,0c-1.273,5.781-0.211,13.888-0.557,20.586C501.447,204.484,507.5,203.628,512.43,203.891z"/>
		<path fill="#FFFFFF" d="M501.302,141.007c0.367,6.615-22.751,5.72-28.376,3.351c-14.722-6.205-6.972-36.829-8.901-57.865
			c-11.689,0-23.368,0-35.059,0c-2.665,19.541-10.827,36.533-22.255,48.962c-3.049,3.315-8.096,10.894-13.904,6.114
			c-1.102-5.703,4.719-8.848,7.79-12.234c9.731-10.777,16.887-23.997,19.469-42.842c-7.813-2.214-27.074,3.906-29.483-2.225
			c-3.438-8.735,15.64-6.121,22.255-6.121c10.577,0,19.558,0,28.37,0c0-7.394,0-15.924,0-23.924c0-8.129-1.27-16.48,1.675-22.255
			c2.481-0.824,3.45-0.184,5.564,0.551c2.493,13.086,0.444,30.712,1.112,45.629c7.935,0,17.266,0,27.264,0
			c7.473,0,22.378-2.12,23.369,3.333c1.646,9.024-19.535,3.544-27.264,5.013c-1.023,8.212-0.562,16.775-0.562,25.038
			c0,7.41-1.463,19.785,1.675,23.361C479.02,140.579,500.824,132.417,501.302,141.007z"/>
		<path fill="#FFFFFF" d="M486.836,37.525c14.7-3.767,1.257,16.001-1.669,20.592c-2.137,3.338-8.385,15.034-13.354,14.46
			c-9.536-1.102,3.634-15.05,6.12-18.912C481.99,47.345,484.238,43.139,486.836,37.525z"/>
		<path fill="#FFFFFF" d="M482.941,207.779c-2.782,0-5.564,0-8.347,0c0.879-8.641,0.946-20.854,0-29.488c2.599,0,5.191,0,7.789,0
			C482.613,188.072,481.834,198.872,482.941,207.779z"/>
		<path fill="#FFFFFF" d="M482.385,168.837c0,1.664,0,3.333,0,5.002c-2.409,0-4.824,0-7.232,0c0-1.669,0-3.338,0-5.002
			C477.561,168.837,479.976,168.837,482.385,168.837z"/>
		<path fill="#FFFFFF" d="M470.139,203.891c0.401,6.197-8.207,3.889-13.348,3.889c-5.938,0-12.246,0-16.697,0
			c1.786-10.799,1.858-28.715,0-39.504c2.243-1.291,6.86-0.188,10.016-0.557c-2.448,9.792-0.468,24.008-1.113,35.608
			C454.95,204.958,464.97,203.016,470.139,203.891z"/>
		<path fill="#FFFFFF" d="M423.964,203.328c-0.868,0.813-0.49,2.854-0.562,4.451c-6.521-0.512-15.457,1.363-19.469-1.663
			c-2.17-5.998-0.673-15.651-1.112-23.374c-0.43-1.613-4.585,0.512-5.009-1.112c0-0.739,0-1.479,0-2.226
			c-0.217-2.254,3.467-0.612,5.009-1.113c0-2.042,0-4.078,0-6.12c2.014-0.39,4.611-0.206,6.114-1.106
			c2.409,0.373,0.513,5.047,1.113,7.228c4.268,0,8.535,0,12.802,0c0,1.297,0,2.599,0,3.899c-4.084,0-8.168,0-12.24,0
			c-0.724,5.92-1.436,16.643,0.551,21.699C415.391,203.657,420.615,204.43,423.964,203.328z"/>
		<path fill="#FFFFFF" d="M413.949,51.991c2.525,3.945,14.661,18.339,6.115,20.03c-4.785,0.957-10.148-10.31-12.791-14.466
			c-2.532-3.967-17.109-21.259-3.9-21.137C407.017,40.379,409.665,45.292,413.949,51.991z"/>
		<path fill="#FFFFFF" d="M390.581,178.848c5.614,5.141,1.135,20.375,3.338,28.932c-2.437-0.534-7.305,1.369-7.233-1.663
			c-4.283,3.043-15.695,1.597-21.698,1.106c-3.438-2.998-2.916-14.556-0.557-18.354c5.408-2.388,15.534-0.045,21.699-1.675
			c0.624-9.555-16.547-3.557-22.812-4.451c1.224-0.813-0.329-4.406,1.669-4.451C373.411,178.585,383.059,177.662,390.581,178.848z
			 M385.574,203.328c1.202-2.865,0.25-7.906,0.556-11.684c-5.369,0.205-11.628-0.502-16.135,0.557
			c-0.667,3.594-1.035,8.835,0.557,11.689C375.414,203.557,381.624,204.568,385.574,203.328z"/>
		<path fill="#FFFFFF" d="M367.77,61.45c0.456,7.25-15.551,4.451-21.698,4.451c-9.981,0-17.71,0-26.15,0
			c10.883,18.328,24.47,38.669,37.278,57.865c3.723,5.586,11.896,12.246,8.346,20.029c-6.237,2.337-12.273-10.927-15.579-16.135
			c-11.384-17.866-25.238-37.484-36.17-53.964c-5.146,24.854-16.48,45.452-33.934,59.534c-5.164,4.166-12.157,10.987-20.03,8.896
			c-2.715-6.009,10.426-12.401,15.022-16.135c17.086-13.854,27.335-33.373,31.152-59.534c-7.3-1.007-15.729-0.557-25.594-0.557
			c-6.688,0-21.894,2.487-22.25-3.895c-0.395-7.094,15.596-4.451,22.25-4.451c10.237,0,18.06,0,26.707,0
			c4.062-7.255-2.978-25.61,8.902-25.037c3.86,6.003,0.133,17.086,0,24.481c8.033,1.018,17.197,0.556,27.824,0.556
			C351.145,57.555,367.369,55.14,367.77,61.45z"/>
		<path fill="#FFFFFF" d="M356.085,203.328c0.011,1.318-0.957,1.636-0.556,3.344c-7.095,2.243-20.348,1.085-28.381,0.553
			c-4.269-4.959-4.269-23.42,0-28.377c8.307-0.166,23.458-2.781,28.381,2.227c1.129,3.693,0.306,9.342,0.556,13.915
			c-7.973,0-15.951,0-23.924,0c-1.263,2.415-0.401,6.903,0.551,8.901C340.367,203.566,349.342,204.563,356.085,203.328z
			 M348.852,191.093c-0.094-2.877,0.346-6.286-0.556-8.352c-7.144-0.896-20.219-3.244-16.697,8.352
			C337.346,191.093,343.104,191.093,348.852,191.093z"/>
		<path fill="#FFFFFF" d="M319.358,178.291c0.351,1.514-0.701,4.418,0.562,5.008c-2.771,0.862-9.809-0.984-13.353,0.557
			c-0.913,6.787-0.913,17.143,0,23.925c-2.972,0-5.942,0-8.902,0c2.042-8.028,1.08-20.56,0.551-29.488
			c2.266,0.718,7.595-1.651,7.239,1.675C308.086,177.4,314.395,178.52,319.358,178.291z"/>
		<path fill="#FFFFFF" d="M283.75,206.116c-5.202,3.026-17.554,1.618-24.476,1.106c-3.271-4.88-4.312-24.453-2.782-33.935
			c1.224-7.572,10.549-5.569,20.586-5.569c4.457,0,12.636-2.113,12.235,3.344c-4.724,1.875-17.404-0.694-23.919,1.107
			c-1.285,9.104-0.194,20.575-0.556,30.602c3.589,1.947,12.246,1.264,16.686,0.557c2.175-3.389,0.673-10.46,1.113-15.578
			c-4.563-0.105-11.718,0.139-14.46,0c0-1.486,0-2.966,0-4.451c7.789,0,15.573,0,23.362,0c-2.042,6.098-1.19,17.516-0.551,24.48
			C288.729,207.066,283.394,209.432,283.75,206.116z"/>
	</g>
</g>
<g id="XMLID_1_">
	<g>
		<path fill="#FFFFFF" d="M193.598,48.221c-0.702,11.772-19.023,11.685-19.304-0.295c-0.123-5.224,3.194-8.909,8.189-9.652
			C189.714,37.197,193.964,42.079,193.598,48.221z"/>
		<path fill="#FFFFFF" d="M151.48,188.023c0-3.116,0-6.234,0-9.358c-1.659,0-3.314,0-4.972,0c0-1.164,0-2.337,0-3.51
			c3.802,0,7.604,0,11.407,0c0,4.291,0,8.581,0,12.868C155.771,188.023,153.624,188.023,151.48,188.023z"/>
		<path fill="#FFFFFF" d="M150.018,188.023c-6.046,0-12.089,0-18.134,0c0-8.864,0-17.741,0-26.612c8.678,0,17.353,0,26.031,0
			c0,2.925,0,5.85,0,8.774c-1.951,0-3.899,0-5.85,0c-1.152,0.179-0.345-1.605-0.585-2.341c-4.291,0-8.579,0-12.87,0
			c-0.36,3.677-0.781,9.948,0.292,13.165c2.667,1.231,7.508,0.284,11.115,0.579C150.018,183.736,150.018,185.88,150.018,188.023z"/>
		<path fill="#FFFFFF" d="M124.571,50.851c-3.009-0.792-5.776-1.828-9.067-2.34c2.325-1.477,5.765-1.84,8.774-2.629
			c1.15-2.849,1.808-6.189,2.633-9.363c1.234,2.665,1.77,6.031,2.632,9.067c2.907,0.898,5.794,1.811,9.067,2.34
			c-2.267,1.536-5.709,1.898-8.774,2.635c-1.1,2.896-1.799,6.195-2.632,9.356C125.969,57.253,125.434,53.887,124.571,50.851z"/>
		<path fill="#FFFFFF" d="M109.654,161.704c1.854-0.677,4.969-0.101,7.312-0.293c3.881,8.896,8.184,17.362,11.992,26.321
			c-7.216,0-14.429,0-21.644,0c0.877-1.75,1.755-3.504,2.632-5.26c3.121,0,6.239,0,9.359,0
			C116.291,175.342,113.12,168.378,109.654,161.704z"/>
		<path fill="#FFFFFF" d="M95.03,188.023c4.021-8.942,8.722-17.207,12.87-26.024c1.474,2.033,2.231,4.788,3.51,7.021
			c-2.805,6.653-6.47,12.445-9.36,19.006C99.709,188.023,97.37,188.023,95.03,188.023z"/>
		<path fill="#FFFFFF" d="M85.377,168.727c-1.778-1.051-5.244-0.416-7.897-0.588c0-2.244,0-4.48,0-6.729c5.069,0,10.141,0,15.209,0
			c0,8.775,0,17.55,0,26.32c-8.193,0.686-17.646,0.104-26.324,0.293c0-8.967,0-17.933,0-26.905c2.437,0,4.876,0,7.313,0
			c0,6.534,0,13.065,0,19.597c3.132,0.497,8.271,0.475,11.407,0C86.206,177.884,85.69,172.031,85.377,168.727z"/>
		<path fill="#FFFFFF" d="M167.567,84.197c7.59,23.024,18.567,42.658,35.098,56.742c5.83-14.86,7.608-39.813,2.34-56.742
			C192.525,84.197,180.047,84.197,167.567,84.197z M176.341,37.106c-5.578-5.051-11.77-9.488-18.719-13.162
			c0.243,19.643,3.019,36.757,7.312,52.355c12.48-0.196,25.739,0.389,37.731-0.295c-2.749-6.9-5.832-13.469-9.652-19.301
			C204.687,46.089,188.234,27.832,176.341,37.106z M21.908,141.521c16.461-13.473,27.953-34.439,35.976-57.324
			c-12.87,0-25.739,0-38.608,0C13.908,101.246,15.73,126.861,21.908,141.521z M67.243,23.357
			C46.278,35.246,30.373,52.202,21.615,76.3c12.87,0,25.739,0,38.608,0C64.4,60.684,67.857,42.79,67.243,23.357z M119.306,216.402
			c-35.046,1.537-61.027-11.159-79.557-27.791C20.595,171.425,6.95,148.585,4.358,116.079C1.577,81.193,15.692,53.737,31.853,36.226
			C44.593,22.421,60.171,11.374,81.575,4.93c7.336-2.208,15.654-3.595,23.399-4.092c34.692-2.237,62.25,11.404,80.142,27.787
			c18.368,16.812,32.279,40.822,34.806,73.119c2.682,34.316-11.568,62.168-27.786,79.561
			C175.809,198.805,151.474,214.98,119.306,216.402z M148.555,19.557c-18.535-8.979-53.183-9.324-71.952-0.295
			c0.348,21.51-2.445,39.869-6.435,57.038c28.274,0,56.546,0,84.821,0C151.029,59.201,148.23,40.941,148.555,19.557z
			 M111.994,156.734c-14.776-0.016-27.12-7.824-34.806-16.672c-8.286-9.541-13.68-20.629-16.379-35.395
			c-6.125,14.53-14.209,27.736-23.691,38.611c-3.244,3.715-6.956,6.891-9.652,10.818c16.178,26.855,42.411,50.727,84.822,50.601
			c42.844-0.125,68.641-24.183,84.821-51.183c-6.256-7.336-12.887-14.072-18.427-22.229c-5.504-8.107-10.111-17.053-14.332-26.619
			c-0.017-0.176-0.043-0.345-0.292-0.292c-2.825,14.847-7.891,26.306-16.671,35.979C139.57,148.959,127.259,156.746,111.994,156.734
			z M147.385,119.877c5.227-9.766,9.082-22.071,7.312-35.68c-28.079,0-56.158,0-84.236,0c-0.413,0.073-0.333,0.637-0.585,0.877
			c-1.039,17.935,4.463,31.624,12.577,42.994c8.862,12.421,25.847,23.658,43.581,14.623
			C134.905,138.169,142.305,129.372,147.385,119.877z"/>
	</g>
</g>
</svg>
