<?xml version="1.0" encoding="utf-8"?>
<!-- Generator: Adobe Illustrator 16.0.0, SVG Export Plug-In . SVG Version: 6.00 Build 0)  -->
<!DOCTYPE svg PUBLIC "-//W3C//DTD SVG 1.1//EN" "http://www.w3.org/Graphics/SVG/1.1/DTD/svg11.dtd">
<svg version="1.1" id="图层_1" xmlns="http://www.w3.org/2000/svg" xmlns:xlink="http://www.w3.org/1999/xlink" x="0px" y="0px"
	 width="580px" height="448.713px" viewBox="0 0 580 448.713" enable-background="new 0 0 580 448.713" xml:space="preserve">
<g>
	<g opacity="0.48">
		<g>
			<path fill="#99B5CC" d="M364.885,290.82c0,0-5.023,5.015,0,10.903h0.344c5.021-5.889,0-10.903,0-10.903H364.885z"/>
			<path fill="#99B5CC" d="M354.174,297.195c0,0,1.84,6.86,9.447,5.455l0.172-0.299c-2.586-7.287-9.447-5.448-9.447-5.448
				L354.174,297.195z"/>
			<path fill="#99B5CC" d="M363.793,304.205l-0.172-0.291c-7.607-1.405-9.447,5.448-9.447,5.448l0.172,0.299
				C354.346,309.661,361.207,311.5,363.793,304.205z"/>
			<path fill="#99B5CC" d="M365.229,315.744c0,0,5.021-5.021,0-10.903h-0.344c-5.023,5.882,0,10.903,0,10.903H365.229z"/>
			<path fill="#99B5CC" d="M375.938,309.362c0,0-1.838-6.854-9.447-5.448l-0.172,0.291c2.586,7.295,9.447,5.456,9.447,5.456
				L375.938,309.362z"/>
			<path fill="#99B5CC" d="M366.318,302.352l0.172,0.299c7.609,1.405,9.447-5.448,9.447-5.448l-0.172-0.299
				C375.766,296.903,368.904,295.064,366.318,302.352z"/>
			<path fill="#99B5CC" d="M350.176,328.905l0.561,0.321c0,0,13.109-3.505,10.426-18.041l-0.568-0.329
				C346.664,315.797,350.176,328.905,350.176,328.905z M351.873,327.119l-0.441-0.254c0,0-2.705-10.089,8.02-13.894l0.441,0.247
				C361.955,324.414,351.873,327.119,351.873,327.119z"/>
			<path fill="#99B5CC" d="M359.002,313.712c0,0-6.854,1.831-5.447,9.439l0.291,0.172c7.295-2.586,5.455-9.439,5.455-9.439
				L359.002,313.712z"/>
			<path fill="#99B5CC" d="M379.801,328.98l0.568-0.329c0,0,3.514-13.101-10.418-18.049l-0.568,0.329
				C366.701,325.468,379.801,328.98,379.801,328.98z M370.646,312.972l0.434-0.246c10.732,3.804,8.027,13.894,8.027,13.894
				l-0.434,0.254C378.674,326.873,368.576,324.167,370.646,312.972z"/>
			<path fill="#99B5CC" d="M376.813,323.009c1.404-7.608-5.457-9.446-5.457-9.446l-0.291,0.172c0,0-1.846,6.86,5.449,9.446
				L376.813,323.009z"/>
			<path fill="#99B5CC" d="M394.689,303.36v-0.657c0,0-9.596-9.589-20.844,0v0.657C385.094,312.957,394.689,303.36,394.689,303.36z
				 M376.244,303.286v-0.501c8.662-7.392,16.047,0,16.047,0v0.501C392.291,303.286,384.906,310.678,376.244,303.286z"/>
			<path fill="#99B5CC" d="M377.111,302.965v0.344c0,0,5.021,5.022,10.904,0v-0.344
				C382.133,297.942,377.111,302.965,377.111,302.965z"/>
			<path fill="#99B5CC" d="M379.943,277.659l-0.568-0.329c0,0-13.107,3.513-10.418,18.049l0.561,0.329
				C383.457,290.768,379.943,277.659,379.943,277.659z M378.24,279.445l0.439,0.254c0,0,2.707,10.09-8.025,13.894l-0.434-0.247
				C368.15,282.15,378.24,279.445,378.24,279.445z"/>
			<path fill="#99B5CC" d="M371.109,292.853c0,0,6.854-1.838,5.449-9.446l-0.299-0.164c-7.287,2.585-5.449,9.438-5.449,9.438
				L371.109,292.853z"/>
			<path fill="#99B5CC" d="M350.311,277.584l-0.568,0.321c0,0-3.512,13.102,10.418,18.049l0.568-0.329
				C363.412,281.089,350.311,277.584,350.311,277.584z M359.465,293.585l-0.432,0.255c-10.732-3.813-8.027-13.895-8.027-13.895
				l0.434-0.254C351.439,279.691,361.535,282.397,359.465,293.585z"/>
			<path fill="#99B5CC" d="M353.301,283.556c-1.406,7.608,5.455,9.446,5.455,9.446l0.299-0.172c0,0,1.832-6.86-5.455-9.446
				L353.301,283.556z"/>
			<path fill="#99B5CC" d="M335.424,303.204v0.649c0,0,9.596,9.597,20.844,0v-0.649C345.02,293.607,335.424,303.204,335.424,303.204
				z M353.867,303.278v0.501c-8.66,7.384-16.045,0-16.045,0v-0.501C337.822,303.278,345.207,295.887,353.867,303.278z"/>
			<path fill="#99B5CC" d="M353.002,303.6v-0.344c0,0-5.023-5.021-10.904,0v0.344C347.979,308.615,353.002,303.6,353.002,303.6z"/>
			<path fill="#99B5CC" d="M375.482,330.026c-7.1-0.396-8.35-6.322-8.363-6.382l-0.59-2.997c0-0.149,0-0.299,0-0.441
				c2.113,10.157,8.482,8.782,8.482,8.782c-8.4-5.972-8.482-12.549-8.482-12.549c0-0.336,0-0.516,0-0.516l-1.473,1.555l-1.473-1.555
				c0,0,0,0.18,0,0.516c0,0-0.082,6.577-8.482,12.549c0,0,6.367,1.375,8.482-8.782c0,0.143,0,0.292,0,0.441l-0.59,2.997
				c-0.008,0.06-1.264,5.986-8.363,6.382c-5.172,0.292-6.563,2.803-6.936,4.275c-0.479,1.891,0.029,3.476,1.203,4.268
				c0.396,0.269,1.285,0.673,2.555,0.673c0,0,0,0,0.008,0c2.744,0,7.012-1.921,12.123-10.658c0,0.65,0,1.323,0,1.996
				c-0.875,0.635-4.807,3.818-3.805,9.051c1.121,5.889-1.645,5.455-3.027,5.373c0,0,1.645,3.371,4.5,1.121s-0.232-7.848-0.09-9.604
				c0.232-2.915,1.48-3.722,2.422-4.17c0,3.505,0,7.174,0,10.567c-0.285,1.809-1.555,5.71-7.092,4.245
				c-4.59-1.211-0.695-6.233,1.121-4.238c0,0-0.936-3.505-4.328-1.562c-4.066,2.339-0.867,9.35,5.717,7.705
				c0.756-0.194,1.406-0.418,1.967-0.673c-1.727,1.615-3.768,3.678-4.553,5.045c-0.896,1.577-0.238,3.102,0.875,3.789
				c0.449,0.284,0.979,0.434,1.539,0.434c1.023,0,2.139-0.516,2.975-1.756c0.674-0.994,1.279-1.98,1.779-2.855
				c0,0.591,0,1.121,0,1.577l-1.846,3.116c1.518,0.763,1.92,1.607,1.801,2.616c-0.119,0.972-0.986,1.502-0.986,1.502
				c-0.389,0.21-0.867,0.21-1.264-0.052c-0.447-0.299-0.568-0.904-0.27-1.36c0.24-0.352,0.727-0.448,1.084-0.21
				c0.285,0.188,0.367,0.576,0.172,0.86l0.016,0.029c0.336-0.142,0.598-0.456,0.643-0.852c0.082-0.71-0.434-1.36-1.15-1.442
				c-0.896-0.104-1.705,0.538-1.809,1.435c-0.127,1.121,0.508,1.974,1.793,2.265c0.494,0.104,2.66,0.575,3.342,3.453
				c0.68-2.878,2.854-3.349,3.34-3.453c1.285-0.291,1.928-1.144,1.801-2.265c-0.104-0.896-0.912-1.539-1.816-1.435
				c-0.709,0.082-1.225,0.732-1.143,1.442c0.045,0.396,0.299,0.71,0.643,0.852l0.008-0.029c-0.188-0.284-0.113-0.673,0.18-0.86
				c0.35-0.238,0.844-0.142,1.076,0.21c0.299,0.456,0.178,1.062-0.27,1.36c-0.389,0.262-0.875,0.262-1.264,0.052
				c0,0-0.867-0.53-0.986-1.502c-0.119-1.024,0.299-1.868,1.869-2.646l-2.018-3.057c0-0.464,0-1.002,0-1.607
				c0.5,0.875,1.098,1.861,1.777,2.855c0.838,1.24,1.951,1.756,2.975,1.756c0.561,0,1.1-0.149,1.539-0.434
				c1.115-0.688,1.771-2.212,0.875-3.789c-0.785-1.367-2.824-3.43-4.551-5.045c0.561,0.255,1.211,0.479,1.965,0.673
				c6.584,1.645,9.783-5.366,5.717-7.705c-3.393-1.943-4.326,1.562-4.326,1.562c1.816-1.995,5.709,3.027,1.121,4.238
				c-5.539,1.465-6.801-2.437-7.092-4.245c0-3.394,0-7.063,0-10.567c0.941,0.448,2.189,1.255,2.42,4.17
				c0.143,1.756-2.943,7.354-0.082,9.604c2.855,2.25,4.5-1.121,4.5-1.121c-1.391,0.082-4.156,0.516-3.035-5.373
				c1.002-5.232-2.93-8.416-3.803-9.051c0-0.673,0-1.346,0-1.996c5.111,8.737,9.379,10.658,12.129,10.658l0,0
				c1.27,0,2.16-0.404,2.557-0.673c1.172-0.792,1.682-2.377,1.203-4.268C382.051,332.829,380.654,330.318,375.482,330.026z
				 M351.402,333.226c-0.396,0.037-0.748,0.187-1.039,0.456c-0.695,0.65-0.732,1.748-0.082,2.443c0.59,0.628,1.307,0.763,1.965,0.74
				c0.209-0.015,0.418-0.037,0.613-0.067c1.105-0.172,3.789-1.719,6.486-4.642c-3.586,4.672-6.352,5.523-7.893,5.523
				c-0.889,0-1.508-0.225-1.74-0.441c-0.471-0.44-0.83-1.27-0.508-2.556c0.463-1.823,2.414-2.93,5.508-3.102
				c1.996-0.104,3.602-0.605,4.881-1.293c-3.059,3.774-6.16,5.366-6.893,5.485c-0.844,0.128-1.291,0.03-1.658-0.358
				c-0.164-0.179-0.209-0.418-0.156-0.643c0.178,0.284,0.492,0.471,0.852,0.456c0.523-0.015,0.934-0.464,0.912-0.986
				C352.635,333.756,352.164,333.15,351.402,333.226z M358.113,355.908c-0.449-0.276-0.801-0.882-0.344-1.689
				c0.059-0.104,0.127-0.209,0.201-0.321c-0.021,0.112-0.045,0.225-0.045,0.344c0,0.822,0.666,1.479,1.488,1.479
				c0.23,0,0.455-0.06,0.65-0.156C359.383,356.207,358.629,356.236,358.113,355.908z M363.584,349.757
				c-0.434,0.882-1.428,2.788-2.721,4.761c0.016-0.09,0.029-0.179,0.029-0.276c0-0.822-0.664-1.479-1.479-1.479
				c-0.27,0-0.51,0.074-0.725,0.194c1.404-1.675,3.676-3.737,4.895-4.806C363.584,348.703,363.584,349.241,363.584,349.757z
				 M372.141,353.897c0.076,0.112,0.143,0.217,0.203,0.321c0.463,0.808,0.104,1.413-0.344,1.689
				c-0.516,0.328-1.271,0.299-1.951-0.344c0.193,0.097,0.418,0.156,0.65,0.156c0.822,0,1.486-0.657,1.486-1.479
				C372.186,354.122,372.164,354.01,372.141,353.897z M371.424,352.956c-0.217-0.12-0.457-0.194-0.725-0.194
				c-0.814,0-1.48,0.657-1.48,1.479c0,0.098,0.016,0.187,0.029,0.276c-1.285-1.973-2.279-3.879-2.719-4.761c0-0.516,0-1.054,0-1.606
				C367.754,349.219,370.02,351.281,371.424,352.956z M380.4,337.238c-0.232,0.217-0.854,0.441-1.742,0.441
				c-1.539,0-4.297-0.852-7.885-5.523c2.691,2.923,5.373,4.47,6.48,4.642c0.193,0.03,0.402,0.053,0.611,0.067
				c0.658,0.022,1.375-0.112,1.967-0.74c0.65-0.695,0.611-1.793-0.082-2.443c-0.293-0.27-0.643-0.419-1.039-0.456
				c-0.764-0.075-1.234,0.53-1.248,1.017c-0.023,0.522,0.389,0.972,0.912,0.986c0.357,0.015,0.672-0.172,0.852-0.456
				c0.053,0.225,0.008,0.464-0.158,0.643c-0.365,0.389-0.814,0.486-1.658,0.358c-0.732-0.119-3.834-1.711-6.891-5.485
				c1.285,0.688,2.885,1.188,4.881,1.293c3.094,0.172,5.043,1.278,5.508,3.102C381.229,335.969,380.871,336.798,380.4,337.238z"/>
			<path fill="#99B5CC" d="M418.066,329.967c0.396-1.256-0.021-2.234-1.061-2.683c-0.822-0.359-1.787,0.015-2.145,0.845
				c-0.293,0.665,0.014,1.435,0.68,1.719c0.357,0.156,0.762,0.097,1.053-0.135l-0.014-0.022c-0.344,0.022-0.643-0.239-0.666-0.583
				c-0.029-0.426,0.299-0.8,0.725-0.829c0.547-0.03,1.002,0.373,1.039,0.911c0.029,0.471-0.209,0.897-0.582,1.121
				c0,0-0.891,0.486-1.795,0.104c-0.941-0.403-1.471-1.188-1.359-2.937l-3.654,0.224c-0.404-0.239-0.867-0.508-1.398-0.807
				c1.018,0,2.176-0.03,3.371-0.112c1.486-0.104,2.496-0.814,3.012-1.704c0.277-0.485,0.41-1.023,0.389-1.547
				c-0.037-1.315-1.031-2.639-2.84-2.653c-1.584-0.008-4.387,0.732-6.652,1.42c0.502-0.358,1.025-0.807,1.57-1.367
				c4.715-4.873,0.246-11.158-3.813-8.805c-3.385,1.966-0.814,4.529-0.814,4.529c-0.822-2.57,5.479-3.431,4.23,1.144
				c-1.502,5.53-5.516,4.679-7.227,4.028c-2.938-1.696-6.113-3.527-9.148-5.284c0.859-0.598,2.184-1.277,4.82-0.015
				c1.592,0.755,4.904,6.226,8.281,4.881c3.371-1.354,1.271-4.462,1.271-4.462c-0.613,1.24-1.631,3.856-6.158-0.061
				c-4.037-3.49-8.76-1.674-9.746-1.232c-0.592-0.337-1.166-0.673-1.734-0.994c10.127-0.06,13.916-2.803,15.291-5.18l0,0
				c0.643-1.105,0.74-2.07,0.703-2.548c-0.105-1.413-1.219-2.646-3.094-3.177c-1.459-0.419-4.336-0.464-7.168,3.864
				c-3.895,5.956-9.656,4.08-9.715,4.058l-2.887-0.986c-0.127-0.075-0.26-0.149-0.381-0.225c9.852,3.244,11.846-2.952,11.846-2.952
				c-9.371,4.283-15.111,1.069-15.111,1.069c-0.291-0.165-0.447-0.254-0.447-0.254l0.619,2.048l-2.092,0.493
				c0,0,0.164,0.097,0.447,0.261c0,0,5.658,3.363,6.629,13.625c0,0,4.373-4.828-3.363-11.741c0.129,0.075,0.256,0.149,0.383,0.217
				l2.301,2.011c0.045,0.045,4.553,4.096,1.346,10.44c-2.34,4.626-0.859,7.085,0.232,8.146c1.396,1.353,3.02,1.704,4.297,1.083
				c0.426-0.209,1.219-0.777,1.861-1.875l0,0c1.375-2.385,1.846-7.033-3.17-15.837c0.568,0.329,1.15,0.665,1.734,1.001
				c0.111,1.076,0.896,6.076,5.934,7.825c5.666,1.966,3.902,4.155,3.139,5.307c0,0,3.744,0.261,3.223-3.334
				c-0.523-3.602-6.906-3.729-8.363-4.73c-2.406-1.659-2.482-3.139-2.4-4.186c3.043,1.757,6.219,3.595,9.156,5.292
				c1.42,1.15,4.162,4.2,0.127,8.266c-3.342,3.363-5.748-2.519-3.109-3.094c0,0-3.506-0.942-3.512,2.967
				c-0.016,4.693,7.66,5.426,9.527-1.099c0.211-0.747,0.338-1.428,0.396-2.04c0.539,2.309,1.301,5.104,2.1,6.464
				c0.912,1.569,2.564,1.765,3.715,1.144c0.471-0.246,0.867-0.635,1.152-1.121c0.508-0.882,0.619-2.114-0.039-3.452
				c-0.521-1.084-1.076-2.093-1.584-2.975c0.516,0.299,0.973,0.561,1.367,0.792l1.771,3.161c1.42-0.934,2.355-0.866,3.17-0.254
				c0.785,0.591,0.807,1.606,0.807,1.606c-0.008,0.441-0.254,0.853-0.68,1.062c-0.479,0.239-1.068,0.045-1.309-0.44
				c-0.186-0.389-0.029-0.853,0.359-1.047c0.307-0.149,0.68-0.022,0.836,0.284l0.023,0.008c0.053-0.366-0.09-0.748-0.412-0.987
				c-0.582-0.426-1.396-0.306-1.822,0.277c-0.539,0.717-0.389,1.741,0.336,2.279c0.904,0.673,1.965,0.545,2.855-0.426
				c0.344-0.366,1.83-2.019,4.662-1.166C417.236,332.561,417.918,330.445,418.066,329.967z M412.813,322.441
				c0.928,0,1.277,0.62,1.293,1.143c0.023,0.605-0.381,1.248-1.277,1.518c0.186-0.127,0.352-0.284,0.471-0.485
				c0.402-0.71,0.164-1.614-0.547-2.025c-0.104-0.061-0.209-0.104-0.32-0.135C412.566,322.441,412.693,322.441,412.813,322.441z
				 M394.742,308.48c1.695-2.594,3.623-3.744,5.432-3.229c1.279,0.366,1.816,1.091,1.959,1.719c0.074,0.307-0.045,0.956-0.486,1.733
				c-0.77,1.331-2.893,3.296-8.721,4.065c3.879-0.874,6.555-2.421,7.256-3.295c0.121-0.15,0.248-0.322,0.359-0.501
				c0.352-0.554,0.598-1.241,0.344-2.063c-0.277-0.912-1.24-1.428-2.152-1.159c-0.381,0.12-0.688,0.352-0.92,0.681
				c-0.439,0.62-0.156,1.322,0.262,1.584c0.441,0.284,1.031,0.149,1.309-0.299c0.193-0.299,0.188-0.665,0.029-0.956
				c0.217,0.06,0.412,0.217,0.479,0.448c0.156,0.516,0.016,0.949-0.516,1.614c-0.471,0.583-3.4,2.466-8.199,3.229
				C392.41,311.29,393.643,310.146,394.742,308.48z M387.014,330.229c-0.307,0.792-0.613,1.136-1.137,1.256
				c-0.238,0.052-0.471-0.03-0.635-0.188c0.336-0.007,0.658-0.194,0.822-0.508c0.246-0.463,0.066-1.039-0.396-1.285
				c-0.434-0.225-1.188-0.12-1.51,0.567c-0.164,0.366-0.217,0.748-0.119,1.136c0.217,0.928,1.145,1.503,2.07,1.286
				c0.838-0.194,1.314-0.747,1.621-1.323c0.098-0.194,0.18-0.381,0.254-0.567c0.404-1.039,0.404-4.141-0.777-7.938
				c2.25,5.44,1.607,8.266,0.838,9.589c-0.441,0.777-0.949,1.203-1.256,1.293c-0.613,0.194-1.51,0.082-2.467-0.837
				c-1.352-1.308-1.322-3.558,0.076-6.323c0.896-1.778,1.27-3.415,1.314-4.872C387.455,326.051,387.283,329.533,387.014,330.229z
				 M405.078,332.912c-0.127,0.224-0.188,0.471-0.188,0.717c-0.748-2.048-1.398-5.045-1.711-6.644
				c0.479,0.283,0.949,0.553,1.396,0.807c0.539,0.822,1.689,2.639,2.75,4.738c-0.066-0.06-0.141-0.112-0.217-0.164
				C406.4,331.955,405.488,332.201,405.078,332.912z M407.648,334.392c0.119-0.202,0.18-0.427,0.188-0.643
				c0.217,0.911-0.135,1.576-0.674,1.86c-0.463,0.247-1.166,0.254-1.637-0.553c-0.059-0.098-0.119-0.217-0.18-0.336
				c0.084,0.082,0.172,0.156,0.277,0.216C406.334,335.341,407.238,335.102,407.648,334.392z M406.041,325.244
				c-0.447-0.255-0.912-0.523-1.396-0.8c1.547-0.523,4.461-1.465,6.613-1.839c-0.217,0.127-0.396,0.299-0.529,0.523
				c-0.412,0.71-0.166,1.614,0.545,2.025c0.082,0.045,0.164,0.082,0.246,0.111C409.174,325.4,407.021,325.304,406.041,325.244z"/>
			<path fill="#99B5CC" d="M383.008,280.88c3.207,6.345-1.301,10.396-1.346,10.434l-2.301,2.01
				c-0.127,0.075-0.254,0.149-0.383,0.225c7.736-6.921,3.363-11.741,3.363-11.741c-0.971,10.262-6.629,13.625-6.629,13.625
				c-0.283,0.164-0.447,0.254-0.447,0.254l2.092,0.493l-0.619,2.056c0,0,0.156-0.09,0.447-0.262c0,0,5.74-3.214,15.111,1.076
				c0,0-1.994-6.203-11.846-2.96c0.121-0.067,0.254-0.142,0.381-0.217l2.887-0.986c0.059-0.022,5.82-1.906,9.715,4.051
				c2.832,4.335,5.709,4.282,7.168,3.871c1.875-0.538,2.988-1.764,3.094-3.177c0.037-0.478-0.061-1.449-0.703-2.548l0,0
				c-1.375-2.384-5.164-5.12-15.291-5.18c0.568-0.328,1.143-0.657,1.734-1.001c0.986,0.44,5.701,2.257,9.746-1.226
				c4.527-3.917,5.545-1.301,6.158-0.06c0,0,2.1-3.117-1.279-4.462c-3.369-1.346-6.682,4.118-8.273,4.88
				c-2.637,1.256-3.961,0.575-4.82-0.015c3.035-1.757,6.211-3.588,9.148-5.284c1.711-0.65,5.725-1.502,7.227,4.021
				c1.248,4.582-5.053,3.715-4.23,1.151c0,0-2.57,2.563,0.814,4.521c4.059,2.354,8.527-3.924,3.813-8.797
				c-0.545-0.561-1.068-1.016-1.57-1.367c2.266,0.688,5.068,1.42,6.652,1.412c1.809-0.007,2.803-1.338,2.84-2.646
				c0.021-0.53-0.111-1.068-0.389-1.555c-0.516-0.889-1.525-1.592-3.012-1.696c-1.195-0.09-2.354-0.112-3.371-0.112
				c0.516-0.299,0.973-0.561,1.375-0.792l3.617,0.053c-0.096-1.704,0.434-2.475,1.369-2.878c0.896-0.381,1.793,0.104,1.793,0.104
				c0.373,0.232,0.613,0.65,0.582,1.121c-0.037,0.538-0.5,0.949-1.039,0.912c-0.426-0.029-0.754-0.403-0.725-0.829
				c0.023-0.345,0.322-0.605,0.658-0.583l0.023-0.022c-0.293-0.225-0.695-0.292-1.063-0.135c-0.658,0.291-0.963,1.062-0.672,1.719
				c0.357,0.83,1.314,1.211,2.145,0.845c1.039-0.448,1.457-1.428,1.061-2.684c-0.148-0.478-0.828-2.593,1.324-4.618
				c-2.834,0.852-4.328-0.8-4.664-1.166c-0.889-0.972-1.951-1.099-2.855-0.426c-0.725,0.538-0.881,1.562-0.344,2.287
				c0.434,0.575,1.248,0.694,1.832,0.269c0.313-0.231,0.463-0.612,0.41-0.979h-0.029c-0.15,0.313-0.523,0.44-0.838,0.283
				c-0.381-0.187-0.545-0.657-0.352-1.046c0.24-0.485,0.822-0.68,1.309-0.44c0.418,0.209,0.672,0.627,0.68,1.068
				c0,0-0.021,1.009-0.807,1.6c-0.822,0.62-1.771,0.68-3.229-0.284l-1.637,3.273c-0.404,0.231-0.867,0.501-1.391,0.8
				c0.508-0.875,1.063-1.884,1.584-2.968c0.658-1.345,0.547-2.57,0.039-3.46c-0.285-0.485-0.682-0.867-1.152-1.113
				c-1.15-0.62-2.803-0.426-3.715,1.136c-0.799,1.368-1.561,4.163-2.1,6.465c-0.059-0.605-0.186-1.285-0.396-2.04
				c-1.867-6.518-9.543-5.785-9.527-1.092c0.006,3.909,3.512,2.967,3.512,2.967c-2.639-0.582-0.232-6.464,3.109-3.094
				c4.035,4.065,1.293,7.115-0.127,8.266c-2.938,1.697-6.113,3.535-9.156,5.284c-0.082-1.039-0.006-2.526,2.4-4.178
				c1.457-1.001,7.84-1.136,8.363-4.73c0.521-3.603-3.223-3.341-3.223-3.341c0.764,1.158,2.527,3.341-3.139,5.313
				c-5.037,1.749-5.822,6.741-5.934,7.825c-0.584,0.336-1.166,0.673-1.734,0.994c5.016-8.797,4.537-13.453,3.17-15.829l0,0
				c-0.643-1.106-1.436-1.675-1.861-1.884c-1.277-0.62-2.9-0.262-4.297,1.091C382.148,273.787,380.668,276.254,383.008,280.88z
				 M399.383,298.847c-0.277-0.448-0.867-0.583-1.309-0.307c-0.418,0.262-0.701,0.972-0.262,1.592
				c0.232,0.329,0.539,0.561,0.92,0.673c0.912,0.276,1.875-0.239,2.152-1.15c0.246-0.822,0.008-1.51-0.344-2.07
				c-0.111-0.18-0.238-0.344-0.359-0.501c-0.701-0.867-3.385-2.422-7.256-3.288c5.828,0.77,7.951,2.734,8.721,4.065
				c0.441,0.77,0.561,1.427,0.486,1.733c-0.143,0.628-0.68,1.354-1.959,1.712c-1.809,0.516-3.744-0.628-5.439-3.222
				c-1.092-1.674-2.324-2.81-3.559-3.572c4.799,0.755,7.729,2.646,8.199,3.229c0.531,0.658,0.672,1.099,0.516,1.607
				c-0.074,0.239-0.262,0.396-0.479,0.456C399.57,299.512,399.576,299.146,399.383,298.847z M412.752,283.975
				c0.711-0.411,0.949-1.316,0.547-2.025c-0.119-0.202-0.285-0.367-0.471-0.486c0.896,0.27,1.301,0.904,1.277,1.518
				c-0.016,0.522-0.365,1.136-1.293,1.143c-0.119,0-0.246-0.007-0.381-0.015C412.543,284.079,412.648,284.034,412.752,283.975z
				 M411.52,281.291c-0.082,0.03-0.164,0.067-0.246,0.119c-0.711,0.404-0.957,1.315-0.545,2.019c0.133,0.231,0.313,0.403,0.529,0.53
				c-2.152-0.381-5.066-1.315-6.613-1.838c0.484-0.277,0.949-0.546,1.396-0.808C407.021,281.254,409.174,281.164,411.52,281.291z
				 M405.525,271.501c0.471-0.8,1.174-0.8,1.637-0.546c0.539,0.284,0.891,0.949,0.674,1.861c-0.008-0.217-0.068-0.441-0.188-0.644
				c-0.41-0.71-1.314-0.956-2.025-0.545c-0.105,0.06-0.193,0.134-0.277,0.209C405.406,271.717,405.467,271.605,405.525,271.501z
				 M404.891,272.936c0,0.246,0.061,0.493,0.188,0.718c0.41,0.71,1.314,0.949,2.031,0.545c0.076-0.052,0.15-0.104,0.217-0.164
				c-1.061,2.101-2.211,3.916-2.75,4.738c-0.447,0.254-0.918,0.523-1.396,0.8C403.492,277.98,404.143,274.983,404.891,272.936z
				 M384.322,273.854c0.957-0.927,1.854-1.031,2.467-0.845c0.307,0.098,0.814,0.523,1.256,1.293c0.77,1.331,1.412,4.148-0.838,9.589
				c1.182-3.796,1.182-6.891,0.777-7.929c-0.074-0.188-0.156-0.382-0.254-0.568c-0.307-0.576-0.783-1.136-1.621-1.33
				c-0.926-0.217-1.861,0.366-2.07,1.293c-0.098,0.389-0.045,0.762,0.119,1.128c0.322,0.695,1.076,0.8,1.51,0.568
				c0.463-0.247,0.643-0.814,0.396-1.286c-0.164-0.313-0.486-0.493-0.822-0.5c0.164-0.157,0.396-0.247,0.635-0.188
				c0.523,0.12,0.83,0.456,1.137,1.256c0.27,0.695,0.441,4.178-1.301,8.715c-0.045-1.458-0.418-3.095-1.314-4.881
				C383,277.412,382.971,275.163,384.322,273.854z"/>
			<path fill="#99B5CC" d="M354.631,276.538c7.1,0.389,8.355,6.322,8.363,6.382l0.59,2.997c0,0.143,0,0.299,0,0.441
				c-2.115-10.164-8.482-8.782-8.482-8.782c8.4,5.972,8.482,12.549,8.482,12.549c0,0.336,0,0.516,0,0.516l1.473-1.563l1.473,1.563
				c0,0,0-0.18,0-0.516c0,0,0.082-6.577,8.482-12.549c0,0-6.369-1.382-8.482,8.782c0-0.149,0-0.292,0-0.441l0.59-2.997
				c0.014-0.06,1.264-5.993,8.363-6.39c5.172-0.284,6.568-2.795,6.936-4.268c0.479-1.891-0.031-3.476-1.203-4.268
				c-0.396-0.269-1.287-0.665-2.557-0.672c0,0,0,0-0.008,0c-2.742,0-7.01,1.913-12.121,10.657c0-0.658,0-1.323,0-1.996
				c0.873-0.643,4.805-3.818,3.803-9.058c-1.121-5.882,1.645-5.456,3.035-5.366c0,0-1.652-3.378-4.508-1.129
				c-2.854,2.258,0.225,7.855,0.09,9.611c-0.23,2.915-1.479,3.723-2.42,4.171c0-3.513,0-7.183,0-10.568
				c0.283-1.809,1.553-5.71,7.092-4.245c4.588,1.211,0.695,6.226-1.121,4.238c0,0,0.934,3.505,4.326,1.555
				c4.066-2.332,0.867-9.343-5.717-7.698c-0.754,0.187-1.404,0.418-1.965,0.673c1.727-1.622,3.766-3.678,4.551-5.053
				c0.896-1.569,0.24-3.094-0.875-3.789c-0.447-0.276-0.979-0.434-1.539-0.434c-1.023,0-2.137,0.523-2.975,1.757
				c-0.68,1.001-1.277,1.98-1.777,2.862c0-0.591,0-1.121,0-1.577l1.846-3.116c-1.518-0.771-1.93-1.607-1.803-2.616
				c0.121-0.972,0.988-1.502,0.988-1.502c0.381-0.209,0.865-0.209,1.262,0.052c0.449,0.3,0.568,0.904,0.27,1.354
				c-0.238,0.358-0.725,0.455-1.084,0.217c-0.291-0.188-0.365-0.576-0.172-0.867l-0.008-0.022c-0.344,0.135-0.605,0.456-0.65,0.845
				c-0.082,0.717,0.434,1.367,1.152,1.449c0.896,0.105,1.703-0.545,1.809-1.435c0.127-1.121-0.508-1.973-1.795-2.265
				c-0.492-0.104-2.668-0.575-3.34-3.453c-0.68,2.878-2.855,3.349-3.342,3.453c-1.285,0.292-1.928,1.144-1.801,2.265
				c0.105,0.896,0.912,1.54,1.809,1.435c0.719-0.082,1.234-0.732,1.152-1.449c-0.045-0.389-0.299-0.71-0.643-0.845l-0.008,0.022
				c0.186,0.291,0.111,0.68-0.18,0.867c-0.352,0.238-0.846,0.142-1.076-0.217c-0.299-0.449-0.18-1.054,0.27-1.354
				c0.389-0.261,0.873-0.261,1.262-0.052c0,0,0.867,0.523,0.98,1.502c0.127,1.017-0.293,1.868-1.861,2.646l2.018,3.057
				c0,0.464,0,1.002,0,1.607c-0.5-0.882-1.105-1.869-1.779-2.862c-0.836-1.233-1.951-1.757-2.975-1.757
				c-0.561,0-1.098,0.157-1.539,0.434c-1.113,0.695-1.771,2.22-0.875,3.789c0.785,1.375,2.826,3.431,4.553,5.053
				c-0.561-0.255-1.211-0.486-1.975-0.673c-6.576-1.645-9.775,5.366-5.709,7.698c3.393,1.95,4.328-1.555,4.328-1.555
				c-1.816,1.987-5.711-3.027-1.121-4.238c5.537-1.465,6.801,2.437,7.092,4.245c0,3.386,0,7.056,0,10.568
				c-0.941-0.448-2.189-1.256-2.422-4.171c-0.143-1.756,2.945-7.354,0.09-9.611c-2.863-2.249-4.506,1.129-4.506,1.129
				c1.389-0.09,4.154-0.516,3.033,5.366c-1.002,5.239,2.93,8.415,3.805,9.058c0,0.673,0,1.346,0,1.996
				c-5.111-8.744-9.379-10.65-12.131-10.65v-0.007c-1.27,0-2.158,0.403-2.555,0.672c-1.174,0.792-1.682,2.377-1.203,4.268
				C348.061,273.735,349.459,276.246,354.631,276.538z M378.711,273.339c0.396-0.037,0.746-0.187,1.039-0.456
				c0.693-0.649,0.732-1.748,0.082-2.443c-0.592-0.628-1.309-0.763-1.967-0.74c-0.209,0.008-0.418,0.037-0.611,0.067
				c-1.107,0.172-3.789,1.712-6.48,4.634c3.588-4.664,6.346-5.516,7.885-5.516c0.889,0,1.51,0.225,1.742,0.441
				c0.471,0.434,0.828,1.271,0.508,2.556c-0.465,1.823-2.414,2.922-5.508,3.094c-1.996,0.112-3.596,0.613-4.881,1.301
				c3.057-3.774,6.158-5.374,6.891-5.485c0.844-0.127,1.293-0.038,1.658,0.358c0.166,0.18,0.211,0.419,0.158,0.643
				c-0.18-0.284-0.494-0.471-0.852-0.456c-0.523,0.016-0.936,0.456-0.912,0.986C377.477,272.809,377.947,273.414,378.711,273.339z
				 M372,250.649c0.447,0.276,0.807,0.889,0.344,1.696c-0.061,0.104-0.127,0.209-0.203,0.321c0.023-0.112,0.045-0.225,0.045-0.344
				c0-0.822-0.664-1.479-1.486-1.479c-0.232,0-0.457,0.052-0.65,0.156C370.729,250.357,371.484,250.328,372,250.649z M366.529,256.8
				c0.439-0.874,1.434-2.78,2.719-4.753c-0.014,0.09-0.029,0.18-0.029,0.276c0,0.814,0.666,1.479,1.48,1.479
				c0.262,0,0.508-0.074,0.725-0.194c-1.404,1.675-3.678,3.729-4.895,4.806C366.529,257.854,366.529,257.315,366.529,256.8z
				 M357.971,252.667c-0.074-0.112-0.143-0.217-0.201-0.321c-0.457-0.808-0.105-1.42,0.344-1.696
				c0.516-0.321,1.27-0.292,1.951,0.351c-0.195-0.097-0.42-0.156-0.658-0.156c-0.814,0-1.48,0.657-1.48,1.479
				C357.926,252.442,357.941,252.555,357.971,252.667z M363.584,258.414c-1.227-1.076-3.49-3.131-4.895-4.806
				c0.215,0.12,0.455,0.194,0.717,0.194c0.822,0,1.486-0.665,1.486-1.479c0-0.097-0.014-0.187-0.029-0.276
				c1.285,1.973,2.279,3.879,2.721,4.753C363.584,257.315,363.584,257.854,363.584,258.414z M349.713,269.326
				c0.232-0.217,0.852-0.441,1.74-0.441c1.533,0,4.299,0.852,7.893,5.516c-2.697-2.922-5.381-4.462-6.486-4.634
				c-0.195-0.03-0.404-0.06-0.613-0.067c-0.658-0.022-1.375,0.112-1.965,0.74c-0.65,0.695-0.613,1.794,0.082,2.443
				c0.291,0.27,0.643,0.419,1.039,0.456c0.762,0.075,1.232-0.53,1.248-1.017c0.021-0.53-0.389-0.971-0.92-0.986
				c-0.352-0.015-0.666,0.172-0.844,0.456c-0.053-0.224-0.008-0.463,0.156-0.643c0.367-0.396,0.814-0.493,1.658-0.358
				c0.732,0.111,3.834,1.711,6.893,5.485c-1.287-0.688-2.885-1.188-4.881-1.301c-3.094-0.172-5.045-1.271-5.508-3.094
				C348.883,270.597,349.242,269.76,349.713,269.326z"/>
			<path fill="#99B5CC" d="M312.045,276.598c-0.396,1.256,0.023,2.234,1.063,2.683c0.822,0.359,1.785-0.015,2.145-0.844
				c0.291-0.665-0.016-1.436-0.68-1.72c-0.359-0.156-0.764-0.097-1.055,0.127l0.016,0.03c0.344-0.022,0.643,0.231,0.664,0.583
				c0.031,0.426-0.299,0.8-0.725,0.822c-0.537,0.037-1.002-0.374-1.039-0.904c-0.029-0.471,0.209-0.896,0.584-1.129
				c0,0,0.889-0.479,1.793-0.097c0.941,0.403,1.473,1.188,1.361,2.937l3.654-0.217c0.402,0.232,0.867,0.501,1.396,0.8
				c-1.016,0-2.174,0.022-3.371,0.112c-1.486,0.104-2.496,0.814-3.012,1.696c-0.275,0.486-0.41,1.024-0.395,1.555
				c0.045,1.308,1.037,2.639,2.848,2.646c1.584,0.008,4.387-0.725,6.65-1.412c-0.5,0.358-1.023,0.807-1.568,1.367
				c-4.717,4.873-0.248,11.151,3.811,8.797c3.385-1.958,0.814-4.521,0.814-4.521c0.814,2.571-5.479,3.431-4.23-1.151
				c1.502-5.522,5.516-4.671,7.221-4.021c2.938,1.696,6.113,3.527,9.154,5.284c-0.859,0.598-2.182,1.271-4.82,0.015
				c-1.592-0.762-4.902-6.226-8.281-4.88c-3.369,1.353-1.27,4.462-1.27,4.462c0.619-1.241,1.629-3.857,6.158,0.06
				c4.035,3.482,8.76,1.666,9.746,1.226c0.59,0.344,1.166,0.673,1.732,1.001c-10.127,0.06-13.916,2.796-15.291,5.18l0,0
				c-0.643,1.099-0.738,2.07-0.701,2.548c0.104,1.413,1.217,2.639,3.094,3.177c1.457,0.419,4.334,0.464,7.166-3.871
				c3.895-5.949,9.656-4.073,9.709-4.051l2.893,0.986c0.135,0.075,0.262,0.149,0.381,0.217c-9.857-3.243-11.846,2.96-11.846,2.96
				c9.373-4.29,15.111-1.069,15.111-1.069c0.293,0.165,0.449,0.255,0.449,0.255l-0.613-2.056l2.086-0.493
				c0,0-0.164-0.09-0.449-0.254c0,0-5.658-3.363-6.629-13.625c0,0-4.373,4.828,3.363,11.741c-0.127-0.075-0.254-0.149-0.381-0.225
				l-2.303-2.01c-0.045-0.038-4.551-4.089-1.346-10.434c2.34-4.626,0.859-7.085-0.23-8.146c-1.398-1.353-3.027-1.711-4.297-1.091
				c-0.434,0.209-1.219,0.777-1.861,1.884l0,0c-1.367,2.376-1.846,7.032,3.168,15.829c-0.568-0.321-1.15-0.658-1.734-0.994
				c-0.111-1.084-0.896-6.076-5.934-7.825c-5.664-1.973-3.908-4.155-3.131-5.306c0,0-3.752-0.27-3.229,3.333
				c0.523,3.595,6.906,3.729,8.363,4.73c2.406,1.651,2.48,3.139,2.398,4.178c-3.041-1.749-6.219-3.587-9.154-5.284
				c-1.42-1.15-4.164-4.2-0.127-8.266c3.34-3.37,5.746,2.512,3.107,3.094c0,0,3.506,0.942,3.514-2.967
				c0.014-4.693-7.66-5.426-9.529,1.092c-0.209,0.755-0.336,1.435-0.396,2.04c-0.537-2.302-1.307-5.097-2.1-6.465
				c-0.912-1.562-2.557-1.756-3.715-1.136c-0.463,0.246-0.867,0.635-1.15,1.113c-0.508,0.89-0.621,2.115,0.037,3.46
				c0.523,1.084,1.076,2.093,1.584,2.975c-0.516-0.299-0.971-0.567-1.367-0.792l-1.771-3.161c-1.42,0.935-2.354,0.867-3.168,0.254
				c-0.785-0.591-0.809-1.606-0.809-1.606c0.008-0.441,0.256-0.859,0.682-1.062c0.479-0.239,1.068-0.045,1.307,0.44
				c0.188,0.382,0.031,0.853-0.352,1.047c-0.313,0.149-0.688,0.022-0.844-0.284l-0.021-0.008c-0.053,0.366,0.088,0.748,0.41,0.987
				c0.582,0.426,1.398,0.306,1.83-0.277c0.531-0.725,0.383-1.748-0.344-2.279c-0.904-0.672-1.965-0.545-2.854,0.426
				c-0.336,0.367-1.832,2.011-4.664,1.159C312.875,274.004,312.195,276.119,312.045,276.598z M317.299,284.123
				c-0.926-0.007-1.277-0.62-1.293-1.143c-0.021-0.605,0.381-1.248,1.279-1.518c-0.188,0.119-0.352,0.284-0.471,0.486
				c-0.404,0.709-0.166,1.614,0.545,2.025c0.105,0.06,0.209,0.104,0.32,0.134C317.547,284.116,317.42,284.123,317.299,284.123z
				 M335.371,298.084c-1.689,2.594-3.625,3.737-5.434,3.222c-1.277-0.358-1.816-1.084-1.959-1.712
				c-0.074-0.307,0.045-0.964,0.486-1.733c0.77-1.331,2.893-3.296,8.723-4.065c-3.879,0.866-6.555,2.421-7.258,3.288
				c-0.119,0.157-0.246,0.321-0.359,0.508c-0.35,0.554-0.598,1.241-0.344,2.063c0.277,0.911,1.242,1.427,2.152,1.15
				c0.383-0.112,0.689-0.344,0.92-0.673c0.441-0.62,0.156-1.33-0.262-1.584c-0.441-0.284-1.031-0.149-1.307,0.299
				c-0.195,0.299-0.188,0.665-0.031,0.957c-0.217-0.061-0.41-0.217-0.479-0.456c-0.156-0.509-0.014-0.949,0.516-1.607
				c0.471-0.583,3.4-2.466,8.199-3.229C337.695,295.274,336.469,296.41,335.371,298.084z M343.098,276.336
				c0.307-0.8,0.613-1.136,1.137-1.256c0.24-0.06,0.471,0.03,0.635,0.188c-0.336,0.007-0.656,0.187-0.822,0.5
				c-0.246,0.472-0.066,1.039,0.396,1.293c0.434,0.225,1.189,0.12,1.51-0.567c0.164-0.374,0.217-0.747,0.127-1.136
				c-0.225-0.927-1.15-1.51-2.084-1.293c-0.838,0.201-1.309,0.754-1.615,1.33c-0.098,0.187-0.18,0.381-0.254,0.568
				c-0.404,1.038-0.404,4.14,0.777,7.929c-2.25-5.44-1.607-8.258-0.838-9.589c0.449-0.77,0.949-1.195,1.256-1.293
				c0.613-0.187,1.51-0.082,2.467,0.845c1.354,1.309,1.322,3.558-0.074,6.323c-0.896,1.778-1.271,3.415-1.316,4.873
				C342.658,280.514,342.83,277.031,343.098,276.336z M325.027,273.653c0.135-0.225,0.193-0.472,0.193-0.718
				c0.748,2.048,1.391,5.045,1.713,6.637c-0.479-0.276-0.949-0.546-1.398-0.8c-0.537-0.822-1.689-2.638-2.75-4.738
				c0.066,0.06,0.143,0.112,0.217,0.164C323.711,274.603,324.623,274.363,325.027,273.653z M322.463,272.173
				c-0.119,0.202-0.178,0.427-0.193,0.644c-0.209-0.912,0.143-1.577,0.68-1.861c0.463-0.247,1.166-0.254,1.637,0.546
				c0.061,0.104,0.119,0.216,0.18,0.336c-0.082-0.075-0.18-0.149-0.277-0.209C323.779,271.217,322.875,271.463,322.463,272.173z
				 M324.07,281.313c0.449,0.262,0.912,0.53,1.398,0.808c-1.547,0.522-4.463,1.457-6.615,1.838c0.217-0.127,0.396-0.299,0.531-0.53
				c0.41-0.703,0.164-1.607-0.545-2.019c-0.084-0.052-0.166-0.082-0.248-0.119C320.939,281.164,323.092,281.262,324.07,281.313z"/>
			<path fill="#99B5CC" d="M347.104,325.685c-3.205-6.345,1.301-10.396,1.346-10.434l2.303-2.018
				c0.127-0.067,0.254-0.142,0.381-0.217c-7.736,6.913-3.363,11.741-3.363,11.741c0.971-10.262,6.629-13.625,6.629-13.625
				c0.285-0.164,0.449-0.261,0.449-0.261l-2.086-0.493l0.613-2.048c0,0-0.156,0.089-0.449,0.254c0,0-5.738,3.214-15.111-1.069
				c0,0,1.988,6.196,11.854,2.96c-0.127,0.067-0.254,0.142-0.389,0.217l-2.893,0.986c-0.053,0.022-5.814,1.898-9.709-4.058
				c-2.832-4.328-5.709-4.283-7.166-3.864c-1.877,0.53-2.99,1.764-3.094,3.177c-0.037,0.478,0.066,1.442,0.701,2.548l0,0
				c1.375,2.377,5.164,5.12,15.291,5.18c-0.566,0.329-1.143,0.657-1.732,1.001c-0.986-0.448-5.711-2.265-9.746,1.226
				c-4.529,3.917-5.545,1.301-6.158,0.061c0,0-2.1,3.108,1.277,4.462c3.371,1.345,6.682-4.126,8.273-4.881
				c2.639-1.256,3.961-0.583,4.82,0.015c-3.041,1.757-6.217,3.588-9.154,5.284c-1.705,0.65-5.719,1.502-7.221-4.028
				c-1.248-4.574,5.053-3.707,4.23-1.144c0,0,2.57-2.563-0.814-4.521c-4.059-2.361-8.527,3.924-3.811,8.797
				c0.545,0.561,1.068,1.009,1.568,1.367c-2.264-0.688-5.066-1.42-6.65-1.42c-1.811,0.015-2.803,1.346-2.848,2.653
				c-0.016,0.523,0.119,1.068,0.395,1.547c0.516,0.897,1.525,1.6,3.012,1.704c1.197,0.082,2.355,0.112,3.371,0.112
				c-0.516,0.299-0.971,0.561-1.375,0.784l-3.617-0.045c0.09,1.704-0.434,2.475-1.367,2.878c-0.904,0.381-1.793-0.104-1.793-0.104
				c-0.375-0.232-0.613-0.65-0.584-1.121c0.037-0.538,0.5-0.949,1.039-0.912c0.426,0.03,0.754,0.396,0.725,0.83
				c-0.021,0.344-0.314,0.604-0.664,0.582l-0.016,0.022c0.291,0.225,0.695,0.292,1.061,0.135c0.658-0.291,0.965-1.062,0.674-1.719
				c-0.359-0.829-1.324-1.211-2.146-0.853c-1.037,0.449-1.457,1.428-1.061,2.691c0.15,0.478,0.83,2.593-1.322,4.618
				c2.832-0.852,4.326,0.792,4.664,1.166c0.889,0.972,1.949,1.099,2.854,0.426c0.725-0.538,0.883-1.562,0.344-2.286
				c-0.434-0.576-1.248-0.703-1.83-0.27c-0.314,0.231-0.463,0.613-0.412,0.979h0.031c0.148-0.313,0.521-0.44,0.836-0.283
				c0.381,0.187,0.547,0.657,0.352,1.046c-0.238,0.479-0.822,0.681-1.309,0.441c-0.418-0.21-0.664-0.628-0.68-1.069
				c0,0,0.023-1.016,0.807-1.606c0.822-0.613,1.771-0.681,3.23,0.291l1.637-3.273c0.402-0.231,0.865-0.501,1.389-0.807
				c-0.508,0.882-1.061,1.891-1.584,2.975c-0.658,1.338-0.545,2.57-0.037,3.452c0.283,0.486,0.68,0.875,1.15,1.121
				c1.158,0.621,2.803,0.426,3.715-1.144c0.799-1.359,1.563-4.155,2.1-6.457c0.061,0.605,0.188,1.286,0.396,2.04
				c1.869,6.518,9.543,5.785,9.529,1.092c-0.008-3.909-3.514-2.967-3.514-2.967c2.639,0.575,0.232,6.465-3.107,3.094
				c-4.037-4.065-1.293-7.115,0.127-8.266c2.936-1.697,6.113-3.535,9.154-5.284c0.082,1.039,0.016,2.519-2.398,4.178
				c-1.457,1.001-7.84,1.129-8.363,4.73c-0.523,3.603,3.221,3.334,3.221,3.334c-0.762-1.151-2.525-3.341,3.139-5.307
				c5.037-1.749,5.822-6.749,5.934-7.825c0.584-0.336,1.166-0.672,1.734-1.001c-5.014,8.804-4.535,13.452-3.168,15.837l0,0
				c0.643,1.105,1.428,1.666,1.861,1.875c1.27,0.621,2.898,0.27,4.297-1.083C347.963,332.77,349.443,330.311,347.104,325.685z
				 M330.73,307.718c0.275,0.448,0.865,0.583,1.307,0.299c0.418-0.262,0.703-0.964,0.262-1.584c-0.23-0.329-0.537-0.561-0.92-0.673
				c-0.91-0.276-1.875,0.239-2.152,1.151c-0.246,0.821-0.006,1.509,0.344,2.063c0.113,0.187,0.24,0.351,0.359,0.501
				c0.703,0.874,3.387,2.421,7.258,3.295c-5.83-0.77-7.953-2.734-8.723-4.065c-0.441-0.777-0.561-1.427-0.486-1.733
				c0.143-0.628,0.682-1.353,1.959-1.719c1.809-0.509,3.744,0.635,5.441,3.229c1.09,1.666,2.316,2.81,3.557,3.572
				c-4.799-0.763-7.729-2.646-8.199-3.229c-0.529-0.665-0.672-1.099-0.516-1.614c0.076-0.231,0.262-0.389,0.479-0.448
				C330.543,307.053,330.535,307.419,330.73,307.718z M317.359,322.591c-0.711,0.411-0.949,1.315-0.545,2.025
				c0.119,0.201,0.283,0.358,0.471,0.485c-0.898-0.27-1.301-0.912-1.279-1.518c0.016-0.522,0.367-1.143,1.293-1.143
				c0.121,0,0.248,0.007,0.381,0.015C317.568,322.486,317.465,322.53,317.359,322.591z M318.592,325.266
				c0.082-0.029,0.164-0.066,0.248-0.111c0.709-0.411,0.955-1.315,0.545-2.025c-0.135-0.225-0.314-0.396-0.523-0.523
				c2.145,0.381,5.061,1.315,6.607,1.839c-0.486,0.276-0.949,0.545-1.398,0.807C323.092,325.304,320.947,325.4,318.592,325.266z
				 M324.586,335.057c-0.471,0.807-1.174,0.8-1.637,0.553c-0.537-0.284-0.889-0.949-0.672-1.86c0.014,0.216,0.066,0.44,0.186,0.643
				c0.412,0.71,1.316,0.949,2.025,0.545c0.105-0.06,0.195-0.134,0.277-0.216C324.705,334.84,324.646,334.959,324.586,335.057z
				 M325.221,333.629c0-0.246-0.059-0.493-0.193-0.717c-0.404-0.711-1.316-0.957-2.018-0.546c-0.082,0.052-0.158,0.104-0.225,0.164
				c1.061-2.1,2.213-3.916,2.75-4.738c0.449-0.254,0.92-0.523,1.398-0.807C326.619,328.584,325.969,331.581,325.221,333.629z
				 M345.789,332.71c-0.957,0.927-1.854,1.031-2.467,0.837c-0.307-0.09-0.807-0.516-1.256-1.293
				c-0.77-1.323-1.412-4.148,0.838-9.589c-1.182,3.797-1.182,6.898-0.777,7.938c0.074,0.187,0.156,0.373,0.254,0.567
				c0.307,0.576,0.785,1.129,1.615,1.323c0.934,0.217,1.859-0.358,2.084-1.286c0.09-0.388,0.037-0.77-0.127-1.136
				c-0.32-0.688-1.076-0.792-1.51-0.567c-0.463,0.246-0.643,0.822-0.396,1.293c0.166,0.313,0.486,0.493,0.822,0.5
				c-0.164,0.157-0.395,0.247-0.635,0.188c-0.523-0.12-0.83-0.464-1.137-1.256c-0.268-0.695-0.439-4.178,1.301-8.714
				c0.045,1.457,0.42,3.094,1.316,4.872C347.111,329.152,347.143,331.402,345.789,332.71z"/>
		</g>
		<g>
			<g>
				<path fill="#99B5CC" d="M366.73,213.421c0,0.68-0.553,1.229-1.227,1.229c-0.68,0-1.232-0.549-1.232-1.229
					s0.553-1.229,1.232-1.229C366.178,212.191,366.73,212.741,366.73,213.421z"/>
				<path fill="#99B5CC" d="M366.73,193.141c0,0.676-0.553,1.226-1.227,1.226c-0.68,0-1.232-0.55-1.232-1.226
					c0-0.68,0.553-1.233,1.232-1.233C366.178,191.908,366.73,192.461,366.73,193.141z"/>
				<path fill="#99B5CC" d="M366.73,172.858c0,0.68-0.553,1.229-1.227,1.229c-0.68,0-1.232-0.549-1.232-1.229
					s0.553-1.229,1.232-1.229C366.178,171.628,366.73,172.178,366.73,172.858z"/>
				<path fill="#99B5CC" d="M366.73,152.574c0,0.68-0.553,1.233-1.227,1.233c-0.68,0-1.232-0.553-1.232-1.233
					c0-0.676,0.553-1.226,1.232-1.226C366.178,151.349,366.73,151.898,366.73,152.574z"/>
			</g>
			<rect x="365.266" y="133.935" fill="#99B5CC" width="0.471" height="102.215"/>
		</g>
	</g>
	<polygon fill="#FFFFFF" points="21.008,406.766 14.658,409.636 21.616,407.154 12.038,417.453 22.182,407.954 19.559,414.695 
		22.679,408.261 23.312,429.456 23.865,408.418 26.757,414.778 24.274,407.835 34.569,417.394 25.059,407.252 31.798,409.891 
		25.38,406.751 46.563,406.108 25.534,405.563 31.894,402.678 24.943,405.159 34.511,394.883 24.39,404.382 26.991,397.656 
		23.886,404.076 23.237,382.881 22.679,403.896 19.792,397.559 22.275,404.479 11.992,394.92 21.513,405.063 14.75,402.446 
		21.173,405.563 0,406.213 	"/>
	<polygon fill="#FFFFFF" points="551.449,421.123 546.785,423.238 551.896,421.407 544.857,428.978 552.309,421.997 
		550.381,426.952 552.674,422.222 553.145,437.797 553.549,422.341 555.672,427.013 553.848,421.908 561.418,428.933 
		554.424,421.481 559.379,423.425 554.662,421.115 570.23,420.645 554.775,420.241 559.445,418.119 554.342,419.942 
		561.373,412.394 553.938,419.374 555.844,414.427 553.564,419.15 553.086,403.567 552.674,419.016 550.553,414.359 
		552.383,419.441 544.82,412.424 551.822,419.875 546.854,417.947 551.568,420.241 536.008,420.72 	"/>
	<polygon fill="#FFFFFF" points="329.182,367.889 324.52,369.996 329.631,368.172 322.59,375.743 330.049,368.763 328.121,373.718 
		330.416,368.986 330.879,384.562 331.283,369.099 333.412,373.77 331.59,368.673 339.152,375.698 332.164,368.247 337.119,370.183 
		332.396,367.873 347.963,367.402 332.508,367.006 337.188,364.884 332.074,366.707 339.107,359.151 331.672,366.132 
		333.584,361.191 331.297,365.908 330.826,350.333 330.416,365.78 328.293,361.125 330.117,366.207 322.561,359.182 
		329.557,366.633 324.586,364.712 329.311,367.006 313.75,367.478 	"/>
	<polygon fill="#FFFFFF" points="284.664,230.224 279.997,232.331 285.108,230.508 278.072,238.078 285.527,231.091 
		283.599,236.053 285.89,231.322 286.357,246.89 286.764,231.435 288.89,236.105 287.063,231.001 294.633,238.033 287.642,230.575 
		292.592,232.518 287.877,230.209 303.443,229.738 287.99,229.334 292.666,227.212 287.556,229.035 294.588,221.487 
		287.149,228.467 289.058,223.527 286.779,228.243 286.3,212.666 285.89,228.116 283.771,223.452 285.598,228.534 278.039,221.517 
		285.034,228.968 280.064,227.04 284.785,229.334 269.227,229.813 	"/>
	<polygon fill="#FFFFFF" points="468.574,357.844 463.91,359.951 469.021,358.128 461.982,365.698 469.441,358.711 467.512,363.673 
		469.807,358.942 470.27,374.51 470.674,359.055 472.803,363.726 470.973,358.621 478.543,365.653 471.555,358.195 476.504,360.138 
		471.787,357.829 487.355,357.357 471.898,356.954 476.578,354.832 471.467,356.655 478.498,349.107 471.063,356.088 
		472.975,351.147 470.689,355.863 470.219,340.288 469.807,355.736 467.684,351.072 469.508,356.154 461.951,349.137 
		468.947,356.588 463.977,354.66 468.701,356.954 453.141,357.433 	"/>
	<polygon fill="#FFFFFF" points="426.564,203.959 420.039,206.908 427.184,204.359 417.357,214.935 427.768,205.181 
		425.076,212.102 428.275,205.495 428.926,227.249 429.494,205.656 432.461,212.184 429.912,205.054 440.48,214.867 430.719,204.46 
		437.641,207.169 431.049,203.944 452.797,203.287 431.205,202.726 437.738,199.763 430.6,202.312 440.42,191.762 430.031,201.512 
		432.699,194.606 429.516,201.198 428.852,179.438 428.275,201.019 425.316,194.509 427.865,201.609 417.305,191.8 427.08,202.21 
		420.137,199.523 426.729,202.726 404.996,203.388 	"/>
	<polygon fill="#FFFFFF" points="561.225,201.527 556.553,203.638 561.666,201.814 554.633,209.385 562.084,202.401 
		560.156,207.356 562.449,202.625 562.914,218.2 563.324,202.741 565.447,207.416 563.623,202.312 571.188,209.337 564.199,201.885 
		569.154,203.825 564.438,201.519 579.998,201.045 564.551,200.645 569.221,198.522 564.117,200.346 571.143,192.797 
		563.705,199.778 565.619,194.83 563.34,199.55 562.861,183.971 562.449,199.419 560.328,194.763 562.15,199.845 554.596,192.824 
		561.59,200.275 556.621,198.351 561.344,200.645 545.783,201.119 	"/>
	<polygon fill="#FFFFFF" points="164.93,312.92 160.265,315.034 165.377,313.203 158.338,320.774 165.793,313.794 163.865,318.749 
		166.158,314.019 166.625,329.594 167.03,314.138 169.157,318.809 167.332,313.704 174.898,320.729 167.909,313.278 
		172.862,315.222 168.144,312.912 183.711,312.441 168.256,312.038 172.931,309.915 167.823,311.738 174.855,304.19 
		167.417,311.171 169.327,306.223 167.045,310.946 166.569,295.364 166.158,310.813 164.037,306.156 165.863,311.238 
		158.305,304.221 165.302,311.672 160.332,309.743 165.052,312.038 149.494,312.516 	"/>
	<polygon fill="#FFFFFF" points="15.938,197.737 11.272,199.845 16.384,198.021 9.346,205.592 16.801,198.608 14.873,203.567 
		17.165,198.836 17.632,214.407 18.038,198.948 20.164,203.623 18.338,198.519 25.906,205.547 18.916,198.093 23.869,200.032 
		19.151,197.723 34.719,197.252 19.263,196.852 23.938,194.729 18.83,196.553 25.863,189.001 18.424,195.985 20.334,191.041 
		18.053,195.757 17.576,180.182 17.165,195.63 15.044,190.97 16.87,196.052 9.312,189.031 16.31,196.482 11.339,194.558 
		16.059,196.852 0.501,197.327 	"/>
	<g opacity="0.57">
		<g>
			<g>
				<path fill="#99B5CC" d="M68.634,233.789c0,0.68-0.551,1.226-1.229,1.226c-0.68,0-1.229-0.546-1.229-1.226
					c0-0.681,0.549-1.233,1.229-1.233C68.083,232.556,68.634,233.108,68.634,233.789z"/>
				<circle fill="#99B5CC" cx="67.405" cy="213.507" r="1.229"/>
				<path fill="#99B5CC" d="M68.634,193.224c0,0.68-0.551,1.233-1.229,1.233c-0.68,0-1.229-0.553-1.229-1.233
					c0-0.677,0.549-1.226,1.229-1.226C68.083,191.998,68.634,192.547,68.634,193.224z"/>
				<circle fill="#99B5CC" cx="67.405" cy="172.944" r="1.229"/>
			</g>
			<rect x="67.167" y="154.301" fill="#99B5CC" width="0.475" height="102.215"/>
		</g>
		<g>
			<path fill="#99B5CC" d="M63.803,317.217l1.513,1.121c-1.155,0.605-2.672,0.575-4.273-0.291c3.384,1.831,3.481,5.403,0.204,7.413
				c3.277-2.01,6.416-0.313,6.521,3.528c-0.104-3.842,2.938-5.71,6.323-3.879c-1.283-0.695-2.092-1.637-2.425-2.646l2.386,0.793
				c18.957,6.382,30.634-1.113,31.124-1.436l1.491-0.979l-1.572-0.853c-0.514-0.284-12.802-6.726-31.129,1.278l-2.345,1.023
				c-0.441-1.621,0.297-3.385,2.264-4.588c-0.865,0.522-1.719,0.792-2.507,0.837l0.792-0.703
				c14.998-13.228,14.351-27.092,14.314-27.675l-0.107-1.786l-1.521,0.941c-0.497,0.3-12.22,7.721-14.458,27.601l-0.172,1.51
				c-1.631-0.419-2.797-1.943-2.862-4.26c0.047,1.719-0.542,3.041-1.508,3.818l-0.37-1.838
				c-3.961-19.604-16.287-25.979-16.81-26.232l-1.599-0.8l0.052,1.786C47.144,291.485,47.708,305.349,63.803,317.217z
				 M102.04,321.043c-3.664,1.63-16.584,4.529-28.708,1.256C85.089,317.979,98.241,319.743,102.04,321.043z M84.243,292.486
				c-0.418,3.991-4.365,16.629-13.27,25.485C73.121,305.641,81.22,295.133,84.243,292.486z M65.008,317.254
				c-9.611-8.034-14.66-20.298-15.439-24.236C52.813,295.379,61.789,305.117,65.008,317.254z"/>
			<path fill="#99B5CC" d="M56.54,302.016c-0.26-0.411-0.794-0.531-1.201-0.27c-0.406,0.254-0.525,0.793-0.266,1.203
				c0.258,0.404,0.796,0.523,1.2,0.262C56.68,302.957,56.8,302.419,56.54,302.016z"/>
			<path fill="#99B5CC" d="M56.848,304.115c-0.403,0.262-0.523,0.8-0.265,1.203c0.258,0.404,0.796,0.523,1.2,0.262
				c0.407-0.254,0.527-0.792,0.267-1.195S57.256,303.861,56.848,304.115z"/>
			<path fill="#99B5CC" d="M60.682,321.096c-18.96-6.375-30.638,1.113-31.124,1.435l-1.495,0.987l1.573,0.852
				c0.512,0.276,12.802,6.719,31.131-1.285l2.545-1.106L60.682,321.096z M32.693,323.308c3.662-1.629,16.583-4.528,28.705-1.248
				C49.64,326.372,36.492,324.608,32.693,323.308z"/>
			<path fill="#99B5CC" d="M43.966,321.769c-0.48,0.022-0.854,0.426-0.83,0.911c0.021,0.479,0.426,0.853,0.908,0.83
				c0.479-0.022,0.85-0.426,0.828-0.904C44.853,322.119,44.448,321.754,43.966,321.769z"/>
			<path fill="#99B5CC" d="M46.778,321.648c-0.484,0.022-0.856,0.427-0.835,0.904c0.021,0.486,0.428,0.859,0.91,0.838
				c0.478-0.023,0.848-0.427,0.828-0.912C47.66,322,47.256,321.626,46.778,321.648z"/>
			<path fill="#99B5CC" d="M64.644,325.887l-2.083,1.838c-15,13.229-14.351,27.092-14.314,27.675l0.105,1.786l1.522-0.941
				c0.497-0.299,12.221-7.72,14.458-27.6L64.644,325.887z M50.486,353.075c0.42-3.99,4.367-16.629,13.271-25.485
				C61.609,339.93,53.511,350.43,50.486,353.075z"/>
			<path fill="#99B5CC" d="M55.163,343.711c0.424,0.225,0.951,0.06,1.173-0.366c0.219-0.426,0.056-0.949-0.372-1.173
				c-0.426-0.225-0.949-0.053-1.171,0.365C54.571,342.964,54.733,343.494,55.163,343.711z"/>
			<path fill="#99B5CC" d="M56.459,341.223c0.426,0.224,0.951,0.052,1.174-0.374c0.222-0.426,0.056-0.949-0.37-1.166
				c-0.426-0.224-0.953-0.06-1.173,0.366C55.869,340.475,56.032,340.998,56.459,341.223z"/>
			<path fill="#99B5CC" d="M71.532,327.941l-2.233-1.651l0.549,2.721c3.961,19.61,16.283,25.978,16.808,26.232l1.6,0.807
				l-0.05-1.786C88.187,353.674,87.626,339.817,71.532,327.941z M70.327,327.904c9.613,8.034,14.66,20.299,15.437,24.237
				C82.521,349.787,73.544,340.049,70.327,327.904z"/>
			<path fill="#99B5CC" d="M78.795,343.15c0.258,0.403,0.794,0.523,1.199,0.262c0.407-0.254,0.525-0.792,0.269-1.195
				c-0.26-0.412-0.794-0.523-1.201-0.27C78.656,342.201,78.539,342.739,78.795,343.15z"/>
			<path fill="#99B5CC" d="M78.484,341.043c0.408-0.254,0.527-0.792,0.266-1.203c-0.256-0.404-0.794-0.523-1.198-0.262
				c-0.405,0.254-0.527,0.792-0.271,1.195C77.543,341.185,78.079,341.297,78.484,341.043z"/>
			<path fill="#99B5CC" d="M90.764,322.583c0.482-0.022,0.852-0.426,0.832-0.912c-0.019-0.478-0.426-0.845-0.908-0.829
				c-0.48,0.022-0.85,0.434-0.828,0.912C89.878,322.225,90.286,322.605,90.764,322.583z"/>
			<path fill="#99B5CC" d="M87.958,322.702c0.478-0.022,0.852-0.426,0.83-0.904c-0.019-0.478-0.426-0.852-0.908-0.829
				c-0.477,0.015-0.848,0.426-0.828,0.904S87.475,322.725,87.958,322.702z"/>
			<circle fill="#99B5CC" cx="79.167" cy="302.621" r="0.869"/>
			<path fill="#99B5CC" d="M78.271,304.34c-0.43-0.225-0.953-0.053-1.173,0.374c-0.224,0.426-0.054,0.948,0.372,1.173
				c0.422,0.225,0.951,0.053,1.169-0.373C78.864,305.087,78.698,304.564,78.271,304.34z"/>
			<path fill="#99B5CC" d="M67.38,308.966h0.376c0.261-1.584,0.444-3.169,1.001-4.671c0.689-1.854,1.809-3.482,2.644-5.254
				c1.198-2.526,1.469-4.552,1.048-7.443c-0.635-4.365-4.124-6.906-4.693-11.174H67.38c-0.57,4.268-4.056,6.809-4.693,11.174
				c-0.42,2.892-0.147,4.917,1.048,7.443c0.835,1.771,1.955,3.4,2.646,5.254C66.936,305.797,67.117,307.382,67.38,308.966z
				 M64.834,292.771c0.316-2.944,1.857-5.172,2.638-7.915h0.19c0.783,2.743,2.326,4.971,2.638,7.915
				c0.333,3.154-0.245,5.352-1.54,8.026c-0.542,1.121-0.648,2.34-1.099,3.513h-0.19c-0.45-1.173-0.553-2.392-1.097-3.513
				C65.079,298.122,64.5,295.925,64.834,292.771z"/>
			<path fill="#99B5CC" d="M67.569,314.534c0.391-3.273,0.992-7.616,2.862-11.031c2.801-5.112,6.101-10.127,5.095-16.771
				c-0.931-6.137-5.876-13.064-7.808-18.707c1.347-0.082,2.414-1.181,2.414-2.549c0-1.42-1.149-2.563-2.567-2.563
				c-1.418,0-2.565,1.144-2.565,2.563c0,1.368,1.066,2.474,2.414,2.549c-1.93,5.643-6.875,12.57-7.804,18.707
				c-1.007,6.644,2.292,11.658,5.097,16.771C66.577,306.918,67.175,311.261,67.569,314.534z M61.783,286.508
				c1.344-4.499,5.843-7.75,5.787-12.735c-0.06,4.985,4.441,8.236,5.785,12.735c1.624,5.44-0.818,11.554-3.584,16.599
				c-0.908,1.659-1.181,3.079-2.201,7.795c-1.02-4.716-1.295-6.136-2.203-7.795C62.599,298.062,60.159,291.948,61.783,286.508z"/>
			<path fill="#99B5CC" d="M67.565,291.365c0.544,0,0.981-0.44,0.981-0.979c0-0.546-0.437-0.979-0.981-0.979
				c-0.543,0-0.981,0.434-0.981,0.979C66.584,290.925,67.022,291.365,67.565,291.365z"/>
			<path fill="#99B5CC" d="M68.546,293.556c0-0.546-0.437-0.979-0.981-0.979c-0.543,0-0.981,0.434-0.981,0.979
				c0,0.545,0.438,0.979,0.981,0.979C68.109,294.534,68.546,294.101,68.546,293.556z"/>
			<path fill="#99B5CC" d="M67.565,261.403c0.833,0,1.51-0.68,1.51-1.509c0-0.838-0.676-1.51-1.51-1.51
				c-0.833,0-1.508,0.672-1.508,1.51C66.058,260.724,66.732,261.403,67.565,261.403z"/>
			<path fill="#99B5CC" d="M38.803,311.021c2.292,1.815,4.176,2.586,6.969,2.817c1.947,0.157,3.92,0.008,5.871,0.336
				c1.577,0.27,3.04,0.904,4.548,1.473l0.187-0.329c-1.244-1.023-2.524-1.965-3.544-3.198c-1.263-1.532-2.117-3.312-3.23-4.926
				c-1.59-2.302-3.204-3.542-5.919-4.626c-4.099-1.629-8.045,0.12-12.025-1.524l-0.188,0.329
				C34.877,303.996,35.339,308.293,38.803,311.021z M35.453,303.346c2.763,0.688,5.463,0.471,8.17,1.674
				c2.893,1.286,4.511,2.885,6.177,5.344c0.701,1.024,1.704,1.727,2.492,2.706l-0.093,0.164c-1.239-0.194-2.349-0.71-3.593-0.808
				c-2.963-0.216-5.155-0.814-7.717-2.675c-2.394-1.749-3.552-4.193-5.532-6.241L35.453,303.346z"/>
			<path fill="#99B5CC" d="M17.335,295.962c1.183,0.68,2.674,0.307,3.416-0.814c3.92,4.491,7.448,12.241,12.294,16.105
				c5.252,4.2,11.248,3.849,17.073,3.976c3.89,0.083,7.954,1.742,10.983,3.035c-2.635-1.974-6.101-4.672-8.119-7.99
				c-3.025-4.984-5.719-10.351-11.98-12.802c-5.771-2.265-14.249-1.442-20.097-2.594c0.6-1.203,0.177-2.683-1.005-3.363
				c-1.228-0.71-2.797-0.291-3.505,0.942C15.687,293.683,16.107,295.252,17.335,295.962z M39.726,299.243
				c5.523,1.308,9.596,6.486,12.58,11.397c0.981,1.621,2.078,2.563,5.652,5.807c-4.594-1.473-5.962-1.951-7.851-1.988
				c-5.754-0.127-12.268-1.068-16.166-5.194c-3.225-3.415-3.796-8.938-8.139-11.382C30.089,300.424,35.156,298.151,39.726,299.243z"
				/>
			<path fill="#99B5CC" d="M39.7,307.038c0.467,0.276,1.069,0.112,1.339-0.359c0.271-0.463,0.11-1.068-0.36-1.337
				c-0.471-0.27-1.069-0.112-1.342,0.358C39.067,306.171,39.229,306.769,39.7,307.038z"/>
			<path fill="#99B5CC" d="M42.445,308.63c0.471,0.269,1.069,0.104,1.338-0.358c0.271-0.472,0.112-1.077-0.359-1.346
				c-0.469-0.27-1.069-0.104-1.34,0.358C41.813,307.755,41.972,308.354,42.445,308.63z"/>
			<path fill="#99B5CC" d="M14.533,289.639c-0.723-0.418-1.645-0.172-2.061,0.554c-0.417,0.718-0.17,1.644,0.553,2.055
				c0.721,0.419,1.646,0.172,2.061-0.545C15.504,290.977,15.255,290.05,14.533,289.639z"/>
			<path fill="#99B5CC" d="M56.187,328.346c-1.508,0.567-2.967,1.203-4.546,1.472c-1.953,0.329-3.926,0.172-5.873,0.337
				c-2.792,0.224-4.675,1.001-6.969,2.817c-3.464,2.728-3.922,7.018-7.333,9.648l0.189,0.329c3.983-1.645,7.926,0.104,12.029-1.525
				c2.711-1.084,4.323-2.332,5.917-4.634c1.112-1.606,1.968-3.386,3.229-4.917c1.02-1.226,2.3-2.175,3.544-3.199L56.187,328.346z
				 M49.801,333.629c-1.67,2.459-3.285,4.059-6.181,5.344c-2.708,1.203-5.405,0.986-8.169,1.674l-0.097-0.164
				c1.98-2.048,3.141-4.499,5.532-6.24c2.563-1.861,4.755-2.459,7.719-2.684c1.244-0.09,2.352-0.605,3.591-0.8l0.094,0.165
				C51.503,331.896,50.5,332.598,49.801,333.629z"/>
			<path fill="#99B5CC" d="M61.101,325.729c-3.033,1.293-7.097,2.944-10.984,3.034c-5.828,0.127-11.824-0.225-17.076,3.976
				c-4.843,3.872-8.371,11.614-12.292,16.106c-0.745-1.121-2.232-1.495-3.414-0.808c-1.228,0.702-1.648,2.272-0.939,3.505
				c0.708,1.227,2.277,1.645,3.505,0.935c1.183-0.68,1.605-2.16,1.003-3.363c5.848-1.15,14.323-0.329,20.097-2.593
				c6.259-2.452,8.955-7.818,11.979-12.803C54.997,330.393,58.462,327.702,61.101,325.729z M39.723,344.75
				c-4.57,1.084-9.641-1.181-13.923,1.36c4.342-2.444,4.914-7.968,8.141-11.375c3.896-4.126,10.411-5.075,16.162-5.202
				c1.891-0.037,3.258-0.516,7.855-1.987c-3.576,3.235-4.669,4.185-5.652,5.807C49.319,338.263,45.246,343.435,39.723,344.75z"/>
			<path fill="#99B5CC" d="M39.7,336.955c-0.471,0.269-0.633,0.867-0.363,1.338c0.273,0.471,0.871,0.635,1.338,0.358
				c0.473-0.269,0.632-0.867,0.364-1.338C40.769,336.843,40.167,336.686,39.7,336.955z"/>
			<path fill="#99B5CC" d="M42.445,335.37c-0.473,0.27-0.632,0.867-0.361,1.338s0.871,0.628,1.34,0.358
				c0.469-0.269,0.628-0.866,0.359-1.337C43.514,335.258,42.916,335.102,42.445,335.37z"/>
			<path fill="#99B5CC" d="M13.025,351.745c-0.723,0.419-0.97,1.338-0.553,2.063c0.417,0.718,1.338,0.964,2.061,0.554
				c0.723-0.419,0.971-1.338,0.553-2.063C14.667,351.573,13.746,351.326,13.025,351.745z"/>
			<path fill="#99B5CC" d="M67.752,335.026h-0.377c-0.264,1.585-0.443,3.169-1,4.671c-0.693,1.861-1.809,3.49-2.647,5.254
				c-1.196,2.534-1.469,4.552-1.044,7.444c0.633,4.364,4.12,6.905,4.691,11.173h0.377c0.57-4.268,4.056-6.809,4.691-11.173
				c0.418-2.893,0.148-4.91-1.05-7.444c-0.833-1.764-1.955-3.393-2.644-5.254C68.193,338.195,68.014,336.611,67.752,335.026z
				 M70.297,351.222c-0.314,2.945-1.857,5.172-2.638,7.915h-0.191c-0.785-2.743-2.324-4.97-2.638-7.915
				c-0.333-3.146,0.245-5.344,1.538-8.019c0.546-1.121,0.65-2.34,1.099-3.513h0.193c0.446,1.173,0.555,2.392,1.099,3.513
				C70.05,345.878,70.63,348.068,70.297,351.222z"/>
			<path fill="#99B5CC" d="M67.563,329.459c-0.394,3.273-0.994,7.623-2.864,11.038c-2.802,5.104-6.102,10.119-5.095,16.771
				c0.929,6.128,5.875,13.056,7.807,18.698c-1.344,0.083-2.414,1.182-2.41,2.549c-0.004,1.42,1.147,2.571,2.565,2.571
				c1.418,0,2.567-1.151,2.563-2.571c0.004-1.367-1.067-2.466-2.414-2.549c1.934-5.643,6.878-12.57,7.806-18.698
				c1.007-6.652-2.292-11.667-5.095-16.771C68.554,337.082,67.954,332.732,67.563,329.459z M73.346,357.484
				c-1.341,4.5-5.84,7.758-5.783,12.743c0.058-4.985-4.441-8.243-5.785-12.743c-1.625-5.433,0.815-11.554,3.582-16.591
				c0.908-1.659,1.181-3.087,2.205-7.803c1.017,4.716,1.293,6.144,2.197,7.795C72.532,345.931,74.97,352.052,73.346,357.484z"/>
			<path fill="#99B5CC" d="M67.565,352.627c-0.543,0-0.981,0.441-0.981,0.979c0,0.545,0.438,0.986,0.981,0.986
				c0.54,0,0.981-0.441,0.981-0.986C68.544,353.068,68.105,352.627,67.565,352.627z"/>
			<path fill="#99B5CC" d="M66.584,350.444c0,0.538,0.438,0.972,0.981,0.972c0.544,0,0.981-0.434,0.981-0.972
				c-0.002-0.545-0.441-0.986-0.981-0.986C67.022,349.458,66.584,349.899,66.584,350.444z"/>
			<path fill="#99B5CC" d="M67.565,382.597c-0.833,0-1.508,0.673-1.508,1.51s0.675,1.509,1.508,1.509c0.833,0,1.51-0.672,1.51-1.509
				S68.399,382.597,67.565,382.597z"/>
			<path fill="#99B5CC" d="M96.328,332.972c-2.292-1.809-4.178-2.586-6.969-2.811c-1.947-0.164-3.918-0.007-5.873-0.344
				c-1.575-0.262-3.036-0.896-4.544-1.465l-0.189,0.321c1.245,1.024,2.522,1.974,3.546,3.206c1.261,1.524,2.113,3.312,3.229,4.918
				c1.592,2.302,3.207,3.55,5.919,4.626c4.101,1.637,8.043-0.112,12.025,1.525l0.189-0.329
				C100.25,339.996,99.794,335.707,96.328,332.972z M99.678,340.654c-2.762-0.695-5.461-0.471-8.173-1.674
				c-2.892-1.286-4.504-2.885-6.175-5.344c-0.703-1.031-1.706-1.734-2.493-2.706l0.095-0.172c1.237,0.202,2.349,0.718,3.589,0.808
				c2.965,0.217,5.157,0.814,7.716,2.683c2.396,1.741,3.554,4.193,5.535,6.233L99.678,340.654z"/>
			<path fill="#99B5CC" d="M117.796,348.038c-1.181-0.688-2.672-0.313-3.416,0.814c-3.92-4.491-7.449-12.241-12.292-16.113
				c-5.256-4.192-11.248-3.841-17.076-3.968c-3.892-0.09-7.956-1.742-10.986-3.042c2.642,1.98,6.101,4.671,8.124,7.997
				c3.025,4.984,5.719,10.351,11.979,12.802c5.771,2.257,14.247,1.442,20.098,2.586c-0.6,1.211-0.177,2.684,1.003,3.363
				c1.229,0.71,2.797,0.292,3.507-0.935C119.444,350.311,119.025,348.74,117.796,348.038z M95.409,344.75
				c-5.527-1.309-9.6-6.479-12.582-11.397c-0.983-1.614-2.081-2.563-5.652-5.807c4.594,1.479,5.962,1.95,7.849,1.995
				c5.755,0.127,12.268,1.068,16.166,5.194c3.225,3.415,3.798,8.938,8.139,11.382C105.044,343.569,99.975,345.841,95.409,344.75z"/>
			<path fill="#99B5CC" d="M95.433,336.955c-0.469-0.27-1.071-0.112-1.34,0.358s-0.11,1.069,0.359,1.338
				c0.469,0.276,1.069,0.112,1.341-0.358C96.064,337.822,95.902,337.224,95.433,336.955z"/>
			<path fill="#99B5CC" d="M92.69,335.37c-0.473-0.269-1.072-0.104-1.343,0.359c-0.273,0.471-0.112,1.068,0.361,1.337
				c0.469,0.27,1.068,0.112,1.337-0.358C93.32,336.237,93.157,335.64,92.69,335.37z"/>
			<path fill="#99B5CC" d="M122.108,351.745c-0.721-0.419-1.648-0.172-2.063,0.553c-0.417,0.726-0.172,1.645,0.551,2.063
				c0.723,0.41,1.646,0.172,2.061-0.554C123.076,353.083,122.83,352.164,122.108,351.745z"/>
			<path fill="#99B5CC" d="M91.45,302.576c-2.715,1.084-4.326,2.324-5.919,4.626c-1.117,1.606-1.965,3.394-3.23,4.918
				c-1.018,1.233-2.298,2.182-3.546,3.206l0.191,0.321c1.508-0.568,2.969-1.203,4.546-1.473c1.951-0.321,3.921-0.172,5.872-0.336
				c2.79-0.225,4.677-1.002,6.969-2.811c3.464-2.735,3.922-7.024,7.332-9.655l-0.187-0.321
				C99.493,302.688,95.551,300.939,91.45,302.576z M94.243,309.751c-2.562,1.868-4.751,2.466-7.718,2.683
				c-1.243,0.09-2.349,0.613-3.589,0.808l-0.095-0.165c0.789-0.979,1.788-1.682,2.491-2.713c1.67-2.459,3.285-4.058,6.181-5.344
				c2.706-1.203,5.407-0.979,8.168-1.666l0.097,0.156C97.796,305.558,96.636,308.01,94.243,309.751z"/>
			<path fill="#99B5CC" d="M115.23,291.515c-1.183,0.681-1.605,2.16-1.003,3.371c-5.852,1.144-14.323,0.329-20.098,2.586
				c-6.257,2.451-8.952,7.817-11.975,12.802c-2.022,3.326-5.486,6.017-8.126,7.997c3.033-1.3,7.094-2.952,10.984-3.034
				c5.83-0.135,11.827,0.217,17.078-3.976c4.847-3.872,8.374-11.622,12.29-16.113c0.746,1.121,2.237,1.494,3.416,0.814
				c1.229-0.71,1.648-2.279,0.942-3.505C118.028,291.231,116.46,290.805,115.23,291.515z M101.193,309.265
				c-3.897,4.126-10.411,5.067-16.164,5.194c-1.891,0.045-3.261,0.516-7.855,1.988c3.578-3.236,4.671-4.186,5.652-5.8
				c2.986-4.918,7.059-10.089,12.582-11.397c4.568-1.091,9.637,1.181,13.923-1.36C104.992,300.326,104.418,305.85,101.193,309.265z"
				/>
			<path fill="#99B5CC" d="M94.452,305.342c-0.467,0.276-0.628,0.874-0.359,1.337c0.269,0.472,0.871,0.636,1.34,0.359
				c0.469-0.27,0.631-0.867,0.36-1.338C95.521,305.229,94.921,305.072,94.452,305.342z"/>
			<path fill="#99B5CC" d="M91.708,306.926c-0.469,0.269-0.628,0.874-0.361,1.346c0.271,0.463,0.871,0.627,1.343,0.358
				c0.467-0.276,0.63-0.875,0.355-1.346C92.776,306.821,92.176,306.656,91.708,306.926z"/>
			<path fill="#99B5CC" d="M122.108,292.247c0.721-0.411,0.968-1.337,0.549-2.055c-0.415-0.726-1.338-0.972-2.061-0.561
				c-0.723,0.418-0.97,1.345-0.551,2.07C120.464,292.419,121.387,292.666,122.108,292.247z"/>
		</g>
	</g>
	<g>
		<path fill="#FFFFFF" d="M215.028,327.949l-0.555-0.531l4.15-0.321l1.491,0.867l-1.493,0.853l-4.15-0.344L215.028,327.949
			L215.028,327.949z M218.311,322.291l0.179-0.739l2.356,3.431l-0.003,1.719l-1.487-0.859l-1.777-3.767L218.311,322.291
			L218.311,322.291z M222.296,326.701l0.005-1.719l2.375-3.416l0.175,0.74l0.732-0.217l-1.793,3.759L222.296,326.701
			L222.296,326.701z M225.84,320.603l-0.794-2.025l-2.737,3.946l0.008-3.326l5.215-4.215c1.682-1.36,0.73-2.317-0.951-0.957
			l-4.26,3.438l0.001-1.413l3.483-2.81c1.668-1.353,0.714-2.31-0.955-0.964l-2.521,2.04v-1.338l1.787-1.442
			c1.724-1.391,0.773-2.354-0.953-0.964l-0.828,0.672l0.004-1.666c0.628-0.239,1.067-0.785,1.068-1.42
			c0.002-0.644-0.435-1.188-1.061-1.436c0.005-1.928-1.45-1.936-1.456-0.007c-0.626,0.246-1.067,0.792-1.067,1.427
			c0,0.644,0.434,1.188,1.062,1.436l-0.004,1.666l-0.826-0.68c-1.719-1.397-2.676-0.441-0.957,0.956l1.777,1.458l-0.004,1.338
			l-2.513-2.056c-1.659-1.353-2.618-0.396-0.957,0.957l3.468,2.832l-0.004,1.413l-4.243-3.468c-1.676-1.368-2.632-0.411-0.958,0.956
			l5.196,4.245l-0.009,3.318l-2.719-3.961l-0.801,2.033l-2.154-0.337l2.047,4.35l-2.872-1.666l-1.044-6.63
			c-0.336-2.13-1.644-1.786-1.31,0.344l0.854,5.411l-1.222-0.71l-0.695-4.417c-0.334-2.122-1.642-1.771-1.31,0.344l0.506,3.206
			l-1.158-0.672l-0.357-2.265c-0.346-2.197-1.653-1.847-1.31,0.344l0.166,1.054l-1.438-0.837c0.104-0.665-0.149-1.323-0.701-1.645
			c-0.553-0.313-1.247-0.217-1.771,0.209c-1.668-0.972-2.399,0.284-0.73,1.256c-0.104,0.665,0.149,1.315,0.701,1.637
			c0.553,0.321,1.248,0.217,1.773-0.202l1.437,0.838l-0.996,0.373c-2.074,0.785-1.723,2.093,0.352,1.309l2.145-0.815l1.157,0.673
			l-3.034,1.151c-2.003,0.762-1.656,2.07,0.349,1.308l4.188-1.584l1.22,0.71l-5.121,1.936c-2.02,0.77-1.67,2.077,0.35,1.308
			l6.272-2.377l2.872,1.667l-4.791,0.381l1.355,1.704l-1.362,1.704l4.787,0.396l-2.879,1.651l-6.259-2.406
			c-2.018-0.777-2.375,0.53-0.357,1.308l5.112,1.966l-1.224,0.702l-4.178-1.606c-2.003-0.77-2.358,0.538-0.355,1.308l3.027,1.166
			l-1.16,0.665l-2.142-0.83c-2.07-0.792-2.427,0.509-0.356,1.309l0.996,0.381l-1.442,0.83c-0.525-0.419-1.218-0.531-1.771-0.21
			c-0.553,0.314-0.813,0.972-0.71,1.637c-1.672,0.957-0.949,2.22,0.723,1.256c0.523,0.426,1.218,0.53,1.771,0.217
			c0.553-0.321,0.811-0.972,0.71-1.637l1.442-0.829l-0.172,1.053c-0.355,2.19,0.951,2.541,1.308,0.352l0.368-2.265l1.16-0.672
			l-0.521,3.206c-0.344,2.115,0.964,2.466,1.308,0.351l0.717-4.417l1.226-0.702l-0.88,5.403c-0.346,2.13,0.962,2.481,1.308,0.352
			l1.076-6.622l2.879-1.651l-2.07,4.335l2.158-0.321l0.792,2.032l2.739-3.946l-0.009,3.318l-5.217,4.223
			c-1.68,1.354-0.727,2.317,0.955,0.957l4.258-3.445l-0.003,1.412l-3.479,2.818c-1.67,1.345-0.716,2.309,0.953,0.956l2.522-2.032
			l-0.004,1.338l-1.784,1.441c-1.725,1.391-0.773,2.354,0.953,0.957l0.829-0.665l-0.003,1.659c-0.63,0.239-1.069,0.792-1.069,1.428
			c-0.002,0.635,0.434,1.188,1.06,1.435c-0.006,1.929,1.45,1.929,1.454,0c0.629-0.239,1.067-0.784,1.069-1.428
			c0.001-0.635-0.436-1.188-1.062-1.435l0.004-1.659l0.826,0.673c1.719,1.404,2.675,0.448,0.958-0.957l-1.779-1.449l0.002-1.338
			l2.513,2.055c1.661,1.353,2.621,0.396,0.958-0.964l-3.468-2.825l0.003-1.412l4.245,3.46c1.672,1.368,2.631,0.411,0.957-0.957
			l-5.196-4.237l0.007-3.318l2.72,3.954l0.802-2.025l2.156,0.328l-2.048-4.342l2.872,1.667l1.042,6.621
			c0.336,2.138,1.645,1.794,1.308-0.344l-0.85-5.411l1.22,0.71l0.697,4.425c0.333,2.115,1.643,1.771,1.308-0.344l-0.504-3.206
			l1.158,0.673l0.355,2.265c0.346,2.189,1.655,1.846,1.31-0.345l-0.166-1.054l1.438,0.838c-0.104,0.665,0.149,1.314,0.703,1.637
			c0.551,0.32,1.244,0.216,1.77-0.202c1.668,0.972,2.399-0.292,0.73-1.256c0.104-0.665-0.149-1.323-0.703-1.637
			c-0.551-0.321-1.246-0.217-1.771,0.202l-1.437-0.837l0.994-0.382c2.076-0.784,1.725-2.092-0.347-1.3l-2.147,0.807l-1.156-0.673
			l3.032-1.15c2.007-0.755,1.657-2.063-0.348-1.308l-4.185,1.592l-1.222-0.71l5.122-1.943c2.02-0.763,1.67-2.07-0.351-1.308
			l-6.269,2.376l-2.872-1.666l4.789-0.374l-1.356-1.704l1.366-1.704l-4.789-0.396l2.879-1.659l6.259,2.413
			c2.018,0.777,2.373-0.53,0.357-1.308l-5.11-1.966l1.222-0.702l4.178,1.606c2.001,0.771,2.358-0.537,0.355-1.308l-3.027-1.166
			l1.16-0.665l2.141,0.822c2.07,0.8,2.429-0.508,0.357-1.301l-0.996-0.389l1.442-0.821c0.525,0.418,1.218,0.522,1.773,0.209
			c0.551-0.321,0.809-0.972,0.708-1.637c1.674-0.957,0.949-2.22-0.723-1.263c-0.523-0.419-1.216-0.523-1.769-0.21
			c-0.555,0.321-0.813,0.972-0.71,1.637l-1.444,0.83l0.172-1.054c0.357-2.19-0.951-2.541-1.308-0.352l-0.368,2.265l-1.16,0.665
			l0.521-3.199c0.344-2.114-0.962-2.474-1.308-0.351l-0.717,4.417l-1.224,0.702l0.878-5.403c0.348-2.138-0.96-2.488-1.308-0.352
			l-1.074,6.614l-2.881,1.659l2.07-4.334L225.84,320.603L225.84,320.603z M221.618,307.366c0.493,0,0.895,0.352,0.893,0.785
			c0,0.434-0.402,0.784-0.897,0.784c-0.493-0.007-0.895-0.358-0.895-0.784C220.721,307.718,221.123,307.366,221.618,307.366
			L221.618,307.366z M223.021,327.964l1.493-0.852l4.149,0.344l-0.557,0.522l0.555,0.523l-4.15,0.329L223.021,327.964
			L223.021,327.964z M239.428,317.71c0.247,0.426,0.142,0.949-0.232,1.166c-0.375,0.217-0.88,0.037-1.125-0.389
			c-0.247-0.426-0.142-0.949,0.232-1.166C238.678,317.104,239.181,317.276,239.428,317.71L239.428,317.71z M222.292,329.22
			l1.487,0.867l1.775,3.767l-0.73-0.217l-0.179,0.739l-2.356-3.43L222.292,329.22L222.292,329.22z M239.377,338.308
			c-0.249,0.426-0.753,0.598-1.125,0.381c-0.374-0.217-0.477-0.747-0.228-1.173s0.753-0.598,1.127-0.382
			C239.525,337.351,239.625,337.874,239.377,338.308L239.377,338.308z M220.839,329.22l-0.003,1.719l-2.377,3.423l-0.174-0.74
			l-0.734,0.217l1.794-3.759L220.839,329.22L220.839,329.22z M221.517,348.554c-0.495,0-0.895-0.351-0.895-0.784
			c0.002-0.427,0.404-0.777,0.899-0.777s0.895,0.351,0.895,0.784C222.414,348.21,222.012,348.562,221.517,348.554L221.517,348.554z
			 M203.708,338.218c-0.247-0.434-0.142-0.949,0.233-1.166c0.374-0.217,0.878-0.045,1.125,0.389c0.245,0.426,0.14,0.949-0.234,1.166
			C204.457,338.815,203.954,338.644,203.708,338.218L203.708,338.218z M203.758,317.62c0.249-0.426,0.753-0.598,1.125-0.381
			c0.375,0.217,0.476,0.74,0.228,1.166c-0.249,0.434-0.753,0.598-1.127,0.381C203.61,318.569,203.509,318.047,203.758,317.62
			L203.758,317.62z"/>
		<g>
			<g>
				<path fill="#FFFFFF" d="M222.823,283.914c0,0.681-0.551,1.226-1.229,1.226s-1.229-0.545-1.229-1.226
					c0-0.68,0.551-1.232,1.229-1.232S222.823,283.234,222.823,283.914z"/>
				<path fill="#FFFFFF" d="M222.823,263.631c0,0.68-0.551,1.233-1.229,1.233s-1.229-0.554-1.229-1.233s0.551-1.226,1.229-1.226
					S222.823,262.951,222.823,263.631z"/>
				<path fill="#FFFFFF" d="M222.823,243.348c0,0.68-0.551,1.232-1.229,1.232s-1.229-0.553-1.229-1.232
					c0-0.673,0.551-1.226,1.229-1.226S222.823,242.675,222.823,243.348z"/>
				<path fill="#FFFFFF" d="M222.823,223.071c0,0.681-0.551,1.226-1.229,1.226s-1.229-0.545-1.229-1.226
					c0-0.68,0.551-1.233,1.229-1.233S222.823,222.392,222.823,223.071z"/>
				<path fill="#FFFFFF" d="M222.823,203.298c0,0.68-0.551,1.233-1.229,1.233s-1.229-0.553-1.229-1.233
					c0-0.676,0.551-1.226,1.229-1.226S222.823,202.622,222.823,203.298z"/>
				<circle fill="#FFFFFF" cx="221.594" cy="183.53" r="1.229"/>
				<circle fill="#FFFFFF" cx="221.594" cy="163.759" r="1.229"/>
				<path fill="#FFFFFF" d="M222.823,143.987c0,0.68-0.551,1.233-1.229,1.233s-1.229-0.553-1.229-1.233
					c0-0.677,0.551-1.226,1.229-1.226S222.823,143.311,222.823,143.987z"/>
				<circle fill="#FFFFFF" cx="221.594" cy="124.219" r="1.229"/>
			</g>
			<rect x="221.356" y="101.081" fill="#FFFFFF" width="0.475" height="205.561"/>
		</g>
	</g>
	<g opacity="0.7">
		<path fill="#99B5CC" d="M535.717,374.802l-0.553-0.523l4.148-0.329l1.494,0.867l-1.494,0.859l-4.148-0.352L535.717,374.802
			L535.717,374.802z M539.006,369.144l0.18-0.739l2.354,3.43l-0.008,1.727l-1.486-0.867l-1.771-3.767L539.006,369.144
			L539.006,369.144z M542.988,373.561v-1.719l2.377-3.423l0.18,0.747l0.732-0.217l-1.793,3.752L542.988,373.561L542.988,373.561z
			 M546.531,367.462l-0.793-2.032l-2.742,3.945l0.016-3.317l5.209-4.216c1.682-1.36,0.732-2.324-0.949-0.964l-4.26,3.445v-1.412
			l3.482-2.817c1.666-1.346,0.717-2.31-0.949-0.957l-2.525,2.04v-1.338l1.785-1.442c1.727-1.397,0.777-2.361-0.949-0.964
			l-0.83,0.673l0.008-1.667c0.621-0.239,1.063-0.792,1.063-1.428c0.006-0.635-0.434-1.188-1.063-1.435
			c0.008-1.928-1.441-1.928-1.449,0c-0.629,0.239-1.068,0.792-1.068,1.428c0,0.635,0.434,1.188,1.061,1.435v1.659l-0.83-0.673
			c-1.719-1.404-2.676-0.448-0.957,0.957l1.779,1.45l-0.008,1.338l-2.51-2.048c-1.66-1.36-2.617-0.404-0.957,0.956l3.467,2.825
			l-0.006,1.412l-4.238-3.46c-1.674-1.367-2.631-0.411-0.965,0.957l5.203,4.237l-0.008,3.325l-2.721-3.961l-0.807,2.025
			l-2.152-0.328l2.047,4.342l-2.869-1.667l-1.047-6.621c-0.336-2.138-1.645-1.794-1.309,0.344l0.854,5.411l-1.219-0.71l-0.695-4.425
			c-0.336-2.115-1.645-1.771-1.316,0.352l0.51,3.198l-1.158-0.673l-0.359-2.264c-0.344-2.19-1.652-1.847-1.309,0.344l0.164,1.054
			l-1.434-0.837c0.104-0.666-0.15-1.315-0.703-1.637c-0.553-0.322-1.24-0.217-1.771,0.201c-1.666-0.972-2.398,0.292-0.732,1.256
			c-0.104,0.665,0.158,1.322,0.703,1.645c0.553,0.313,1.248,0.217,1.779-0.21l1.434,0.837l-0.994,0.382
			c-2.076,0.784-1.727,2.093,0.344,1.308l2.146-0.814l1.158,0.673l-3.035,1.15c-2.002,0.755-1.652,2.063,0.352,1.308l4.186-1.592
			l1.225,0.71l-5.127,1.943c-2.018,0.77-1.666,2.078,0.352,1.308l6.271-2.376l2.869,1.666l-4.791,0.374l1.361,1.712l-1.369,1.696
			l4.791,0.403l-2.877,1.651l-6.264-2.414c-2.018-0.77-2.369,0.531-0.357,1.309l5.111,1.965l-1.219,0.711l-4.178-1.615
			c-2.002-0.77-2.361,0.539-0.357,1.309l3.025,1.166l-1.158,0.665l-2.145-0.822c-2.07-0.8-2.422,0.508-0.352,1.308l0.994,0.381
			l-1.441,0.83c-0.523-0.426-1.219-0.53-1.771-0.217c-0.553,0.321-0.814,0.972-0.711,1.637c-1.674,0.957-0.949,2.22,0.725,1.263
			c0.523,0.419,1.219,0.531,1.771,0.21c0.553-0.314,0.809-0.972,0.711-1.637l1.441-0.83l-0.172,1.054
			c-0.357,2.19,0.949,2.541,1.309,0.352l0.365-2.265l1.16-0.665l-0.516,3.198c-0.346,2.123,0.955,2.475,1.307,0.352l0.717-4.417
			l1.219-0.702l-0.873,5.411c-0.352,2.13,0.955,2.481,1.307,0.351l1.076-6.621l2.877-1.659l-2.07,4.342l2.16-0.321l0.793,2.033
			l2.734-3.946l-0.006,3.318l-5.217,4.215c-1.682,1.36-0.725,2.317,0.955,0.964l4.262-3.445l-0.008,1.413l-3.482,2.81
			c-1.668,1.354-0.711,2.31,0.955,0.965l2.52-2.041v1.338l-1.787,1.442c-1.727,1.397-0.77,2.354,0.957,0.964l0.83-0.672
			l-0.008,1.666c-0.627,0.239-1.068,0.785-1.068,1.428c0,0.635,0.434,1.188,1.061,1.428c-0.008,1.928,1.451,1.936,1.457,0.007
			c0.629-0.246,1.063-0.792,1.07-1.427c0-0.643-0.441-1.188-1.063-1.436v-1.659l0.83,0.673c1.711,1.397,2.676,0.441,0.957-0.957
			l-1.779-1.449v-1.338l2.512,2.048c1.666,1.36,2.623,0.403,0.957-0.957l-3.461-2.832v-1.413l4.244,3.468
			c1.676,1.368,2.631,0.411,0.957-0.956l-5.193-4.245l0.008-3.318l2.719,3.961l0.801-2.025l2.152,0.329l-2.049-4.35l2.879,1.666
			l1.039,6.63c0.336,2.137,1.643,1.786,1.307-0.344l-0.852-5.411l1.225,0.71l0.695,4.417c0.33,2.122,1.645,1.778,1.309-0.344
			l-0.5-3.206l1.15,0.672l0.359,2.272c0.344,2.189,1.65,1.846,1.307-0.344l-0.164-1.054l1.436,0.829
			c-0.105,0.665,0.156,1.323,0.701,1.645c0.555,0.321,1.248,0.217,1.771-0.202c1.668,0.964,2.4-0.291,0.732-1.263
			c0.105-0.665-0.148-1.315-0.701-1.637c-0.555-0.321-1.248-0.217-1.771,0.201l-1.436-0.829l0.994-0.381
			c2.078-0.785,1.727-2.093-0.352-1.308l-2.145,0.814l-1.158-0.673l3.033-1.151c2.004-0.762,1.66-2.07-0.352-1.308l-4.184,1.592
			l-1.219-0.71l5.119-1.943c2.025-0.77,1.674-2.077-0.352-1.308l-6.27,2.377l-2.871-1.667l4.791-0.374l-1.352-1.711l1.359-1.704
			l-4.783-0.396l2.877-1.651l6.256,2.406c2.018,0.777,2.377-0.53,0.359-1.308l-5.113-1.966l1.227-0.702l4.178,1.606
			c2.002,0.771,2.354-0.53,0.352-1.3l-3.027-1.166l1.166-0.665l2.137,0.821c2.07,0.793,2.43-0.508,0.359-1.308l-0.994-0.381
			l1.443-0.829c0.523,0.426,1.217,0.53,1.771,0.209c0.553-0.314,0.807-0.965,0.709-1.63c1.666-0.964,0.941-2.227-0.725-1.263
			c-0.523-0.426-1.219-0.53-1.771-0.209c-0.553,0.313-0.814,0.972-0.711,1.637l-1.441,0.822l0.172-1.047
			c0.352-2.197-0.957-2.541-1.309-0.352l-0.365,2.265l-1.166,0.665l0.523-3.206c0.344-2.114-0.965-2.466-1.309-0.351l-0.717,4.424
			L551,368.965l0.883-5.411c0.344-2.13-0.965-2.481-1.309-0.352l-1.076,6.622l-2.877,1.651l2.063-4.335L546.531,367.462
			L546.531,367.462z M542.309,354.227c0.494,0,0.896,0.352,0.896,0.784c-0.008,0.434-0.402,0.777-0.896,0.777
			c-0.5,0-0.896-0.351-0.896-0.784S541.814,354.227,542.309,354.227L542.309,354.227z M543.713,374.824l1.488-0.859l4.154,0.344
			l-0.561,0.522l0.561,0.531l-4.154,0.321L543.713,374.824L543.713,374.824z M560.119,364.563c0.246,0.434,0.141,0.957-0.232,1.166
			c-0.373,0.217-0.883,0.045-1.129-0.381c-0.238-0.434-0.143-0.957,0.232-1.166C559.371,363.965,559.871,364.137,560.119,364.563
			L560.119,364.563z M542.98,376.079l1.488,0.867l1.779,3.767l-0.732-0.225l-0.18,0.748l-2.355-3.431V376.079L542.98,376.079z
			 M560.066,385.16c-0.246,0.426-0.748,0.598-1.121,0.381c-0.375-0.217-0.479-0.74-0.232-1.166c0.254-0.426,0.756-0.598,1.129-0.381
			S560.32,384.734,560.066,385.16L560.066,385.16z M541.531,376.079l-0.008,1.72l-2.377,3.422l-0.172-0.747l-0.732,0.217
			l1.795-3.759L541.531,376.079L541.531,376.079z M542.211,395.414c-0.5,0-0.896-0.352-0.896-0.785s0.404-0.785,0.896-0.777
			c0.494,0,0.896,0.352,0.896,0.785C543.107,395.063,542.705,395.414,542.211,395.414L542.211,395.414z M524.395,385.07
			c-0.24-0.426-0.143-0.949,0.238-1.166c0.375-0.209,0.875-0.037,1.121,0.389c0.248,0.426,0.143,0.949-0.23,1.166
			C525.148,385.676,524.648,385.504,524.395,385.07L524.395,385.07z M524.447,364.48c0.246-0.426,0.754-0.598,1.127-0.381
			c0.375,0.216,0.473,0.739,0.225,1.165c-0.246,0.427-0.754,0.599-1.121,0.382C524.305,365.43,524.199,364.906,524.447,364.48
			L524.447,364.48z"/>
		<g>
			<g>
				<path fill="#99B5CC" d="M543.512,330.767c0,0.681-0.545,1.233-1.225,1.233c-0.682,0-1.234-0.553-1.234-1.233
					c0-0.673,0.553-1.226,1.234-1.226C542.967,329.541,543.512,330.094,543.512,330.767z"/>
				<path fill="#99B5CC" d="M543.512,310.49c0,0.681-0.545,1.227-1.225,1.227c-0.682,0-1.234-0.546-1.234-1.227
					c0-0.68,0.553-1.232,1.234-1.232C542.967,309.258,543.512,309.811,543.512,310.49z"/>
				<path fill="#99B5CC" d="M543.512,290.207c0,0.68-0.545,1.226-1.225,1.226c-0.682,0-1.234-0.546-1.234-1.226
					s0.553-1.233,1.234-1.233C542.967,288.974,543.512,289.527,543.512,290.207z"/>
				<path fill="#99B5CC" d="M543.512,269.924c0,0.68-0.545,1.232-1.225,1.232c-0.682,0-1.234-0.553-1.234-1.232
					c0-0.681,0.553-1.226,1.234-1.226C542.967,268.698,543.512,269.243,543.512,269.924z"/>
				<path fill="#99B5CC" d="M543.512,250.156c0,0.68-0.545,1.226-1.225,1.226c-0.682,0-1.234-0.546-1.234-1.226
					c0-0.681,0.553-1.233,1.234-1.233C542.967,248.923,543.512,249.476,543.512,250.156z"/>
				<path fill="#99B5CC" d="M543.512,230.388c0,0.673-0.545,1.226-1.225,1.226c-0.682,0-1.234-0.553-1.234-1.226
					c0-0.68,0.553-1.232,1.234-1.232C542.967,229.155,543.512,229.708,543.512,230.388z"/>
				<path fill="#99B5CC" d="M543.512,210.615c0,0.68-0.545,1.229-1.225,1.229c-0.682,0-1.234-0.549-1.234-1.229
					s0.553-1.229,1.234-1.229C542.967,209.385,543.512,209.935,543.512,210.615z"/>
				<path fill="#99B5CC" d="M543.512,190.847c0,0.677-0.545,1.226-1.225,1.226c-0.682,0-1.234-0.549-1.234-1.226
					c0-0.68,0.553-1.233,1.234-1.233C542.967,189.614,543.512,190.167,543.512,190.847z"/>
				<path fill="#99B5CC" d="M543.512,171.075c0,0.677-0.545,1.229-1.225,1.229c-0.682,0-1.234-0.553-1.234-1.229
					c0-0.68,0.553-1.229,1.234-1.229C542.967,169.846,543.512,170.395,543.512,171.075z"/>
			</g>
			<rect x="542.047" y="147.94" fill="#99B5CC" width="0.479" height="205.562"/>
		</g>
	</g>
	<g>
		<path fill="#FFFFFF" d="M482.236,270.686l-0.561-0.53l4.154-0.321l1.488,0.867l-1.496,0.852l-4.146-0.344L482.236,270.686
			L482.236,270.686z M485.516,265.028l0.18-0.739l2.355,3.43v1.719l-1.488-0.859l-1.779-3.767L485.516,265.028L485.516,265.028z
			 M489.5,269.445l0.008-1.719l2.377-3.423l0.172,0.739l0.732-0.217l-1.795,3.76L489.5,269.445L489.5,269.445z M493.043,263.347
			l-0.793-2.032l-2.734,3.945l0.006-3.318l5.217-4.223c1.682-1.353,0.725-2.316-0.957-0.956l-4.26,3.438l0.008-1.405l3.482-2.817
			c1.668-1.345,0.711-2.31-0.955-0.956l-2.52,2.032v-1.338l1.787-1.442c1.719-1.39,0.77-2.354-0.957-0.956l-0.83,0.665l0.008-1.659
			c0.627-0.247,1.068-0.792,1.068-1.428c0-0.643-0.434-1.188-1.061-1.435c0.008-1.929-1.451-1.929-1.457,0
			c-0.629,0.239-1.07,0.784-1.07,1.428c0,0.635,0.434,1.188,1.063,1.427v1.667l-0.83-0.673c-1.719-1.405-2.676-0.448-0.957,0.957
			l1.779,1.449v1.338l-2.52-2.055c-1.658-1.353-2.615-0.396-0.955,0.956l3.467,2.833v1.412l-4.244-3.468
			c-1.676-1.36-2.631-0.403-0.957,0.965l5.193,4.237l-0.008,3.318l-2.719-3.954l-0.801,2.025l-2.152-0.328l2.049,4.342l-2.879-1.667
			l-1.039-6.621c-0.336-2.138-1.643-1.794-1.314,0.344l0.859,5.411l-1.227-0.711l-0.693-4.424c-0.338-2.115-1.645-1.771-1.309,0.344
			l0.508,3.206l-1.158-0.673l-0.359-2.265c-0.344-2.189-1.65-1.846-1.307,0.345l0.164,1.053l-1.443-0.837
			c0.105-0.665-0.148-1.315-0.693-1.637c-0.555-0.321-1.248-0.216-1.771,0.202c-1.674-0.972-2.4,0.291-0.732,1.256
			c-0.105,0.665,0.148,1.322,0.701,1.637c0.555,0.321,1.248,0.217,1.771-0.202l1.436,0.837l-0.994,0.374
			c-2.078,0.792-1.727,2.1,0.352,1.315l2.145-0.814l1.158,0.665l-3.033,1.15c-2.004,0.763-1.66,2.07,0.344,1.309l4.191-1.585
			l1.219,0.71l-5.119,1.943c-2.025,0.763-1.674,2.07,0.344,1.308l6.277-2.376l2.871,1.666l-4.791,0.374l1.352,1.704l-1.359,1.704
			l4.783,0.396l-2.877,1.659l-6.256-2.414c-2.018-0.777-2.377,0.531-0.359,1.309l5.113,1.965L478.08,276l-4.178-1.607
			c-2.004-0.77-2.354,0.538-0.352,1.309l3.027,1.166l-1.166,0.665l-2.137-0.822c-2.07-0.8-2.43,0.508-0.359,1.3l0.994,0.389
			l-1.443,0.822c-0.523-0.418-1.217-0.53-1.771-0.209c-0.553,0.321-0.807,0.972-0.709,1.637c-1.666,0.957-0.949,2.22,0.725,1.263
			c0.523,0.419,1.219,0.523,1.771,0.21c0.553-0.322,0.814-0.972,0.709-1.637l1.443-0.83l-0.172,1.054
			c-0.352,2.19,0.949,2.541,1.309,0.352l0.365-2.265l1.166-0.665l-0.523,3.198c-0.344,2.115,0.965,2.475,1.309,0.352l0.717-4.417
			l1.227-0.702l-0.883,5.403c-0.344,2.138,0.965,2.488,1.309,0.351l1.076-6.613l2.877-1.659l-2.07,4.334l2.16-0.313l0.793,2.025
			l2.742-3.946l-0.016,3.326l-5.217,4.215c-1.674,1.36-0.725,2.317,0.957,0.957l4.26-3.438l-0.008,1.413l-3.475,2.81
			c-1.674,1.353-0.717,2.31,0.949,0.964l2.525-2.04l-0.006,1.338l-1.779,1.442c-1.727,1.39-0.777,2.354,0.949,0.957l0.83-0.665
			v1.658c-0.637,0.247-1.07,0.793-1.07,1.428c-0.006,0.643,0.434,1.188,1.055,1.436c0,1.928,1.449,1.936,1.457,0.007
			c0.629-0.246,1.068-0.792,1.068-1.435c0-0.636-0.434-1.181-1.061-1.428v-1.666l0.83,0.672c1.719,1.405,2.676,0.449,0.955-0.956
			l-1.777-1.45v-1.338l2.518,2.056c1.66,1.353,2.617,0.396,0.957-0.957l-3.467-2.832v-1.413l4.244,3.468
			c1.674,1.368,2.631,0.411,0.957-0.956l-5.195-4.245l0.008-3.318l2.721,3.961l0.801-2.033l2.158,0.329l-2.047-4.342l2.869,1.666
			l1.047,6.629c0.336,2.131,1.645,1.787,1.309-0.344l-0.854-5.41l1.219,0.702l0.695,4.425c0.336,2.122,1.645,1.771,1.309-0.344
			l-0.502-3.207l1.158,0.673l0.352,2.265c0.352,2.189,1.66,1.846,1.316-0.344l-0.172-1.054l1.441,0.837
			c-0.104,0.665,0.15,1.323,0.703,1.637c0.553,0.321,1.24,0.217,1.771-0.202c1.666,0.972,2.398-0.283,0.725-1.255
			c0.105-0.665-0.15-1.315-0.703-1.637c-0.545-0.321-1.24-0.217-1.771,0.201l-1.434-0.837l0.994-0.374
			c2.076-0.792,1.727-2.092-0.344-1.308l-2.152,0.815l-1.152-0.673l3.027-1.151c2.01-0.762,1.66-2.07-0.344-1.308l-4.186,1.584
			l-1.225-0.71l5.127-1.943c2.018-0.762,1.666-2.069-0.352-1.308l-6.271,2.384l-2.869-1.666l4.783-0.381l-1.354-1.704l1.369-1.704
			l-4.791-0.396l2.877-1.651l6.264,2.406c2.018,0.777,2.369-0.53,0.35-1.308l-5.104-1.966l1.219-0.702l4.178,1.606
			c2.002,0.77,2.361-0.538,0.357-1.308l-3.025-1.166l1.158-0.665l2.137,0.829c2.07,0.793,2.43-0.516,0.359-1.308l-0.994-0.381
			l1.441-0.83c0.523,0.419,1.219,0.531,1.771,0.21c0.553-0.314,0.807-0.972,0.711-1.637c1.674-0.957,0.949-2.22-0.725-1.256
			c-0.523-0.426-1.219-0.531-1.771-0.217c-0.553,0.321-0.809,0.972-0.711,1.637l-1.441,0.829l0.172-1.054
			c0.357-2.189-0.949-2.541-1.309-0.351l-0.365,2.265l-1.16,0.672l0.516-3.206c0.344-2.115-0.955-2.466-1.307-0.351l-0.719,4.416
			l-1.217,0.703l0.873-5.403c0.352-2.138-0.955-2.489-1.307-0.352l-1.076,6.622l-2.877,1.651l2.07-4.335L493.043,263.347
			L493.043,263.347z M488.82,250.111c0.492,0,0.896,0.351,0.896,0.777c0,0.434-0.404,0.784-0.896,0.784
			c-0.494,0-0.896-0.351-0.896-0.784S488.326,250.104,488.82,250.111L488.82,250.111z M490.225,270.701l1.494-0.853l4.148,0.344
			l-0.553,0.523l0.553,0.53l-4.148,0.322L490.225,270.701L490.225,270.701z M506.629,260.447c0.248,0.434,0.143,0.949-0.23,1.166
			c-0.375,0.217-0.875,0.045-1.121-0.389c-0.248-0.426-0.143-0.949,0.23-1.166C505.883,259.842,506.383,260.021,506.629,260.447
			L506.629,260.447z M489.5,271.964l1.486,0.859l1.771,3.767l-0.732-0.217l-0.18,0.74l-2.354-3.431L489.5,271.964L489.5,271.964z
			 M506.584,281.045c-0.254,0.426-0.754,0.598-1.129,0.381c-0.373-0.217-0.477-0.74-0.223-1.166
			c0.246-0.434,0.746-0.605,1.121-0.381C506.727,280.096,506.832,280.611,506.584,281.045L506.584,281.045z M488.043,271.956v1.727
			l-2.377,3.416l-0.18-0.74l-0.732,0.217l1.793-3.759L488.043,271.956L488.043,271.956z M488.723,291.299
			c-0.494-0.008-0.896-0.352-0.896-0.785s0.402-0.785,0.896-0.785c0.5,0,0.896,0.352,0.896,0.785S489.215,291.299,488.723,291.299
			L488.723,291.299z M470.912,280.955c-0.246-0.426-0.141-0.949,0.232-1.166s0.883-0.045,1.129,0.389
			c0.238,0.426,0.135,0.949-0.24,1.166C471.66,281.561,471.16,281.381,470.912,280.955L470.912,280.955z M470.965,260.357
			c0.246-0.426,0.748-0.598,1.121-0.381s0.479,0.739,0.232,1.173c-0.254,0.426-0.756,0.598-1.129,0.382
			C470.816,261.314,470.711,260.791,470.965,260.357L470.965,260.357z"/>
		<g>
			<g>
				<path fill="#FFFFFF" d="M490.031,226.651c0,0.68-0.555,1.233-1.234,1.233s-1.225-0.554-1.225-1.233
					c0-0.681,0.545-1.226,1.225-1.226S490.031,225.971,490.031,226.651z"/>
				<path fill="#FFFFFF" d="M490.031,206.37c0,0.68-0.555,1.233-1.234,1.233s-1.225-0.553-1.225-1.233
					c0-0.676,0.545-1.226,1.225-1.226S490.031,205.693,490.031,206.37z"/>
				<path fill="#FFFFFF" d="M490.031,186.09c0,0.68-0.555,1.229-1.234,1.229s-1.225-0.549-1.225-1.229
					c0-0.676,0.545-1.229,1.225-1.229S490.031,185.414,490.031,186.09z"/>
				<path fill="#FFFFFF" d="M490.031,165.81c0,0.676-0.555,1.226-1.234,1.226s-1.225-0.549-1.225-1.226
					c0-0.68,0.545-1.233,1.225-1.233S490.031,165.13,490.031,165.81z"/>
				<path fill="#FFFFFF" d="M490.031,146.039c0,0.676-0.555,1.229-1.234,1.229s-1.225-0.553-1.225-1.229
					c0-0.68,0.545-1.229,1.225-1.229S490.031,145.358,490.031,146.039z"/>
				<path fill="#FFFFFF" d="M490.031,126.267c0,0.68-0.555,1.229-1.234,1.229s-1.225-0.549-1.225-1.229s0.545-1.226,1.225-1.226
					S490.031,125.587,490.031,126.267z"/>
				<path fill="#FFFFFF" d="M490.031,106.499c0,0.68-0.555,1.226-1.234,1.226s-1.225-0.545-1.225-1.226
					c0-0.68,0.545-1.229,1.225-1.229S490.031,105.819,490.031,106.499z"/>
				<path fill="#FFFFFF" d="M490.031,86.728c0,0.68-0.555,1.229-1.234,1.229s-1.225-0.549-1.225-1.229
					c0-0.676,0.545-1.229,1.225-1.229S490.031,86.051,490.031,86.728z"/>
				<path fill="#FFFFFF" d="M490.031,66.956c0,0.68-0.555,1.233-1.234,1.233s-1.225-0.553-1.225-1.233
					c0-0.676,0.545-1.226,1.225-1.226S490.031,66.28,490.031,66.956z"/>
			</g>
			<rect x="488.559" y="43.821" fill="#FFFFFF" width="0.479" height="205.564"/>
		</g>
	</g>
	<g>
		<path fill="#FFFFFF" d="M101.434,226.868l-0.555-0.531l4.15-0.321l1.489,0.867l-1.491,0.852l-4.15-0.344L101.434,226.868
			L101.434,226.868z M104.717,221.211l0.179-0.74l2.356,3.43l-0.004,1.72l-1.489-0.859l-1.775-3.767L104.717,221.211
			L104.717,221.211z M108.703,225.62l0.005-1.72l2.373-3.415l0.175,0.74l0.732-0.217l-1.792,3.759L108.703,225.62L108.703,225.62z
			 M112.247,219.523l-0.794-2.029l-2.737,3.948l0.008-3.324l5.214-4.215c1.682-1.36,0.731-2.321-0.951-0.961l-4.26,3.442
			l0.002-1.413l3.481-2.813c1.67-1.349,0.715-2.306-0.953-0.96l-2.522,2.04l0.002-1.337l1.786-1.443
			c1.725-1.394,0.772-2.354-0.955-0.964l-0.826,0.672l0.004-1.667c0.627-0.239,1.065-0.785,1.068-1.424
			c0-0.639-0.435-1.188-1.061-1.431c0.003-1.932-1.45-1.936-1.456-0.007c-0.626,0.243-1.067,0.792-1.067,1.427
			c0,0.639,0.434,1.188,1.061,1.435l-0.003,1.663l-0.826-0.676c-1.719-1.401-2.676-0.445-0.957,0.957l1.777,1.454l-0.003,1.338
			l-2.513-2.052c-1.659-1.356-2.62-0.4-0.957,0.957l3.468,2.833l-0.004,1.409l-4.245-3.464c-1.674-1.368-2.63-0.411-0.957,0.957
			l5.194,4.241l-0.007,3.32l-2.719-3.959l-0.802,2.029l-2.156-0.333l2.049,4.348l-2.872-1.666l-1.044-6.628
			c-0.336-2.133-1.646-1.786-1.31,0.344l0.852,5.409l-1.222-0.71l-0.695-4.415c-0.333-2.122-1.64-1.775-1.308,0.344l0.504,3.206
			l-1.158-0.672l-0.355-2.268c-0.348-2.193-1.656-1.846-1.31,0.344l0.167,1.054l-1.439-0.833c0.105-0.665-0.149-1.323-0.702-1.644
			c-0.551-0.317-1.245-0.217-1.771,0.206c-1.667-0.968-2.399,0.288-0.729,1.259c-0.105,0.665,0.149,1.315,0.701,1.637
			c0.551,0.321,1.246,0.217,1.773-0.202l1.437,0.833l-0.996,0.377c-2.074,0.783-1.723,2.091,0.352,1.306l2.145-0.813l1.157,0.671
			l-3.034,1.151c-2.005,0.762-1.657,2.07,0.349,1.308l4.188-1.585l1.22,0.711l-5.123,1.936c-2.018,0.77-1.67,2.077,0.351,1.308
			l6.271-2.377l2.874,1.667l-4.791,0.381l1.354,1.704l-1.362,1.704l4.787,0.396l-2.881,1.651l-6.259-2.406
			c-2.016-0.777-2.373,0.53-0.355,1.308l5.112,1.966l-1.226,0.702l-4.176-1.606c-2.003-0.771-2.358,0.538-0.357,1.308l3.027,1.166
			l-1.158,0.665l-2.142-0.829c-2.07-0.793-2.427,0.508-0.357,1.308l0.996,0.381l-1.442,0.829c-0.525-0.418-1.218-0.53-1.771-0.209
			c-0.553,0.314-0.813,0.972-0.71,1.637c-1.674,0.957-0.949,2.22,0.723,1.256c0.523,0.426,1.216,0.53,1.77,0.217
			c0.553-0.321,0.811-0.972,0.71-1.637l1.444-0.83l-0.172,1.055c-0.357,2.189,0.951,2.541,1.306,0.351l0.37-2.265l1.159-0.672
			l-0.52,3.206c-0.344,2.114,0.964,2.466,1.308,0.351l0.718-4.416l1.226-0.703l-0.88,5.403c-0.346,2.13,0.962,2.481,1.306,0.352
			l1.076-6.622l2.881-1.651l-2.07,4.335l2.156-0.321l0.792,2.032l2.739-3.945l-0.007,3.317l-5.217,4.223
			c-1.682,1.354-0.727,2.317,0.953,0.957l4.26-3.445l-0.004,1.412l-3.479,2.817c-1.67,1.346-0.717,2.31,0.953,0.957l2.522-2.033
			l-0.004,1.338l-1.786,1.442c-1.723,1.391-0.773,2.354,0.953,0.957l0.829-0.665l-0.003,1.659c-0.628,0.239-1.067,0.792-1.069,1.428
			c0,0.635,0.434,1.188,1.062,1.435c-0.006,1.928,1.45,1.928,1.453,0c0.628-0.239,1.067-0.785,1.069-1.428
			c0.002-0.635-0.435-1.188-1.061-1.435l0.004-1.659l0.826,0.673c1.719,1.404,2.675,0.448,0.957-0.957l-1.779-1.45l0.004-1.338
			l2.513,2.056c1.661,1.353,2.621,0.396,0.958-0.964l-3.468-2.825l0.004-1.412l4.245,3.46c1.672,1.367,2.631,0.411,0.957-0.957
			l-5.196-4.237l0.007-3.318l2.72,3.954l0.802-2.025l2.156,0.328l-2.048-4.342l2.87,1.667l1.042,6.621
			c0.336,2.138,1.645,1.794,1.31-0.344l-0.85-5.411l1.22,0.71l0.697,4.425c0.333,2.115,1.641,1.771,1.308-0.344l-0.504-3.206
			l1.159,0.673l0.355,2.264c0.344,2.19,1.655,1.847,1.308-0.344l-0.165-1.054l1.439,0.837c-0.104,0.666,0.149,1.315,0.703,1.637
			c0.549,0.322,1.244,0.217,1.769-0.201c1.668,0.972,2.397-0.292,0.731-1.256c0.104-0.665-0.15-1.322-0.703-1.637
			c-0.551-0.321-1.247-0.217-1.771,0.202l-1.438-0.837l0.996-0.382c2.076-0.784,1.725-2.093-0.349-1.3l-2.145,0.807l-1.157-0.673
			l3.033-1.15c2.007-0.755,1.657-2.063-0.348-1.308l-4.185,1.592l-1.222-0.71l5.122-1.943c2.02-0.763,1.67-2.07-0.352-1.308
			l-6.269,2.376l-2.874-1.666l4.791-0.374l-1.356-1.704l1.364-1.704l-4.787-0.396l2.879-1.658l6.259,2.414
			c2.016,0.776,2.373-0.531,0.357-1.309l-5.112-1.965l1.222-0.703l4.179,1.607c2.001,0.77,2.356-0.539,0.355-1.309l-3.027-1.166
			l1.16-0.663l2.141,0.82c2.07,0.8,2.429-0.508,0.355-1.302l-0.994-0.385l1.443-0.826c0.523,0.422,1.218,0.526,1.771,0.213
			c0.553-0.321,0.811-0.972,0.71-1.637c1.674-0.96,0.949-2.22-0.725-1.263c-0.523-0.422-1.214-0.527-1.768-0.209
			c-0.555,0.318-0.813,0.972-0.71,1.637l-1.444,0.83l0.17-1.054c0.358-2.19-0.949-2.541-1.308-0.351l-0.366,2.265l-1.16,0.665
			l0.521-3.199c0.344-2.119-0.964-2.474-1.308-0.355l-0.717,4.419l-1.226,0.702l0.878-5.405c0.348-2.134-0.96-2.485-1.306-0.351
			l-1.074,6.616l-2.881,1.659l2.07-4.336L112.247,219.523L112.247,219.523z M108.024,206.287c0.494,0,0.895,0.352,0.894,0.785
			c0,0.434-0.404,0.781-0.897,0.781c-0.493-0.003-0.897-0.355-0.895-0.785C107.127,206.635,107.529,206.287,108.024,206.287
			L108.024,206.287z M109.425,226.883l1.495-0.852l4.147,0.344l-0.555,0.522l0.555,0.523l-4.149,0.329L109.425,226.883
			L109.425,226.883z M125.834,216.631c0.247,0.426,0.142,0.949-0.232,1.166c-0.375,0.213-0.88,0.037-1.125-0.389
			c-0.247-0.43-0.142-0.953,0.231-1.166C125.083,216.025,125.587,216.197,125.834,216.631L125.834,216.631z M108.697,228.139
			l1.489,0.867l1.775,3.767l-0.73-0.217l-0.18,0.739l-2.358-3.43L108.697,228.139L108.697,228.139z M125.783,237.227
			c-0.249,0.426-0.753,0.598-1.126,0.381s-0.475-0.747-0.228-1.173c0.25-0.427,0.755-0.599,1.128-0.382
			C125.931,236.27,126.032,236.793,125.783,237.227L125.783,237.227z M107.243,228.139l-0.004,1.719l-2.375,3.423l-0.174-0.74
			l-0.734,0.217l1.794-3.759L107.243,228.139L107.243,228.139z M107.923,247.473c-0.495,0-0.895-0.352-0.895-0.784
			c0.002-0.427,0.404-0.777,0.899-0.777s0.895,0.351,0.893,0.784C108.82,247.129,108.418,247.48,107.923,247.473L107.923,247.473z
			 M90.114,237.137c-0.247-0.434-0.142-0.949,0.231-1.166c0.375-0.217,0.878-0.045,1.125,0.389c0.247,0.426,0.142,0.949-0.232,1.166
			C90.863,237.734,90.36,237.563,90.114,237.137L90.114,237.137z M90.164,216.541c0.249-0.426,0.753-0.598,1.125-0.381
			c0.376,0.217,0.477,0.74,0.227,1.166c-0.247,0.43-0.751,0.598-1.125,0.381S89.916,216.967,90.164,216.541L90.164,216.541z"/>
		<g>
			<g>
				<path fill="#FFFFFF" d="M109.228,182.835c0,0.677-0.549,1.226-1.228,1.226s-1.229-0.549-1.229-1.226
					c0-0.68,0.551-1.233,1.229-1.233S109.228,182.155,109.228,182.835z"/>
				<circle fill="#FFFFFF" cx="107.999" cy="162.552" r="1.229"/>
				<path fill="#FFFFFF" d="M109.228,142.268c0,0.68-0.549,1.233-1.228,1.233s-1.229-0.553-1.229-1.233
					c0-0.676,0.551-1.226,1.229-1.226S109.228,141.592,109.228,142.268z"/>
				<circle fill="#FFFFFF" cx="107.999" cy="121.988" r="1.229"/>
				<path fill="#FFFFFF" d="M109.228,102.217c0,0.68-0.549,1.233-1.228,1.233s-1.229-0.553-1.229-1.233
					c0-0.676,0.551-1.226,1.229-1.226S109.228,101.541,109.228,102.217z"/>
				<circle fill="#FFFFFF" cx="107.999" cy="82.449" r="1.229"/>
				<circle fill="#FFFFFF" cx="107.999" cy="62.678" r="1.229"/>
				<path fill="#FFFFFF" d="M109.228,42.906c0,0.68-0.549,1.233-1.228,1.233s-1.229-0.553-1.229-1.233
					c0-0.677,0.551-1.226,1.229-1.226S109.228,42.229,109.228,42.906z"/>
				<circle fill="#FFFFFF" cx="107.999" cy="23.138" r="1.229"/>
			</g>
			<rect x="107.763" fill="#FFFFFF" width="0.475" height="205.563"/>
		</g>
	</g>
</g>
</svg>
